<?xml version="1.0" standalone="no"?>
<!DOCTYPE svg PUBLIC "-//W3C//DTD SVG 1.1//EN" "http://www.w3.org/Graphics/SVG/1.1/DTD/svg11.dtd" >
<svg xmlns="http://www.w3.org/2000/svg" xmlns:xlink="http://www.w3.org/1999/xlink" version="1.1">
<metadata></metadata>
<defs>
<font id="cormorant_garamonditalic" horiz-adv-x="1333" >
<font-face units-per-em="2048" ascent="1638" descent="-410" />
<missing-glyph horiz-adv-x="479" />
<glyph unicode="&#xfb01;" horiz-adv-x="952" d="M889 154q5 5 11 2.5t7.5 -8.5t-2.5 -11q-70 -79 -125.5 -117t-107.5 -38q-53 0 -66 45.5t6 154.5l76 410q18 103 -37.5 123t-320.5 20l-113 -778q-43 -293 -108 -406.5t-191 -113.5q-68 0 -101.5 26t-27.5 62q1 28 22 45.5t52 17.5q30 0 46.5 -18t20.5 -39t16 -39t34 -18 q19 0 31.5 15t27 63t29 129.5t34.5 222.5l105 723q10 76 -8 94t-105 18q-5 0 -6 6.5t1.5 12.5t6.5 6q73 0 105 20t39 72q26 146 64.5 257t82 181.5t97.5 114t107.5 61t115.5 17.5q97 0 148.5 -38.5t43.5 -92.5q-12 -62 -65 -62q-26 0 -42 16.5t-25 40.5t-19.5 48t-32.5 40.5 t-56 16.5q-106 0 -185 -141.5t-120 -415.5l-18 -125q163 1 302 9t157 8q24 0 26 -14.5t-9 -69.5q-12 -63 -19 -109l-74 -416q-20 -119 31 -119q48 0 139 91z" />
<glyph unicode="&#xfb02;" horiz-adv-x="1011" d="M1006 1522l-250 -1340q-23 -119 35 -119q43 0 135 95q5 5 11 2.5t7.5 -8.5t-2.5 -11q-73 -82 -125.5 -120.5t-105.5 -38.5t-67 45.5t7 154.5l209 1123q-28 63 -81.5 107t-116.5 44q-107 0 -186 -143t-122 -414l-18 -127q87 2 211 12q18 0 14 -18q-6 -21 -27.5 -45.5 t-41.5 -20.5q-12 2 -45 7t-62 8.5t-57 5.5l-111 -764q-43 -293 -108 -406.5t-191 -113.5q-68 0 -101.5 26t-27.5 62q1 28 22 45.5t52 17.5q30 0 46.5 -18t20.5 -39t16 -39t34 -18q19 0 31.5 15t27 63t29 129.5t34.5 222.5l105 723q10 76 -8 94t-105 18q-5 0 -6 6.5t1.5 12.5 t6.5 6q73 0 105 20t39 72q41 235 109 376t155.5 198t210.5 57q122 0 209 -60q44 28 59 97q1 5 7 5.5t11.5 -2t4.5 -5.5z" />
<glyph unicode="&#xfb03;" horiz-adv-x="1458" d="M1395 154q5 5 11 2.5t7.5 -8.5t-2.5 -11q-70 -79 -125.5 -117t-107.5 -38q-53 0 -66 45.5t6 154.5l76 410q18 103 -37.5 123t-320.5 20l-113 -778q-43 -293 -108 -406.5t-191 -113.5q-68 0 -101.5 26t-27.5 62q1 28 22 45.5t52 17.5q30 0 46 -18t20 -39t16 -39t34 -18 q25 0 41.5 31.5t35.5 122.5t46 276l105 723q7 62 -8 76.5t-84 17.5q-94 6 -291 6l-113 -770q-43 -293 -108 -406.5t-191 -113.5q-68 0 -101.5 26t-27.5 62q1 28 22 45.5t52 17.5q30 0 46.5 -18t20.5 -39t16 -39t34 -18q19 0 31.5 15t27 63t29 129.5t34.5 222.5l105 723 q10 76 -8 94t-105 18q-5 0 -6 6.5t1.5 12.5t6.5 6q73 0 105 20t39 72q56 276 167.5 394t282.5 118q117 0 213 -57q116 176 309 176q97 0 149 -38.5t44 -92.5q-12 -62 -66 -62q-31 0 -49.5 25.5t-26.5 55.5t-32.5 55.5t-65.5 25.5q-106 0 -185 -141.5t-120 -415.5l-18 -125 q163 1 301.5 9t156.5 8q24 0 26 -14.5t-9 -69.5q-4 -19 -6 -31t-6 -34.5t-7 -43.5l-73 -416q-20 -119 30 -119q49 0 140 91zM354 899l-18 -131q225 0 293 2q78 3 104 45q9 14 12 41q38 203 93 332q-29 64 -83 106.5t-118 42.5q-100 0 -172.5 -111.5t-110.5 -326.5z" />
<glyph unicode="&#xfb04;" horiz-adv-x="1517" d="M1511 1522l-249 -1340q-23 -119 34 -119q44 0 136 95q5 5 11 2.5t7.5 -8.5t-2.5 -11q-73 -82 -125.5 -120.5t-105.5 -38.5t-67 45.5t7 154.5l209 1123q-28 63 -82 107t-117 44q-107 0 -185.5 -142.5t-121.5 -414.5l-18 -127q87 2 211 12q18 0 14 -18q-5 -21 -27.5 -45.5 t-42.5 -20.5q-13 2 -45 7t-61 8.5t-57 5.5l-111 -764q-43 -293 -108 -406.5t-191 -113.5q-68 0 -101.5 26t-27.5 62q1 28 22 45.5t52 17.5q30 0 46 -18t20 -39t16 -39t34 -18q25 0 41.5 31.5t35.5 122.5t46 276l105 723q7 62 -8 76.5t-84 17.5q-94 6 -291 6l-113 -770 q-43 -293 -108 -406.5t-191 -113.5q-68 0 -101.5 26t-27.5 62q1 28 22 45.5t52 17.5q30 0 46.5 -18t20.5 -39t16 -39t34 -18q19 0 31.5 15t27 63t29 129.5t34.5 222.5l105 723q10 76 -8 94t-105 18q-5 0 -6 6.5t1.5 12.5t6.5 6q73 0 105 20t39 72q56 276 167.5 394 t282.5 118q116 0 209 -55q112 174 322 174q122 0 209 -60q44 28 59 97q1 5 7 5.5t11 -2t4 -5.5zM354 899l-18 -131q225 0 293 2q78 3 104 45q9 14 12 41q39 211 91 336q-29 63 -83 104t-116 41q-100 0 -172.5 -111.5t-110.5 -326.5z" />
<glyph horiz-adv-x="0" />
<glyph horiz-adv-x="682" />
<glyph horiz-adv-x="0" />
<glyph horiz-adv-x="0" />
<glyph unicode="&#xd;" horiz-adv-x="479" />
<glyph unicode=" "  horiz-adv-x="479" />
<glyph unicode="&#x09;" horiz-adv-x="479" />
<glyph unicode="&#xa0;" horiz-adv-x="479" />
<glyph unicode="!" horiz-adv-x="448" d="M231 391q-1 -7 -7 -8.5t-11 1.5t-4 9q3 21 14.5 116.5t16 132t14.5 122.5t14.5 137t11 122.5t10 132t5.5 116.5q0 8 28 16t58 8q21 0 41.5 -4t32 -9.5t10.5 -10.5q-97 -278 -234 -881zM164 -20q-41 0 -64.5 23t-23.5 63q0 39 23.5 61.5t64.5 22.5t63.5 -22.5t22.5 -61.5 q0 -40 -22.5 -63t-63.5 -23z" />
<glyph unicode="&#x22;" horiz-adv-x="655" d="M176 623l88 624q1 27 77 52q64 20 79 10q3 -1 2 -4l-223 -678q-1 -4 -6.5 -6t-11 -1.5t-5.5 3.5zM473 623l88 624q1 27 77 52q64 20 79 10q3 -1 2 -4l-223 -678q-1 -4 -6.5 -6t-11 -1.5t-5.5 3.5z" />
<glyph unicode="#" horiz-adv-x="890" d="M842 643q4 0 5 -20t-1.5 -40t-7.5 -20h-150l-110 -325h127q5 0 5.5 -20.5t-2 -41t-6.5 -20.5h-151l-109 -324q-1 -3 -7.5 -3.5t-15.5 1.5t-17.5 5t-14 6.5t-4.5 6.5l102 308h-243l-109 -324q-1 -3 -7.5 -3.5t-15.5 1.5t-17.5 5t-14 6.5t-4.5 6.5l102 308h-121q-7 0 -7 41 t7 41h148l110 325h-120q-7 0 -7 40t7 40h147l115 346q2 10 37 -4q23 -10 22 -16l-108 -326h243l115 346q2 10 37 -4q23 -10 22 -16l-108 -326h127zM512 238l111 325h-244l-111 -325h244z" />
<glyph unicode="$" horiz-adv-x="768" d="M678 934q16 -10 20.5 -16t3.5 -19l-18 -180q-1 -5 -6 -6t-9.5 1.5t-4.5 8.5q0 44 -17 90.5t-54.5 85t-86.5 49.5l-70 -399l27 -19q21 -13 34 -21.5t33 -22t32 -24.5t27.5 -26.5t24.5 -29.5t18 -33t12 -38t3.5 -42.5t-4.5 -48.5q-19 -104 -102.5 -179t-204.5 -88l-33 -188 q-2 -9 -12.5 -11t-20 2t-8.5 13l33 182h-4q-126 0 -209 74q-15 9 -12 39l16 203q0 9 10 9t10 -9q3 -105 57.5 -186.5t137.5 -94.5l76 436l-21 15q-22 14 -33.5 22t-31.5 22.5t-30.5 24.5t-26 26t-23.5 29.5t-16.5 32t-11.5 37t-3 41t4 47.5q19 103 100.5 166.5t186.5 71.5 l31 172q2 9 13 11t20 -3t6 -14l-29 -164q88 -3 166 -49zM291 780q-12 -68 17 -115.5t91 -91.5l68 379q-70 -1 -117 -49t-59 -123zM528 190q14 77 -17 131t-97 101l-72 -414q65 3 117.5 47.5t68.5 134.5z" />
<glyph unicode="%" horiz-adv-x="1062" d="M317 621q-96 0 -145 76.5t-29 189.5q19 108 96 184t173 76q95 0 143 -77t27 -189q-20 -110 -95.5 -185t-169.5 -75zM127 -12q-3 -3 -14.5 2t-20.5 12.5t-6 11.5l879 1114q4 4 15.5 -1.5t20 -14t5.5 -12.5zM336 645q41 0 69 30.5t41.5 75t24.5 115.5q21 126 1.5 191 t-77.5 65q-110 0 -143 -229q-11 -71 -10 -126t25 -88.5t69 -33.5zM719 -10q-96 0 -146 77.5t-30 188.5q19 109 95 185.5t171 76.5t144 -78t28 -188q-21 -112 -94.5 -187t-167.5 -75zM735 16q32 0 55.5 16t38.5 48t24.5 69t16.5 89q21 126 1.5 190t-76.5 64q-108 0 -144 -228 q-11 -71 -10 -126t25 -88.5t69 -33.5z" />
<glyph unicode="&#x26;" horiz-adv-x="1538" d="M1491 778q51 0 51 -63q0 -79 -61 -144t-142 -65q-59 0 -147 43q-37 -281 -188 -427.5t-373 -146.5q-120 0 -220 50.5t-161.5 133t-86 191t-1.5 219.5q36 164 168.5 273.5t279.5 109.5q103 0 168 -57q123 136 123 240q0 37 -12.5 61.5t-27.5 34t-27.5 26.5t-12.5 41 q0 31 18.5 49.5t47.5 18.5q45 0 73.5 -41t28.5 -108q0 -52 -20.5 -107.5t-50.5 -104.5t-82 -106t-98 -100.5t-115.5 -100.5t-117 -93.5t-121 -92t-110.5 -84.5q32 -166 152.5 -269.5t271.5 -103.5q186 0 310 131t151 377q-8 4 -54 28.5t-62 32t-50.5 22.5t-59 20.5 t-48.5 5.5q-30 0 -47 -12.5t-17 -30.5q0 -22 16.5 -57t16.5 -54q0 -18 -12 -33.5t-37 -15.5q-55 0 -55 66q0 81 72.5 145.5t160.5 64.5q48 0 112 -24.5t116 -54t111.5 -54t98.5 -24.5q27 0 44.5 11.5t17.5 27.5q0 17 -22.5 49t-22.5 55q0 47 53 47zM274 635q-15 -91 -6 -174 q34 27 123 95.5t157.5 124.5t125.5 107q-52 109 -168 109q-80 0 -143 -75t-89 -187z" />
<glyph unicode="'" horiz-adv-x="264" d="M133 623l88 624q1 27 77 52q64 20 79 10q3 -1 2 -4l-223 -678q-1 -4 -6.5 -6t-11 -1.5t-5.5 3.5z" />
<glyph unicode="(" horiz-adv-x="573" d="M397 -240q-163 111 -223 341t-8 522q52 290 193.5 521.5t340.5 340.5q8 4 14 -8q4 -7 -1 -9q-162 -146 -264 -354.5t-152 -490.5q-95 -542 115 -846q3 -5 -4 -12.5t-11 -4.5z" />
<glyph unicode=")" horiz-adv-x="573" d="M258 1485q164 -111 223.5 -341t7.5 -521t-193.5 -522.5t-340.5 -340.5q-4 -2 -8.5 1.5t-5.5 8t2 7.5q315 283 415 846q95 543 -114 845q-3 5 3.5 12.5t10.5 4.5z" />
<glyph unicode="*" horiz-adv-x="917" d="M543 1083v265q0 27 77 51q65 20 80 11q3 -2 2 -5l-137 -322q-1 -6 -11.5 -6t-10.5 6zM498 1047l-250 79q-27 10 -23 101q2 65 14 70q2 0 3 -1l264 -231q5 -3 1.5 -11t-9.5 -7zM944 999l-348 31q-5 0 -7.5 10t1.5 11l252 82q26 8 72 -59q38 -54 34 -72q0 -3 -4 -3z M367 780q-16 -24 -100 7q-60 22 -65 36l1 4l301 179q4 4 11.5 -2t4.5 -11zM637 645l-78 340q-2 3 1.5 7t8.5 6.5t6 0.5l158 -213q16 -24 -40 -94q-38 -49 -53 -50q-2 0 -3 3z" />
<glyph unicode="+" horiz-adv-x="815" d="M745 428q9 0 9 -40t-9 -40h-296v-297q0 -6 -20.5 -8.5t-41 -1t-20.5 5.5v301h-297q-6 0 -8 20t-0.5 40t6.5 20h299v297q0 9 41 9t41 -9v-297h296z" />
<glyph unicode="," horiz-adv-x="458" d="M147 145q61 0 91 -47t16 -135q-16 -92 -75.5 -171.5t-158.5 -158.5q-5 -4 -10.5 0t-6.5 9.5t3 9.5q139 130 160 274q7 45 4 66q-16 -8 -39 -8q-38 0 -60 24.5t-20 59.5q1 37 26.5 57t69.5 20z" />
<glyph unicode="-" horiz-adv-x="624" d="M66 342q-6 -1 -8.5 21t-1.5 45.5t5 25.5l512 94q5 1 7 -21t0.5 -45t-7.5 -24z" />
<glyph unicode="." horiz-adv-x="403" d="M139 -20q-41 0 -64.5 23t-23.5 63q0 39 23.5 61.5t64.5 22.5t63.5 -22.5t22.5 -61.5q0 -40 -22.5 -63t-63.5 -23z" />
<glyph unicode="/" horiz-adv-x="624" d="M-16 -342q-5 -12 -46 5q-24 12 -22 18l786 1816q6 7 22.5 4t31.5 -13t10 -18z" />
<glyph unicode="0" horiz-adv-x="897" d="M375 -27q-164 0 -251.5 121t-53.5 307q32 182 161.5 299t294.5 117t251 -118.5t52 -303.5t-161.5 -303.5t-292.5 -118.5zM403 2q113 0 186.5 100t102.5 269q34 202 -21.5 309.5t-166.5 107.5t-192 -102t-109 -268q-30 -181 23.5 -298.5t176.5 -117.5z" />
<glyph unicode="1" horiz-adv-x="595" d="M29 0q-7 0 -7 12.5t7 12.5q110 0 147.5 26t54.5 115l70 387q8 43 10.5 66t-0.5 42.5t-12.5 24t-31.5 1.5t-51.5 -15t-78.5 -35q-6 -3 -10 1.5t-4 11t6 9.5l309 152q4 3 8 2t6.5 -4t0.5 -6l-115 -637q-5 -45 -6 -72.5t18.5 -42.5t51.5 -20.5t94 -5.5q6 0 6 -12.5t-6 -12.5 q-28 0 -106.5 2t-125.5 2t-127 -2t-108 -2z" />
<glyph unicode="2" horiz-adv-x="743" d="M10 29q269 210 384.5 331.5t131.5 231.5q14 78 -20 129t-105 51q-141 0 -249 -248q-3 -6 -15.5 -1t-9.5 12l119 303q3 6 12 3t8 -10q-17 -55 15 -55q13 0 79.5 20.5t116.5 20.5q94 0 140.5 -57.5t27.5 -151.5q-11 -55 -41.5 -106t-99 -116t-136.5 -120t-202 -157 q-6 -3 -4 -6t8 -3q76 0 121.5 0.5t95.5 2.5t77.5 6t57 11t44.5 16.5t31 24.5t25.5 33t18.5 44q3 7 15 4t10 -11l-66 -213q-4 -18 -18 -18h-562q-9 0 -13 10t3 19z" />
<glyph unicode="3" horiz-adv-x="700" d="M618 578q-15 -97 -81.5 -182.5t-163.5 -127.5q80 -11 129.5 -56t64.5 -106.5t2 -132.5q-14 -72 -59.5 -147t-121 -148t-191.5 -137t-256 -106q-5 -1 -9 5t-4 11.5t2 7.5q100 32 182.5 80t137 99.5t94.5 111t60.5 112.5t29.5 105q11 48 6 93.5t-21 81t-54 57.5t-93 22 q-32 0 -90 -14q-5 -1 -9 6t-3.5 14t4.5 9q151 39 225.5 115t98.5 206q19 100 -10.5 157.5t-108.5 57.5q-163 0 -270 -246q-4 -6 -15.5 -0.5t-9.5 11.5l123 297q3 3 8.5 2.5t10 -5.5t1.5 -10q-22 -49 17 -49q13 0 80.5 22.5t117.5 22.5q104 0 150 -70.5t26 -168.5z" />
<glyph unicode="4" horiz-adv-x="866" d="M739 98q4 -3 3 -24t-7 -45.5t-12 -24.5q-48 4 -152 8l-59 -336q-3 -22 -18 -28l-82 -33q-12 -6 -16 -3.5t-3 15.5l68 387q-129 4 -486 4q-8 0 -11 8t5 17l717 772q5 6 16.5 3.5t8.5 -11.5l-125 -713q47 0 153 4zM84 86q165 0 391 4l94 537l-493 -527q-6 -6 -3.5 -10 t11.5 -4z" />
<glyph unicode="5" horiz-adv-x="765" d="M717 866q3 3 8 3t9.5 -3.5t2.5 -7.5l-61 -141q-11 -24 -23 -30.5t-37 -6.5l-352 -8q-23 0 -35 -31l-79 -240q130 -1 223 -29.5t142.5 -80.5t66.5 -120t2 -153q-32 -170 -178.5 -303t-452.5 -278q-8 -3 -12.5 7.5t2.5 14.5q251 125 367 252.5t141 272.5q27 169 -60 263.5 t-280 94.5q-9 0 -12.5 8t-0.5 17l123 364q3 14 7.5 18t21.5 5q324 41 385.5 56t81.5 56z" />
<glyph unicode="6" horiz-adv-x="860" d="M393 -27q-180 0 -264.5 120t-40.5 333q25 141 95.5 282t175 264t246.5 223.5t302 158.5q7 1 10.5 -10.5t-2.5 -14.5q-190 -88 -342 -234.5t-239.5 -308t-114.5 -323.5q-23 -128 -6.5 -228t80 -161.5t160.5 -61.5q78 0 130.5 58.5t71.5 167.5q20 126 -15.5 205t-129.5 79 q-84 0 -195 -90q-3 -3 -7.5 -1.5t-7.5 6.5t-1 9q123 132 281 132q66 0 113.5 -25.5t68.5 -66t29 -92t-3 -103.5q-23 -132 -138 -225t-257 -93z" />
<glyph unicode="7" horiz-adv-x="792" d="M0 -563q-3 -2 -8 4t-2 10l712 1227q8 14 -6 14q-104 0 -172.5 -0.5t-131.5 -4t-99 -6.5t-69.5 -12t-49.5 -17t-32.5 -25.5t-25 -32.5t-20.5 -43q-2 -4 -8 -4.5t-12 3.5t-4 9l114 291q2 4 8 3.5t12 -3.5t5 -6q-12 -35 1 -44t75 -9h489q8 0 11.5 -9.5t0.5 -17.5l-618 -1215 q-18 -34 -47 -49z" />
<glyph unicode="8" horiz-adv-x="901" d="M604 705q25 -17 38.5 -26.5t37 -26.5t36.5 -29l32.5 -30t30 -34t24 -36.5t19.5 -41t11 -44.5t4 -51t-6 -56q-29 -154 -156.5 -255.5t-279.5 -101.5q-173 0 -263 98.5t-66 233.5q14 82 70.5 161.5t129 135.5t152.5 92q-77 53 -113 107.5t-22 132.5q13 78 65.5 135 t117.5 82t132 25q80 0 137.5 -39t78.5 -92t9 -103q-10 -58 -69 -121t-150 -116zM395 989q-6 -37 2.5 -71t23 -59t45 -53t54.5 -45t64 -44q113 93 127 201q15 90 -28 157.5t-126 67.5q-64 0 -108.5 -41.5t-53.5 -112.5zM707 270q6 34 5.5 65.5t-4 57t-15.5 51t-22 43.5 t-31 40t-34.5 35t-40.5 33t-40.5 29t-43 28.5t-41.5 27.5q-98 -51 -160 -134t-81 -188q-16 -90 8.5 -169t89 -129t156.5 -50t163 70t91 190z" />
<glyph unicode="9" horiz-adv-x="860" d="M-47 -563q-7 -1 -10.5 10t2.5 14q144 66 266.5 168t207.5 219t141.5 239t80.5 241q21 84 12.5 165t-35 144.5t-81.5 102t-127 38.5q-77 0 -130 -49t-73 -151q-25 -124 24.5 -217t143.5 -93q41 0 79.5 21.5t88.5 68.5q6 4 14.5 -1t5.5 -11q-112 -133 -258 -133 q-54 0 -98.5 19.5t-71.5 51.5t-45.5 73t-20.5 83.5t3 83.5q25 123 140 208t257 85q172 0 256 -124t47 -328q-51 -290 -275.5 -551t-543.5 -377z" />
<glyph unicode=":" horiz-adv-x="403" d="M215 555q-41 0 -64.5 23t-23.5 63q0 39 23.5 61.5t64.5 22.5t63.5 -22.5t22.5 -61.5q0 -40 -22.5 -63t-63.5 -23zM139 -20q-41 0 -64.5 23t-23.5 63q0 39 23.5 61.5t64.5 22.5t63.5 -22.5t22.5 -61.5q0 -40 -22.5 -63t-63.5 -23z" />
<glyph unicode=";" horiz-adv-x="454" d="M215 725q41 0 63.5 -22.5t22.5 -61.5q0 -40 -22.5 -63t-63.5 -23t-64.5 23t-23.5 63q0 39 23.5 61.5t64.5 22.5zM147 145q61 0 91 -47t16 -135q-16 -92 -75.5 -171.5t-158.5 -158.5q-5 -4 -10.5 0t-6.5 9.5t3 9.5q139 130 160 274q7 45 4 66q-16 -8 -39 -8 q-38 0 -60 24.5t-20 59.5q1 37 26.5 57t69.5 20z" />
<glyph unicode="&#x3c;" horiz-adv-x="833" d="M758 135q14 -6 13 -52q-2 -35 -13 -32l-684 303q-10 6 -10 36t10 34l684 301q7 4 11 -11q8 -31 -3 -60q-3 -8 -8 -11l-592 -254z" />
<glyph unicode="=" horiz-adv-x="958" d="M70 492q-6 0 -8 20t-0.5 39.5t6.5 19.5h821q9 0 9 -39.5t-9 -39.5h-819zM70 205q-6 0 -8 20t-0.5 40t6.5 20h821q9 0 9 -40t-9 -40h-819z" />
<glyph unicode="&#x3e;" horiz-adv-x="833" d="M760 422q10 -6 10 -36t-10 -34l-684 -301q-7 -4 -11 11q-8 31 3 60q4 8 8 11l592 254l-592 254q-14 6 -13 52q2 35 13 32z" />
<glyph unicode="?" horiz-adv-x="604" d="M281 389q-18 54 -22.5 129t3.5 115q9 54 39.5 97.5t68.5 75t77 64t71 80.5t43 109q15 87 -17.5 139.5t-105.5 52.5q-28 0 -49 -8t-33 -23.5t-18 -29t-12 -33.5q-7 -20 -11 -30t-14 -26.5t-24 -24t-33 -7.5q-32 0 -47 22.5t-9 51.5q7 57 87 97t178 40q123 0 186.5 -65.5 t40.5 -180.5q-5 -25 -14 -49.5t-18 -42.5t-26 -39.5t-26.5 -33.5t-31 -31.5t-29.5 -26.5t-32 -26t-28 -23q-81 -69 -117.5 -125.5t-48.5 -128.5q-10 -40 -6 -117q0 -9 -10.5 -9.5t-11.5 7.5zM229 -20q-41 0 -64.5 23t-23.5 63q0 39 23.5 61.5t64.5 22.5t63.5 -22.5 t22.5 -61.5q0 -40 -22.5 -63t-63.5 -23z" />
<glyph unicode="@" horiz-adv-x="1472" d="M954 104q-70 0 -96 48t-10 131l20 104q-72 -130 -159 -208.5t-164 -78.5q-55 0 -85 40t-20 124q16 109 84.5 218t159.5 177t170 68q63 0 98 -43q30 26 35 57q7 7 30 2q7 -2 7 -4l-84 -458q-15 -59 -1 -97.5t71 -38.5q88 0 164.5 93t76.5 245q0 200 -145 340t-358 140 q-160 0 -277 -76.5t-174 -200.5t-57 -278q0 -245 156 -394t409 -149q98 0 172.5 20t167.5 74q3 2 7 -1.5t5.5 -8t-0.5 -6.5q-181 -142 -418 -142q-166 0 -298 64.5t-211.5 192.5t-79.5 300q0 142 54.5 265.5t146 207t211.5 131.5t249 48q116 0 214 -37.5t163.5 -101.5 t102 -149t36.5 -179q0 -114 -51 -215.5t-137.5 -162.5t-184.5 -61zM600 182q54 0 116.5 56t112 142t68.5 173q11 55 -11 91.5t-75 35.5q-79 -2 -159 -107t-103 -243q-26 -148 51 -148z" />
<glyph unicode="A" horiz-adv-x="1228" d="M1153 25q7 0 7 -12.5t-7 -12.5q-30 0 -98 4t-109 4q-40 0 -103 -4t-95 -4q-6 0 -6 12.5t6 12.5q94 0 118.5 29.5t12.5 117.5l-64 391h-391l-160 -293q-42 -77 -56.5 -126t-1 -75t43.5 -35t84 -9q5 0 6.5 -6.5t-0.5 -12.5t-8 -6q-25 0 -99.5 4t-113.5 4q-41 0 -98 -4 t-91 -4q-8 0 -8 12.5t8 12.5q135 0 267 227l585 1048q5 7 20 4.5t17 -8.5l180 -1124q14 -90 40.5 -118.5t113.5 -28.5zM446 604h363l-82 510z" />
<glyph unicode="B" horiz-adv-x="1067" d="M684 721q157 -13 235 -110.5t52 -241.5q-30 -157 -162 -267t-299 -110q-40 0 -134.5 6t-135.5 6q-44 0 -119.5 -2t-100.5 -2q-6 0 -5.5 12.5t5.5 12.5q101 0 137.5 27.5t51.5 115.5l168 948q14 89 -9.5 114t-123.5 25q-7 0 -6.5 12.5t6.5 12.5q28 0 101 -3t114 -3 q35 0 114.5 6t106.5 6q174 0 245.5 -76.5t45.5 -201.5q-23 -101 -96.5 -174t-190.5 -113zM494 1106l-68 -385q47 -2 82 -2q146 0 232.5 80t109.5 209q22 112 -26.5 180.5t-184.5 68.5q-71 0 -100 -26.5t-45 -124.5zM834 336q27 157 -44 248t-231 92q-62 3 -143 -4l-88 -510 q-11 -49 -2.5 -79t44.5 -43t113 -13q150 0 238.5 83.5t112.5 225.5z" />
<glyph unicode="C" horiz-adv-x="1200" d="M649 -27q-97 0 -177.5 21t-137.5 58.5t-99.5 89t-67 111t-36 127t-10 135t13.5 136.5q26 143 101.5 267t178.5 207t226.5 130.5t247.5 47.5q85 0 168 -19.5t129 -52.5q13 -10 15.5 -18t0.5 -31l-20 -228q-3 -8 -13 -8t-10 8q-28 303 -348 303q-200 0 -343.5 -149 t-184.5 -399q-34 -192 4 -354.5t137 -257.5t238 -95q119 0 229 77t199 230q3 3 8 3t9.5 -3.5t2.5 -7.5l-61 -219q-6 -26 -12 -34.5t-25 -14.5q-180 -60 -363 -60z" />
<glyph unicode="D" horiz-adv-x="1253" d="M483 -8q-31 0 -120.5 6t-131.5 6q-46 0 -115 -2t-93 -2q-6 0 -6 12.5t6 12.5q96 0 128.5 26t47.5 115l168 948q17 88 -6.5 114.5t-118.5 26.5q-4 0 -4 12.5t4 12.5q25 0 97 -3t116 -3q38 0 119.5 5t111.5 5q185 0 316 -81.5t185.5 -223t24.5 -317.5q-35 -199 -148 -354 t-265.5 -235.5t-315.5 -80.5zM471 20q218 0 380 157t212 439q31 174 0.5 318t-126.5 232.5t-245 88.5q-105 0 -148.5 -28.5t-60.5 -116.5l-161 -922q-18 -90 12.5 -129t136.5 -39z" />
<glyph unicode="E" horiz-adv-x="1052" d="M1036 1280q16 0 13 -18q-4 -26 -18.5 -123.5t-20.5 -130.5q-1 -5 -7.5 -6t-12.5 1.5t-5 6.5q12 109 -29.5 174t-126.5 65h-167q-66 0 -97.5 -11t-46.5 -38t-24 -88l-76 -424h289q80 0 118.5 32t51.5 111q2 9 15 6q9 -3 9 -10q-7 -43 -17.5 -91t-13.5 -70 q-4 -27 -12.5 -89.5t-15.5 -101.5q-1 -6 -7.5 -7.5t-12.5 1t-5 8.5q17 91 -11.5 129.5t-113.5 38.5h-280l-84 -471q-14 -86 8 -110.5t113 -24.5h223q78 0 151.5 73.5t114.5 192.5q2 8 17 3q6 -3 6 -7q-33 -103 -64 -270q-5 -31 -33 -31h-831q-5 0 -5 12.5t5 12.5 q96 0 126.5 25.5t47.5 115.5l168 948q15 88 -7.5 114.5t-115.5 26.5q-6 0 -6 12.5t6 12.5h784z" />
<glyph unicode="F" horiz-adv-x="989" d="M1032 1280q16 0 10 -18q-6 -45 -21 -148t-15 -106q-2 -5 -8.5 -6t-12 1.5t-4.5 6.5q12 108 -30 173.5t-126 65.5h-168q-66 0 -98 -11.5t-47 -38t-27 -87.5l-77 -448h264q81 0 118.5 32t51.5 111q1 6 7.5 7t12 -1.5t4.5 -7.5q-7 -45 -16 -95t-12 -69q-7 -36 -17.5 -102.5 t-13.5 -87.5q-2 -6 -8.5 -7t-12 1.5t-4.5 7.5q15 91 -13 129.5t-112 38.5h-258l-77 -447q-7 -39 -7.5 -62t8 -42t33 -27.5t61.5 -13t99 -4.5q4 0 4 -12.5t-4 -12.5q-27 0 -122.5 2t-162.5 2q-41 0 -110 -2t-94 -2q-5 0 -5 12.5t5 12.5q95 0 127 25.5t49 115.5l166 948 q17 87 -6 114t-117 27q-4 0 -4 12.5t4 12.5h786z" />
<glyph unicode="G" horiz-adv-x="1292" d="M676 -25q-201 0 -336 87.5t-185 236.5t-16 336q35 193 153 346t290.5 237.5t367.5 84.5q86 0 161 -19.5t120 -54.5q11 -11 12 -21t-2 -26l-18 -228q-2 -6 -8 -7.5t-11.5 0.5t-5.5 7q-12 148 -97.5 225.5t-232.5 77.5q-228 0 -381 -147.5t-198 -400.5 q-55 -310 69.5 -503.5t370.5 -193.5q66 0 107.5 9.5t74.5 36t52.5 74.5t31.5 126q9 55 12.5 85t0.5 58.5t-12 40.5t-32 21.5t-52.5 11.5t-80.5 2q-10 0 -9.5 16.5t9.5 16.5q195 -16 398 -4q7 0 8 -14.5t-8 -14.5q-22 1 -35 -1t-25.5 -12.5t-19.5 -23.5t-15.5 -44t-15 -64.5 t-16.5 -93.5q-14 -81 -16 -128.5t-3 -52.5q-1 -11 -5.5 -15t-18.5 -9q-220 -58 -383 -58z" />
<glyph unicode="H" horiz-adv-x="1374" d="M1434 1280q4 0 4 -12.5t-4 -12.5q-94 0 -126.5 -26.5t-47.5 -114.5l-168 -948q-15 -89 8 -115t117 -26q6 0 6 -12.5t-6 -12.5q-22 0 -92.5 2t-112.5 2q-43 0 -114 -2t-97 -2q-5 0 -5 12.5t5 12.5q96 0 127.5 25.5t46.5 115.5l84 479h-658l-86 -479q-15 -90 6.5 -115.5 t116.5 -25.5q6 0 6 -12.5t-6 -12.5q-24 0 -95.5 2t-115.5 2q-42 0 -111.5 -2t-92.5 -2q-6 0 -6 12.5t6 12.5q96 0 128.5 26t47.5 115l168 948q15 88 -7.5 114.5t-117.5 26.5q-4 0 -4 12.5t4 12.5q25 0 93.5 -3t110.5 -3q43 0 115.5 3t95.5 3q5 0 5 -12.5t-5 -12.5 q-93 0 -124.5 -27.5t-49.5 -117.5l-75 -422h659l74 422q13 57 6 89.5t-34.5 44t-92.5 11.5q-6 0 -6 12.5t6 12.5q23 0 93 -3t112 -3q41 0 113 3t96 3z" />
<glyph unicode="I" horiz-adv-x="630" d="M41 0q-6 0 -6 12.5t6 12.5q95 0 126 25.5t46 115.5l168 948q17 87 -7 114t-118 27q-6 0 -6 12.5t6 12.5q26 0 95.5 -3t111.5 -3q48 0 119 3t94 3q4 0 4 -12.5t-4 -12.5q-93 0 -124.5 -27.5t-49.5 -117.5l-168 -944q-15 -90 8 -115.5t119 -25.5q5 0 5 -12.5t-5 -12.5 q-25 0 -94.5 2t-116.5 2q-42 0 -112.5 -2t-96.5 -2z" />
<glyph unicode="J" horiz-adv-x="573" d="M-41 -395q-3 -2 -7 2.5t-5.5 10t0.5 9.5q92 55 146.5 166.5t86.5 288.5l182 1032q15 88 -8 114.5t-118 26.5q-4 0 -4 12.5t4 12.5q24 0 93.5 -3t112.5 -3q48 0 119.5 3t93.5 3q6 0 6 -12.5t-6 -12.5q-94 0 -126.5 -28t-47.5 -117l-172 -973q-30 -161 -72.5 -260 t-106.5 -160.5t-171 -111.5z" />
<glyph unicode="K" horiz-adv-x="1218" d="M1268 1280q6 0 6 -12.5t-6 -12.5q-74 0 -161 -35.5t-169 -115.5l-367 -324l205 -366q54 -96 92 -160t70.5 -108t53 -68t45.5 -36t42 -14.5t47 -2.5q6 0 6 -12.5t-6 -12.5h-174h-15q-59 0 -76 10q-21 12 -53 74q-5 11 -18 36q-52 103 -96 183l-219 391l-78 -67l-82 -461 q-20 -89 -4.5 -115t111.5 -26q4 0 4 -12.5t-4 -12.5q-26 0 -88 2t-107 2q-42 0 -111.5 -2t-92.5 -2q-6 0 -6 12.5t6 12.5q96 0 128.5 26t47.5 115l168 948q15 88 -7.5 114.5t-117.5 26.5q-4 0 -4 12.5t4 12.5q25 0 93.5 -3t110.5 -3q43 0 115.5 3t95.5 3q5 0 5 -12.5 t-5 -12.5q-93 0 -124.5 -27.5t-49.5 -117.5l-77 -436l489 442q80 75 76 107t-94 32q-5 0 -5 12.5t5 12.5q23 0 90.5 -3t119.5 -3q49 0 105 3t76 3z" />
<glyph unicode="L" horiz-adv-x="1015" d="M25 0q-5 0 -5 12.5t5 12.5q95 0 127 26t47 115l168 948q15 88 -7.5 114.5t-117.5 26.5q-4 0 -4 12.5t4 12.5q25 0 93.5 -3t110.5 -3q43 0 115.5 3t95.5 3q5 0 5 -12.5t-5 -12.5q-65 0 -97.5 -12t-48.5 -40.5t-28 -90.5l-166 -938q-14 -85 7 -110t110 -25h207 q114 0 188.5 69.5t122.5 202.5q0 4 6.5 4.5t13 -2t5.5 -6.5q-46 -151 -66 -276q-5 -31 -32 -31h-854z" />
<glyph unicode="M" horiz-adv-x="1499" d="M1567 1280q3 0 3 -12.5t-3 -12.5q-86 0 -128 -27.5t-53 -109.5l-141 -952q-12 -90 10 -115.5t115 -25.5q6 0 6 -12.5t-6 -12.5q-23 0 -93.5 2t-115.5 2q-44 0 -113.5 -2t-93.5 -2q-6 0 -6 12.5t6 12.5q97 0 128.5 26t43.5 115l148 975l-598 -1127q-4 -8 -16 -7.5t-13 9.5 l-231 1094l-2 8l-162 -895q-17 -107 5 -152.5t95 -45.5q6 0 6 -12.5t-6 -12.5q-20 0 -71.5 2t-85.5 2q-30 0 -83 -2t-75 -2q-6 0 -6 12.5t6 12.5q72 0 113 46.5t61 151.5l178 963q-41 69 -131 69q-4 0 -4 12.5t4 12.5q18 0 57.5 -2t55.5 -2q25 0 55 2t35 2q24 0 36 -20.5 t27 -85.5l209 -977l545 1032q30 51 65 51q7 0 39.5 -2t49.5 -2q32 0 74.5 2t60.5 2z" />
<glyph unicode="N" d="M1407 1280q5 0 5 -12.5t-5 -12.5q-74 0 -117.5 -46t-60.5 -148l-193 -1081q0 -8 -13 -10t-17 7l-592 1135q-7 14 -13 23l-157 -918q-19 -103 5 -147.5t99 -44.5q4 0 4 -12.5t-4 -12.5q-20 0 -73 2t-89 2q-30 0 -84.5 -2t-76.5 -2q-6 0 -6 12.5t6 12.5q74 0 116.5 45 t59.5 147l172 965q-57 73 -129 73q-6 0 -6 12.5t6 12.5q22 0 69.5 -2t65.5 -2q20 0 53 2t37 2q14 0 19.5 -7.5t16 -39t23.5 -59.5l506 -977l152 864q19 103 -5.5 148.5t-97.5 45.5q-6 0 -6 12.5t6 12.5q18 0 70.5 -3t89.5 -3q31 0 86 3t78 3z" />
<glyph unicode="O" d="M582 -25q-99 0 -181 34t-137.5 95t-91.5 145t-42 183t11 209q33 190 135.5 341.5t250 236t311.5 84.5q103 0 187.5 -34.5t140.5 -95.5t91.5 -144.5t40.5 -181.5t-12 -206q-34 -193 -140.5 -346.5t-255 -236.5t-308.5 -83zM668 29q177 0 304.5 131t176.5 372 q33 151 17.5 282.5t-65 229t-139.5 153.5t-206 56q-183 0 -310 -135t-170 -368q-20 -116 -18 -222t33 -197t81 -158.5t126.5 -105.5t169.5 -38z" />
<glyph unicode="P" horiz-adv-x="1030" d="M27 0q-6 0 -6 12.5t6 12.5q95 0 127 25.5t49 115.5l166 948q17 88 -5.5 114.5t-117.5 26.5q-4 0 -4 12.5t4 12.5q23 0 92 -3t111 -3q25 0 111.5 6t139.5 6q82 0 149.5 -21.5t116.5 -64t69 -112.5t3 -160q-17 -98 -72.5 -176t-129 -123t-151.5 -68.5t-150 -23.5 q-50 0 -84 10q-3 2 -3 8.5t3.5 13.5t7.5 6q27 -8 61 -8q60 0 119 19.5t112 57t92 100.5t54 143q31 168 -43 268t-197 100q-35 0 -54 -1t-39 -6t-30 -13.5t-20.5 -26t-17 -40t-13.5 -58.5l-166 -944q-15 -90 7.5 -115.5t117.5 -25.5q6 0 6 -12.5t-6 -12.5q-24 0 -95.5 2 t-117.5 2q-41 0 -110.5 -2t-91.5 -2z" />
<glyph unicode="Q" d="M1395 -354q4 1 7 -4t3.5 -10.5t-2.5 -8.5q-91 -24 -170 -24q-123 0 -254 106.5t-225 296.5q-82 -27 -172 -27q-99 0 -181 34t-137.5 95t-91.5 145t-42 183t11 209q33 190 135.5 341.5t250 236t311.5 84.5q103 0 187.5 -34.5t140.5 -95.5t91.5 -144.5t40.5 -181.5 t-12 -206q-35 -196 -142.5 -349.5t-258.5 -234.5q75 -182 202 -300.5t236 -118.5q36 0 72 8zM276 750q-20 -116 -18 -222t33 -197t81 -158.5t126.5 -105.5t169.5 -38q177 0 304.5 131t176.5 372q33 151 17.5 282.5t-65 229t-139.5 153.5t-206 56q-183 0 -310 -135t-170 -368 z" />
<glyph unicode="R" horiz-adv-x="1257" d="M1204 25q8 0 8 -12.5t-8 -12.5h-221q-48 0 -148 169.5t-225 471.5q-57 -14 -123 -14q-9 0 -32 1t-33 1l-82 -463q-15 -58 -7 -89.5t36 -41.5t98 -10q5 0 7 -6.5t0.5 -12.5t-5.5 -6q-27 0 -100 2t-119 2q-43 0 -117.5 -2t-101.5 -2q-7 0 -7 12.5t7 12.5q102 0 137.5 26 t52.5 115l168 948q15 89 -8 115t-123 26q-8 0 -8 12.5t8 12.5q27 0 99 -3t116 -3q31 0 111.5 6t107.5 6q169 0 242 -71.5t47 -208.5q-21 -107 -94.5 -194.5t-177.5 -135.5q169 -368 275.5 -509.5t219.5 -141.5zM432 682q41 -8 94 -8q144 0 217.5 61.5t102.5 204.5 q62 315 -197 315q-27 0 -40.5 -1t-30.5 -5.5t-25 -13t-17.5 -25t-15.5 -40.5t-12 -60z" />
<glyph unicode="S" horiz-adv-x="946" d="M375 -25q-139 0 -266 70q-16 11 -13 39l29 270q0 9 11 9t11 -9q2 -70 18.5 -130t48.5 -109.5t86.5 -78t125.5 -28.5q100 0 177 59t97 181q6 31 5.5 60t-4.5 53t-14.5 48t-21.5 42.5t-29.5 39t-33.5 34.5t-39 32.5t-41 30.5t-43 30q-26 19 -38 27.5t-36 26.5t-35.5 29 t-31.5 30t-29 33.5t-22.5 35t-18.5 40t-10 43t-4 49t6 53.5q20 102 86 176t151.5 108t178.5 34q107 0 221 -50q28 -14 25 -34l-27 -228q0 -7 -11.5 -7t-13.5 7q-3 55 -15 101t-36.5 88.5t-69 67t-106.5 24.5q-76 0 -132.5 -36t-84 -85.5t-37.5 -108.5q-12 -60 -1 -109 t50.5 -92.5t68.5 -67t92 -66.5q2 -2 3.5 -3t3.5 -2q26 -18 40 -27.5t38.5 -27.5t38 -30t33.5 -30.5t31 -34.5t24.5 -36.5t19.5 -41t11.5 -44.5t5 -50.5t-5.5 -55.5q-26 -150 -149.5 -249.5t-317.5 -99.5z" />
<glyph unicode="T" horiz-adv-x="1132" d="M291 0q-6 0 -6 12.5t6 12.5q100 0 133.5 26t48.5 115l168 948q14 82 -5.5 106.5t-98.5 24.5h-50q-122 0 -192 -68.5t-115 -226.5q-1 -4 -7.5 -4t-12 2.5t-4.5 5.5q17 52 47.5 177.5t42.5 193.5q2 4 8.5 5t11.5 -1t4 -6q-2 -14 5 -23.5t21.5 -13.5t26 -5t27.5 -1 q150 -6 375 -6q91 0 207 3t153 3q61 0 92 10t44 41q2 4 8 5t10.5 -1.5t3.5 -7.5q-16 -56 -45 -188t-37 -185q-1 -4 -7 -5t-11 1.5t-4 7.5q27 156 -14.5 221.5t-172.5 65.5h-49q-77 0 -104 -26.5t-41 -108.5l-166 -944q-15 -90 9 -115.5t128 -25.5q5 0 5 -12.5t-5 -12.5 q-26 0 -99 2t-122 2q-44 0 -118 -2t-99 -2z" />
<glyph unicode="U" horiz-adv-x="1265" d="M1153 1061q15 99 -15.5 146.5t-109.5 47.5q-6 0 -6 12.5t6 12.5q27 0 87 -3t97 -3q31 0 88.5 3t79.5 3q7 0 6.5 -12.5t-6.5 -12.5q-148 0 -186 -202l-102 -592q-41 -230 -184 -359t-345 -129q-204 0 -302 130t-60 350l118 663q15 89 -8.5 114t-122.5 25q-6 0 -6 12.5 t6 12.5q27 0 99.5 -3t115.5 -3q48 0 122 3t96 3q7 0 7 -12.5t-7 -12.5q-99 0 -134.5 -29.5t-50.5 -119.5l-106 -590q-40 -237 36.5 -359t245.5 -122t285 115t150 315z" />
<glyph unicode="V" horiz-adv-x="1214" d="M1350 1280q8 0 8 -12.5t-8 -12.5q-61 0 -108.5 -32t-96.5 -125l-567 -1096q-6 -9 -25 -8.5t-21 8.5l-239 1108q-17 80 -45 112.5t-82 32.5q-4 0 -4 12.5t4 12.5q23 0 77.5 -3t80.5 -3q48 0 115.5 3t90.5 3q6 0 6 -12.5t-6 -12.5q-71 0 -100.5 -27.5t-15.5 -97.5l209 -948 l481 928q39 75 15 110t-118 35q-6 0 -6 12.5t6 12.5q25 0 83 -3t106 -3q34 0 82 3t78 3z" />
<glyph unicode="W" horiz-adv-x="1685" d="M1821 1280q7 0 7 -12.5t-7 -12.5q-62 0 -109 -32t-94 -125l-571 -1096q-5 -8 -23 -8t-20 8l-127 580l-299 -580q-6 -8 -25 -8t-21 8l-239 1108q-17 80 -45 112.5t-82 32.5q-6 0 -6 12.5t6 12.5q23 0 77.5 -3t80.5 -3q46 0 110.5 3t85.5 3q8 0 8 -12.5t-8 -12.5 q-65 0 -93.5 -28t-14.5 -97l215 -958l237 467l-102 471q-18 82 -43 113.5t-78 31.5q-6 0 -6 12.5t6 12.5q23 0 75.5 -3t78.5 -3q33 0 78 3t59 3q9 0 9 -12.5t-9 -12.5q-51 0 -58.5 -20t9.5 -105l75 -339l164 319q42 78 34 111.5t-71 33.5q-6 0 -6 12.5t6 12.5q16 0 53.5 -3 t67.5 -3q32 0 78.5 3t75.5 3q6 0 6 -12.5t-6 -12.5q-59 0 -104.5 -32t-94.5 -125l-190 -369l125 -559l481 940q41 74 18.5 109.5t-114.5 35.5q-7 0 -7 12.5t7 12.5q24 0 80 -3t100 -3q34 0 82 3t78 3z" />
<glyph unicode="X" horiz-adv-x="1185" d="M1264 1280q9 0 9 -12.5t-9 -12.5q-121 0 -277 -192l-295 -371l203 -522q29 -81 71 -113t115 -32q7 0 7 -12.5t-7 -12.5q-21 0 -79 2t-93 2q-49 0 -127 -2t-102 -2q-9 0 -8.5 12.5t8.5 12.5q67 0 91 18t7 61l-186 482l-307 -393q-134 -168 39 -168q8 0 8 -12.5t-8 -12.5 q-26 0 -93 2t-116 2q-29 0 -72.5 -2t-69.5 -2q-7 0 -7 12.5t7 12.5q60 0 131 45t140 131l334 422l-189 487q-31 79 -68.5 112t-97.5 33q-7 0 -7 12.5t7 12.5q20 0 64.5 -3t66.5 -3q54 0 135.5 3t106.5 3q8 0 8 -12.5t-8 -12.5q-64 0 -85.5 -18.5t-4.5 -62.5l172 -445 l268 344q142 182 -28 182q-8 0 -8 12.5t8 12.5q25 0 91.5 -3t116.5 -3q28 0 71 3t67 3z" />
<glyph unicode="Y" horiz-adv-x="1083" d="M1229 1280q7 0 7 -12.5t-7 -12.5q-132 0 -268 -192l-312 -428l-82 -469q-17 -90 5.5 -115.5t121.5 -25.5q8 0 8 -12.5t-8 -12.5q-25 0 -95.5 2t-115.5 2q-47 0 -118.5 -2t-96.5 -2q-8 0 -8 12.5t8 12.5q99 0 133.5 26t47.5 115l77 450l-209 494q-35 80 -70.5 112.5 t-92.5 32.5q-8 0 -8 12.5t8 12.5q21 0 69.5 -3t71.5 -3q48 0 128.5 3t106.5 3q4 0 5 -6t-1.5 -12.5t-7.5 -6.5q-70 0 -90.5 -18t-1.5 -63l207 -496l279 395q62 86 53.5 134t-84.5 48q-7 0 -7 12.5t7 12.5q27 0 91.5 -3t111.5 -3q29 0 70.5 3t66.5 3z" />
<glyph unicode="Z" horiz-adv-x="1120" d="M942 -4q-276 4 -897 4q-9 0 -11 10t3 17l956 1202q9 11 8.5 13.5t-12.5 2.5q-127 0 -203 -0.5t-154.5 -5.5t-118.5 -9.5t-84.5 -19.5t-63.5 -27.5t-45.5 -42t-40.5 -55t-39 -73.5q-4 -9 -17 -4q-8 4 -4 10l131 323q2 6 17 0q10 -3 6 -8q-10 -35 5.5 -44t86.5 -9h684 q9 0 12 -10.5t-2 -16.5l-946 -1198q-9 -11 -8 -13.5t12 -2.5h430q146 0 227 53.5t136 186.5q2 9 16 3q8 -3 6 -8l-71 -258q0 -6 -6.5 -13t-12.5 -7z" />
<glyph unicode="[" horiz-adv-x="507" d="M66 -240q-11 0 -13 4t2 19l297 1681q1 13 4.5 17t14.5 4h260q7 0 7 -12.5t-7 -12.5q-107 0 -145 -28.5t-52 -116.5l-244 -1385q-17 -88 10 -116.5t132 -28.5q9 0 9 -12.5t-9 -12.5h-266z" />
<glyph unicode="\" horiz-adv-x="624" d="M381 -334l-148 1815q-1 5 6 9.5t17.5 7t21.5 2.5t19.5 -2.5t9.5 -8.5l148 -1815q1 -8 -17 -13.5t-37 -4t-20 9.5z" />
<glyph unicode="]" horiz-adv-x="507" d="M524 1485q11 0 13 -4t-2 -19l-297 -1681q-1 -13 -4.5 -17t-14.5 -4h-260q-7 0 -7 12.5t7 12.5q107 0 145 28.5t52 116.5l243 1385q17 89 -9.5 117t-131.5 28q-9 0 -9 12.5t9 12.5h266z" />
<glyph unicode="^" horiz-adv-x="722" d="M197 768q-6 -4 -15.5 0.5t-7.5 9.5l324 510q4 10 22 10t19 -10l143 -510q0 -3 -4.5 -6t-9 -3.5t-6.5 3.5l-175 340z" />
<glyph unicode="_" horiz-adv-x="743" d="M-14 -156q-6 0 -8 20.5t-0.5 41t6.5 20.5h653q9 0 9 -41t-9 -41h-651z" />
<glyph unicode="`" horiz-adv-x="339" d="M352 973l-86 516q2 10 28 8.5t56.5 -12t30.5 -19.5l-10 -491q0 -3 -4.5 -5t-9.5 -1.5t-5 4.5z" />
<glyph unicode="a" horiz-adv-x="888" d="M838 158q4 4 9.5 1t7.5 -8.5t-1 -9.5q-69 -80 -124 -119.5t-105 -39.5q-51 0 -64.5 45t6.5 155l37 213q-93 -191 -211.5 -306.5t-226.5 -115.5q-151 0 -123 213q21 144 108.5 292t206.5 243.5t224 95.5q89 0 135 -57q36 29 49 74q2 4 8.5 4.5t12 -2t4.5 -5.5l-119 -649 q-21 -119 30 -119q44 0 136 95zM240 74q73 0 157.5 76.5t148.5 191t87 225.5q16 78 -16 128t-105 50q-111 -3 -217.5 -138.5t-134.5 -327.5q-30 -205 80 -205z" />
<glyph unicode="b" horiz-adv-x="888" d="M686 817q97 0 141.5 -85.5t18.5 -217.5q-25 -127 -88 -233t-141.5 -171t-161 -101t-154.5 -36q-105 0 -160.5 50t-38.5 135l209 1110q14 75 -17.5 91.5t-123.5 -26.5q-6 -3 -10 2t-4 12t6 9l264 129q7 3 16 -4.5t7 -12.5l-187 -1022q71 163 186.5 267t237.5 104zM713 451 q14 77 11.5 137.5t-34 97.5t-88.5 37q-128 0 -234.5 -145t-150.5 -381q-12 -75 35 -122.5t133 -47.5q104 0 198.5 115t129.5 309z" />
<glyph unicode="c" horiz-adv-x="706" d="M322 -27q-57 0 -103 18.5t-76 51t-50 75.5t-27.5 92.5t-6 101t12.5 102.5q24 123 96.5 217.5t162 140t179.5 45.5q75 0 128.5 -34.5t47.5 -86.5q-2 -29 -19.5 -47t-48.5 -18q-54 0 -73 65q-8 29 -34 52.5t-73 23.5q-95 0 -155.5 -81.5t-85.5 -213.5q-19 -84 -13 -162 t28.5 -138t73.5 -96t122 -36q105 0 217 92q6 5 14 -3.5t2 -14.5q-165 -146 -319 -146z" />
<glyph unicode="d" horiz-adv-x="909" d="M930 1468l-238 -1286q-20 -119 35 -119q40 0 135 95q4 5 10.5 2.5t8.5 -8.5t-2 -11q-74 -82 -127.5 -120.5t-104.5 -38.5q-53 0 -66 45.5t9 154.5l39 203q-94 -193 -199.5 -302.5t-214.5 -109.5q-87 0 -135.5 69t-24.5 216q26 147 111.5 276.5t203 206t234.5 76.5 q56 0 98 -26l91 477q14 75 -17.5 91t-124.5 -26q-8 -5 -13 9q-3 11 5 14l266 129q6 3 14.5 -4.5t6.5 -12.5zM281 74q64 0 130.5 53.5t116.5 132t86 161.5t48 148q15 84 -21.5 130t-110.5 46q-133 -3 -231 -108.5t-131 -296.5q-21 -132 10.5 -199t102.5 -67z" />
<glyph unicode="e" horiz-adv-x="702" d="M672 707q-18 -90 -157 -165.5t-327 -103.5q-30 -173 25.5 -283t183.5 -110q114 0 205 68q6 3 13 -5t1 -14q-144 -119 -299 -119q-79 0 -136.5 33t-85.5 89t-37.5 129t8.5 153q18 104 83 204t168.5 167t214.5 67q75 0 112 -29.5t28 -80.5zM442 762q-95 0 -158.5 -82.5 t-88.5 -212.5q304 52 340 197q14 50 -15.5 74t-77.5 24z" />
<glyph unicode="f" horiz-adv-x="536" d="M653 1487q71 0 112 -32t36 -75q-6 -31 -25.5 -46t-46.5 -15q-29 0 -46 21.5t-23.5 47t-23.5 47t-46 21.5q-156 0 -236 -557l-18 -127q36 2 85 5t82.5 5t43.5 2q18 0 14 -18q-5 -21 -27 -45t-42 -21q-5 1 -64.5 10t-99.5 11l-111 -764q-43 -293 -108 -406.5t-191 -113.5 q-68 0 -101.5 26t-27.5 62q1 28 22 45.5t52 17.5q30 0 46.5 -18t20.5 -39t16 -39t34 -18q19 0 31.5 15t27 63t29 129.5t34.5 222.5l105 723q10 76 -8 94t-105 18q-5 0 -6 6.5t1.5 12.5t6.5 6q73 0 105 20t39 72q31 190 65 308.5t83 192.5t111 102t154 28z" />
<glyph unicode="g" horiz-adv-x="776" d="M786 807q18 0 7 -54q-9 -47 -21 -47q-1 0 -2 1q-58 32 -156 22q64 -85 35 -225q-28 -134 -127.5 -218.5t-212.5 -84.5q-21 0 -49 4q-28 -32 -31 -66q-5 -35 17 -65.5t61 -54.5t86.5 -47.5t94.5 -50t85.5 -56t59.5 -72t16 -92.5q-11 -111 -137 -193.5t-293 -82.5 q-159 0 -243.5 73t-61.5 172q9 40 34.5 77t68.5 71.5t84.5 61.5t103.5 63q-85 62 -72 135q13 61 96 135q-77 29 -109 109.5t-9 181.5q25 129 122.5 214t219.5 85q84 0 137 -47q109 51 196 51zM539 449q11 49 5.5 104.5t-20 103t-47 78.5t-76.5 31q-62 0 -113.5 -60.5 t-66.5 -150.5q-21 -117 18 -216t121 -99q62 0 112 56.5t67 152.5zM549 -358q2 42 -18 77.5t-58.5 64.5t-76.5 50t-90 48.5t-81 45.5q-43 -26 -67.5 -42.5t-56.5 -44t-49.5 -58t-22.5 -66.5q-17 -99 65 -167t223 -68q107 0 168 45t64 115z" />
<glyph unicode="h" horiz-adv-x="911" d="M862 158q8 8 16 -1t1 -16q-70 -81 -124 -120t-106 -39q-54 0 -67 45.5t8 154.5l59 326q22 117 3.5 173t-79.5 56q-102 0 -208.5 -189.5t-165.5 -512.5l-4 -21q-7 -30 -68 -30q-47 0 -47 12q0 4 5 27t13 60.5t13 68.5l208 1116q14 75 -16.5 91t-122.5 -26q-6 -3 -10.5 2.5 t-4 11.5t4.5 9l264 129q8 3 17.5 -4.5t7.5 -12.5l-199 -1091q73 206 173 323t208 117q88 0 117 -64t4 -206l-68 -365q-20 -119 33 -119q43 0 135 95z" />
<glyph unicode="i" horiz-adv-x="505" d="M352 1051q-41 0 -64.5 23.5t-23.5 64.5q0 39 23.5 61.5t64.5 22.5t63.5 -22.5t22.5 -61.5q0 -41 -22.5 -64.5t-63.5 -23.5zM223 -18q-53 0 -67 43t8 157l84 426q21 121 -35 121q-53 0 -141 -94q-4 -5 -10.5 -2t-8.5 8.5t2 9.5q140 158 238 158q52 0 65.5 -45t-6.5 -152 l-84 -430q-23 -119 33 -119q48 0 139 91q8 8 16 -1t1 -16q-70 -79 -125.5 -117t-108.5 -38z" />
<glyph unicode="j" horiz-adv-x="489" d="M375 1051q-41 0 -64.5 23.5t-23.5 64.5q0 39 23.5 61.5t64.5 22.5t63.5 -22.5t22.5 -61.5q0 -41 -22.5 -64.5t-63.5 -23.5zM-47 -563q-64 0 -98 26t-29 62q6 31 25 47t45 16q25 0 38.5 -19t17.5 -41t15 -41t31 -19q43 0 71 86t68 321l127 733q21 121 -35 121 q-50 0 -141 -94q-4 -5 -10 -2t-8 8.5t2 9.5q72 81 129 119.5t110 38.5q51 0 64 -45t-6 -152l-119 -690q-34 -193 -70.5 -295t-89 -146t-137.5 -44z" />
<glyph unicode="k" horiz-adv-x="854" d="M827 154q5 5 11.5 2t8.5 -9t-1 -10q-137 -155 -217 -155q-47 0 -81.5 29.5t-80.5 107.5l-119 207q-21 35 -38 46t-50 7l-65 -365q-7 -30 -68 -30q-47 0 -47 12q0 4 5 27t13 60.5t13 68.5l208 1116q14 75 -16.5 91t-122.5 -26q-6 -3 -10.5 2.5t-4 11.5t4.5 9l264 129 q7 3 17 -4.5t8 -12.5l-154 -837q77 87 171 136.5t190 49.5q49 0 77 -23t33.5 -49.5t-0.5 -50.5q-13 -73 -107 -143.5t-247 -124.5l137 -238q40 -70 69.5 -94t63.5 -24q54 0 135 84zM575 756q-105 0 -189 -90.5t-118 -241.5l-2 -16q185 43 267.5 98t99.5 151q9 45 -7.5 72 t-50.5 27z" />
<glyph unicode="l" horiz-adv-x="485" d="M186 -18q-54 0 -67.5 45.5t6.5 154.5l203 1086q14 76 -14.5 91.5t-120.5 -26.5q-6 -3 -11 2.5t-5 11.5t5 9l264 129q8 3 17.5 -4.5t7.5 -12.5l-238 -1286q-12 -62 -2.5 -90.5t35.5 -28.5q41 0 133 95q7 8 16 -1t1 -16q-70 -81 -124 -120t-106 -39z" />
<glyph unicode="m" horiz-adv-x="1384" d="M1333 158q7 8 16 -1t1 -16q-70 -81 -124 -120t-106 -39t-65 45.5t8 154.5l59 326q21 117 4.5 173t-73.5 56q-98 0 -202.5 -188t-164.5 -510l-4 -25q-3 -30 -64 -30q-47 0 -47 12q0 4 5.5 29t13.5 62.5t12 64.5l68 356q12 79 8.5 129.5t-22.5 75t-54 24.5q-97 0 -202 -191 t-162 -511l-5 -21q-7 -30 -65 -30q-47 0 -47 12q0 4 4.5 26t12 59t12.5 60l86 467q21 121 -35 121q-54 0 -142 -94q-4 -5 -10 -2t-8 8.5t2 9.5q137 158 240 158q51 0 63.5 -45t-6.5 -152l-41 -231q71 204 168.5 320t202.5 116q80 0 107.5 -64t0.5 -206l-33 -180 q71 212 169.5 331t205.5 119q82 0 110 -64.5t3 -205.5l-66 -365q-20 -119 31 -119q43 0 135 95z" />
<glyph unicode="n" horiz-adv-x="952" d="M903 158q4 5 10.5 2.5t8.5 -8.5t-2 -11q-70 -81 -124 -120t-106 -39q-54 0 -67 45.5t8 154.5l59 326q46 229 -76 229q-103 0 -211 -195.5t-167 -527.5q-7 -30 -68 -30q-47 0 -47 12q0 4 5 27t13 60.5t13 68.5l84 456q21 121 -35 121q-54 0 -142 -94q-4 -5 -10 -2t-8 8.5 t2 9.5q137 158 240 158q51 0 63.5 -45t-6.5 -152l-43 -247q73 212 173.5 332t211.5 120q88 0 117.5 -64t3.5 -206l-68 -365q-20 -119 35 -119q41 0 133 95z" />
<glyph unicode="o" horiz-adv-x="815" d="M315 -29q-97 0 -162.5 57t-85 151.5t0.5 215.5q34 181 156 301.5t274 120.5q78 0 136.5 -34t88 -92t39.5 -134.5t-10 -161.5q-37 -189 -164.5 -306.5t-272.5 -117.5zM387 23q87 0 156.5 75.5t93.5 206.5q9 62 10.5 126t-13.5 124.5t-39 108t-65 76t-92 28.5 q-87 0 -157.5 -77.5t-96.5 -207.5q-19 -79 -11.5 -161t31 -148.5t72 -108.5t111.5 -42z" />
<glyph unicode="p" horiz-adv-x="833" d="M584 805q114 0 164 -74t30 -213q-19 -138 -92.5 -258.5t-177.5 -191t-211 -70.5q-73 0 -117 6l-65 -369q-15 -83 8 -107.5t108 -14.5q5 2 8.5 -3.5t3 -12t-6.5 -7.5l-353 -53q-5 -1 -8 4.5t-2 12t6 7.5q65 10 86.5 37.5t38.5 122.5l174 973q-13 -9 -28 -20.5t-33.5 -26 t-30.5 -23.5q-7 -5 -16 8q-5 9 0 11q65 58 116 94l27 154q1 4 25 24.5t51.5 54.5t34.5 70q1 5 7 6t11 -2t4 -8l-39 -217q149 86 277 86zM662 451q9 53 5 103.5t-18 89.5t-52.5 63t-98.5 24q-93 0 -199 -59l-104 -582q75 -35 159 -35q129 0 207 108.5t101 287.5z" />
<glyph unicode="q" horiz-adv-x="849" d="M793 831l-215 -1196q-14 -79 11 -107.5t111 -16.5q7 3 10 -10q3 -12 -5 -13l-361 -51q-5 -1 -8 4.5t-2 12t6 7.5q68 10 89 36.5t40 123.5l123 696q-76 -162 -182.5 -253t-208.5 -91q-78 0 -121 67t-31 171q14 118 65.5 230t124.5 194t164.5 132t182.5 50q87 0 133 -57 q39 31 51 74q1 4 7 4.5t11.5 -2t4.5 -5.5zM266 74q122 0 226 129.5t135 314.5q21 117 -10 174.5t-109 52.5q-127 -3 -222.5 -118.5t-123.5 -325.5q-17 -227 104 -227z" />
<glyph unicode="r" horiz-adv-x="696" d="M592 809q43 0 81 -34.5t29 -76.5q-6 -26 -23 -41.5t-42 -15.5q-26 0 -43.5 17.5t-31 35t-30.5 17.5q-45 0 -110 -125t-117.5 -285t-77.5 -287q-3 -30 -65 -30q-45 0 -45 12q0 4 5 29t13 62.5t12 64.5l68 378q17 79 11.5 123.5t-17.5 60t-31 15.5q-45 0 -125 -76 q-3 -3 -8 -1t-8 8t0 10q124 139 221 139q58 0 73.5 -56.5t-9.5 -217.5l-43 -234q32 101 68.5 188.5t77 161t84 116t83.5 42.5z" />
<glyph unicode="s" horiz-adv-x="618" d="M207 -23q-80 0 -136.5 37t-47.5 90q3 28 20.5 43t40.5 15q18 0 32 -14.5t24.5 -35t24.5 -40.5t40 -34.5t63 -14.5q113 0 131 124q6 43 -7 81t-39 66.5t-58 56t-63.5 54.5t-56.5 56t-36.5 67t-3.5 82q18 91 97.5 146t175.5 55q74 0 122.5 -29.5t42.5 -72.5 q-4 -27 -22.5 -41.5t-40.5 -14.5q-21 0 -37 11.5t-27.5 28t-24.5 33.5t-35 28.5t-52 11.5q-42 0 -71.5 -21t-35.5 -61q-7 -41 6.5 -78t39 -66t58 -57.5t64.5 -57.5t57.5 -59.5t37.5 -70.5t4 -84q-16 -93 -98 -163.5t-189 -70.5z" />
<glyph unicode="t" horiz-adv-x="604" d="M594 784q18 0 14 -18q-3 -19 -24.5 -42.5t-40.5 -23.5q-3 0 -37.5 4.5t-87 9.5t-94.5 7l-91 -508q-15 -83 8 -121.5t87 -38.5q91 0 196 90q3 2 9 -1t8.5 -7.5t-0.5 -7.5q-91 -81 -160 -116.5t-133 -35.5q-69 0 -109 41t-24 134l88 477q13 75 1.5 93.5t-71.5 18.5 q-5 0 -6 6.5t1.5 12.5t6.5 6q70 0 121.5 45t69.5 113q2 8 24 6q10 -2 10 -6l-26 -152q58 1 155 7.5t105 6.5z" />
<glyph unicode="u" horiz-adv-x="952" d="M893 156q4 5 9.5 2t7.5 -9t-1 -10q-139 -157 -239 -157q-51 0 -64 44.5t6 151.5l43 248q-73 -213 -173.5 -333t-211.5 -120q-89 0 -119 65t-1 206l73 364q23 119 -33 119q-41 0 -135 -94q-7 -7 -15 1t-1 15q72 82 126 121t105 39t65.5 -45.5t-7.5 -155.5l-66 -325 q-48 -230 74 -230q105 0 213.5 195.5t167.5 527.5q7 31 65 31q49 0 49 -12q0 -4 -5 -27t-12.5 -61t-12.5 -68l-84 -457q-21 -121 35 -121q49 0 141 95z" />
<glyph unicode="v" horiz-adv-x="884" d="M379 -27q-66 0 -112 42.5t-63 105.5t-9 135q8 55 31 115.5t65.5 149t54.5 114.5q12 28 7.5 39.5t-27.5 11.5h-105q-78 0 -104 -18.5t-49 -87.5q-3 -6 -10 -6.5t-11.5 3.5t-1.5 11q45 134 79.5 169.5t123.5 35.5h182q18 0 21 -5t-5 -20q-124 -282 -145 -446 q-15 -115 23.5 -181.5t113.5 -66.5q93 0 179 90t122 235q14 52 16.5 95.5t-2 69t-17 49t-20 31.5t-20.5 20q-1 1 -6.5 5.5t-8 7t-8 7.5t-8 9t-7 10t-6.5 11.5t-3.5 12.5t-1.5 14q0 35 24.5 52.5t55.5 17.5q44 0 67.5 -47t24 -115.5t-7.5 -146.5q-17 -116 -64 -217.5 t-107.5 -168.5t-129 -105t-131.5 -38z" />
<glyph unicode="w" horiz-adv-x="1265" d="M1110 811q44 0 67 -47t23 -115.5t-8 -146.5q-15 -116 -59 -218t-100 -168.5t-117.5 -104.5t-114.5 -38q-109 0 -168 144q-126 -144 -254 -144q-101 0 -148.5 87t-29.5 206q7 42 26 97t33 87t47 102t39 83q12 28 7.5 39.5t-27.5 11.5h-105q-78 0 -104 -18.5t-49 -87.5 q-3 -6 -10 -6.5t-11.5 3.5t-1.5 11q45 134 79.5 169.5t123.5 35.5h182q18 0 21 -5t-5 -20q-116 -263 -139 -446q-15 -116 21 -185t110 -69q90 0 178 98q-39 141 -8 319q21 138 65.5 228t94.5 90q48 0 65 -62.5t1 -158.5q-39 -233 -146 -392q59 -122 170 -122q79 0 159 93 t105 238q8 49 8 90.5t-4 66.5t-16 51t-19.5 36.5t-23.5 30.5q-37 37 -37 67q0 35 24.5 52.5t55.5 17.5zM649 535q-25 -170 21 -299q81 129 104 286q9 72 -4 113t-45 41q-55 0 -76 -141z" />
<glyph unicode="x" horiz-adv-x="862" d="M741 809q43 0 77 -30.5t28 -69.5q-3 -22 -19.5 -36t-38.5 -14q-26 0 -51 20.5t-43 20.5q-46 0 -88 -61l-131 -190l80 -275q21 -66 44.5 -86t51.5 -20q55 0 135 86q5 5 11.5 2t8.5 -9t-1 -10q-140 -155 -223 -155q-44 0 -72.5 26t-50.5 101l-66 223l-127 -203 q-58 -93 -89 -120t-77 -27q-41 0 -73.5 30.5t-28.5 69.5q10 47 59 47q26 0 50.5 -19.5t44.5 -19.5q44 0 88 60l143 215l-70 233q-14 52 -34 81t-35.5 35.5t-34.5 6.5q-54 0 -135 -84q-4 -5 -10.5 -2t-8.5 8.5t2 9.5q141 156 224 156q44 0 76 -31t55 -112l53 -181l113 177 q58 93 88 120t75 27z" />
<glyph unicode="y" horiz-adv-x="907" d="M754 811q77 0 77 -113q0 -83 -44.5 -212.5t-115.5 -269.5t-165 -282.5t-188.5 -254.5t-189.5 -183t-165 -71q-41 0 -64.5 21t-17.5 65q12 55 82 55q60 0 88.5 1t75.5 12.5t80 35.5q67 46 166 186q9 434 -53 676t-179 242q-62 0 -102 -76q-3 -6 -10 -6.5t-12 3t-3 9.5 q78 160 191 160q92 0 158 -117.5t94.5 -311t19.5 -427.5q88 137 156 270t86 209q15 88 6.5 138.5t-27 104t-18.5 68.5q0 30 20.5 49t53.5 19z" />
<glyph unicode="z" horiz-adv-x="704" d="M709 811q6 4 13.5 -4.5t2.5 -13.5l-575 -656q21 8 59 8q54 0 182.5 -23.5t163.5 -23.5q33 0 52 21t40 74q2 3 7.5 3t11 -3.5t4.5 -8.5q-30 -93 -51.5 -133t-43 -51t-65.5 -10q-58 1 -196 27t-199 28q-33 0 -58 -12.5t-55 -46.5q-4 -3 -11.5 6t-4.5 12l577 658 q-19 -11 -59 -11q-47 0 -158 24.5t-141 24.5q-33 0 -52.5 -22.5t-43.5 -77.5q-3 -5 -9 -5t-11.5 5t-2.5 12q25 72 40.5 109t35.5 58t38.5 25t55.5 3q45 -3 165 -27.5t175 -27.5q34 0 58.5 12.5t54.5 46.5z" />
<glyph unicode="{" horiz-adv-x="534" d="M356 -240q-70 0 -110.5 10t-67.5 33t-33 72t-1 114.5t24 174.5q14 77 21 133.5t7.5 115t-10 97t-35 66t-63.5 34.5q-4 0 -4 13.5t4 13.5q52 6 92.5 42.5t68 101.5t46 134.5t35.5 167.5q24 133 47 208.5t61.5 121t86.5 59t130 13.5q6 0 6 -12.5t-6 -12.5q-70 0 -116.5 -56 t-65.5 -161q-15 -77 -24 -121.5t-22 -101t-21 -87t-21.5 -69.5t-24 -59.5t-27 -47t-33 -41t-39.5 -32.5t-48 -31t-57 -28q131 -67 145 -181t-43 -416q-3 -17 -4 -26q-19 -104 8.5 -160.5t93.5 -56.5q6 0 6 -12.5t-6 -12.5z" />
<glyph unicode="|" horiz-adv-x="311" d="M70 -315q-5 -16 -43 -11q-30 5 -29 17l315 1806q3 9 21.5 10.5t36 -4t16.5 -14.5z" />
<glyph unicode="}" horiz-adv-x="534" d="M258 1485q70 0 110.5 -10t67.5 -33t33 -72t1 -114.5t-24 -174.5q-14 -77 -21 -133.5t-7.5 -115t10 -97t35 -66t63.5 -34.5q4 0 4 -13.5t-4 -13.5q-52 -6 -92 -42.5t-68 -102t-46 -134.5t-35 -167q-24 -133 -47 -208.5t-62 -121t-87 -59t-130 -13.5q-6 0 -6 12.5t6 12.5 q70 0 116.5 56t65.5 161q15 77 24 122t22 101t21.5 86.5t21.5 70t24 60t27.5 46.5t33 41t39.5 33t48 31t57 28q-131 67 -145.5 181.5t43.5 419.5l3 21q19 104 -8.5 160.5t-93.5 56.5q-6 0 -6 12.5t6 12.5z" />
<glyph unicode="~" horiz-adv-x="907" d="M109 311q-4 -4 -13 6q-4 6 -2 9q118 149 230 149q44 0 153 -36t166 -36q41 0 73.5 13.5t47.5 26.5t37 38q6 4 13 -5q5 -5 1 -9q-71 -88 -117 -119t-102 -31t-165 36t-169 36q-17 0 -31 -1t-27.5 -6.5t-20 -7.5t-20 -13t-16.5 -13.5t-19 -18t-19 -18.5z" />
<glyph unicode="&#xa1;" horiz-adv-x="450" d="M289 745q41 0 64.5 -23t23.5 -63q0 -39 -23.5 -61.5t-64.5 -22.5t-63.5 22.5t-22.5 61.5q0 40 22.5 63t63.5 23zM221 334q1 7 7 8.5t11.5 -1.5t4.5 -9q-3 -21 -14.5 -116.5t-16 -132t-14.5 -122.5t-14.5 -137t-11 -122.5t-10 -132t-5.5 -116.5q0 -8 -28 -16t-58 -8 q-21 0 -41.5 4t-32 9.5t-10.5 10.5q94 269 233 881z" />
<glyph unicode="&#xa2;" horiz-adv-x="1001" d="M942 922q15 -9 18 -14.5t1 -22.5l-21 -207q0 -7 -5 -9.5t-10 0t-5 9.5q-6 131 -77 200t-192 74l-166 -948h27q234 0 352 283q2 6 8.5 6.5t12 -2.5t4.5 -8l-64 -217q-3 -19 -6.5 -24.5t-21.5 -12.5q-159 -54 -303 -54h-15l-33 -186q-1 -9 -11 -11.5t-19 2t-8 13.5l32 184 q-68 6 -124.5 26.5t-96 51t-69 71t-45.5 84.5t-23.5 93t-6.5 96t9 93q32 195 183 332t349 157l31 172q1 9 11 11t19.5 -3t8.5 -14l-29 -164h17q69 0 145.5 -17t122.5 -44zM217 508q-9 -67 -10 -132t15 -126t43.5 -110t74 -83.5t106.5 -46.5l166 942q-141 -10 -251 -134.5 t-144 -309.5z" />
<glyph unicode="&#xa3;" horiz-adv-x="794" d="M723 946q30 -13 27 -37l-25 -209q-1 -5 -7.5 -6.5t-12.5 1.5t-5 10q1 46 -6.5 87t-24.5 79t-50 60.5t-78 22.5q-94 0 -148 -63t-71 -156q-4 -25 -6 -49t-1 -54t1.5 -43t4 -51t3.5 -44h204q8 0 12 -11t1 -22.5t-11 -11.5h-202q4 -85 -9 -154q-14 -76 -46.5 -123.5 t-82.5 -85.5h228q116 0 160 30.5t84 137.5q3 8 14 4.5t8 -12.5q-48 -164 -57 -223q-1 -13 -8.5 -18t-22.5 -5h-596q-6 0 -8.5 6t-0.5 12.5t9 8.5q101 25 144 71.5t57 132.5q16 100 4 218h-90q-12 0 -12 22.5t12 22.5h86q-14 105 2 194q17 100 74 168.5t130 97.5t156 29 q87 0 160 -37z" />
<glyph unicode="&#xa4;" horiz-adv-x="768" d="M725 702l-111 -104q56 -78 35 -195q-17 -100 -96 -176l72 -98l-62 -55l-67 110q-82 -51 -172 -51q-78 0 -131 43l-101 -102l-35 47l99 96q-55 79 -35 205q19 107 102 180l-71 100l61 52l72 -111q76 43 155 43q84 0 140 -47l112 109zM358 170q67 0 115.5 54t67.5 153 q18 110 -19 191t-123 81q-64 0 -110 -50t-64 -148q-9 -68 -4 -130.5t41 -106.5t96 -44z" />
<glyph unicode="&#xa5;" horiz-adv-x="886" d="M973 958q7 0 7 -12t-7 -12q-119 0 -256 -186l-203 -281l-6 -31h190q12 0 12 -21.5t-12 -21.5h-508q-12 0 -12 21.5t12 21.5h203l2 13l-141 342q-33 80 -66.5 111.5t-89.5 31.5q-6 0 -6 12t6 12q20 0 62 -3t57 -3q49 0 131 3t105 3q6 0 6 -12t-6 -12q-124 0 -84 -90 l141 -336l170 246q56 83 51 131.5t-63 48.5q-8 0 -8 12t8 12q29 0 86 -3t102 -3q27 0 62.5 3t54.5 3zM676 309q12 0 12 -21.5t-12 -21.5h-199l-18 -104q-15 -88 8 -112.5t125 -24.5q8 0 8 -12.5t-8 -12.5q-28 0 -100 2t-117 2q-42 0 -116 -2t-99 -2q-6 0 -6 12.5t6 12.5 q101 0 136 27.5t50 115.5l19 98h-195q-12 0 -12 21.5t12 21.5h506z" />
<glyph unicode="&#xa6;" horiz-adv-x="311" d="M254 731q-1 -9 -19.5 -11t-36 3t-16.5 14l131 760q2 9 21 10.5t36.5 -4t16.5 -14.5zM68 -324q-2 -9 -20.5 -10.5t-35.5 4.5t-16 15l131 757q1 9 20 11t37 -3t17 -14z" />
<glyph unicode="&#xa7;" horiz-adv-x="800" d="M743 1135q17 -13 15 -33l-25 -205q0 -5 -10 -5t-10 5q0 78 -58.5 151.5t-146.5 73.5q-54 0 -93.5 -35t-52.5 -112q-10 -57 6 -105t49 -83.5t74 -69t82 -70t73 -78.5t47 -103t3 -134q-12 -74 -51.5 -137.5t-118.5 -133.5q62 -78 43 -184q-22 -129 -114 -195.5t-207 -66.5 q-99 0 -158 35q-17 13 -14 35l22 202q5 9 18 5q6 -1 5 -5q2 -77 59.5 -151t145.5 -74q54 0 93.5 36.5t53.5 113.5q9 57 -7 105t-48.5 83.5t-74 69t-82.5 70t-72.5 78.5t-46.5 103t-3 134q10 72 50 135t118 133q-63 83 -45 186q25 128 118 195t208 67q97 0 155 -36zM592 258 q10 46 4.5 88.5t-14 73.5t-28.5 61.5t-39.5 52.5t-47 46t-50 42t-49 41.5t-44.5 43.5q-62 -70 -82 -181q-10 -45 -5 -87.5t14 -73t29 -61t40 -52t47.5 -45.5t50.5 -42t49.5 -41.5t44.5 -43.5q59 67 80 178z" />
<glyph unicode="&#xa8;" horiz-adv-x="563" d="M244 979q-40 0 -63 22t-23 62t23 62t63 22t62 -22t22 -62t-22 -62t-62 -22zM553 979q-41 0 -64.5 22t-23.5 62t23.5 62t64.5 22q40 0 62 -22t22 -62t-22 -62t-62 -22z" />
<glyph unicode="&#xa9;" horiz-adv-x="1484" d="M758 -209q-84 0 -168 23t-163 72t-139.5 118t-97 168.5t-36.5 216.5q0 137 55.5 256.5t147 200.5t212 127.5t248.5 46.5q116 0 213.5 -37.5t162 -101.5t100.5 -148.5t36 -179.5q0 -126 -65 -234.5t-181.5 -173.5t-257.5 -65q-94 0 -166 28t-114 74.5t-63 101.5t-21 115 q0 80 31 147t81.5 109.5t112.5 66t125 23.5q75 0 135 -29t64 -73q0 -25 -18 -42t-44 -17q-40 0 -74 53q-18 26 -28 38t-33.5 24t-54.5 12q-168 0 -168 -258q0 -67 16 -122.5t50.5 -101t95.5 -71t143 -25.5q69 0 131.5 22t113.5 65t81 113.5t30 160.5q0 131 -64.5 240.5 t-179 174t-253.5 64.5q-159 0 -275.5 -73.5t-173.5 -193.5t-57 -270q0 -114 35 -211.5t92 -164t131.5 -114t153 -69.5t155.5 -22q122 0 209 18.5t195 75.5q5 2 10 -4.5t2 -10.5q-110 -83 -223 -113t-250 -30z" />
<glyph unicode="&#xaa;" horiz-adv-x="565" d="M629 866q3 2 7.5 0t8.5 -6.5t2 -7.5q-90 -107 -153 -107q-34 0 -43 30t4 102l20 122q-60 -120 -136.5 -190t-145.5 -70q-98 0 -78 144q13 95 70 192t134 159t146 62q57 0 88 -34q19 23 27 47q2 3 11 1t9 -5l-78 -428q-7 -40 -1 -59t22 -19q26 0 86 67zM238 803 q42 0 97.5 51t102 129t62.5 152q9 50 -11.5 82.5t-68.5 31.5q-72 -2 -143 -92.5t-89 -212.5q-21 -141 50 -141zM551 641q9 0 9 -26.5t-9 -26.5h-461q-5 0 -7 13t-0.5 26.5t5.5 13.5h463z" />
<glyph unicode="&#xab;" horiz-adv-x="868" d="M496 745q5 3 12.5 -4.5t3.5 -11.5l-281 -317l170 -316q4 -7 -7 -14q-6 -5 -9 0l-276 305q-8 9 -6.5 23t12.5 24zM797 745q4 2 9.5 -1t7.5 -7.5t-1 -7.5l-281 -317l173 -316q3 -6 -6 -13t-13 -1l-276 305q-7 8 -5 22.5t13 24.5z" />
<glyph unicode="&#xac;" horiz-adv-x="813" d="M748 549v-389q0 -6 -20.5 -8t-41 -0.5t-20.5 6.5v309h-594q-6 0 -8 20.5t-0.5 41t6.5 20.5h678z" />
<glyph unicode="&#xad;" horiz-adv-x="624" d="M66 342q-6 -1 -8.5 21t-1.5 45.5t5 25.5l512 94q5 1 7 -21t0.5 -45t-7.5 -24z" />
<glyph unicode="&#xae;" horiz-adv-x="1560" d="M899 1485q172 0 305.5 -77t203 -204t69.5 -280q0 -176 -86 -324t-232 -232.5t-317 -84.5q-111 0 -217 40t-192.5 112.5t-139.5 188t-53 253.5q0 131 54.5 245.5t145.5 193t211 124t248 45.5zM897 340q230 0 366 143t136 381q0 122 -43 228.5t-118 182.5t-181 119.5 t-226 43.5q-121 0 -218 -41.5t-158.5 -112.5t-94 -161.5t-32.5 -192.5q0 -111 33.5 -208t90 -165.5t130 -118.5t154 -74t161.5 -24zM1196 586q3 -2 1.5 -9.5t-5.5 -7.5h-160q-20 0 -55 81t-94 251q-47 -8 -113 -8l-37 -209q-10 -61 6 -76.5t84 -15.5q2 -1 2 -6t-2 -11t-4 -6 q-18 0 -67.5 1t-81.5 1q-25 0 -78 -1t-68 -1q-3 1 -2.5 6t2.5 11t4 6q67 0 87 15.5t30 76.5l80 440q9 57 -6.5 73.5t-81.5 16.5q-2 1 -2 6.5t2 12t4 6.5q20 0 70.5 -1t74.5 -1q26 0 87 3t83 3q92 0 134 -32.5t30 -100.5q-21 -123 -145 -180q28 -85 44 -128.5t37.5 -91.5 t40 -69.5t43 -36.5t56.5 -18zM776 932q109 -16 168 12t76 117q25 156 -100 156q-58 0 -79 -15.5t-32 -81.5z" />
<glyph unicode="&#xaf;" horiz-adv-x="681" d="M205 981q-12 0 -12 28.5t12 28.5h487q12 0 12 -28.5t-12 -28.5h-487z" />
<glyph unicode="&#xb0;" horiz-adv-x="612" d="M377 764q-57 0 -102.5 18.5t-72 48t-44 68t-18.5 78.5t5 78q21 95 109.5 165t208.5 70q56 0 100 -17.5t70 -46.5t43 -66.5t17.5 -78t-5.5 -80.5q-23 -104 -110 -170.5t-201 -66.5zM397 793q83 0 120.5 50.5t55.5 143.5q24 140 -4 208.5t-118 68.5q-45 0 -79 -16 t-55.5 -46.5t-34 -63.5t-22.5 -77q-54 -268 137 -268z" />
<glyph unicode="&#xb1;" horiz-adv-x="815" d="M70 477q-6 0 -8 20t-0.5 40t6.5 20h299v299q0 8 41 8t41 -8v-299h296q9 0 9 -40t-9 -40h-296v-297q0 -6 -20.5 -8t-41 -0.5t-20.5 6.5v299h-297zM745 76q9 0 9 -37t-9 -37h-675q-6 0 -8 18.5t-0.5 37t6.5 18.5h677z" />
<glyph unicode="&#xb2;" horiz-adv-x="466" d="M428 1493q72 0 104 -43t21 -111q-10 -50 -56.5 -113.5t-98.5 -114.5t-106.5 -110.5t-74.5 -99.5h2h98t65.5 6t44 9.5t27.5 22t21.5 30.5t20.5 47q3 9 14.5 6t9.5 -12l-35 -179q0 -6 -6 -6h-329q-5 0 -7 5t2 14q22 48 74 116t101 124t92 126t53 127q7 51 -13 81t-61 30 q-43 0 -82.5 -34.5t-60.5 -86.5q-2 -4 -9 -4.5t-12.5 3t-3.5 9.5q71 158 205 158z" />
<glyph unicode="&#xb3;" horiz-adv-x="466" d="M543 1337q-10 -55 -50.5 -98.5t-97.5 -64.5q61 -15 94.5 -56.5t20.5 -111.5q-13 -76 -74 -134.5t-149 -58.5q-127 0 -146 141q-1 5 5 8t12.5 2t7.5 -6q20 -108 113 -108q53 0 90.5 36.5t48.5 112.5q13 81 -19 119.5t-90 38.5q-6 0 -6 12.5t6 12.5q54 0 95 49t51 106 q9 48 -12.5 79.5t-63.5 31.5q-41 0 -78 -33t-59 -82q-3 -6 -14 -2t-9 10q69 152 201 152q69 0 102 -44t21 -112z" />
<glyph unicode="&#xb4;" horiz-adv-x="434" d="M244 969q-4 -8 -18 -1q-6 4 -3 7l191 491q7 15 78 27q58 9 53 -4z" />
<glyph unicode="&#xb6;" horiz-adv-x="1216" d="M526 -395q-64 0 -96.5 25.5t-26.5 62.5q4 32 24.5 48.5t47.5 16.5q29 0 43 -16t17.5 -36t19.5 -36t47 -16t50.5 13t37.5 55.5t32.5 107.5t35.5 186l43 240q-73 -6 -162 -6q-69 0 -132.5 11.5t-125 38t-106.5 68t-78 102t-39 140t10 181.5q46 243 210.5 369t412.5 126 q39 0 127.5 -6t144.5 -6q36 0 106 3t99 3q9 0 9 -12.5t-9 -12.5q-80 0 -133 -43t-66 -122l-170 -977q-47 -263 -137.5 -385.5t-235.5 -122.5z" />
<glyph unicode="&#xb7;" horiz-adv-x="409" d="M207 332q-41 0 -64.5 23t-23.5 63q0 39 23.5 61.5t64.5 22.5t63.5 -22.5t22.5 -61.5q0 -40 -22.5 -63t-63.5 -23z" />
<glyph unicode="&#xb8;" horiz-adv-x="401" d="M2 -563q-54 0 -87.5 24.5t-25.5 71.5q3 20 20 31.5t40 11.5q22 0 37 -15.5t22 -34.5t20 -34.5t31 -15.5q58 0 76 78q5 60 -78 163q-59 68 -12 160l61 123h25q-32 -78 -26.5 -120.5t45.5 -92.5q38 -50 54.5 -90.5t8.5 -81.5q-9 -64 -66 -121t-145 -57z" />
<glyph unicode="&#xb9;" horiz-adv-x="485" d="M168 825q-8 0 -8 11.5t8 11.5q61 0 86.5 9.5t38.5 36t26 95.5l43 242q21 118 18 138q-3 29 -35 22q-24 -5 -97 -39q-9 -3 -13.5 7t3.5 15l235 119q7 3 11.5 -3t2.5 -11l-84 -490q-19 -97 -4 -119t97 -22q8 0 8 -11.5t-8 -11.5q-19 0 -72 2t-86 2q-32 0 -91 -2t-79 -2z " />
<glyph unicode="&#xba;" horiz-adv-x="550" d="M309 735q-98 0 -145 83.5t-25 201.5q22 125 108 197.5t181 72.5q99 0 145.5 -81.5t28.5 -194.5q-21 -119 -108 -199t-185 -80zM350 772q59 0 104.5 51.5t63.5 149.5q20 123 -17 202.5t-116 79.5q-61 0 -104 -48.5t-60 -145.5q-22 -122 14 -205.5t115 -83.5zM100 588 q-6 0 -8 13t-0.5 26.5t6.5 13.5h453q9 0 9 -26.5t-9 -26.5h-451z" />
<glyph unicode="&#xbb;" horiz-adv-x="866" d="M74 76q-5 -3 -13 4.5t-4 13.5l283 316l-172 315q-4 7 7 14q6 5 9 0l279 -305q8 -9 6.5 -23t-12.5 -24zM377 76q-6 -3 -14.5 4.5t-4.5 13.5l283 316l-172 315q-4 7 7 14q6 5 9 0l279 -305q8 -9 6.5 -23t-12.5 -24z" />
<glyph unicode="&#xbc;" horiz-adv-x="1122" d="M459 633q-19 0 -72 2t-86 2t-91 -2t-79 -2q-7 0 -7 11t7 11q86 0 109.5 22.5t42.5 119.5l43 241q20 118 18 138q-3 29 -36 22q-24 -5 -97 -39q-9 -3 -13.5 7.5t3.5 15.5l235 118q7 3 12 -3t3 -11l-84 -489q-19 -97 -4.5 -119.5t96.5 -22.5q7 0 7 -11t-7 -11zM954 1280 q5 4 17 0.5t23 -11.5t7 -14l-692 -1261q-2 -4 -14 0t-23 10.5t-10 9.5zM1044 238q2 -2 1.5 -15.5t-4 -29t-7.5 -15.5l-80 6l-16 -100q-8 -41 2 -52.5t66 -11.5q9 0 9 -12t-9 -12q-14 0 -50 2t-63 2q-30 0 -79 -2t-66 -2q-8 0 -8 12t8 12q66 0 85 11.5t27 52.5l19 102 q-126 4 -230 4q-1 0 -2.5 2.5t-2 5.5t2.5 5l371 463q3 3 11 -0.5t7 -10.5l-71 -422q14 1 40.5 2.5t38.5 2.5zM731 225q68 0 154 4l51 293l-209 -289q-8 -8 4 -8z" />
<glyph unicode="&#xbd;" horiz-adv-x="1153" d="M459 633q-19 0 -72 2t-86 2t-91 -2t-79 -2q-7 0 -7 11t7 11q86 0 109.5 22.5t42.5 119.5l43 241q20 118 18 138q-3 29 -36 22q-24 -5 -97 -39q-9 -3 -13.5 7.5t3.5 15.5l235 118q7 3 12 -3t3 -11l-84 -489q-19 -97 -4.5 -119.5t96.5 -22.5q7 0 7 -11t-7 -11zM954 1280 q5 4 17 0.5t23 -11.5t7 -14l-692 -1261q-2 -4 -14 0t-23 10.5t-10 9.5zM969 668q72 0 104 -43t21 -111q-10 -50 -56.5 -113.5t-98.5 -114.5t-106.5 -110.5t-74.5 -99.5h2h97.5t66 6t44 9.5t27 21.5t21.5 30t20 47q3 9 15 6t10 -12l-35 -178q0 -6 -6 -6h-330q-13 0 -4 18 q18 40 56 91.5t78 99.5t79.5 98.5t69 104t37.5 100.5q7 51 -13 81t-61 30q-43 0 -83 -34.5t-61 -86.5q-3 -6 -15 -3.5t-9 11.5q71 158 205 158z" />
<glyph unicode="&#xbe;" horiz-adv-x="1105" d="M473 813q-13 -75 -74 -133.5t-149 -58.5q-127 0 -146 141q-1 5 5 8t12.5 2t7.5 -6q8 -43 34 -76t79 -33t90.5 37t48.5 113q13 81 -19 119.5t-90 38.5q-6 0 -6 12t6 12q54 0 95 49.5t51 106.5q9 48 -12.5 79t-63.5 31q-41 0 -78.5 -33t-58.5 -81q-3 -6 -14 -2t-9 10 q68 151 201 151q69 0 102 -43.5t21 -111.5q-10 -55 -51 -99t-97 -65q61 -15 94.5 -56.5t20.5 -111.5zM936 1280q5 4 17 0.5t23 -11.5t7 -14l-692 -1261q-2 -4 -14 0t-23 10.5t-10 9.5zM1026 238q2 -2 1.5 -15.5t-4 -29t-7.5 -15.5l-80 6l-16 -100q-8 -41 2 -52.5t65 -11.5 q9 0 9 -12t-9 -12q-15 0 -51 2t-62 2q-29 0 -78.5 -2t-66.5 -2q-7 0 -7 12t7 12q66 0 85.5 11.5t27.5 52.5l18 102q-126 4 -229 4q-1 0 -2.5 2.5t-2 5.5t2.5 5l370 463q3 3 11.5 -0.5t7.5 -10.5l-72 -422q14 1 41 2.5t39 2.5zM713 225q67 0 153 4l52 293l-209 -289 q-8 -8 4 -8z" />
<glyph unicode="&#xbf;" horiz-adv-x="622" d="M422 737q41 0 64.5 -23t23.5 -63q0 -39 -23.5 -61.5t-64.5 -22.5t-63.5 22.5t-22.5 61.5q0 40 22.5 63t63.5 23zM371 328q18 -54 22.5 -129.5t-4.5 -114.5q-9 -54 -39.5 -97.5t-68.5 -75t-77 -64t-71 -80.5t-43 -109q-15 -87 17.5 -140t105.5 -53q53 0 77 26t36 69 q7 20 11 30t14 26.5t24 24t33 7.5q32 0 46.5 -22t8.5 -52q-7 -57 -86.5 -97t-177.5 -40q-123 0 -187 65.5t-41 180.5q5 25 14 49.5t18 42.5t26 39.5t26.5 33.5t31 31.5t29.5 26.5t32 26t28 23q81 69 117.5 125.5t48.5 128.5q10 40 6 117q0 9 11 9.5t12 -7.5z" />
<glyph unicode="&#xc0;" horiz-adv-x="1228" d="M541 1548q-18 3 24 24q65 33 100 35l9 -1q20 -12 75.5 -46t85.5 -52t78.5 -46t92.5 -51q4 -3 4 -8.5t-4 -10t-9 -1.5q-231 101 -456 157zM1153 25q7 0 7 -12.5t-7 -12.5q-30 0 -98 4t-109 4q-40 0 -103 -4t-95 -4q-6 0 -6 12.5t6 12.5q94 0 118.5 29.5t12.5 117.5 l-64 391h-391l-160 -293q-42 -77 -56.5 -126t-1 -75t43.5 -35t84 -9q5 0 6.5 -6.5t-0.5 -12.5t-8 -6q-25 0 -99.5 4t-113.5 4q-41 0 -98 -4t-91 -4q-8 0 -8 12.5t8 12.5q135 0 267 227l585 1048q5 7 20 4.5t17 -8.5l180 -1124q14 -90 40.5 -118.5t113.5 -28.5zM446 604h363 l-82 510z" />
<glyph unicode="&#xc1;" horiz-adv-x="1228" d="M596 1389q-9 -3 -12.5 8t2.5 14q73 36 188 106t146 87q14 10 89 -23q51 -22 47 -31l-5 -2q-242 -63 -455 -159zM1153 25q7 0 7 -12.5t-7 -12.5q-30 0 -98 4t-109 4q-40 0 -103 -4t-95 -4q-6 0 -6 12.5t6 12.5q94 0 118.5 29.5t12.5 117.5l-64 391h-391l-160 -293 q-42 -77 -56.5 -126t-1 -75t43.5 -35t84 -9q5 0 6.5 -6.5t-0.5 -12.5t-8 -6q-25 0 -99.5 4t-113.5 4q-41 0 -98 -4t-91 -4q-8 0 -8 12.5t8 12.5q135 0 267 227l585 1048q5 7 20 4.5t17 -8.5l180 -1124q14 -90 40.5 -118.5t113.5 -28.5zM446 604h363l-82 510z" />
<glyph unicode="&#xc2;" horiz-adv-x="1228" d="M621 1352q-2 -2 -6.5 0.5t-6.5 6.5t0 7l219 199q7 9 19 9t18 -9l154 -199q3 -5 -3.5 -11.5t-10.5 -2.5l-177 116zM1153 25q7 0 7 -12.5t-7 -12.5q-30 0 -98 4t-109 4q-40 0 -103 -4t-95 -4q-6 0 -6 12.5t6 12.5q94 0 118.5 29.5t12.5 117.5l-64 391h-391l-160 -293 q-42 -77 -56.5 -126t-1 -75t43.5 -35t84 -9q5 0 6.5 -6.5t-0.5 -12.5t-8 -6q-25 0 -99.5 4t-113.5 4q-41 0 -98 -4t-91 -4q-8 0 -8 12.5t8 12.5q135 0 267 227l585 1048q5 7 20 4.5t17 -8.5l180 -1124q14 -90 40.5 -118.5t113.5 -28.5zM446 604h363l-82 510z" />
<glyph unicode="&#xc3;" horiz-adv-x="1228" d="M578 1473q-5 -3 -12 2.5t-3 11.5q92 125 178 125q30 0 116 -24.5t140 -24.5q36 0 59 14t46 41q2 1 4.5 0.5t5 -2t4 -4t2 -4.5t-1.5 -4q-55 -74 -90.5 -100.5t-75.5 -26.5q-44 0 -130 25.5t-138 25.5q-12 0 -22 -1t-19 -5t-14.5 -6.5t-13.5 -9t-11 -9.5l-12 -12zM1153 25 q7 0 7 -12.5t-7 -12.5q-30 0 -98 4t-109 4q-40 0 -103 -4t-95 -4q-6 0 -6 12.5t6 12.5q94 0 118.5 29.5t12.5 117.5l-64 391h-391l-160 -293q-42 -77 -56.5 -126t-1 -75t43.5 -35t84 -9q5 0 6.5 -6.5t-0.5 -12.5t-8 -6q-25 0 -99.5 4t-113.5 4q-41 0 -98 -4t-91 -4 q-8 0 -8 12.5t8 12.5q135 0 267 227l585 1048q5 7 20 4.5t17 -8.5l180 -1124q14 -90 40.5 -118.5t113.5 -28.5zM446 604h363l-82 510z" />
<glyph unicode="&#xc4;" horiz-adv-x="1228" d="M666 1468q-40 0 -64 22.5t-24 61.5t24 61.5t64 22.5t62 -22t22 -62t-22 -62t-62 -22zM1024 1468q-41 0 -64.5 22t-23.5 62t23.5 62t64.5 22q40 0 62 -22t22 -62t-22 -62t-62 -22zM1153 25q7 0 7 -12.5t-7 -12.5q-30 0 -98 4t-109 4q-40 0 -103 -4t-95 -4q-6 0 -6 12.5 t6 12.5q94 0 118.5 29.5t12.5 117.5l-64 391h-391l-160 -293q-42 -77 -56.5 -126t-1 -75t43.5 -35t84 -9q5 0 6.5 -6.5t-0.5 -12.5t-8 -6q-25 0 -99.5 4t-113.5 4q-41 0 -98 -4t-91 -4q-8 0 -8 12.5t8 12.5q135 0 267 227l585 1048q5 7 20 4.5t17 -8.5l180 -1124 q14 -90 40.5 -118.5t113.5 -28.5zM446 604h363l-82 510z" />
<glyph unicode="&#xc5;" horiz-adv-x="1228" d="M811 1374q-74 0 -118 48.5t-44 115.5q0 73 56 115.5t124 42.5q67 0 114.5 -48t47.5 -116q0 -71 -55 -114.5t-125 -43.5zM788 1673q-53 0 -53 -94q0 -69 30 -126.5t77 -57.5q61 0 61 102q0 71 -35 123.5t-80 52.5zM1153 25q7 0 7 -12.5t-7 -12.5q-30 0 -98 4t-109 4 q-40 0 -103 -4t-95 -4q-6 0 -6 12.5t6 12.5q94 0 118.5 29.5t12.5 117.5l-64 391h-391l-160 -293q-42 -77 -56.5 -126t-1 -75t43.5 -35t84 -9q5 0 6.5 -6.5t-0.5 -12.5t-8 -6q-25 0 -99.5 4t-113.5 4q-41 0 -98 -4t-91 -4q-8 0 -8 12.5t8 12.5q135 0 267 227l585 1048 q5 7 20 4.5t17 -8.5l180 -1124q14 -90 40.5 -118.5t113.5 -28.5zM446 604h363l-82 510z" />
<glyph unicode="&#xc6;" horiz-adv-x="1574" d="M1552 1280q18 0 15 -18q-4 -26 -18.5 -123.5t-20.5 -130.5q-2 -10 -17 -5q-6 3 -6 7q11 109 -36.5 175t-143.5 66h-78q-119 0 -157.5 -26.5t-49.5 -112.5l-53 -424h236q85 0 126 34.5t56 113.5q0 9 15 3q8 -3 7 -8q-7 -46 -17 -96t-13 -69q-17 -105 -31 -191 q-2 -4 -12.5 -2.5t-10.5 6.5q15 92 -15.5 129t-119.5 37h-225l-59 -471q-11 -89 10 -113t117 -24h141q79 0 152 73.5t116 194.5q1 4 7 4.5t11.5 -2t4.5 -6.5q-45 -141 -66 -270q-3 -18 -9.5 -24.5t-23.5 -6.5h-763q-9 0 -9 12.5t9 12.5q100 0 135 26.5t45 114.5l61 479h-309 l-293 -393q-57 -77 -72 -126t16 -75t113 -26q9 0 8 -12.5t-8 -12.5q-35 0 -111 4t-124 4q-45 0 -104 -4t-93 -4q-9 0 -9 12.5t9 12.5q80 0 151 51t179 196l672 906q38 57 23 67t-132 10q-9 0 -9 12.5t9 12.5h774zM586 688h282l60 457z" />
<glyph unicode="&#xc7;" horiz-adv-x="1200" d="M1186 1231q13 -10 15.5 -18t0.5 -31l-20 -228q-3 -8 -13 -8t-10 8q-28 303 -348 303q-200 0 -343.5 -149t-184.5 -399q-34 -192 4 -354.5t137 -257.5t238 -95q119 0 229 77t199 230q3 3 8 3t9.5 -3.5t2.5 -7.5l-61 -219q-6 -26 -12 -34.5t-25 -14.5q-180 -60 -361 -60 q-23 -66 -15.5 -103.5t44.5 -82.5q38 -50 54.5 -90.5t8.5 -81.5q-9 -64 -66 -121t-145 -57q-54 0 -87 24.5t-25 71.5q3 20 20 31.5t39 11.5t37.5 -15.5t22.5 -34.5t20 -34.5t31 -15.5q58 0 76 78q5 60 -78 163q-59 69 -13 160l50 96q-93 3 -170 26t-131.5 61t-95 89.5 t-63.5 110t-34 125t-9.5 133t13.5 133.5q26 143 101.5 267t178.5 207t226.5 130.5t247.5 47.5q85 0 168 -19.5t129 -52.5z" />
<glyph unicode="&#xc8;" horiz-adv-x="1052" d="M492 1548q-19 4 22 23q66 29 116 36l15 -1q142 -121 244 -191q7 -4 -2 -14q-7 -8 -13 -4q-202 98 -382 151zM1036 1280q16 0 13 -18q-4 -26 -18.5 -123.5t-20.5 -130.5q-1 -5 -7.5 -6t-12.5 1.5t-5 6.5q12 109 -29.5 174t-126.5 65h-167q-66 0 -97.5 -11t-46.5 -38 t-24 -88l-76 -424h289q80 0 118.5 32t51.5 111q2 9 15 6q9 -3 9 -10q-7 -43 -17.5 -91t-13.5 -70q-4 -27 -12.5 -89.5t-15.5 -101.5q-1 -6 -7.5 -7.5t-12.5 1t-5 8.5q17 91 -11.5 129.5t-113.5 38.5h-280l-84 -471q-14 -86 8 -110.5t113 -24.5h223q78 0 151.5 73.5 t114.5 192.5q2 8 17 3q6 -3 6 -7q-33 -103 -64 -270q-5 -31 -33 -31h-831q-5 0 -5 12.5t5 12.5q96 0 126.5 25.5t47.5 115.5l168 948q15 88 -7.5 114.5t-115.5 26.5q-6 0 -6 12.5t6 12.5h784z" />
<glyph unicode="&#xc9;" horiz-adv-x="1052" d="M584 1391q-6 -3 -10.5 1.5t-4.5 10t4 8.5q56 29 113 62.5t121 73t98 59.5q15 8 90 -25q52 -22 48 -31l-5 -2q-220 -55 -454 -157zM1036 1280q16 0 13 -18q-4 -26 -18.5 -123.5t-20.5 -130.5q-1 -5 -7.5 -6t-12.5 1.5t-5 6.5q12 109 -29.5 174t-126.5 65h-167 q-66 0 -97.5 -11t-46.5 -38t-24 -88l-76 -424h289q80 0 118.5 32t51.5 111q2 9 15 6q9 -3 9 -10q-7 -43 -17.5 -91t-13.5 -70q-4 -27 -12.5 -89.5t-15.5 -101.5q-1 -6 -7.5 -7.5t-12.5 1t-5 8.5q17 91 -11.5 129.5t-113.5 38.5h-280l-84 -471q-14 -86 8 -110.5t113 -24.5 h223q78 0 151.5 73.5t114.5 192.5q2 8 17 3q6 -3 6 -7q-33 -103 -64 -270q-5 -31 -33 -31h-831q-5 0 -5 12.5t5 12.5q96 0 126.5 25.5t47.5 115.5l168 948q15 88 -7.5 114.5t-115.5 26.5q-6 0 -6 12.5t6 12.5h784z" />
<glyph unicode="&#xca;" horiz-adv-x="1052" d="M512 1352q-2 -2 -6 0.5t-6 6.5t0 7l219 199q7 9 19 9t18 -9l153 -199q1 -2 0.5 -4.5t-2 -5t-4 -4t-4.5 -2t-4 1.5l-176 116zM1036 1280q16 0 13 -18q-4 -26 -18.5 -123.5t-20.5 -130.5q-1 -5 -7.5 -6t-12.5 1.5t-5 6.5q12 109 -29.5 174t-126.5 65h-167q-66 0 -97.5 -11 t-46.5 -38t-24 -88l-76 -424h289q80 0 118.5 32t51.5 111q2 9 15 6q9 -3 9 -10q-7 -43 -17.5 -91t-13.5 -70q-4 -27 -12.5 -89.5t-15.5 -101.5q-1 -6 -7.5 -7.5t-12.5 1t-5 8.5q17 91 -11.5 129.5t-113.5 38.5h-280l-84 -471q-14 -86 8 -110.5t113 -24.5h223 q78 0 151.5 73.5t114.5 192.5q2 8 17 3q6 -3 6 -7q-33 -103 -64 -270q-5 -31 -33 -31h-831q-5 0 -5 12.5t5 12.5q96 0 126.5 25.5t47.5 115.5l168 948q15 88 -7.5 114.5t-115.5 26.5q-6 0 -6 12.5t6 12.5h784z" />
<glyph unicode="&#xcb;" horiz-adv-x="1052" d="M580 1468q-40 0 -63 22t-23 62t23 62t63 22t62 -22t22 -62t-22 -62t-62 -22zM889 1468q-41 0 -64.5 22t-23.5 62t23.5 62t64.5 22q40 0 62 -22t22 -62t-22 -62t-62 -22zM1036 1280q16 0 13 -18q-4 -26 -18.5 -123.5t-20.5 -130.5q-1 -5 -7.5 -6t-12.5 1.5t-5 6.5 q12 109 -29.5 174t-126.5 65h-167q-66 0 -97.5 -11t-46.5 -38t-24 -88l-76 -424h289q80 0 118.5 32t51.5 111q2 9 15 6q9 -3 9 -10q-7 -43 -17.5 -91t-13.5 -70q-4 -27 -12.5 -89.5t-15.5 -101.5q-1 -6 -7.5 -7.5t-12.5 1t-5 8.5q17 91 -11.5 129.5t-113.5 38.5h-280 l-84 -471q-14 -86 8 -110.5t113 -24.5h223q78 0 151.5 73.5t114.5 192.5q2 8 17 3q6 -3 6 -7q-33 -103 -64 -270q-5 -31 -33 -31h-831q-5 0 -5 12.5t5 12.5q96 0 126.5 25.5t47.5 115.5l168 948q15 88 -7.5 114.5t-115.5 26.5q-6 0 -6 12.5t6 12.5h784z" />
<glyph unicode="&#xcc;" horiz-adv-x="630" d="M653 1397q-200 98 -383 151q-19 4 22 22q66 30 117 36q11 2 15 0q142 -121 244 -191q7 -4 -2 -14q-7 -8 -13 -4zM41 0q-6 0 -6 12.5t6 12.5q95 0 126 25.5t46 115.5l168 948q17 87 -7 114t-118 27q-6 0 -6 12.5t6 12.5q26 0 95.5 -3t111.5 -3q48 0 119 3t94 3 q4 0 4 -12.5t-4 -12.5q-93 0 -124.5 -27.5t-49.5 -117.5l-168 -944q-15 -90 8 -115.5t119 -25.5q5 0 5 -12.5t-5 -12.5q-25 0 -94.5 2t-116.5 2q-42 0 -112.5 -2t-96.5 -2z" />
<glyph unicode="&#xcd;" horiz-adv-x="630" d="M362 1391q-6 -3 -10.5 1.5t-4 10t4.5 8.5q56 29 113 62.5t121 73t98 59.5q15 8 90 -25q52 -22 48 -31l-5 -2q-223 -55 -455 -157zM41 0q-6 0 -6 12.5t6 12.5q95 0 126 25.5t46 115.5l168 948q17 87 -7 114t-118 27q-6 0 -6 12.5t6 12.5q26 0 95.5 -3t111.5 -3q48 0 119 3 t94 3q4 0 4 -12.5t-4 -12.5q-93 0 -124.5 -27.5t-49.5 -117.5l-168 -944q-15 -90 8 -115.5t119 -25.5q5 0 5 -12.5t-5 -12.5q-25 0 -94.5 2t-116.5 2q-42 0 -112.5 -2t-96.5 -2z" />
<glyph unicode="&#xce;" horiz-adv-x="630" d="M291 1352q-2 -2 -6.5 0.5t-6 6.5t0.5 7l219 199q8 9 19.5 9t17.5 -9l153 -199q2 -3 -0.5 -7.5t-6.5 -6.5t-7 0l-176 116zM41 0q-6 0 -6 12.5t6 12.5q95 0 126 25.5t46 115.5l168 948q17 87 -7 114t-118 27q-6 0 -6 12.5t6 12.5q26 0 95.5 -3t111.5 -3q48 0 119 3t94 3 q4 0 4 -12.5t-4 -12.5q-93 0 -124.5 -27.5t-49.5 -117.5l-168 -944q-15 -90 8 -115.5t119 -25.5q5 0 5 -12.5t-5 -12.5q-25 0 -94.5 2t-116.5 2q-42 0 -112.5 -2t-96.5 -2z" />
<glyph unicode="&#xcf;" horiz-adv-x="630" d="M379 1468q-41 0 -64.5 22t-23.5 62t23.5 62t64.5 22q40 0 62 -22t22 -62t-22 -62t-62 -22zM649 1468q-40 0 -63 22t-23 62t23 62t63 22q41 0 63.5 -22t22.5 -62t-22.5 -62t-63.5 -22zM41 0q-6 0 -6 12.5t6 12.5q95 0 126 25.5t46 115.5l168 948q17 87 -7 114t-118 27 q-6 0 -6 12.5t6 12.5q26 0 95.5 -3t111.5 -3q48 0 119 3t94 3q4 0 4 -12.5t-4 -12.5q-93 0 -124.5 -27.5t-49.5 -117.5l-168 -944q-15 -90 8 -115.5t119 -25.5q5 0 5 -12.5t-5 -12.5q-25 0 -94.5 2t-116.5 2q-42 0 -112.5 -2t-96.5 -2z" />
<glyph unicode="&#xd0;" horiz-adv-x="1253" d="M686 1284q185 0 316 -81.5t185.5 -223t24.5 -317.5q-35 -199 -148 -354t-265.5 -235.5t-315.5 -80.5q-31 0 -120.5 6t-131.5 6q-46 0 -115 -2t-93 -2q-6 0 -6 12.5t6 12.5q96 0 128.5 26t47.5 115l80 450h-164q-9 0 -9 20.5t9 20.5h172l80 457q17 88 -6.5 114.5 t-118.5 26.5q-4 0 -4 12.5t4 12.5q25 0 97 -3t116 -3q38 0 119.5 5t111.5 5zM1063 616q31 174 0.5 318t-126.5 232.5t-245 88.5q-105 0 -148.5 -28.5t-60.5 -116.5l-80 -453h248q7 0 7 -20.5t-7 -20.5h-254l-75 -428q-18 -90 12.5 -129t136.5 -39q218 0 380 157t212 439z " />
<glyph unicode="&#xd1;" d="M586 1423q-3 -2 -8 0.5t-7 7t0 7.5q95 127 179 127q32 0 118 -26t138 -26q26 0 47 9.5t31 18t28 28.5q5 3 11.5 -3t2.5 -12q-55 -74 -90 -99t-75 -25q-43 0 -130 24.5t-139 24.5q-17 0 -30 -2.5t-24.5 -9.5t-17 -11t-18 -16.5zM1407 1280q5 0 5 -12.5t-5 -12.5 q-74 0 -117.5 -46t-60.5 -148l-193 -1081q0 -8 -13 -10t-17 7l-592 1135q-7 14 -13 23l-157 -918q-19 -103 5 -147.5t99 -44.5q4 0 4 -12.5t-4 -12.5q-20 0 -73 2t-89 2q-30 0 -84.5 -2t-76.5 -2q-6 0 -6 12.5t6 12.5q74 0 116.5 45t59.5 147l172 965q-57 73 -129 73 q-6 0 -6 12.5t6 12.5q22 0 69.5 -2t65.5 -2q20 0 53 2t37 2q14 0 19.5 -7.5t16 -39t23.5 -59.5l506 -977l152 864q19 103 -5.5 148.5t-97.5 45.5q-6 0 -6 12.5t6 12.5q18 0 70.5 -3t89.5 -3q31 0 86 3t78 3z" />
<glyph unicode="&#xd2;" d="M1006 1397q-200 98 -383 151q-19 4 22 23q66 29 116 36l15 -1q142 -121 244 -191q3 -3 2 -8t-6 -9t-10 -1zM582 -25q-99 0 -181 34t-137.5 95t-91.5 145t-42 183t11 209q33 190 135.5 341.5t250 236t311.5 84.5q103 0 187.5 -34.5t140.5 -95.5t91.5 -144.5t40.5 -181.5 t-12 -206q-34 -193 -140.5 -346.5t-255 -236.5t-308.5 -83zM668 29q177 0 304.5 131t176.5 372q33 151 17.5 282.5t-65 229t-139.5 153.5t-206 56q-183 0 -310 -135t-170 -368q-20 -116 -18 -222t33 -197t81 -158.5t126.5 -105.5t169.5 -38z" />
<glyph unicode="&#xd3;" d="M715 1391q-6 -3 -10.5 1.5t-4 10t4.5 8.5q56 29 113 62.5t120 72.5t98 60q15 8 90 -25q52 -22 48 -31l-5 -2q-220 -55 -454 -157zM582 -25q-99 0 -181 34t-137.5 95t-91.5 145t-42 183t11 209q33 190 135.5 341.5t250 236t311.5 84.5q103 0 187.5 -34.5t140.5 -95.5 t91.5 -144.5t40.5 -181.5t-12 -206q-34 -193 -140.5 -346.5t-255 -236.5t-308.5 -83zM668 29q177 0 304.5 131t176.5 372q33 151 17.5 282.5t-65 229t-139.5 153.5t-206 56q-183 0 -310 -135t-170 -368q-20 -116 -18 -222t33 -197t81 -158.5t126.5 -105.5t169.5 -38z" />
<glyph unicode="&#xd4;" d="M643 1352q-2 -2 -6 0.5t-6 6.5t0 7l219 199q8 9 19.5 9t17.5 -9l153 -199q4 -6 -5 -13q-5 -5 -9 -1l-176 116zM582 -25q-99 0 -181 34t-137.5 95t-91.5 145t-42 183t11 209q33 190 135.5 341.5t250 236t311.5 84.5q103 0 187.5 -34.5t140.5 -95.5t91.5 -144.5 t40.5 -181.5t-12 -206q-34 -193 -140.5 -346.5t-255 -236.5t-308.5 -83zM668 29q177 0 304.5 131t176.5 372q33 151 17.5 282.5t-65 229t-139.5 153.5t-206 56q-183 0 -310 -135t-170 -368q-20 -116 -18 -222t33 -197t81 -158.5t126.5 -105.5t169.5 -38z" />
<glyph unicode="&#xd5;" d="M602 1423q-5 -3 -11.5 4t-2.5 11q95 127 178 127q32 0 118 -26t138 -26q26 0 47 9.5t31 18t28 28.5q5 3 12 -3t3 -12q-55 -73 -90.5 -98.5t-75.5 -25.5q-43 0 -129 24.5t-139 24.5q-17 0 -30 -2.5t-25 -10t-17 -10.5t-18.5 -16.5zM582 -25q-99 0 -181 34t-137.5 95 t-91.5 145t-42 183t11 209q33 190 135.5 341.5t250 236t311.5 84.5q103 0 187.5 -34.5t140.5 -95.5t91.5 -144.5t40.5 -181.5t-12 -206q-34 -193 -140.5 -346.5t-255 -236.5t-308.5 -83zM668 29q177 0 304.5 131t176.5 372q33 151 17.5 282.5t-65 229t-139.5 153.5t-206 56 q-183 0 -310 -135t-170 -368q-20 -116 -18 -222t33 -197t81 -158.5t126.5 -105.5t169.5 -38z" />
<glyph unicode="&#xd6;" d="M711 1468q-40 0 -63 22t-23 62t23 62t63 22t62 -22t22 -62t-22 -62t-62 -22zM1020 1468q-41 0 -64.5 22t-23.5 62t23.5 62t64.5 22q40 0 62 -22t22 -62t-22 -62t-62 -22zM582 -25q-99 0 -181 34t-137.5 95t-91.5 145t-42 183t11 209q33 190 135.5 341.5t250 236 t311.5 84.5q103 0 187.5 -34.5t140.5 -95.5t91.5 -144.5t40.5 -181.5t-12 -206q-34 -193 -140.5 -346.5t-255 -236.5t-308.5 -83zM668 29q177 0 304.5 131t176.5 372q33 151 17.5 282.5t-65 229t-139.5 153.5t-206 56q-183 0 -310 -135t-170 -368q-20 -116 -18 -222t33 -197 t81 -158.5t126.5 -105.5t169.5 -38z" />
<glyph unicode="&#xd7;" horiz-adv-x="815" d="M676 180q4 -7 -25 -36t-35 -23l-208 209l-211 -209q-4 -5 -20.5 8t-30 28.5t-9.5 18.5l213 213l-211 211q-5 3 8 19t29 29t19 9l213 -211l208 209q4 4 20 -9t29 -29t9 -21l-209 -207z" />
<glyph unicode="&#xd8;" d="M1327 1290q3 4 12.5 -0.5t16.5 -12t2 -11.5l-148 -150q61 -91 81 -214t-5 -261q-34 -193 -140.5 -346.5t-255 -236.5t-308.5 -83q-215 0 -340 154l-144 -145q-6 -6 -21.5 8.5t-8.5 21.5l147 150q-59 93 -78.5 214.5t4.5 262.5q33 190 135.5 341.5t250 236t311.5 84.5 q222 0 350 -154zM276 750q-54 -281 39 -484l781 789q-54 94 -140.5 146t-199.5 52q-183 0 -310 -135t-170 -368zM1149 532q59 284 -35 486l-778 -793q113 -196 332 -196q177 0 304.5 131t176.5 372z" />
<glyph unicode="&#xd9;" horiz-adv-x="1265" d="M1030 1391q-230 101 -457 157q-17 3 23 23q63 32 101 36l10 -1q260 -158 331 -195q9 -3 3 -15q-4 -9 -11 -5zM1153 1061q15 99 -15.5 146.5t-109.5 47.5q-6 0 -6 12.5t6 12.5q27 0 87 -3t97 -3q31 0 88.5 3t79.5 3q7 0 6.5 -12.5t-6.5 -12.5q-148 0 -186 -202l-102 -592 q-41 -230 -184 -359t-345 -129q-204 0 -302 130t-60 350l118 663q15 89 -8.5 114t-122.5 25q-6 0 -6 12.5t6 12.5q27 0 99.5 -3t115.5 -3q48 0 122 3t96 3q7 0 7 -12.5t-7 -12.5q-99 0 -134.5 -29.5t-50.5 -119.5l-106 -590q-40 -237 36.5 -359t245.5 -122t285 115t150 315z " />
<glyph unicode="&#xda;" horiz-adv-x="1265" d="M629 1389q-11 -4 -14 11q-2 9 3 11q73 36 188 106t146 87q14 10 89 -23q51 -22 47 -31l-5 -2q-240 -62 -454 -159zM1153 1061q15 99 -15.5 146.5t-109.5 47.5q-6 0 -6 12.5t6 12.5q27 0 87 -3t97 -3q31 0 88.5 3t79.5 3q7 0 6.5 -12.5t-6.5 -12.5q-148 0 -186 -202 l-102 -592q-41 -230 -184 -359t-345 -129q-204 0 -302 130t-60 350l118 663q15 89 -8.5 114t-122.5 25q-6 0 -6 12.5t6 12.5q27 0 99.5 -3t115.5 -3q48 0 122 3t96 3q7 0 7 -12.5t-7 -12.5q-99 0 -134.5 -29.5t-50.5 -119.5l-106 -590q-40 -237 36.5 -359t245.5 -122 t285 115t150 315z" />
<glyph unicode="&#xdb;" horiz-adv-x="1265" d="M655 1352q-2 -2 -6 0.5t-6 6.5t0 7l219 199q7 9 19 9t18 -9l154 -199q3 -5 -4 -11.5t-11 -2.5l-176 116zM1153 1061q15 99 -15.5 146.5t-109.5 47.5q-6 0 -6 12.5t6 12.5q27 0 87 -3t97 -3q31 0 88.5 3t79.5 3q7 0 6.5 -12.5t-6.5 -12.5q-148 0 -186 -202l-102 -592 q-41 -230 -184 -359t-345 -129q-204 0 -302 130t-60 350l118 663q15 89 -8.5 114t-122.5 25q-6 0 -6 12.5t6 12.5q27 0 99.5 -3t115.5 -3q48 0 122 3t96 3q7 0 7 -12.5t-7 -12.5q-99 0 -134.5 -29.5t-50.5 -119.5l-106 -590q-40 -237 36.5 -359t245.5 -122t285 115t150 315z " />
<glyph unicode="&#xdc;" horiz-adv-x="1265" d="M700 1468q-40 0 -64 22.5t-24 61.5t24 61.5t64 22.5t62 -22t22 -62t-22 -62t-62 -22zM1059 1468q-41 0 -64.5 22t-23.5 62t23.5 62t64.5 22q40 0 62 -22t22 -62t-22 -62t-62 -22zM1153 1061q15 99 -15.5 146.5t-109.5 47.5q-6 0 -6 12.5t6 12.5q27 0 87 -3t97 -3 q31 0 88.5 3t79.5 3q7 0 6.5 -12.5t-6.5 -12.5q-148 0 -186 -202l-102 -592q-41 -230 -184 -359t-345 -129q-204 0 -302 130t-60 350l118 663q15 89 -8.5 114t-122.5 25q-6 0 -6 12.5t6 12.5q27 0 99.5 -3t115.5 -3q48 0 122 3t96 3q7 0 7 -12.5t-7 -12.5 q-99 0 -134.5 -29.5t-50.5 -119.5l-106 -590q-40 -237 36.5 -359t245.5 -122t285 115t150 315z" />
<glyph unicode="&#xdd;" horiz-adv-x="1083" d="M602 1391q-6 -3 -10.5 1.5t-4 10t4.5 8.5q56 29 113 62.5t121 73t98 59.5q15 8 90 -25q52 -22 48 -31l-5 -2q-223 -55 -455 -157zM1229 1280q7 0 7 -12.5t-7 -12.5q-132 0 -268 -192l-312 -428l-82 -469q-17 -90 5.5 -115.5t121.5 -25.5q8 0 8 -12.5t-8 -12.5 q-25 0 -95.5 2t-115.5 2q-47 0 -118.5 -2t-96.5 -2q-8 0 -8 12.5t8 12.5q99 0 133.5 26t47.5 115l77 450l-209 494q-35 80 -70.5 112.5t-92.5 32.5q-8 0 -8 12.5t8 12.5q21 0 69.5 -3t71.5 -3q48 0 128.5 3t106.5 3q4 0 5 -6t-1.5 -12.5t-7.5 -6.5q-70 0 -90.5 -18t-1.5 -63 l207 -496l279 395q62 86 53.5 134t-84.5 48q-7 0 -7 12.5t7 12.5q27 0 91.5 -3t111.5 -3q29 0 70.5 3t66.5 3z" />
<glyph unicode="&#xde;" horiz-adv-x="1093" d="M653 1022q98 0 179 -23t139.5 -68t82.5 -120t5 -172q-20 -96 -82 -173t-146 -121.5t-172 -67.5t-170 -23q-47 0 -83 8q-2 2 -1.5 9.5t4 15t7.5 6.5q27 -8 61 -8q68 0 136 18.5t130 55t107.5 98.5t62.5 141q37 175 -55.5 285t-255.5 110q-86 0 -141 -12l-144 -815 q-7 -40 -6.5 -62t7.5 -39.5t29.5 -25t55 -11t89.5 -3.5q4 0 4 -12.5t-4 -12.5q-31 0 -119.5 2t-143.5 2q-41 0 -110.5 -2t-91.5 -2q-6 0 -6 12.5t6 12.5q95 0 127 25.5t49 115.5l166 948q17 88 -5.5 114.5t-117.5 26.5q-4 0 -4 12.5t4 12.5q23 0 92 -3t111 -3q60 0 147 3 t115 3q6 0 6 -12.5t-6 -12.5q-59 0 -91.5 -3t-58.5 -10t-39.5 -25t-22 -41.5t-16.5 -65.5l-18 -100q89 12 188 12z" />
<glyph unicode="&#xdf;" horiz-adv-x="917" d="M-102 -563q-69 0 -101.5 25.5t-29.5 62.5q2 27 22.5 45t52.5 18q29 0 45 -18t20.5 -39t17 -39t34.5 -18q18 0 30.5 16t26.5 66t29 129t37 219l160 1001q45 272 167 427t296 155q56 0 96 -18.5t59 -49t25 -64.5t0 -69q-9 -53 -38 -104.5t-65 -92.5t-72 -80.5t-63.5 -82.5 t-34.5 -84q-9 -58 11.5 -118t55.5 -113t69.5 -107.5t54 -120.5t8.5 -133q-8 -64 -42 -125t-96 -104.5t-136 -43.5q-71 0 -109.5 33t-38.5 76q0 28 18 47t48 19q28 0 44.5 -19.5t23.5 -43t26 -43t51 -19.5q49 0 79.5 37t39.5 104q8 62 -13 124t-55.5 114t-68.5 104 t-52.5 114.5t-7.5 125.5q10 53 35.5 102t56 88.5t61 80.5t55.5 94.5t34 113.5q5 51 4 101t-30.5 87t-84.5 37q-103 0 -184.5 -143t-122.5 -400l-149 -954q-48 -296 -111 -408t-188 -112z" />
<glyph unicode="&#xe0;" horiz-adv-x="888" d="M598 973l-86 516q2 10 28 8.5t56.5 -12t30.5 -19.5l-11 -491q0 -3 -4.5 -5t-9 -1.5t-4.5 4.5zM838 158q4 4 9.5 1t7.5 -8.5t-1 -9.5q-69 -80 -124 -119.5t-105 -39.5q-51 0 -64.5 45t6.5 155l37 213q-93 -191 -211.5 -306.5t-226.5 -115.5q-151 0 -123 213 q21 144 108.5 292t206.5 243.5t224 95.5q89 0 135 -57q36 29 49 74q2 4 8.5 4.5t12 -2t4.5 -5.5l-119 -649q-21 -119 30 -119q44 0 136 95zM240 74q73 0 157.5 76.5t148.5 191t87 225.5q16 78 -16 128t-105 50q-111 -3 -217.5 -138.5t-134.5 -327.5q-30 -205 80 -205z" />
<glyph unicode="&#xe1;" horiz-adv-x="888" d="M745 1466q6 15 77 27q60 9 55 -4l-302 -520q-4 -8 -17 -1q-6 4 -3 7zM838 158q4 4 9.5 1t7.5 -8.5t-1 -9.5q-69 -80 -124 -119.5t-105 -39.5q-51 0 -64.5 45t6.5 155l37 213q-93 -191 -211.5 -306.5t-226.5 -115.5q-151 0 -123 213q21 144 108.5 292t206.5 243.5 t224 95.5q89 0 135 -57q36 29 49 74q2 4 8.5 4.5t12 -2t4.5 -5.5l-119 -649q-21 -119 30 -119q44 0 136 95zM240 74q73 0 157.5 76.5t148.5 191t87 225.5q16 78 -16 128t-105 50q-111 -3 -217.5 -138.5t-134.5 -327.5q-30 -205 80 -205z" />
<glyph unicode="&#xe2;" horiz-adv-x="888" d="M477 971q-3 -4 -8 -3.5t-10 3.5t-4 6l217 510q3 11 20 11t17 -11l36 -510q0 -5 -11.5 -5.5t-12.5 3.5l-66 315zM838 158q4 4 9.5 1t7.5 -8.5t-1 -9.5q-69 -80 -124 -119.5t-105 -39.5q-51 0 -64.5 45t6.5 155l37 213q-93 -191 -211.5 -306.5t-226.5 -115.5 q-151 0 -123 213q21 144 108.5 292t206.5 243.5t224 95.5q89 0 135 -57q36 29 49 74q2 4 8.5 4.5t12 -2t4.5 -5.5l-119 -649q-21 -119 30 -119q44 0 136 95zM240 74q73 0 157.5 76.5t148.5 191t87 225.5q16 78 -16 128t-105 50q-111 -3 -217.5 -138.5t-134.5 -327.5 q-30 -205 80 -205z" />
<glyph unicode="&#xe3;" horiz-adv-x="888" d="M868 1128q3 2 8 -0.5t7 -6.5t0 -7q-55 -74 -90.5 -100.5t-75.5 -26.5q-43 0 -129 25.5t-139 25.5q-10 0 -19.5 -1.5t-16.5 -3t-15 -5.5t-12 -6.5t-11.5 -8.5t-10 -8.5t-10.5 -11t-10 -10.5q-5 -3 -11.5 2.5t-2.5 11.5q92 125 178 125q30 0 116 -24.5t140 -24.5 q36 0 58.5 14t45.5 41zM838 158q4 4 9.5 1t7.5 -8.5t-1 -9.5q-69 -80 -124 -119.5t-105 -39.5q-51 0 -64.5 45t6.5 155l37 213q-93 -191 -211.5 -306.5t-226.5 -115.5q-151 0 -123 213q21 144 108.5 292t206.5 243.5t224 95.5q89 0 135 -57q36 29 49 74q2 4 8.5 4.5t12 -2 t4.5 -5.5l-119 -649q-21 -119 30 -119q44 0 136 95zM240 74q73 0 157.5 76.5t148.5 191t87 225.5q16 78 -16 128t-105 50q-111 -3 -217.5 -138.5t-134.5 -327.5q-30 -205 80 -205z" />
<glyph unicode="&#xe4;" horiz-adv-x="888" d="M455 979q-40 0 -63 22t-23 62t23 62t63 22t62 -22t22 -62t-22 -62t-62 -22zM764 979q-41 0 -64.5 22t-23.5 62t23.5 62t64.5 22q40 0 62 -22t22 -62t-22 -62t-62 -22zM838 158q4 4 9.5 1t7.5 -8.5t-1 -9.5q-69 -80 -124 -119.5t-105 -39.5q-51 0 -64.5 45t6.5 155l37 213 q-93 -191 -211.5 -306.5t-226.5 -115.5q-151 0 -123 213q21 144 108.5 292t206.5 243.5t224 95.5q89 0 135 -57q36 29 49 74q2 4 8.5 4.5t12 -2t4.5 -5.5l-119 -649q-21 -119 30 -119q44 0 136 95zM240 74q73 0 157.5 76.5t148.5 191t87 225.5q16 78 -16 128t-105 50 q-111 -3 -217.5 -138.5t-134.5 -327.5q-30 -205 80 -205z" />
<glyph unicode="&#xe5;" horiz-adv-x="888" d="M596 958q-73 0 -116.5 47.5t-43.5 114.5q0 74 56.5 117t123.5 43t113.5 -48t46.5 -116q0 -71 -54.5 -114.5t-125.5 -43.5zM575 1257q-53 0 -53 -96q0 -69 30 -125.5t77 -56.5q59 0 59 100q0 71 -34 124.5t-79 53.5zM838 158q4 4 9.5 1t7.5 -8.5t-1 -9.5 q-69 -80 -124 -119.5t-105 -39.5q-51 0 -64.5 45t6.5 155l37 213q-93 -191 -211.5 -306.5t-226.5 -115.5q-151 0 -123 213q21 144 108.5 292t206.5 243.5t224 95.5q89 0 135 -57q36 29 49 74q2 4 8.5 4.5t12 -2t4.5 -5.5l-119 -649q-21 -119 30 -119q44 0 136 95zM240 74 q73 0 157.5 76.5t148.5 191t87 225.5q16 78 -16 128t-105 50q-111 -3 -217.5 -138.5t-134.5 -327.5q-30 -205 80 -205z" />
<glyph unicode="&#xe6;" horiz-adv-x="1107" d="M969 817q80 0 111 -37t24 -90q-7 -46 -48 -85.5t-137 -84t-255 -92.5q-23 -189 16 -287t131 -98q96 0 172 70q6 5 14 -4t2 -15q-70 -63 -132 -91t-130 -28q-119 0 -169.5 107.5t-22.5 294.5q-81 -183 -182 -293.5t-195 -110.5q-72 0 -105.5 52t-19.5 161q15 107 66.5 221 t120.5 204t153.5 148t161.5 58q55 0 95.5 -31t47.5 -94q128 125 281 125zM975 662q9 40 -10 77t-70 37q-81 0 -144 -89.5t-83 -231.5q45 15 80.5 28.5t77.5 34t71 41t51 47.5t27 56zM242 76q59 0 131 75.5t128.5 190t76.5 225.5q15 79 -12.5 132.5t-90.5 52.5 q-97 -3 -191.5 -141t-121.5 -332q-29 -203 80 -203z" />
<glyph unicode="&#xe7;" horiz-adv-x="706" d="M510 817q75 0 128.5 -34.5t47.5 -86.5q-2 -29 -19.5 -47t-48.5 -18q-54 0 -73 65q-8 29 -34 52.5t-73 23.5q-95 0 -155.5 -81.5t-85.5 -213.5q-19 -84 -13 -162t28.5 -138t73.5 -96t122 -36q105 0 217 92q6 5 14 -3.5t2 -14.5q-159 -140 -305 -146q-23 -64 -15.5 -102.5 t44.5 -83.5q38 -50 54.5 -90.5t8.5 -81.5q-9 -64 -66 -121t-145 -57q-54 0 -87.5 24.5t-25.5 71.5q3 20 20 31.5t40 11.5q22 0 37 -15.5t22 -34.5t20 -34.5t31 -15.5q58 0 76 78q5 60 -78 163q-59 68 -12 160l49 96q-65 2 -115 30t-78.5 72t-43 101t-14 117.5t13.5 120.5 q24 123 96.5 217.5t162 140t179.5 45.5z" />
<glyph unicode="&#xe8;" horiz-adv-x="702" d="M504 973l-86 516q2 10 27.5 8.5t56 -12t30.5 -19.5l-10 -491q0 -3 -4.5 -5t-9 -1.5t-4.5 4.5zM672 707q-18 -90 -157 -165.5t-327 -103.5q-30 -173 25.5 -283t183.5 -110q114 0 205 68q6 3 13 -5t1 -14q-144 -119 -299 -119q-79 0 -136.5 33t-85.5 89t-37.5 129t8.5 153 q18 104 83 204t168.5 167t214.5 67q75 0 112 -29.5t28 -80.5zM442 762q-95 0 -158.5 -82.5t-88.5 -212.5q304 52 340 197q14 50 -15.5 74t-77.5 24z" />
<glyph unicode="&#xe9;" horiz-adv-x="702" d="M651 1466q7 15 78 27q58 9 53 -4l-301 -520q-4 -8 -17 -1q-6 4 -3 7zM532 817q75 0 112 -29.5t28 -80.5q-18 -90 -157 -165.5t-327 -103.5q-30 -173 25.5 -283t183.5 -110q114 0 205 68q6 3 13 -5t1 -14q-144 -119 -299 -119q-79 0 -136.5 33t-85.5 89t-37.5 129t8.5 153 q18 104 83 204t168.5 167t214.5 67zM535 664q14 50 -15.5 74t-77.5 24q-95 0 -158.5 -82.5t-88.5 -212.5q304 52 340 197z" />
<glyph unicode="&#xea;" horiz-adv-x="702" d="M360 971q-3 -5 -13 -1.5t-9 9.5l215 510q5 11 22 11t17 -11l37 -510q0 -4 -6.5 -6t-12.5 -1t-6 5l-65 315zM672 707q-18 -90 -157 -165.5t-327 -103.5q-30 -173 25.5 -283t183.5 -110q114 0 205 68q6 3 13 -5t1 -14q-144 -119 -299 -119q-79 0 -136.5 33t-85.5 89 t-37.5 129t8.5 153q18 104 83 204t168.5 167t214.5 67q75 0 112 -29.5t28 -80.5zM442 762q-95 0 -158.5 -82.5t-88.5 -212.5q304 52 340 197q14 50 -15.5 74t-77.5 24z" />
<glyph unicode="&#xeb;" horiz-adv-x="702" d="M360 979q-40 0 -63 22t-23 62t23 62t63 22t62 -22t22 -62t-22 -62t-62 -22zM670 1147q40 0 62 -22t22 -62t-22 -62t-62 -22q-41 0 -64.5 22t-23.5 62t23.5 62t64.5 22zM532 817q75 0 112 -29.5t28 -80.5q-18 -90 -157 -165.5t-327 -103.5q-30 -173 25.5 -283t183.5 -110 q114 0 205 68q6 3 13 -5t1 -14q-144 -119 -299 -119q-79 0 -136.5 33t-85.5 89t-37.5 129t8.5 153q18 104 83 204t168.5 167t214.5 67zM535 664q14 50 -15.5 74t-77.5 24q-95 0 -158.5 -82.5t-88.5 -212.5q304 52 340 197z" />
<glyph unicode="&#xec;" horiz-adv-x="505" d="M324 973l-86 516q2 10 27.5 8.5t56 -12t30.5 -19.5l-10 -491q0 -3 -4.5 -5t-9 -1.5t-4.5 4.5zM223 -18q-53 0 -67 43t8 157l84 426q21 121 -35 121q-53 0 -141 -94q-4 -5 -10.5 -2t-8.5 8.5t2 9.5q140 158 238 158q52 0 65.5 -45t-6.5 -152l-84 -430q-23 -119 33 -119 q48 0 139 91q8 8 16 -1t1 -16q-70 -79 -125.5 -117t-108.5 -38z" />
<glyph unicode="&#xed;" horiz-adv-x="505" d="M301 969q-4 -8 -17 -1q-6 4 -3 7l190 491q7 15 78 27q58 9 53 -4zM223 -18q-53 0 -67 43t8 157l84 426q21 121 -35 121q-53 0 -141 -94q-4 -5 -10.5 -2t-8.5 8.5t2 9.5q140 158 238 158q52 0 65.5 -45t-6.5 -152l-84 -430q-23 -119 33 -119q48 0 139 91q8 8 16 -1t1 -16 q-70 -79 -125.5 -117t-108.5 -38z" />
<glyph unicode="&#xee;" horiz-adv-x="505" d="M434 1487l37 -510q0 -5 -11.5 -5.5t-13.5 3.5l-65 315l-178 -319q-3 -4 -8.5 -3.5t-10.5 3.5t-4 6l217 510q3 11 20 11t17 -11zM223 -18q-53 0 -67 43t8 157l84 426q21 121 -35 121q-53 0 -141 -94q-4 -5 -10.5 -2t-8.5 8.5t2 9.5q140 158 238 158q52 0 65.5 -45 t-6.5 -152l-84 -430q-23 -119 33 -119q48 0 139 91q8 8 16 -1t1 -16q-70 -79 -125.5 -117t-108.5 -38z" />
<glyph unicode="&#xef;" horiz-adv-x="505" d="M201 979q-41 0 -64.5 22t-23.5 62t23.5 62t64.5 22q40 0 62 -22t22 -62t-22 -62t-62 -22zM471 979q-40 0 -63 22t-23 62t23 62t63 22q41 0 63.5 -22t22.5 -62t-22.5 -62t-63.5 -22zM223 -18q-53 0 -67 43t8 157l84 426q21 121 -35 121q-53 0 -141 -94q-4 -5 -10.5 -2 t-8.5 8.5t2 9.5q140 158 238 158q52 0 65.5 -45t-6.5 -152l-84 -430q-23 -119 33 -119q48 0 139 91q8 8 16 -1t1 -16q-70 -79 -125.5 -117t-108.5 -38z" />
<glyph unicode="&#xf0;" horiz-adv-x="821" d="M831 1319q4 2 10.5 -7t9 -18t-2.5 -12l-199 -94q88 -163 120 -357t-1 -389q-20 -114 -65.5 -205t-107 -147.5t-133 -86.5t-147.5 -30q-99 0 -165 57t-88 149t-1 202q18 107 67 193.5t112 137.5t129 78t127 27q96 0 161 -59q-21 206 -100 387l-270 -129q-4 -2 -10.5 6.5 t-9 17.5t2.5 13l271 127q-92 188 -226 278q-11 7 20 20q35 15 46 7q144 -86 248 -262zM371 12q97 0 169 99t107 307q29 179 -10.5 269.5t-169.5 90.5q-95 0 -174.5 -90.5t-106.5 -247.5q-16 -118 -2.5 -213t63.5 -155t124 -60z" />
<glyph unicode="&#xf1;" horiz-adv-x="952" d="M317 983q-5 -3 -11.5 2.5t-2.5 11.5q92 125 178 125q30 0 116 -24.5t140 -24.5q36 0 59 14t46 41q5 3 11.5 -3.5t2.5 -10.5q-55 -74 -90.5 -100.5t-75.5 -26.5q-44 0 -130 25.5t-138 25.5q-10 0 -19.5 -1.5t-16.5 -3t-15 -5.5t-12 -6.5t-11.5 -8.5t-10 -8.5t-10.5 -11 t-10 -10.5zM903 158q4 5 10.5 2.5t8.5 -8.5t-2 -11q-70 -81 -124 -120t-106 -39q-54 0 -67 45.5t8 154.5l59 326q46 229 -76 229q-103 0 -211 -195.5t-167 -527.5q-7 -30 -68 -30q-47 0 -47 12q0 4 5 27t13 60.5t13 68.5l84 456q21 121 -35 121q-54 0 -142 -94q-4 -5 -10 -2 t-8 8.5t2 9.5q137 158 240 158q51 0 63.5 -45t-6.5 -152l-43 -247q73 212 173.5 332t211.5 120q88 0 117.5 -64t3.5 -206l-68 -365q-20 -119 35 -119q41 0 133 95z" />
<glyph unicode="&#xf2;" horiz-adv-x="815" d="M500 973l-86 516q2 10 27.5 8.5t56 -12t30.5 -19.5l-10 -491q0 -3 -4.5 -5t-9 -1.5t-4.5 4.5zM315 -29q-97 0 -162.5 57t-85 151.5t0.5 215.5q34 181 156 301.5t274 120.5q78 0 136.5 -34t88 -92t39.5 -134.5t-10 -161.5q-37 -189 -164.5 -306.5t-272.5 -117.5zM387 23 q87 0 156.5 75.5t93.5 206.5q9 62 10.5 126t-13.5 124.5t-39 108t-65 76t-92 28.5q-87 0 -157.5 -77.5t-96.5 -207.5q-19 -79 -11.5 -161t31 -148.5t72 -108.5t111.5 -42z" />
<glyph unicode="&#xf3;" horiz-adv-x="815" d="M477 969q-4 -8 -17 -1q-6 4 -3 7l190 491q7 15 78 27q58 9 53 -4zM315 -29q-97 0 -162.5 57t-85 151.5t0.5 215.5q34 181 156 301.5t274 120.5q78 0 136.5 -34t88 -92t39.5 -134.5t-10 -161.5q-37 -189 -164.5 -306.5t-272.5 -117.5zM387 23q87 0 156.5 75.5t93.5 206.5 q9 62 10.5 126t-13.5 124.5t-39 108t-65 76t-92 28.5q-87 0 -157.5 -77.5t-96.5 -207.5q-19 -79 -11.5 -161t31 -148.5t72 -108.5t111.5 -42z" />
<glyph unicode="&#xf4;" horiz-adv-x="815" d="M588 1489l37 -510q0 -4 -6.5 -6t-12.5 -1t-6 5l-65 315l-179 -321q-3 -5 -13 -1.5t-9 9.5l215 510q5 11 22 11t17 -11zM315 -29q-97 0 -162.5 57t-85 151.5t0.5 215.5q34 181 156 301.5t274 120.5q78 0 136.5 -34t88 -92t39.5 -134.5t-10 -161.5q-37 -189 -164.5 -306.5 t-272.5 -117.5zM387 23q87 0 156.5 75.5t93.5 206.5q9 62 10.5 126t-13.5 124.5t-39 108t-65 76t-92 28.5q-87 0 -157.5 -77.5t-96.5 -207.5q-19 -79 -11.5 -161t31 -148.5t72 -108.5t111.5 -42z" />
<glyph unicode="&#xf5;" horiz-adv-x="815" d="M246 983q-5 -3 -12 2.5t-3 11.5q92 125 179 125q30 0 116 -24.5t140 -24.5q36 0 58.5 14t45.5 41q6 4 13 -5q5 -5 1 -9q-55 -74 -90.5 -100.5t-75.5 -26.5q-44 0 -130 25.5t-138 25.5q-12 0 -22 -1t-19 -5t-14.5 -6.5t-13.5 -9t-11 -9.5l-12 -12zM315 -29 q-97 0 -162.5 57t-85 151.5t0.5 215.5q34 181 156 301.5t274 120.5q78 0 136.5 -34t88 -92t39.5 -134.5t-10 -161.5q-37 -189 -164.5 -306.5t-272.5 -117.5zM387 23q87 0 156.5 75.5t93.5 206.5q9 62 10.5 126t-13.5 124.5t-39 108t-65 76t-92 28.5q-87 0 -157.5 -77.5 t-96.5 -207.5q-19 -79 -11.5 -161t31 -148.5t72 -108.5t111.5 -42z" />
<glyph unicode="&#xf6;" horiz-adv-x="815" d="M356 979q-40 0 -63 22t-23 62t23 62t63 22t62 -22t22 -62t-22 -62t-62 -22zM666 979q-41 0 -64.5 22t-23.5 62t23.5 62t64.5 22q40 0 62 -22t22 -62t-22 -62t-62 -22zM315 -29q-97 0 -162.5 57t-85 151.5t0.5 215.5q34 181 156 301.5t274 120.5q78 0 136.5 -34t88 -92 t39.5 -134.5t-10 -161.5q-37 -189 -164.5 -306.5t-272.5 -117.5zM387 23q87 0 156.5 75.5t93.5 206.5q9 62 10.5 126t-13.5 124.5t-39 108t-65 76t-92 28.5q-87 0 -157.5 -77.5t-96.5 -207.5q-19 -79 -11.5 -161t31 -148.5t72 -108.5t111.5 -42z" />
<glyph unicode="&#xf7;" horiz-adv-x="790" d="M403 651q-41 0 -64.5 23t-23.5 63q0 39 23.5 61.5t64.5 22.5t63.5 -22.5t22.5 -61.5q0 -40 -22.5 -63t-63.5 -23zM70 352q-6 0 -8 20t-0.5 40t6.5 20h677q9 0 9 -40t-9 -40h-675zM406 -20q-41 0 -65 23t-24 63q0 38 24 61t65 23t63.5 -22.5t22.5 -61.5q0 -40 -22.5 -63 t-63.5 -23z" />
<glyph unicode="&#xf8;" horiz-adv-x="835" d="M791 817q3 3 12.5 -1.5t16 -12t1.5 -12.5l-98 -101q65 -118 29 -295q-37 -189 -164.5 -306.5t-272.5 -117.5q-124 0 -196 95l-92 -97q-4 -4 -13 2t-15 15t-1 14l98 100q-63 122 -28 295q34 181 156 301.5t274 120.5q129 0 202 -92zM184 483q-31 -148 11 -280l415 428 q-55 137 -172 137q-87 0 -157.5 -77.5t-96.5 -207.5zM637 305q27 158 -12 283l-416 -430q62 -135 178 -135q87 0 156.5 75.5t93.5 206.5z" />
<glyph unicode="&#xf9;" horiz-adv-x="952" d="M549 973l-86 516q2 10 28 8.5t56.5 -12t30.5 -19.5l-11 -491q0 -3 -4.5 -5t-9 -1.5t-4.5 4.5zM893 156q4 5 9.5 2t7.5 -9t-1 -10q-139 -157 -239 -157q-51 0 -64 44.5t6 151.5l43 248q-73 -213 -173.5 -333t-211.5 -120q-89 0 -119 65t-1 206l73 364q23 119 -33 119 q-41 0 -135 -94q-7 -7 -15 1t-1 15q72 82 126 121t105 39t65.5 -45.5t-7.5 -155.5l-66 -325q-48 -230 74 -230q105 0 213.5 195.5t167.5 527.5q7 31 65 31q49 0 49 -12q0 -4 -5 -27t-12.5 -61t-12.5 -68l-84 -457q-21 -121 35 -121q49 0 141 95z" />
<glyph unicode="&#xfa;" horiz-adv-x="952" d="M526 969q-4 -8 -17 -1q-6 4 -3 7l190 491q7 15 78 27q58 9 53 -4zM893 156q4 5 9.5 2t7.5 -9t-1 -10q-139 -157 -239 -157q-51 0 -64 44.5t6 151.5l43 248q-73 -213 -173.5 -333t-211.5 -120q-89 0 -119 65t-1 206l73 364q23 119 -33 119q-41 0 -135 -94q-7 -7 -15 1 t-1 15q72 82 126 121t105 39t65.5 -45.5t-7.5 -155.5l-66 -325q-48 -230 74 -230q105 0 213.5 195.5t167.5 527.5q7 31 65 31q49 0 49 -12q0 -4 -5 -27t-12.5 -61t-12.5 -68l-84 -457q-21 -121 35 -121q49 0 141 95z" />
<glyph unicode="&#xfb;" horiz-adv-x="952" d="M408 971q-3 -5 -13.5 -1.5t-9.5 9.5l215 510q4 11 21.5 11t17.5 -11l37 -510q0 -4 -6 -6t-12.5 -1t-6.5 5l-65 315zM893 156q4 5 9.5 2t7.5 -9t-1 -10q-139 -157 -239 -157q-51 0 -64 44.5t6 151.5l43 248q-73 -213 -173.5 -333t-211.5 -120q-89 0 -119 65t-1 206l73 364 q23 119 -33 119q-41 0 -135 -94q-7 -7 -15 1t-1 15q72 82 126 121t105 39t65.5 -45.5t-7.5 -155.5l-66 -325q-48 -230 74 -230q105 0 213.5 195.5t167.5 527.5q7 31 65 31q49 0 49 -12q0 -4 -5 -27t-12.5 -61t-12.5 -68l-84 -457q-21 -121 35 -121q49 0 141 95z" />
<glyph unicode="&#xfc;" horiz-adv-x="952" d="M406 979q-40 0 -63.5 22.5t-23.5 61.5t23.5 61.5t63.5 22.5t61.5 -22t21.5 -62t-21.5 -62t-61.5 -22zM715 979q-41 0 -64.5 22t-23.5 62t23.5 62t64.5 22q40 0 62 -22t22 -62t-22 -62t-62 -22zM893 156q4 5 9.5 2t7.5 -9t-1 -10q-139 -157 -239 -157q-51 0 -64 44.5 t6 151.5l43 248q-73 -213 -173.5 -333t-211.5 -120q-89 0 -119 65t-1 206l73 364q23 119 -33 119q-41 0 -135 -94q-7 -7 -15 1t-1 15q72 82 126 121t105 39t65.5 -45.5t-7.5 -155.5l-66 -325q-48 -230 74 -230q105 0 213.5 195.5t167.5 527.5q7 31 65 31q49 0 49 -12 q0 -4 -5 -27t-12.5 -61t-12.5 -68l-84 -457q-21 -121 35 -121q49 0 141 95z" />
<glyph unicode="&#xfd;" horiz-adv-x="907" d="M489 969q-4 -8 -17 -1q-6 4 -3 7l190 491q6 15 77 27q60 9 55 -4zM754 811q77 0 77 -113q0 -83 -44.5 -212.5t-115.5 -269.5t-165 -282.5t-188.5 -254.5t-189.5 -183t-165 -71q-41 0 -64.5 21t-17.5 65q12 55 82 55q60 0 88.5 1t75.5 12.5t80 35.5q67 46 166 186 q9 434 -53 676t-179 242q-62 0 -102 -76q-3 -6 -10 -6.5t-12 3t-3 9.5q78 160 191 160q92 0 158 -117.5t94.5 -311t19.5 -427.5q88 137 156 270t86 209q15 88 6.5 138.5t-27 104t-18.5 68.5q0 30 20.5 49t53.5 19z" />
<glyph unicode="&#xfe;" horiz-adv-x="837" d="M602 805q108 0 161 -81.5t30 -209.5q-22 -116 -78 -216.5t-126.5 -164t-147 -99.5t-144.5 -36q-73 0 -117 6l-65 -369q-15 -83 8 -107.5t108 -14.5q5 2 8.5 -3.5t3 -12t-6.5 -7.5l-353 -53q-5 -1 -8 4.5t-2 12t6 7.5q65 10 85.5 37.5t39.5 122.5l176 973q-40 -26 -94 -70 q-7 -6 -15 7q-4 8 1 10q65 58 116 94l115 633q14 76 -16 91.5t-123 -26.5q-6 -3 -10.5 2.5t-4 11.5t4.5 9l266 129q7 3 15.5 -4.5t6.5 -12.5l-135 -755q155 92 295 92zM664 451q9 73 1.5 135t-48.5 103.5t-109 41.5q-93 0 -209 -61l-102 -580q72 -35 157 -35 q131 0 204.5 101.5t105.5 294.5z" />
<glyph unicode="&#xff;" horiz-adv-x="907" d="M369 979q-40 0 -63 22t-23 62t23 62t63 22t62 -22t22 -62t-22 -62t-62 -22zM678 979q-41 0 -64.5 22t-23.5 62t23.5 62t64.5 22q40 0 62 -22t22 -62t-22 -62t-62 -22zM754 811q77 0 77 -113q0 -83 -44.5 -212.5t-115.5 -269.5t-165 -282.5t-188.5 -254.5t-189.5 -183 t-165 -71q-41 0 -64.5 21t-17.5 65q12 55 82 55q60 0 88.5 1t75.5 12.5t80 35.5q67 46 166 186q9 434 -53 676t-179 242q-62 0 -102 -76q-3 -6 -10 -6.5t-12 3t-3 9.5q78 160 191 160q92 0 158 -117.5t94.5 -311t19.5 -427.5q88 137 156 270t86 209q15 88 6.5 138.5t-27 104 t-18.5 68.5q0 30 20.5 49t53.5 19z" />
<glyph unicode="&#x152;" horiz-adv-x="1652" d="M1655 1280q15 0 12 -18q-32 -203 -41 -254q-1 -5 -7 -6t-11 1.5t-4 6.5q12 109 -27.5 174t-122.5 65h-111q-97 0 -128 -25t-46 -112l-75 -424h231q82 0 119 31.5t51 111.5q1 5 7.5 6t12.5 -1.5t5 -8.5q-6 -38 -16 -86.5t-13 -74.5q-7 -36 -17 -102t-14 -89 q-1 -6 -7.5 -7.5t-12 1t-4.5 8.5q17 91 -11.5 129.5t-113.5 38.5h-224l-83 -471q-14 -87 8 -112t118 -25h156q76 0 141 72t109 196q2 4 8.5 4.5t12 -2t4.5 -6.5q-38 -109 -64 -270q-5 -31 -33 -31h-540q-43 0 -132.5 -4t-121.5 -4q-187 0 -320 83.5t-188 226.5t-25 319 q26 149 98 275t171.5 210t220.5 131t245 47q33 0 128 -2t139 -2h516zM879 168l161 919q16 93 -13.5 129.5t-139.5 36.5q-224 0 -387 -154t-209 -433q-30 -181 2.5 -327.5t127 -232.5t234.5 -86q115 0 162.5 28t61.5 120z" />
<glyph unicode="&#x153;" horiz-adv-x="1253" d="M1098 817q73 0 108.5 -29.5t26.5 -80.5q-13 -64 -93.5 -122t-181 -93.5t-204.5 -53.5q-30 -174 24 -283.5t183 -109.5q113 0 204 68q5 3 12 -5t3 -14q-147 -119 -299 -119q-99 0 -161.5 49.5t-86.5 135.5q-64 -89 -152.5 -139t-179.5 -50q-71 0 -125 34t-82 92t-37 135 t9 163q31 182 153 302t275 120q96 0 157 -57.5t80 -155.5q69 97 165 155t202 58zM373 23q84 0 152 76t91 206q9 62 10.5 126t-12.5 124.5t-37 108t-62.5 76t-88.5 28.5q-84 0 -153 -79.5t-91 -205.5q-18 -80 -10.5 -162t29.5 -148t67.5 -108t104.5 -42zM1094 664 q22 98 -86 98q-97 0 -160 -81t-88 -212q67 10 117 23.5t98 35.5t78.5 56t40.5 80z" />
<glyph unicode="&#x178;" horiz-adv-x="1083" d="M598 1468q-40 0 -63 22t-23 62t23 62t63 22t62 -22t22 -62t-22 -62t-62 -22zM907 1468q-41 0 -64.5 22t-23.5 62t23.5 62t64.5 22q40 0 62 -22t22 -62t-22 -62t-62 -22zM1229 1280q7 0 7 -12.5t-7 -12.5q-132 0 -268 -192l-312 -428l-82 -469q-17 -90 5.5 -115.5 t121.5 -25.5q8 0 8 -12.5t-8 -12.5q-25 0 -95.5 2t-115.5 2q-47 0 -118.5 -2t-96.5 -2q-8 0 -8 12.5t8 12.5q99 0 133.5 26t47.5 115l77 450l-209 494q-35 80 -70.5 112.5t-92.5 32.5q-8 0 -8 12.5t8 12.5q21 0 69.5 -3t71.5 -3q48 0 128.5 3t106.5 3q4 0 5 -6t-1.5 -12.5 t-7.5 -6.5q-70 0 -90.5 -18t-1.5 -63l207 -496l279 395q62 86 53.5 134t-84.5 48q-7 0 -7 12.5t7 12.5q27 0 91.5 -3t111.5 -3q29 0 70.5 3t66.5 3z" />
<glyph unicode="&#x2c6;" horiz-adv-x="489" d="M469 1489l37 -510q0 -4 -6 -6t-12.5 -1t-6.5 5l-65 315l-178 -321q-3 -5 -13.5 -1.5t-9.5 9.5l215 510q4 11 21.5 11t17.5 -11z" />
<glyph unicode="&#x2dc;" horiz-adv-x="559" d="M133 983q-5 -3 -11.5 2.5t-2.5 11.5q92 125 178 125q30 0 116 -24.5t140 -24.5q36 0 58.5 14t45.5 41q3 2 8 -0.5t7 -6.5t0 -7q-55 -74 -90.5 -100.5t-75.5 -26.5q-44 0 -130 25.5t-138 25.5q-10 0 -19.5 -1.5t-16.5 -3t-15 -5.5t-12 -6.5t-11.5 -8.5t-10 -8.5t-10.5 -11 t-10 -10.5z" />
<glyph unicode="&#x2000;" horiz-adv-x="848" />
<glyph unicode="&#x2001;" horiz-adv-x="1696" />
<glyph unicode="&#x2002;" horiz-adv-x="848" />
<glyph unicode="&#x2003;" horiz-adv-x="1696" />
<glyph unicode="&#x2004;" horiz-adv-x="565" />
<glyph unicode="&#x2005;" horiz-adv-x="424" />
<glyph unicode="&#x2006;" horiz-adv-x="282" />
<glyph unicode="&#x2007;" horiz-adv-x="282" />
<glyph unicode="&#x2008;" horiz-adv-x="212" />
<glyph unicode="&#x2009;" horiz-adv-x="339" />
<glyph unicode="&#x200a;" horiz-adv-x="94" />
<glyph unicode="&#x2010;" horiz-adv-x="624" d="M66 342q-6 -1 -8.5 21t-1.5 45.5t5 25.5l512 94q5 1 7 -21t0.5 -45t-7.5 -24z" />
<glyph unicode="&#x2011;" horiz-adv-x="624" d="M66 342q-6 -1 -8.5 21t-1.5 45.5t5 25.5l512 94q5 1 7 -21t0.5 -45t-7.5 -24z" />
<glyph unicode="&#x2012;" horiz-adv-x="624" d="M66 342q-6 -1 -8.5 21t-1.5 45.5t5 25.5l512 94q5 1 7 -21t0.5 -45t-7.5 -24z" />
<glyph unicode="&#x2013;" horiz-adv-x="1054" d="M70 348q-6 0 -8 20t-0.5 40t6.5 20h917q9 0 9 -40t-9 -40h-915z" />
<glyph unicode="&#x2014;" horiz-adv-x="1699" d="M70 348q-6 0 -8 20t-0.5 40t6.5 20h1562q9 0 9 -40t-9 -40h-1560z" />
<glyph unicode="&#x2018;" horiz-adv-x="376" d="M418 1296q5 4 10.5 0.5t6.5 -9t-3 -9.5q-139 -130 -160 -274q-7 -45 -4 -66q16 8 39 8q38 0 60 -24.5t20 -59.5q-2 -37 -27 -57.5t-69 -20.5q-61 0 -91.5 47.5t-15.5 135.5q16 92 75 171t159 158z" />
<glyph unicode="&#x2019;" horiz-adv-x="376" d="M315 1298q61 0 91 -47t16 -135q-16 -92 -75.5 -171.5t-158.5 -158.5q-5 -4 -10.5 0t-6.5 9.5t3 9.5q139 130 160 274q7 45 4 66q-16 -8 -39 -8q-38 0 -60 24.5t-20 59.5q1 37 26.5 57t69.5 20z" />
<glyph unicode="&#x201a;" horiz-adv-x="358" d="M104 145q61 0 91 -47t16 -135q-16 -92 -75.5 -171.5t-158.5 -158.5q-5 -4 -10.5 0t-6.5 9.5t3 9.5q139 130 160 274q7 45 4 66q-16 -8 -39 -8q-38 0 -60 24.5t-20 59.5q1 37 26.5 57t69.5 20z" />
<glyph unicode="&#x201c;" horiz-adv-x="673" d="M410 1296q5 4 10.5 0.5t6.5 -9t-3 -9.5q-139 -130 -160 -274q-7 -45 -4 -66q16 8 39 8q38 0 60 -24.5t20 -59.5q-2 -37 -27 -57.5t-69 -20.5q-61 0 -91.5 47.5t-15.5 135.5q16 92 75 171t159 158zM705 1296q5 4 10.5 0.5t6.5 -9t-3 -9.5q-139 -130 -160 -274 q-7 -45 -4 -66q16 8 39 8q38 0 60 -24.5t20 -59.5q-2 -37 -27 -57.5t-69 -20.5q-61 0 -91.5 47.5t-15.5 135.5q16 92 75 171t159 158z" />
<glyph unicode="&#x201d;" horiz-adv-x="673" d="M324 1298q61 0 91 -47t15 -135q-16 -92 -75 -171.5t-158 -158.5q-5 -4 -10.5 0t-7 9.5t2.5 9.5q139 130 160 274q7 45 4 66q-16 -8 -39 -8q-38 0 -60 24.5t-20 59.5q1 37 27 57t70 20zM618 1298q61 0 91 -47t16 -135q-16 -92 -75 -171.5t-158 -158.5q-5 -4 -10.5 0 t-7 9.5t2.5 9.5q139 130 160 274q7 45 4 66q-16 -8 -39 -8q-38 0 -60 24.5t-20 59.5q1 37 26.5 57t69.5 20z" />
<glyph unicode="&#x201e;" horiz-adv-x="673" d="M113 145q61 0 91 -47t15 -135q-16 -92 -75 -171.5t-158 -158.5q-5 -4 -10.5 0t-7 9.5t2.5 9.5q139 130 160 274q7 45 4 66q-16 -8 -39 -8q-38 0 -60 24.5t-20 59.5q1 37 27 57t70 20zM408 145q61 0 91 -47t15 -135q-16 -92 -75 -171.5t-158 -158.5q-5 -4 -10.5 0t-7 9.5 t2.5 9.5q139 130 160 274q7 45 4 66q-16 -8 -39 -8q-38 0 -60 24.5t-20 59.5q1 37 27 57t70 20z" />
<glyph unicode="&#x2022;" horiz-adv-x="620" d="M330 309q-82 0 -140.5 57.5t-58.5 141.5q0 82 58.5 139.5t140.5 57.5t140 -57.5t58 -139.5q0 -84 -58 -141.5t-140 -57.5z" />
<glyph unicode="&#x2026;" horiz-adv-x="1361" d="M139 -20q-41 0 -64.5 23t-23.5 63q0 39 23.5 61.5t64.5 22.5t63.5 -22.5t22.5 -61.5q0 -40 -22.5 -63t-63.5 -23zM618 -20q-41 0 -64.5 23t-23.5 63q0 39 23.5 61.5t64.5 22.5t64 -22.5t23 -61.5q0 -40 -23 -63t-64 -23zM1098 -20q-41 0 -64.5 23t-23.5 63 q0 39 23.5 61.5t64.5 22.5t63.5 -22.5t22.5 -61.5q0 -40 -22.5 -63t-63.5 -23z" />
<glyph unicode="&#x202f;" horiz-adv-x="339" />
<glyph unicode="&#x2039;" horiz-adv-x="567" d="M496 745q5 3 12.5 -4.5t3.5 -11.5l-281 -317l170 -316q4 -7 -7 -14q-6 -5 -9 0l-276 305q-8 9 -6.5 23t12.5 24z" />
<glyph unicode="&#x203a;" horiz-adv-x="565" d="M76 76q-5 -3 -13 4.5t-4 13.5l283 316l-172 315q-4 7 7 14q6 5 9 0l279 -305q8 -9 6.5 -23t-12.5 -24z" />
<glyph unicode="&#x205f;" horiz-adv-x="424" />
<glyph unicode="&#x20ac;" horiz-adv-x="1069" d="M1030 913q3 -3 9.5 -8t8.5 -7t5 -6.5t3.5 -8t-1 -8.5t-4.5 -11l-103 -176q-3 -5 -14 -1t-8 11q33 75 11.5 132t-79.5 90.5t-131 33.5q-135 0 -250 -110.5t-158 -282.5h558q12 0 -1 -23q-13 -21 -24 -22h-750q-8 0 -10.5 11t1 22.5t11.5 11.5h89q57 184 218.5 303 t358.5 119q76 0 147.5 -19t112.5 -51zM940 268q5 8 15.5 4.5t7.5 -12.5l-60 -194q-9 -25 -16 -30q-5 -3 -15 -7q-159 -54 -303 -54q-87 0 -156 22.5t-114 60t-75 89.5t-43.5 106.5t-14.5 115.5h-86q-12 0 -12 22.5t12 22.5h721q14 0 2 -23q-12 -21 -25 -22h-483 q2 -101 32 -181.5t96.5 -133t160.5 -52.5q237 0 356 266z" />
<glyph unicode="&#x2122;" horiz-adv-x="1474" d="M522 1182l-65 -379q-8 -45 8 -59.5t78 -14.5q3 0 3 -12t-3 -12q-17 0 -66.5 1t-81.5 1q-28 0 -76.5 -1t-66.5 -1q-3 0 -3 12t3 12q61 0 82.5 14.5t27.5 59.5l68 381q8 45 -4.5 58t-63.5 13q-66 0 -97 -26.5t-52 -104.5q-2 -7 -19 -4q-6 2 -6 4q34 111 43 181q4 8 18 7 q7 -3 7 -7q-1 -8 2.5 -13t13 -7t16 -2.5t19.5 -0.5q23 0 86 -1t99 -1q43 0 94.5 1t68.5 1q41 0 60.5 5t27.5 24q5 7 18 4q5 -2 5 -4q-2 -12 -18.5 -90.5t-18.5 -96.5q-5 -7 -20 -4q-3 2 -4 4q12 77 -7.5 104t-81.5 27q-51 0 -68.5 -14.5t-25.5 -58.5zM1559 1280q3 0 3 -12.5 t-3 -12.5q-51 0 -78 -17t-33 -67l-53 -368q-6 -45 7 -59.5t66 -14.5q4 0 4 -12t-4 -12q-16 0 -60.5 1t-70.5 1q-31 0 -77.5 -1t-63.5 -1q-3 0 -3 12t3 12q66 0 89 15t26 59l55 389l-295 -477q-1 -6 -10 -6t-12 6l-146 436l-67 -320q-26 -102 49 -102q5 0 5 -12t-5 -12 q-12 0 -42 1t-50 1q-18 0 -51.5 -1t-47.5 -1q-3 0 -3 12t3 12q44 0 68 24t35 78l80 381q-31 43 -80 43q-5 0 -5 12.5t5 12.5q11 0 37 -2t32 -2q13 0 36 2t26 2q16 0 27.5 -12.5t25.5 -50.5l127 -388l258 418q7 14 20.5 23.5t24.5 9.5q1 0 23 -2t39 -2q21 0 47.5 2t38.5 2z " />
<glyph unicode="&#x25fc;" horiz-adv-x="808" d="M0 809h809v-809h-809v809z" />
</font>
</defs>
</svg>
