<?xml version="1.0" standalone="no"?>
<!DOCTYPE svg PUBLIC "-//W3C//DTD SVG 1.1//EN" "http://www.w3.org/Graphics/SVG/1.1/DTD/svg11.dtd" >
<svg xmlns="http://www.w3.org/2000/svg" xmlns:xlink="http://www.w3.org/1999/xlink" version="1.1">
<metadata></metadata>
<defs>
<font id="cormorant_garamondMdIt" horiz-adv-x="1335" >
<font-face units-per-em="2048" ascent="1638" descent="-410" />
<missing-glyph horiz-adv-x="479" />
<glyph unicode="&#xfb01;" horiz-adv-x="962" d="M897 156q5 5 11 2t8 -9t-1 -10q-70 -81 -125 -119t-110 -38q-58 0 -73 47t5 153l76 414q5 26 6 43t-4 33t-13 25t-29 17t-43.5 11.5t-64.5 6t-85 3t-111 0.5l-113 -778q-43 -293 -110.5 -406.5t-198.5 -113.5q-76 0 -114.5 28.5t-32.5 69.5q3 30 26 49t56 19 q34 0 51.5 -20t20.5 -43.5t14.5 -43.5t33.5 -20q18 0 30.5 15t26 62.5t28 129t34.5 221.5l105 723q10 76 -7.5 93t-103.5 17q-5 0 -6 7.5t1.5 14.5t6.5 7q72 0 103 19t38 71q31 175 80 300t112 196t134.5 103t157.5 32q99 0 154 -39.5t47 -95.5q-6 -33 -26.5 -50.5 t-49.5 -17.5q-30 0 -49 17.5t-29 42t-20.5 49t-31.5 42t-53 17.5q-100 0 -175.5 -140.5t-114.5 -412.5l-19 -125q159 1 303.5 9t163.5 8q24 0 26 -14t-9 -66q-12 -58 -19 -101l-76 -428q-19 -112 29 -112q46 0 129 86z" />
<glyph unicode="&#xfb02;" horiz-adv-x="1024" d="M1024 1522l-248 -1340q-19 -112 33 -112q36 0 127 88q4 5 10 2.5t8 -8.5t-2 -11q-70 -81 -124.5 -120t-108.5 -39q-57 0 -73.5 47t5.5 153l207 1108q-26 71 -75.5 116.5t-110.5 45.5q-220 0 -303 -553l-19 -127q38 2 109.5 7.5t95.5 6.5q18 0 14 -20q-3 -20 -26 -45.5 t-43 -22.5q-94 17 -158 21l-111 -762q-43 -293 -110.5 -406.5t-198.5 -113.5q-76 0 -114.5 28.5t-32.5 69.5q3 30 26 49t56 19q34 0 51.5 -20t20.5 -43.5t14.5 -43.5t33.5 -20q18 0 30.5 15t26 62.5t28 129t34.5 221.5l105 723q10 76 -7.5 93t-103.5 17q-5 0 -6 7.5 t1.5 14.5t6.5 7q72 0 103 19t38 71q58 337 174.5 484t313.5 147q134 0 213 -57q54 33 65 94q2 5 8.5 5.5t12 -2t4.5 -5.5z" />
<glyph unicode="&#xfb03;" horiz-adv-x="1482" d="M1417 156q5 5 11.5 2t8.5 -9t-1 -10q-70 -81 -125.5 -119t-110.5 -38q-57 0 -72 47t5 153l75 414q5 26 6 43t-4 33t-13 25t-29 17t-43.5 11.5t-64.5 6t-85 3t-111 0.5l-112 -778q-43 -292 -111 -406t-199 -114q-76 0 -114.5 28.5t-32.5 69.5q3 30 26 49t56 19 q34 0 51.5 -20t21 -43.5t15 -43.5t33.5 -20q18 0 30 15t26 63t28 128.5t34 221.5l105 723v6l-2 -6q7 57 -8.5 72t-77.5 20q-63 4 -289 8l-113 -770q-43 -293 -110.5 -406.5t-198.5 -113.5q-76 0 -114.5 28.5t-32.5 69.5q3 30 26 49t56 19q34 0 51.5 -20t20.5 -43.5 t14.5 -43.5t33.5 -20q18 0 30.5 15t26 62.5t28 129t34.5 221.5l105 723q10 76 -7.5 93t-103.5 17q-5 0 -6 7.5t1.5 14.5t6.5 7q71 0 101.5 19t39.5 71q103 514 461 514q123 0 221 -55q121 172 322 172q99 0 154 -39.5t47 -95.5q-6 -33 -26.5 -50.5t-49.5 -17.5 q-30 0 -49 17.5t-29 42t-20.5 49t-31 42t-52.5 17.5q-100 0 -176 -140.5t-115 -412.5l-19 -125q159 1 303.5 9t163.5 8q24 0 26 -14t-9 -66q-12 -58 -19 -101l-75 -428q-19 -112 28 -112q46 0 129 86zM369 899l-19 -131q218 0 281 2q58 3 87 22t36 60v4q35 191 86 313 q-31 77 -83 121.5t-114 44.5q-200 0 -274 -436z" />
<glyph unicode="&#xfb04;" horiz-adv-x="1544" d="M1544 1522l-248 -1340q-19 -112 33 -112q36 0 127 88q4 5 10.5 2.5t8.5 -8.5t-2 -11q-70 -81 -125 -120t-109 -39q-57 0 -73.5 47t5.5 153l207 1108q-26 71 -75.5 116.5t-110.5 45.5q-220 0 -303 -553l-19 -127q38 2 109.5 7.5t95.5 6.5q9 0 13 -6t2 -14 q-3 -20 -26.5 -45.5t-43.5 -22.5q-94 17 -158 21l-110 -762q-43 -292 -111 -406t-199 -114q-76 0 -114.5 28.5t-32.5 69.5q3 30 26 49t56 19q34 0 51.5 -20t21 -43.5t15 -43.5t33.5 -20q18 0 30 15t26 63t28 128.5t34 221.5l105 723v6l-2 -6q7 57 -8.5 72t-77.5 20 q-63 4 -289 8l-113 -770q-43 -293 -110.5 -406.5t-198.5 -113.5q-76 0 -114.5 28.5t-32.5 69.5q3 30 26 49t56 19q34 0 51.5 -20t20.5 -43.5t14.5 -43.5t33.5 -20q18 0 30.5 15t26 62.5t28 129t34.5 221.5l105 723q10 76 -7.5 93t-103.5 17q-5 0 -6 7.5t1.5 14.5t6.5 7 q71 0 101.5 19t39.5 71q103 514 461 514q116 0 217 -53q117 170 330 170q134 0 213 -57q55 34 66 94q2 5 8.5 5.5t11.5 -2t4 -5.5zM369 899l-19 -131q218 0 281 2q58 3 87 22t36 60v4q37 206 84 318q-33 75 -84 118t-111 43q-200 0 -274 -436z" />
<glyph horiz-adv-x="0" />
<glyph horiz-adv-x="682" />
<glyph horiz-adv-x="0" />
<glyph horiz-adv-x="0" />
<glyph unicode="&#xd;" horiz-adv-x="479" />
<glyph unicode=" "  horiz-adv-x="479" />
<glyph unicode="&#x09;" horiz-adv-x="479" />
<glyph unicode="&#xa0;" horiz-adv-x="479" />
<glyph unicode="!" horiz-adv-x="448" d="M231 391q-1 -7 -7 -8.5t-11 1.5t-4 9q64 592 70 879q0 8 33.5 16t68.5 8q15 0 30 -1.5t27.5 -4t22 -5.5t14.5 -6.5t4 -6.5q-116 -320 -248 -881zM170 -20q-44 0 -70 26t-26 72q0 41 26 65.5t70 24.5q45 0 69.5 -24t24.5 -66q0 -46 -24.5 -72t-69.5 -26z" />
<glyph unicode="&#x22;" horiz-adv-x="665" d="M176 616l72 631q3 27 91 52q74 20 89 10q3 -1 2 -4l-227 -684q-2 -4 -8.5 -6.5t-12.5 -2t-6 3.5zM485 616l72 631q3 27 91 52q74 20 89 10q3 -1 2 -4l-227 -684q-2 -4 -8.5 -6.5t-12.5 -2t-6 3.5z" />
<glyph unicode="#" horiz-adv-x="897" d="M850 645q5 0 6.5 -21t-1 -42t-7.5 -21h-154l-108 -321h127q5 0 6.5 -21.5t-1 -43t-7.5 -21.5h-154l-108 -322q-1 -3 -8 -3.5t-17 2t-20 5.5t-16 7t-5 7l100 304h-235l-109 -322q-1 -3 -8 -3.5t-17 2t-19.5 5.5t-15.5 7t-5 7l100 304h-123q-6 0 -6 43t6 43h152l108 321 h-123q-8 0 -8 42t8 42h152l115 346q2 11 40 -5q26 -11 25 -19l-108 -322h237l115 346q2 11 40 -5q26 -11 25 -19l-108 -322h129zM512 240l109 321h-236l-109 -321h236z" />
<glyph unicode="$" horiz-adv-x="786" d="M705 934q27 -16 24 -39l-24 -184q-1 -5 -6 -6.5t-10 1t-5 9.5q1 37 -15.5 83t-56 89t-92.5 55l-67 -381q10 -8 30 -20q20 -13 31.5 -20.5t30.5 -20.5t29.5 -22t26.5 -23.5t24.5 -26.5t19.5 -28t16 -32.5t9 -35.5t3 -40t-5 -44q-19 -106 -106.5 -182.5t-211.5 -88.5 l-33 -188q-2 -9 -13.5 -11t-21.5 3t-8 14l33 180q-67 0 -127 21.5t-98 54.5q-15 10 -12 41l20 213q1 8 11.5 7.5t11.5 -9.5q10 -104 64 -189.5t136 -99.5l74 424l-31 21q-21 14 -33.5 22.5t-31.5 22.5t-30.5 25t-26 26.5t-23 29.5t-17 32t-11.5 36.5t-3 41t4 46.5 q19 105 104 168.5t195 71.5l31 172q1 9 12 11t21 -3t8 -14l-29 -164q96 -3 179 -49zM307 784q-11 -65 17.5 -110.5t89.5 -87.5l63 360q-68 -1 -112.5 -46.5t-57.5 -115.5zM532 190q14 71 -15.5 123t-90.5 97l-70 -398q62 5 112 49.5t64 128.5z" />
<glyph unicode="%" horiz-adv-x="1069" d="M322 621q-96 0 -145.5 76.5t-29.5 189.5q19 108 96 184t173 76q95 0 143 -77t27 -189q-21 -110 -95.5 -185t-168.5 -75zM133 -16q-3 -3 -16 3.5t-23.5 15t-7.5 11.5l881 1114q3 5 15.5 -1.5t22.5 -16.5t7 -14zM338 649q55 0 82.5 55t42.5 162q18 123 1 186.5t-65 63.5 q-39 0 -67 -32t-42 -78t-24 -113q-36 -244 72 -244zM721 -10q-96 0 -146 76.5t-30 189.5q19 109 95.5 184.5t172.5 75.5q95 0 143 -76.5t27 -187.5q-21 -112 -94.5 -187t-167.5 -75zM737 20q55 0 82.5 55.5t42.5 162.5q38 247 -65 247q-38 0 -65.5 -31.5t-41.5 -77.5 t-24 -114q-20 -101 -3 -171.5t74 -70.5z" />
<glyph unicode="&#x26;" horiz-adv-x="1546" d="M1499 791q60 0 60 -70q0 -82 -67 -152.5t-153 -70.5q-63 0 -143 41q-39 -274 -189.5 -419t-369.5 -145q-163 0 -285.5 85.5t-173.5 222t-20 286.5q36 166 168.5 274.5t287.5 108.5q103 0 168 -51q117 130 117 227q0 31 -9.5 52t-23 32.5t-27 21.5t-23 26t-9.5 40 q0 35 21.5 56.5t56.5 21.5q50 0 79 -42.5t29 -112.5q0 -53 -19 -108.5t-47 -103t-78.5 -104.5t-92.5 -98.5t-112 -99.5t-114.5 -92.5t-121.5 -93t-113 -87.5q29 -165 146 -266.5t266 -101.5q176 0 299.5 128.5t152.5 360.5q-18 9 -69.5 35.5t-76.5 38t-63 23.5t-67 12 q-31 0 -48.5 -12.5t-17.5 -30.5q0 -22 20.5 -57t20.5 -54q0 -22 -14 -38.5t-43 -16.5q-26 0 -43 17t-17 54q0 84 77.5 154t170.5 70q49 0 113.5 -24.5t117 -54.5t112.5 -54.5t100 -24.5q25 0 42 11.5t17 27.5q0 17 -25.5 48.5t-25.5 57.5q0 25 15.5 38.5t43.5 13.5zM297 635 q-15 -86 -6 -160q30 25 112 89.5t145 116.5t116 101q-50 113 -156 113q-76 0 -132 -74.5t-79 -185.5z" />
<glyph unicode="'" horiz-adv-x="270" d="M139 616l72 631q3 27 91 52q74 20 89 10q3 -1 2 -4l-227 -684q-2 -4 -8.5 -6.5t-12.5 -2t-6 3.5z" />
<glyph unicode="(" horiz-adv-x="579" d="M403 -240q-171 110 -233 340t-10 523q51 290 197 521.5t350 340.5q4 2 8.5 -1.5t5.5 -8t-2 -7.5q-154 -146 -250.5 -353.5t-146.5 -491.5q-91 -525 96 -846q3 -5 -4 -12.5t-11 -4.5z" />
<glyph unicode=")" horiz-adv-x="579" d="M258 1485q172 -111 234 -340t10 -522q-51 -290 -197 -522t-350 -341q-4 -2 -8.5 1.5t-5.5 8t2 7.5q154 146 250.5 354t146.5 492q91 524 -96 845q-3 5 3.5 12.5t10.5 4.5z" />
<glyph unicode="*" horiz-adv-x="917" d="M543 1083l-25 267q-3 26 84 50q76 21 97 12q4 -2 3 -5l-137 -324q-1 -6 -11 -6t-11 6zM498 1047l-258 57q-27 7 -20 106q5 78 18 86q2 2 4 0l264 -229q5 -5 1.5 -13t-9.5 -7zM944 999l-348 31q-5 0 -7.5 10t1.5 11l244 104q24 10 73 -65q42 -63 41 -86q0 -5 -4 -5z M385 766q-14 -25 -104 11q-69 27 -79 45q-2 3 1 5l299 179q6 4 13.5 -2t4.5 -11zM637 645l-78 340q-3 4 5 10.5t11 3.5l177 -200q18 -21 -43 -95q-46 -55 -66 -61q-5 -2 -6 2z" />
<glyph unicode="+" horiz-adv-x="815" d="M745 430q9 0 9 -42t-9 -42h-294v-295q0 -6 -21.5 -8.5t-43 -1t-21.5 5.5v299h-295q-6 0 -8 21t-0.5 42t6.5 21h297v295q0 9 43 9t43 -9v-295h294z" />
<glyph unicode="," horiz-adv-x="464" d="M154 168q67 0 98.5 -52t13.5 -145q-36 -182 -241 -338q-5 -4 -10.5 0t-7 9.5t2.5 9.5q131 128 156 268q6 29 6 70q-15 -6 -35 -6q-45 0 -69 30.5t-19 69.5q3 38 31 61t74 23z" />
<glyph unicode="-" horiz-adv-x="624" d="M68 340q-6 -1 -9 22t-2.5 47.5t4.5 26.5l510 94q6 1 8.5 -22t1.5 -47t-6 -25z" />
<glyph unicode="." horiz-adv-x="409" d="M145 -20q-44 0 -70 26t-26 72q0 41 26 65.5t70 24.5q45 0 70 -24t25 -66q0 -46 -25 -72t-70 -26z" />
<glyph unicode="/" horiz-adv-x="624" d="M-16 -344q-6 -6 -24 -2t-35.5 13.5t-14.5 15.5l786 1816q6 6 23.5 3t34.5 -13.5t12 -18.5z" />
<glyph unicode="0" horiz-adv-x="903" d="M379 -27q-167 0 -257 121t-56 307q34 182 165 299t299 117q167 0 255 -118t53 -304q-34 -185 -163.5 -303.5t-295.5 -118.5zM410 6q103 0 172.5 100t97.5 265q31 197 -20 305t-154 108t-179.5 -100.5t-103.5 -265.5q-16 -117 -3.5 -208.5t62.5 -147.5t128 -56z" />
<glyph unicode="1" horiz-adv-x="595" d="M23 0q-7 0 -7 12.5t7 12.5q107 0 143 26t53 115l72 389q5 29 7 45.5t2.5 34t-2.5 25t-11.5 13.5t-21 4.5t-32.5 -7t-45 -16t-61 -27.5q-6 -3 -10.5 1.5t-4 10.5t4.5 10l334 164q5 3 10 -0.5t4 -9.5l-115 -637q-15 -90 12 -115.5t140 -25.5q6 0 6 -12.5t-6 -12.5 q-30 0 -110 2t-128 2t-129.5 -2t-111.5 -2z" />
<glyph unicode="2" horiz-adv-x="749" d="M8 31q271 221 378.5 335.5t123.5 219.5q14 77 -18 128.5t-101 51.5q-68 0 -126.5 -62t-114.5 -184q-3 -6 -14.5 -1.5t-8.5 11.5l119 310q3 6 13 2t7 -11q-17 -55 15 -55q13 0 79 20.5t119 20.5q97 0 144 -57.5t28 -151.5q-8 -39 -29.5 -78.5t-46.5 -70.5t-75 -75.5 t-87 -74t-110.5 -87t-120.5 -95.5q-12 -6 2 -6q94 0 145.5 1t108 5t84.5 12t56 23t43 36t26 52q3 7 15 4.5t10 -10.5l-72 -228q-8 -16 -18 -16h-562q-10 0 -14.5 10t2.5 21z" />
<glyph unicode="3" horiz-adv-x="708" d="M629 575q-18 -97 -85 -181t-165 -126q81 -13 131 -59t64.5 -107.5t0.5 -132.5q-13 -71 -58.5 -144.5t-122 -145.5t-195 -136t-262.5 -108q-6 -1 -11 10t0 14q97 34 178 82.5t134.5 100t93 110t60.5 110.5t30 103q19 109 -21.5 181.5t-140.5 72.5q-32 0 -86 -14 q-6 -2 -10.5 5t-4 14t4.5 9q147 38 222 115t97 209q19 100 -6 155.5t-96 55.5q-163 0 -275 -242q-4 -3 -10 -2.5t-11 5t-3 8.5l121 294q3 3 8.5 3t10 -4t1.5 -9q-19 -49 19 -49q13 0 82 22.5t122 22.5q105 0 153 -71t30 -171z" />
<glyph unicode="4" horiz-adv-x="872" d="M743 111q4 -4 3 -27.5t-7 -50.5t-12 -27q-23 1 -70.5 4t-72.5 4l-60 -338q-3 -22 -18 -28l-103 -33q-12 -6 -15.5 -3.5t-2.5 15.5l70 389q-127 4 -475 4q-8 0 -11.5 8t4.5 15l725 776q5 6 16.5 3.5t10.5 -11.5l-125 -705q24 1 71.5 2.5t71.5 2.5zM100 98q157 0 369 4 l88 504l-465 -493q-6 -6 -3.5 -10.5t11.5 -4.5z" />
<glyph unicode="5" horiz-adv-x="765" d="M721 866q3 3 8 3t9.5 -3.5t2.5 -7.5l-65 -160q-8 -17 -17 -25t-17.5 -9.5t-25.5 -1.5l-356 -9q-23 0 -35 -30l-71 -222q257 -3 363 -105.5t75 -277.5q-32 -170 -180.5 -303t-458.5 -278q-8 -3 -12.5 7.5t2.5 14.5q242 125 354 252.5t137 272.5q27 166 -56 262t-267 96 q-9 0 -12.5 8t-0.5 17l123 364q3 14 7.5 18t21.5 5q327 41 389 56t82 56z" />
<glyph unicode="6" horiz-adv-x="864" d="M395 -27q-183 0 -268 119t-43 334q25 141 96.5 281.5t177 263.5t249 224t304.5 159q8 2 11 -10t-4 -15q-140 -66 -260.5 -167t-205 -216t-139.5 -238.5t-75 -244.5q-21 -128 -5.5 -227t74.5 -159.5t150 -60.5q71 0 119 56.5t67 165.5q20 124 -14.5 202t-124.5 78 q-70 0 -166 -74q-3 -3 -7.5 -1.5t-7.5 7t-1 9.5q113 119 262 119q55 0 97.5 -16.5t67 -45t39.5 -65.5t15 -77.5t-6 -82.5q-25 -134 -140.5 -226t-261.5 -92z" />
<glyph unicode="7" horiz-adv-x="796" d="M-8 -563q-5 -2 -9.5 4t-0.5 10l710 1208q12 15 -4 15q-103 0 -171 -0.5t-130.5 -4t-98.5 -6.5t-69 -12.5t-49 -17.5t-32.5 -25.5t-25 -32.5t-20.5 -43q-2 -4 -8 -4t-12 4t-4 9l122 309q2 4 8 3.5t12 -3.5t5 -6q-13 -35 0.5 -44t75.5 -9h489q8 0 11.5 -9.5t-0.5 -17.5 l-611 -1215q-19 -36 -49 -49z" />
<glyph unicode="8" horiz-adv-x="901" d="M608 707q26 -18 39 -26.5t37.5 -26t37 -29t33 -30t30.5 -34t24 -36.5t19.5 -41.5t11 -45t4.5 -51.5t-6 -57q-30 -157 -159.5 -257t-283.5 -100q-176 0 -268 98.5t-68 233.5q19 119 122 224t231 163q-37 26 -61 48t-46 52t-29 65.5t0 76.5q13 78 66 134.5t119 82t135 25.5 q64 0 114 -23t77 -58.5t38.5 -76t3.5 -76.5q-10 -60 -69 -121t-152 -114zM408 989q-6 -46 5.5 -84.5t41 -72t58 -56.5t75.5 -55q96 90 110 197q14 89 -26 156t-113 67q-58 0 -100 -42t-51 -110zM690 270q6 47 5.5 84t-12 71t-27 60.5t-38.5 51t-47 44t-52.5 39.5t-53.5 37 q-20 13 -29 19q-90 -51 -147 -133t-74 -185q-15 -88 7.5 -166t83 -128t147.5 -50t153 69t84 187z" />
<glyph unicode="9" horiz-adv-x="864" d="M-45 -563q-8 -2 -11.5 9.5t3.5 14.5q140 66 260.5 169t203.5 220.5t138 239t78 238.5q19 84 11 164t-33 142.5t-76 101t-119 38.5q-70 0 -119.5 -47.5t-67.5 -148.5q-22 -123 23.5 -213.5t134.5 -90.5q37 0 70 17.5t77 56.5q4 2 9.5 1t9 -5t0.5 -8q-102 -123 -242 -123 q-69 0 -122 30t-79 75.5t-37.5 100.5t1.5 105q25 124 141.5 208.5t261.5 84.5q174 0 259.5 -122.5t47.5 -329.5q-32 -188 -142.5 -370.5t-288.5 -331.5t-392 -226z" />
<glyph unicode=":" horiz-adv-x="409" d="M221 555q-44 0 -70 26t-26 72q0 41 26 65.5t70 24.5q45 0 69.5 -24t24.5 -66q0 -46 -24.5 -72t-69.5 -26zM145 -20q-44 0 -70 26t-26 72q0 41 26 65.5t70 24.5q45 0 70 -24t25 -66q0 -46 -25 -72t-70 -26z" />
<glyph unicode=";" horiz-adv-x="454" d="M221 743q45 0 69.5 -24t24.5 -66q0 -46 -24.5 -72t-69.5 -26q-44 0 -70 26t-26 72q0 41 26 65.5t70 24.5zM154 168q67 0 98.5 -52t13.5 -145q-36 -182 -241 -338q-5 -4 -10.5 0t-7 9.5t2.5 9.5q131 128 156 268q6 29 6 70q-15 -6 -35 -6q-45 0 -69 30.5t-19 69.5 q3 38 31 61t74 23z" />
<glyph unicode="&#x3c;" horiz-adv-x="833" d="M758 141q15 -8 13 -57q-2 -36 -13 -33l-684 303q-10 6 -10 36t10 34l684 301q8 5 12 -16q6 -38 -6 -64q-2 -6 -6 -8l-582 -248z" />
<glyph unicode="=" horiz-adv-x="958" d="M70 489q-6 0 -8 21t-0.5 42t6.5 21h821q9 0 9 -42t-9 -42h-819zM70 203q-6 0 -8 21t-0.5 42t6.5 21h821q9 0 9 -42t-9 -42h-819z" />
<glyph unicode="&#x3e;" horiz-adv-x="833" d="M760 422q10 -6 10 -36t-10 -34l-684 -301q-8 -5 -12 16q-6 38 6 64q3 6 6 8l581 248l-581 248q-15 8 -13 57q2 36 13 33z" />
<glyph unicode="?" horiz-adv-x="604" d="M281 387q-25 54 -35 126.5t-2 117.5q8 46 31 85t52.5 64.5t64 55.5t64 57.5t54 70.5t33.5 95q13 81 -15 134.5t-92 53.5q-25 0 -43 -7.5t-28.5 -22.5t-15.5 -27.5t-11 -32.5q-4 -20 -8.5 -33t-14 -31t-26.5 -27t-41 -9q-39 0 -56.5 26t-9.5 60q9 61 90 99t181 38 q124 0 190 -64.5t43 -181.5q-9 -46 -29.5 -86t-46.5 -69.5t-55.5 -55.5t-57.5 -49q-11 -8 -16 -12q-85 -69 -122.5 -125t-49.5 -129q-9 -47 -2 -117q0 -9 -12.5 -10.5t-13.5 6.5zM236 -20q-44 0 -70.5 26t-26.5 72q0 41 26.5 65.5t70.5 24.5q45 0 69.5 -24t24.5 -66 q0 -46 -24.5 -72t-69.5 -26z" />
<glyph unicode="@" horiz-adv-x="1478" d="M954 109q-75 0 -103 47.5t-9 132.5l14 73q-69 -117 -154.5 -187.5t-160.5 -70.5q-56 0 -87 41t-20 127q16 110 85 218t161.5 174.5t173.5 66.5q64 0 100 -45q39 24 45 59q2 3 11 3t17.5 -1.5t8.5 -3.5l-84 -458q-6 -40 -5.5 -69.5t19 -46.5t56.5 -17q39 0 79.5 22 t75.5 61.5t57.5 104.5t22.5 143q0 133 -65.5 244t-181.5 176.5t-258 65.5q-159 0 -276 -77.5t-174.5 -203t-57.5 -280.5q0 -247 155.5 -397t409.5 -150q95 0 172 21.5t168 76.5q4 2 8 -1.5t5 -8t-1 -6.5q-183 -148 -422 -148q-168 0 -301.5 65t-214 194.5t-80.5 303.5 q0 143 56 268t149 209.5t215 132.5t254 48q118 0 218 -38t167 -103t104 -150.5t37 -179.5q0 -115 -52.5 -215.5t-142.5 -160.5t-194 -60zM612 201q73 0 162 114t117 242q9 55 -10 91.5t-64 35.5q-78 -3 -153.5 -103t-98.5 -229q-28 -151 47 -151z" />
<glyph unicode="A" horiz-adv-x="1232" d="M1159 25q7 0 7 -12.5t-7 -12.5q-31 0 -101 4t-112 4t-107 -4t-98 -4q-6 0 -6 12.5t6 12.5q89 0 113.5 30t9.5 117l-61 360h-393l-146 -264q-40 -73 -54 -121t0 -74.5t46.5 -37t89.5 -10.5q5 0 6.5 -6.5t-0.5 -12.5t-8 -6q-27 0 -105.5 4t-119.5 4t-98 -4t-91 -4 q-8 0 -8 12.5t8 12.5q59 0 130 56t141 179l581 1040q5 7 20 4.5t17 -8.5l195 -1124q14 -91 38.5 -119t106.5 -28zM434 580h361l-86 499z" />
<glyph unicode="B" horiz-adv-x="1093" d="M711 719q158 -17 236.5 -114.5t53.5 -239.5q-31 -157 -169.5 -265t-315.5 -108q-37 0 -131.5 6t-136.5 6q-45 0 -121 -2t-102 -2q-6 0 -5.5 12.5t5.5 12.5q93 0 128 28.5t52 116.5l168 948q13 87 -9.5 112t-115.5 25q-7 0 -6 12.5t6 12.5q29 0 103 -3t116 -3q35 0 114 6 t111 6q179 0 257 -75.5t52 -202.5q-24 -98 -97 -172.5t-193 -116.5zM516 1104l-67 -383q45 -2 77 -2q136 0 220.5 81t109.5 210q24 112 -25 177.5t-178 65.5q-66 0 -94.5 -28.5t-42.5 -120.5zM838 336q28 155 -40.5 245t-230.5 91q-51 3 -129 -4l-90 -506 q-13 -76 13.5 -103.5t127.5 -27.5q150 0 236.5 80.5t112.5 224.5z" />
<glyph unicode="C" horiz-adv-x="1200" d="M651 -27q-98 0 -179.5 21t-139.5 58t-100.5 89t-67 111t-36.5 126.5t-10.5 134t13.5 134.5q27 147 102.5 272t179 208t227.5 129.5t249 46.5q85 0 169.5 -19t131.5 -49q13 -9 15.5 -17.5t0.5 -31.5l-24 -242q-2 -8 -12.5 -8t-10.5 8q-21 155 -112.5 232t-235.5 77 q-194 0 -331 -147t-175 -397q-31 -190 3.5 -351t128.5 -256.5t227 -95.5q235 0 430 309q4 4 9 3.5t9 -4t2 -7.5l-59 -225q-6 -26 -12.5 -34.5t-24.5 -12.5q-180 -62 -367 -62z" />
<glyph unicode="D" horiz-adv-x="1269" d="M494 -8q-31 0 -122 6t-134 6q-45 0 -116.5 -2t-96.5 -2q-6 0 -6 12.5t6 12.5q91 0 122 26t46 115l167 948q17 88 -5 114.5t-111 26.5q-4 0 -4 12.5t4 12.5q26 0 99 -3t118 -3q39 0 120 5t113 5q188 0 322 -80.5t190 -222t25 -319.5q-35 -198 -149.5 -353t-269 -236 t-318.5 -81zM483 25q211 0 367.5 155.5t206.5 435.5q14 100 13.5 192t-27.5 173t-71 141t-116 94.5t-164 34.5q-95 0 -134 -28.5t-54 -112.5l-162 -922q-16 -89 12.5 -126t128.5 -37z" />
<glyph unicode="E" horiz-adv-x="1064" d="M1044 1280q16 0 13 -18l-13 -84.5t-16.5 -105t-11.5 -71.5q-2 -7 -13.5 -5t-11.5 8q8 109 -43.5 175t-144.5 66h-127q-91 0 -119 -24t-43 -109l-74 -422h271q85 0 127 33.5t57 114.5q1 5 7.5 6t12.5 -1.5t5 -8.5q-7 -41 -18 -92t-15 -76q-25 -166 -31 -197 q-1 -6 -7.5 -7.5t-12.5 1t-5 8.5q17 90 -15.5 131t-119.5 41h-264l-84 -469q-14 -85 7 -110t108 -25h170q90 0 176 75t139 197q4 8 18 3q6 -3 5 -7q-38 -123 -66 -276q-3 -18 -9.5 -24.5t-23.5 -6.5h-837q-5 0 -5 12.5t5 12.5q91 0 121 25.5t47 115.5l166 948 q17 88 -4.5 114.5t-110.5 26.5q-6 0 -6 12.5t6 12.5h790z" />
<glyph unicode="F" horiz-adv-x="991" d="M1040 1280q17 0 11 -18q-6 -43 -21 -142t-18 -119q-2 -5 -8.5 -5.5t-12 2t-4.5 6.5q6 109 -45.5 175t-144.5 66h-127q-91 0 -119 -24t-43 -109l-80 -446h242q85 0 127 33.5t57 113.5q1 6 7.5 7t12.5 -1.5t5 -7.5q-2 -13 -33 -170q-3 -20 -13.5 -87t-17.5 -110 q-1 -6 -7.5 -7t-12 1.5t-4.5 7.5q15 91 -17.5 131.5t-118.5 40.5h-235l-78 -444q-5 -45 -5.5 -74t21.5 -45.5t60.5 -23t111.5 -6.5q4 0 4 -12.5t-4 -12.5q-23 0 -120 2t-172 2q-42 0 -113 -2t-96 -2q-6 0 -6 12.5t6 12.5q90 0 120.5 25.5t47.5 115.5l165 948q17 87 -4 114 t-110 27q-6 0 -6 12.5t6 12.5h792z" />
<glyph unicode="G" horiz-adv-x="1292" d="M676 -25q-203 0 -339 88t-186.5 238.5t-15.5 339.5q34 191 151.5 343t288.5 235.5t363 83.5q87 0 166.5 -19t124.5 -51q12 -9 13.5 -19t-1.5 -28l-22 -242q-3 -8 -13 -8t-12 8q-19 150 -105.5 230.5t-232.5 80.5q-215 0 -359.5 -145t-187.5 -395q-34 -207 8.5 -367 t151 -247t264.5 -87q82 0 128.5 19t76 72t43.5 153q9 55 12 85.5t-0.5 58.5t-13 40t-33 21.5t-53 11.5t-80.5 2q-10 0 -9.5 16.5t9.5 16.5q204 -16 414 -4q8 0 8.5 -14.5t-8.5 -14.5q-53 1 -69.5 -35.5t-43.5 -203.5q-14 -81 -15.5 -128.5t-2.5 -52.5q-1 -11 -6 -15t-19 -9 q-227 -58 -395 -58z" />
<glyph unicode="H" horiz-adv-x="1376" d="M1434 1280q6 0 6 -12.5t-6 -12.5q-88 0 -118.5 -26t-47.5 -115l-168 -948q-15 -89 7 -115t112 -26q6 0 6 -12.5t-6 -12.5q-23 0 -95.5 2t-115.5 2q-44 0 -118.5 -2t-101.5 -2q-4 0 -4 12.5t4 12.5q93 0 123 25.5t45 115.5l84 477h-620l-84 -477q-15 -90 6 -115.5 t111 -25.5q6 0 6 -12.5t-6 -12.5q-25 0 -99 2t-121 2q-42 0 -112.5 -2t-95.5 -2q-6 0 -6 12.5t6 12.5q91 0 122 26t46 115l167 948q15 88 -6 114.5t-110 26.5q-4 0 -4 12.5t4 12.5q26 0 96 -3t113 -3q44 0 119 3t100 3q4 0 4 -12.5t-4 -12.5q-63 0 -94.5 -13t-46.5 -41.5 t-27 -90.5l-74 -420h619l73 420q15 90 -5 117.5t-109 27.5q-6 0 -6 12.5t6 12.5q24 0 97 -3t116 -3q42 0 116 3t97 3z" />
<glyph unicode="I" horiz-adv-x="649" d="M45 0q-6 0 -6 12.5t6 12.5q90 0 119.5 25.5t44.5 115.5l168 948q17 87 -6 114t-111 27q-6 0 -6 12.5t6 12.5q26 0 97 -3t114 -3q51 0 123.5 3t95.5 3q6 0 6 -12.5t-6 -12.5q-89 0 -118.5 -27.5t-47.5 -117.5l-168 -944q-15 -89 6.5 -115t112.5 -26q5 0 5 -12.5t-5 -12.5 q-25 0 -97 2t-120 2q-43 0 -115 -2t-98 -2z" />
<glyph unicode="J" horiz-adv-x="598" d="M-45 -395q-3 -2 -7 2.5t-5 10t2 9.5q91 55 145 166t86 289l182 1032q15 88 -7 114.5t-111 26.5q-4 0 -4 12.5t4 12.5q25 0 97 -3t116 -3q49 0 122.5 3t96.5 3q6 0 6 -12.5t-6 -12.5q-90 0 -120.5 -27.5t-45.5 -117.5l-172 -973q-30 -160 -76.5 -260t-116.5 -161 t-186 -111z" />
<glyph unicode="K" horiz-adv-x="1236" d="M1292 1280q6 0 6 -12.5t-6 -12.5q-75 0 -168.5 -41t-181.5 -124l-328 -293l199 -373q79 -146 124.5 -222t84 -118t63 -50.5t66.5 -8.5q6 0 6 -12.5t-6 -12.5h-180h-15q-77 0 -96.5 14.5t-61.5 104.5q-50 107 -96 192l-204 381l-82 -71l-80 -455q-13 -58 -11 -89.5 t25.5 -41.5t89.5 -10q4 0 4 -12.5t-4 -12.5q-27 0 -92.5 2t-114.5 2q-42 0 -112.5 -2t-95.5 -2q-6 0 -6 12.5t6 12.5q91 0 122 26t46 115l167 948q15 88 -6 114.5t-110 26.5q-4 0 -4 12.5t4 12.5q26 0 96 -3t113 -3q44 0 119 3t100 3q4 0 4 -12.5t-4 -12.5q-63 0 -94.5 -13 t-46.5 -41.5t-27 -90.5l-78 -440l471 432q77 72 72.5 112.5t-90.5 40.5q-5 0 -5 12.5t5 12.5q23 0 99 -3t128 -3q51 0 109 3t77 3z" />
<glyph unicode="L" horiz-adv-x="1021" d="M27 0q-6 0 -6 12.5t6 12.5q91 0 121 26t45 115l167 948q15 88 -6 114.5t-110 26.5q-4 0 -4 12.5t4 12.5q26 0 96 -3t113 -3q44 0 119 3t100 3q4 0 4 -12.5t-4 -12.5q-90 0 -120 -26.5t-48 -116.5l-166 -938q-14 -85 5 -110t97 -25h158q125 0 213 72t152 213q1 4 7 4 t11 -2.5t4 -6.5q-40 -135 -67 -288q-5 -31 -33 -31h-858z" />
<glyph unicode="M" horiz-adv-x="1505" d="M1571 1280q3 0 3 -12.5t-3 -12.5q-79 0 -118 -27.5t-50 -109.5l-141 -952q-12 -90 8.5 -115.5t107.5 -25.5q6 0 6 -12.5t-6 -12.5q-24 0 -95.5 2t-117.5 2q-45 0 -117 -2t-98 -2q-6 0 -6 12.5t6 12.5q94 0 124 26t42 115l146 973l-582 -1125q-4 -8 -16 -7.5t-15 9.5 l-229 1094v2l-158 -874q-19 -108 5 -160.5t95 -52.5q6 0 6 -12.5t-6 -12.5q-20 0 -74 2t-91 2q-31 0 -86 -2t-78 -2q-6 0 -6 12.5t6 12.5q142 0 182 211l176 950q-43 69 -135 69q-6 0 -6 12.5t6 12.5q16 0 56.5 -2t62.5 -2q29 0 69 2t48 2q24 0 36 -20.5t25 -85.5l201 -936 l510 991q26 51 69 51q7 0 44.5 -2t58.5 -2q32 0 74.5 2t60.5 2z" />
<glyph unicode="N" d="M1421 1280q5 0 5 -12.5t-5 -12.5q-152 0 -186 -200l-193 -1073q0 -9 -17 -10.5t-21 8.5l-601 1132l-153 -889q-37 -198 112 -198q4 0 4 -12.5t-4 -12.5q-22 0 -78 2t-94 2q-33 0 -92.5 -2t-83.5 -2q-4 0 -4 12.5t4 12.5q153 0 187 198l168 946q-59 86 -136 86 q-6 0 -6 12.5t6 12.5q25 0 77 -2t71 -2q23 0 61.5 2t42.5 2q14 0 20 -7.5t17 -39t25 -59.5l493 -936l146 817q37 200 -113 200q-5 0 -5 12.5t5 12.5q20 0 77.5 -3t96.5 -3q32 0 91 3t83 3z" />
<glyph unicode="O" d="M580 -25q-100 0 -183 34t-139 94.5t-91.5 144.5t-42 183t10.5 210q51 288 251 475t454 187q102 0 187 -34t141.5 -94.5t93 -144t42 -181.5t-11.5 -208q-26 -147 -96 -272.5t-165.5 -211.5t-212.5 -134t-238 -48zM668 29q167 0 289 133t167 370q31 147 16.5 278.5 t-60 229.5t-129.5 155.5t-193 57.5q-171 0 -292.5 -135t-164.5 -368q-19 -114 -18 -219.5t30 -197t75.5 -159t119 -106.5t160.5 -39z" />
<glyph unicode="P" horiz-adv-x="1048" d="M27 0q-5 0 -5 12.5t5 12.5q92 0 122.5 25.5t47.5 115.5l165 948q17 88 -4 114.5t-110 26.5q-6 0 -6 12.5t6 12.5q24 0 95 -3t114 -3q24 0 112.5 6t137.5 6q86 0 156.5 -22t120.5 -64.5t70.5 -112.5t4.5 -159q-18 -98 -74 -176t-130 -123t-152 -68.5t-150 -23.5 q-50 0 -84 10q-2 2 -1.5 10t4 16t7.5 7q30 -9 62 -9q57 0 111.5 19t103.5 56.5t85 99.5t50 141q29 166 -40.5 265t-184.5 99q-87 0 -114.5 -23t-45.5 -118l-166 -944q-15 -90 6 -115.5t111 -25.5q5 0 5 -12.5t-5 -12.5q-25 0 -98.5 2t-120.5 2q-42 0 -114 -2t-97 -2z" />
<glyph unicode="Q" d="M1405 -354q4 1 7 -4.5t3.5 -11t-2.5 -7.5q-96 -26 -164 -26q-132 0 -266 105t-231 298q-86 -25 -172 -25q-100 0 -183 34t-139 94.5t-91.5 144.5t-42 183t10.5 210q51 288 251 475t454 187q102 0 187 -34t141.5 -94.5t93 -144t42 -181.5t-11.5 -208q-34 -191 -138 -341.5 t-251 -236.5q73 -181 201.5 -303t230.5 -122q46 0 70 8zM301 750q-19 -114 -18 -219.5t30 -197t75.5 -159t119 -106.5t160.5 -39q167 0 289 133t167 370q31 147 16.5 278.5t-60 229.5t-129.5 155.5t-193 57.5q-171 0 -292.5 -135t-164.5 -368z" />
<glyph unicode="R" horiz-adv-x="1269" d="M1219 25q7 0 7 -12.5t-7 -12.5h-248q-47 0 -143 166.5t-212 470.5q-58 -12 -120 -12q-22 0 -54 4l-82 -463q-15 -89 6 -115t115 -26q5 0 7 -6.5t0.5 -12.5t-5.5 -6q-28 0 -102 2t-121 2q-45 0 -122 -2t-105 -2q-7 0 -7 12.5t7 12.5q98 0 132.5 26.5t51.5 114.5l166 948 q17 89 -5 115t-118 26q-8 0 -8 12.5t8 12.5q28 0 102 -3t119 -3q33 0 113 6t106 6q181 0 258 -71t52 -209q-21 -106 -93.5 -191.5t-177.5 -136.5q160 -367 265 -510t215 -143zM453 682q40 -6 82 -6q141 0 213 62t100 208q32 161 -21 233t-161 72q-39 0 -57 -2.5t-35.5 -16.5 t-26.5 -42t-19 -80z" />
<glyph unicode="S" horiz-adv-x="952" d="M381 -25q-148 0 -283 70q-15 10 -12 39l41 276q0 9 11.5 9t13.5 -9q14 -158 83.5 -252t196.5 -94q97 0 168.5 58t89.5 172q5 27 5.5 52.5t-3.5 48.5t-10.5 43t-18 40t-22.5 36t-28.5 34t-31.5 31t-35 29.5t-36.5 28t-38.5 27.5q-29 21 -42.5 31t-39.5 31t-39 34 t-33.5 34.5t-30 39t-21 42t-15 48t-4 52t5.5 59.5q20 102 87.5 176t155.5 108t185 34q110 0 227 -50q28 -14 25 -34l-29 -240q0 -7 -11 -7t-11 7q-8 61 -24.5 110t-44.5 91t-72 65t-101 23q-101 0 -160.5 -64t-75.5 -151q-24 -128 74 -227q37 -38 141 -113q25 -18 40 -28.5 t38.5 -29t38 -31.5t34 -32t31 -35.5t25 -38t20 -42.5t12 -45.5t5 -51t-5.5 -55.5q-28 -151 -152.5 -250t-322.5 -99z" />
<glyph unicode="T" horiz-adv-x="1132" d="M272 0q-6 0 -6 12.5t6 12.5q103 0 137.5 26t51.5 115l166 948q14 79 -3 103t-87 24h-43q-114 0 -194.5 -77t-121.5 -226q-1 -4 -7.5 -4t-12 2.5t-4.5 5.5q18 56 49 185t43 198q2 4 8.5 5t11.5 -1t4 -6q-2 -14 5 -23.5t21.5 -13.5t26 -5t27.5 -1q150 -6 375 -6q91 0 207 3 t153 3q61 0 92 10t44 41q2 4 8 5t10.5 -1.5t3.5 -7.5q-17 -58 -46.5 -195t-37.5 -190q-1 -4 -7 -5t-11 1.5t-4 7.5q50 295 -195 295h-39q-70 0 -94.5 -26t-36.5 -105l-166 -944q-17 -89 9 -115t133 -26q4 0 4 -12.5t-4 -12.5q-29 0 -108.5 2t-131.5 2q-47 0 -127.5 -2 t-108.5 -2z" />
<glyph unicode="U" horiz-adv-x="1267" d="M1151 1049q35 206 -127 206q-6 0 -5.5 12.5t5.5 12.5q28 0 90 -3t98 -3q34 0 93 3t81 3q7 0 6.5 -12.5t-6.5 -12.5q-74 0 -121.5 -56t-66.5 -159l-106 -602q-38 -218 -181 -341.5t-346 -123.5q-207 0 -308.5 126.5t-63.5 340.5l120 678q15 87 -7.5 112t-115.5 25 q-5 0 -6.5 6.5t0 12.5t4.5 6q29 0 104 -3t118 -3q50 0 125.5 3t97.5 3q7 0 6.5 -12.5t-6.5 -12.5q-95 0 -128 -29.5t-48 -121.5l-109 -602q-40 -229 35 -346t240 -117q164 0 275.5 108t143.5 299z" />
<glyph unicode="V" horiz-adv-x="1218" d="M1360 1280q8 0 8 -12.5t-8 -12.5q-64 0 -115 -35.5t-106 -140.5l-557 -1077q-6 -9 -27 -8.5t-23 8.5l-247 1108q-19 81 -46.5 113t-80.5 32q-4 0 -4 12.5t4 12.5q25 0 84 -3t86 -3q53 0 125 3t96 3q6 0 6 -12.5t-6 -12.5q-70 0 -100.5 -28t-14.5 -97l207 -917l451 874 q85 168 -103 168q-6 0 -6 12.5t6 12.5q26 0 89.5 -3t115.5 -3q35 0 85 3t81 3z" />
<glyph unicode="W" horiz-adv-x="1691" d="M1833 1280q7 0 7 -12.5t-7 -12.5q-64 0 -114.5 -35.5t-104.5 -140.5l-561 -1077q-5 -9 -24 -8.5t-21 8.5l-131 573l-295 -573q-6 -9 -27 -8.5t-23 8.5l-247 1108q-19 81 -46.5 113t-80.5 32q-6 0 -6 12.5t6 12.5q25 0 84 -3t86 -3q47 0 112 3t86 3q8 0 8 -12.5t-8 -12.5 q-58 0 -84 -28t-12 -97l211 -927l223 434l-108 473q-18 82 -41.5 113.5t-73.5 31.5q-6 0 -6 12.5t6 12.5q24 0 79 -3t81 -3q35 0 82 3t61 3q9 0 9 -12.5t-9 -12.5q-45 0 -52 -20t11 -105l72 -319l141 276q45 89 38.5 128.5t-67.5 39.5q-6 0 -6 12.5t6 12.5q17 0 57.5 -3 t72.5 -3t77.5 3t73.5 3q8 0 8 -12.5t-8 -12.5q-59 0 -105 -35t-102 -141l-172 -334l123 -542l453 884q43 78 22.5 123t-106.5 45q-7 0 -7 12.5t7 12.5q25 0 82 -3t104 -3q36 0 85.5 3t80.5 3z" />
<glyph unicode="X" horiz-adv-x="1185" d="M1270 1280q9 0 9 -12.5t-9 -12.5q-126 0 -291 -204l-277 -349l205 -532q29 -79 70 -112t110 -33q7 0 7 -12.5t-7 -12.5q-22 0 -82 2t-96 2q-49 0 -133 -2t-108 -2q-9 0 -8.5 12.5t8.5 12.5q60 0 86 18.5t10 60.5l-180 471l-295 -376q-68 -92 -54 -133t99 -41q8 0 8 -12.5 t-8 -12.5q-26 0 -101 2t-124 2q-29 0 -75.5 -2t-72.5 -2q-7 0 -7 12.5t7 12.5q62 0 136.5 48.5t150.5 143.5l317 401l-188 492q-29 78 -66 111.5t-94 33.5q-7 0 -7 12.5t7 12.5q21 0 68 -3t69 -3q54 0 138.5 3t109.5 3q8 0 8 -12.5t-8 -12.5q-56 0 -78 -20t-4 -61l164 -429 l254 326q49 63 58 105t-16 60.5t-81 18.5q-7 0 -7 12.5t7 12.5q25 0 101 -3t126 -3q28 0 74 3t70 3z" />
<glyph unicode="Y" horiz-adv-x="1087" d="M1233 1280q6 0 6 -12.5t-6 -12.5q-131 0 -272 -202l-293 -416l-84 -471q-17 -90 5.5 -115.5t121.5 -25.5q6 0 6 -12.5t-6 -12.5q-27 0 -102 2t-122 2q-49 0 -125 -2t-102 -2q-8 0 -8 12.5t8 12.5q97 0 131 26t47 115l78 450l-209 494q-35 79 -69.5 112t-87.5 33 q-8 0 -8 12.5t8 12.5q24 0 78.5 -3t80.5 -3q47 0 129.5 3t106.5 3q5 0 6.5 -6t-1 -12.5t-7.5 -6.5q-71 0 -91 -17.5t-1 -63.5l204 -490l265 391q57 82 46 131t-87 49q-6 0 -6 12.5t6 12.5q28 0 99 -3t118 -3q29 0 70.5 3t66.5 3z" />
<glyph unicode="Z" horiz-adv-x="1126" d="M950 -4q-281 4 -915 4q-9 0 -11 10t3 17l956 1202q9 11 8.5 13.5t-12.5 2.5q-150 0 -239.5 -2.5t-170 -13t-122 -24.5t-83.5 -46.5t-67 -67.5t-61 -98q-4 -9 -17 -4q-8 4 -4 10l137 342q3 3 9.5 2.5t12 -3.5t3.5 -7q-10 -35 5.5 -44t86.5 -9h696q9 0 12.5 -10.5 t-1.5 -16.5l-947 -1198q-9 -11 -8 -13.5t12 -2.5h361q164 0 260 56t166 196q2 5 8.5 5.5t11.5 -2.5t4 -7l-75 -271q0 -6 -6 -13t-13 -7z" />
<glyph unicode="[" horiz-adv-x="512" d="M53 -240q-11 0 -12.5 4t2.5 19l297 1681q2 14 5 17.5t13 3.5h279q7 0 7 -12.5t-7 -12.5q-104 0 -140.5 -28.5t-50.5 -116.5l-243 -1385q-17 -88 8.5 -116.5t126.5 -28.5q9 0 9 -12.5t-9 -12.5h-285z" />
<glyph unicode="\" horiz-adv-x="624" d="M379 -334l-148 1815q-1 5 6 9.5t18.5 7t23 3t20.5 -2t10 -7.5l148 -1817q1 -8 -18 -13.5t-39 -4t-21 9.5z" />
<glyph unicode="]" horiz-adv-x="509" d="M539 1485q11 0 12.5 -4t-2.5 -19l-297 -1681q-1 -13 -4.5 -17t-14.5 -4h-278q-7 0 -7 12.5t7 12.5q71 0 108 12.5t55 42t27 90.5l244 1385q17 88 -8.5 116.5t-126.5 28.5q-9 0 -9 12.5t9 12.5h285z" />
<glyph unicode="^" horiz-adv-x="722" d="M197 768q-6 -4 -15.5 0.5t-7.5 9.5l324 510q4 10 22 10t19 -10l143 -510q0 -3 -4.5 -6t-9 -3.5t-6.5 3.5l-181 303z" />
<glyph unicode="_" horiz-adv-x="743" d="M-14 -158q-6 0 -8 21.5t-0.5 43t6.5 21.5h653q9 0 9 -43t-9 -43h-651z" />
<glyph unicode="`" horiz-adv-x="339" d="M352 973l-98 516q3 12 34 10.5t68 -12.5t37 -21l-22 -491q0 -3 -4.5 -5t-9.5 -1.5t-5 4.5z" />
<glyph unicode="a" horiz-adv-x="894" d="M842 158q4 4 9.5 1t7.5 -8.5t-1 -9.5q-134 -159 -229 -159q-56 0 -72 45.5t2 154.5l33 195q-88 -186 -203 -295t-223 -109q-71 0 -105 52t-20 161q20 142 108.5 289.5t210 244.5t228.5 97q87 0 139 -55q39 30 53 72q3 4 9 4t11.5 -3t4.5 -6l-119 -647q-21 -112 29 -112 q42 0 127 88zM258 90q69 0 148 73.5t137.5 180t79.5 207.5q17 83 -14 134t-101 50q-103 -2 -201 -127t-127 -305q-33 -213 78 -213z" />
<glyph unicode="b" horiz-adv-x="901" d="M698 817q95 0 140 -85.5t20 -217.5q-24 -126 -88 -232.5t-144 -171.5t-164 -101t-157 -36q-110 0 -167 52t-40 139l203 1085q14 81 -15 98t-120 -24q-5 -2 -9.5 4t-4 12t5.5 9l280 137q8 3 17.5 -4.5t7.5 -12.5l-182 -1013q69 161 182.5 261.5t234.5 100.5zM702 451 q13 73 11 131t-30.5 93.5t-80.5 35.5q-123 0 -225.5 -142.5t-143.5 -371.5q-12 -73 32 -121.5t122 -48.5q101 0 191.5 115t123.5 309z" />
<glyph unicode="c" horiz-adv-x="708" d="M324 -27q-69 0 -122 26t-82.5 70t-47.5 101t-16 119t12 125q23 122 96 216t164.5 140.5t183.5 46.5q77 0 132.5 -34.5t49.5 -92.5q-3 -32 -24 -53t-56 -21q-64 0 -82 74q-22 78 -98 78q-85 0 -140.5 -79t-78.5 -210q-18 -84 -13 -161.5t28 -136t72.5 -93.5t119.5 -35 q101 0 205 84q6 5 14 -3.5t2 -14.5q-159 -146 -319 -146z" />
<glyph unicode="d" horiz-adv-x="913" d="M944 1468l-235 -1286q-19 -112 30 -112q36 0 127 88q8 8 16 -1t1 -16q-72 -82 -125.5 -120.5t-106.5 -38.5q-58 0 -73 47t6 153l34 183q-91 -183 -193 -287.5t-208 -104.5q-41 0 -74.5 15t-60 48.5t-34 88t4.5 133.5q26 146 113 276t205 206.5t233 76.5q54 0 94 -22 l84 454q14 81 -15 98t-120 -24q-5 -2 -9.5 4t-4 12t5.5 9l283 137q7 3 15.5 -4.5t6.5 -12.5zM295 86q61 0 124 51t109.5 126t80 153.5t44.5 140.5q15 85 -24 132.5t-111 45.5q-122 -2 -211 -102t-121 -283q-21 -130 9.5 -197t99.5 -67z" />
<glyph unicode="e" horiz-adv-x="710" d="M539 817q77 0 116 -29.5t31 -80.5q-10 -60 -79 -116.5t-172.5 -96t-225.5 -60.5q-27 -168 26.5 -275.5t178.5 -107.5q110 0 198 68q5 3 12 -5t3 -14q-144 -125 -305 -125q-82 0 -141.5 33.5t-88 90t-38.5 129.5t7 151q15 79 58 157t105 140.5t145 101.5t170 39zM526 664 q11 48 -14 73t-70 25q-85 0 -144 -83t-85 -216q280 54 313 201z" />
<glyph unicode="f" horiz-adv-x="540" d="M657 1487q77 0 120.5 -32.5t37.5 -78.5q-6 -32 -28.5 -49.5t-51.5 -17.5t-47 14.5t-25.5 35.5t-14 42.5t-20 36t-36.5 14.5q-74 0 -128.5 -137.5t-94.5 -415.5l-19 -127q36 2 83 5.5t80 6t42 2.5q18 0 14 -20q-3 -20 -25 -44.5t-42 -23.5q-8 1 -64 9.5t-96 11.5 l-111 -762q-43 -293 -110.5 -406.5t-198.5 -113.5q-76 0 -114.5 28.5t-32.5 69.5q3 30 26 49t56 19q34 0 51.5 -20t20.5 -43.5t14.5 -43.5t33.5 -20q18 0 30.5 15t26 62.5t28 129t34.5 221.5l105 723q10 76 -7.5 93t-103.5 17q-5 0 -6 7.5t1.5 14.5t6.5 7q72 0 103 19t38 71 q41 252 92.5 386t128.5 189.5t203 55.5z" />
<glyph unicode="g" horiz-adv-x="782" d="M793 807q18 0 7 -58q-9 -52 -22 -54q-1 0 -2 1q-60 36 -153 33q62 -87 34 -225q-27 -135 -128 -219t-218 -84q-19 0 -47 4q-19 -25 -22 -58q-5 -35 17.5 -66t61 -54t86 -46.5t94.5 -50t85 -57t58 -75t13 -97.5q-13 -116 -140.5 -196t-295.5 -80q-160 0 -245 71t-64 170 q16 75 88 138.5t197 132.5q-86 59 -72 133q8 35 34.5 68t73.5 75q-81 27 -114.5 107.5t-12.5 183.5q25 129 124.5 214t224.5 85q85 0 139 -45q107 49 199 49zM526 461q9 47 4.5 100t-16.5 98t-40.5 75t-67.5 30q-57 0 -105 -63t-61 -158q-10 -79 -1 -145.5t42.5 -111 t80.5 -44.5q57 0 103 59.5t61 159.5zM539 -358q2 42 -17.5 77t-57.5 63.5t-75 49t-89.5 46.5t-80.5 44q-73 -46 -118 -93t-54 -112q-14 -100 64.5 -166.5t210.5 -66.5q102 0 158 45t59 113z" />
<glyph unicode="h" horiz-adv-x="917" d="M866 158q4 5 10.5 2.5t8.5 -8.5t-2 -11q-70 -81 -125 -120t-109 -39q-56 0 -71 47t4 153l59 326q43 217 -68 217q-100 0 -203.5 -190t-162.5 -517q-7 -34 -80 -34q-55 0 -55 14q0 3 5 25.5t12.5 60t12.5 68.5l205 1097q14 81 -15 98t-118 -24q-3 -1 -6.5 0.5t-5 5 t-2.5 7.5t0 7.5t4 4.5l282 137q7 3 16 -4.5t7 -12.5l-195 -1071q73 199 171 309.5t206 110.5q88 0 118 -64.5t5 -205.5l-67 -365q-19 -112 32 -112q36 0 127 88z" />
<glyph unicode="i" horiz-adv-x="505" d="M352 1042q-44 0 -70 26t-26 71q0 43 26 67.5t70 24.5q46 0 71.5 -24.5t25.5 -67.5q0 -46 -25.5 -71.5t-71.5 -25.5zM221 -18q-56 0 -73 45.5t4 154.5l84 426q11 57 2 86t-35 29q-49 0 -133 -90q-4 -5 -10.5 -2t-8.5 8.5t2 9.5q135 160 240 160q57 0 73 -45.5t-4 -145.5 l-83 -436q-19 -112 30 -112q46 0 129 86q5 5 11 2t8 -9t-2 -10q-68 -80 -124 -118.5t-110 -38.5z" />
<glyph unicode="j" horiz-adv-x="495" d="M379 1042q-45 0 -70.5 26t-25.5 71q0 43 26 67.5t70 24.5q45 0 70.5 -24.5t25.5 -67.5q0 -46 -25 -71.5t-71 -25.5zM-45 -563q-73 0 -112 29t-33 69q6 33 27 50.5t50 17.5q31 0 47 -20.5t19.5 -45t13.5 -45t31 -20.5q40 0 65 81.5t68 331.5l125 723q21 115 -33 115 q-48 0 -135 -90q-4 -5 -9.5 -2t-7.5 8.5t1 9.5q72 84 130 122t113 38t70.5 -45.5t-2.5 -145.5l-119 -684q-34 -195 -72.5 -300t-93.5 -151t-143 -46z" />
<glyph unicode="k" horiz-adv-x="849" d="M834 154q5 5 11 2t8 -9t-1 -10q-137 -155 -217 -155q-50 0 -86 29.5t-82 107.5l-119 203q-19 33 -34 43.5t-42 7.5l-65 -355q-7 -34 -80 -34q-55 0 -55 14q0 3 5 25.5t12.5 60t12.5 68.5l205 1097q14 81 -15 98t-118 -24q-3 -1 -6.5 0.5t-5 5t-2.5 7.5t0 7.5t4 4.5 l282 137q7 3 16 -4t7 -13l-150 -823q76 79 168 125.5t183 46.5q33 0 57.5 -8.5t36 -22t19.5 -30.5t7 -33t-2 -29q-12 -73 -103.5 -144.5t-242.5 -125.5l133 -229q40 -67 70 -91t62 -24q53 0 127 74zM565 748q-97 0 -174.5 -88t-109.5 -236l-5 -18q175 42 255.5 97t93.5 148 q6 44 -10 70.5t-50 26.5z" />
<glyph unicode="l" horiz-adv-x="491" d="M188 -18q-58 0 -74 47t5 153l196 1067q15 81 -12.5 98t-116.5 -24q-6 -2 -11 4t-4.5 12t5.5 9l283 137q7 3 15.5 -4.5t6.5 -12.5l-235 -1286q-22 -112 30 -112q36 0 127 88q7 8 16 -1t1 -16q-70 -81 -124.5 -120t-107.5 -39z" />
<glyph unicode="m" horiz-adv-x="1390" d="M1337 158q7 8 16 -1t1 -16q-70 -81 -124.5 -120t-107.5 -39q-57 0 -72 47t5 153l59 326q19 110 4.5 163.5t-65.5 53.5q-92 0 -189.5 -176.5t-156.5 -485.5l-9 -45q-2 -15 -23 -24.5t-57 -9.5q-53 0 -53 14q0 3 5.5 27t13.5 61t12 66l68 358q33 215 -64 215 q-94 0 -193 -185.5t-155 -498.5l-4 -23q-10 -34 -82 -34q-53 0 -53 14q0 3 5 25t12.5 58t12.5 64l84 463q21 115 -32 115q-49 0 -136 -90q-4 -5 -9.5 -2t-7.5 8.5t1 9.5q135 160 244 160q55 0 70 -45.5t-3 -145.5l-37 -212q70 194 165 302.5t198 108.5q165 0 115 -268 l-27 -146q71 196 167 305t198 109q162 0 112 -270l-65 -365q-19 -112 30 -112q36 0 127 88z" />
<glyph unicode="n" horiz-adv-x="958" d="M907 158q4 5 10 2.5t8 -8.5t-1 -11q-70 -81 -125 -120t-109 -39q-56 0 -71 47t4 153l59 326q43 217 -68 217q-100 0 -203.5 -190t-162.5 -517q-7 -34 -80 -34q-55 0 -55 14q0 3 5 25.5t12.5 60t12.5 68.5l84 456q21 115 -32 115q-49 0 -136 -90q-4 -5 -9.5 -2t-7.5 8.5 t1 9.5q135 160 244 160q55 0 70 -45.5t-3 -145.5l-41 -225q73 200 171.5 312t207.5 112q88 0 118.5 -65t4.5 -205l-67 -365q-19 -112 32 -112q36 0 127 88z" />
<glyph unicode="o" horiz-adv-x="821" d="M317 -29q-151 0 -219 122t-35 302q35 183 159.5 302.5t279.5 119.5q79 0 138.5 -33.5t90 -91t40.5 -134t-9 -163.5q-26 -128 -96.5 -226.5t-162 -148t-186.5 -49.5zM389 23q79 0 142 76t87 206q17 81 11 163t-26 149t-63.5 109t-101.5 42q-78 0 -140.5 -75.5 t-88.5 -209.5q-19 -84 -13 -166t27 -147.5t65 -106t101 -40.5z" />
<glyph unicode="p" horiz-adv-x="831" d="M584 805q117 0 167.5 -73.5t30.5 -213.5q-19 -138 -93 -258.5t-179 -191t-213 -70.5q-63 0 -107 6l-65 -369q-13 -83 9 -106t102 -12q5 1 8.5 -4.5t3.5 -11.5t-6 -7l-365 -57q-5 -1 -8 4.5t-2 12t6 7.5q63 12 82 38.5t37 121.5l174 975q-11 -7 -94 -70q-8 -5 -15 5t0 16 q50 45 117 92l27 152q1 4 30.5 25t62.5 56t40 72q2 5 8 6t10.5 -2t3.5 -8l-37 -211q142 76 265 76zM645 451q32 272 -166 272q-81 0 -168 -41l-106 -592q79 -33 155 -33q120 0 191 107t94 287z" />
<glyph unicode="q" horiz-adv-x="854" d="M809 829l-217 -1194q-14 -79 11 -107.5t112 -16.5q6 3 9 -8q4 -13 -5 -15l-381 -51q-5 -1 -8 4.5t-2 12t6 7.5q68 10 89 36.5t40 123.5l119 674q-75 -152 -178.5 -237t-202.5 -85q-81 0 -125 65t-29 173q20 158 100.5 297.5t199.5 224t245 84.5q88 0 137 -55q35 28 55 72 q3 4 9 4t11.5 -3t4.5 -6zM285 90q115 0 209 121.5t124 292.5q20 120 -10 177t-112 54q-114 -2 -200 -107t-112 -309q-20 -229 101 -229z" />
<glyph unicode="r" horiz-adv-x="706" d="M598 809q46 0 87 -36t32 -81q-5 -27 -25 -45t-49 -18q-26 0 -45.5 16.5t-36 32.5t-33.5 16q-41 0 -102 -122t-110.5 -277t-73.5 -277q-7 -34 -80 -34q-53 0 -53 14q0 3 5 27t13 61.5t12 65.5l74 403q29 168 -37 168q-43 0 -121 -78q-4 -4 -9.5 -1t-7.5 8.5t1 9.5 q126 147 229 147q60 0 77 -53t-5 -191l-43 -239q42 135 87.5 238.5t102.5 174t111 70.5z" />
<glyph unicode="s" horiz-adv-x="626" d="M211 -23q-83 0 -142.5 40t-50.5 94q4 32 24 48.5t48 16.5q26 0 46 -22.5t33 -50t42.5 -50t73.5 -22.5q97 0 112 110q6 43 -7.5 81t-39.5 67t-59 56t-65 54.5t-57 57t-37 68.5t-3 83q15 87 97.5 145t185.5 58q80 0 131 -31t45 -78q-6 -31 -27 -48t-45 -17q-26 0 -44.5 13 t-29.5 31.5t-23 36.5t-33.5 31t-53.5 13q-38 0 -64 -20.5t-30 -55.5q-7 -40 6.5 -77t40 -65.5t59 -57t65.5 -57.5t58.5 -59.5t38 -70.5t4.5 -84q-16 -92 -101 -165t-198 -73z" />
<glyph unicode="t" horiz-adv-x="608" d="M604 786q7 0 11.5 -6t2.5 -14q-5 -21 -26 -45.5t-41 -24.5q-3 0 -36 5t-84 10.5t-93 7.5l-90 -502q-14 -80 9 -117t87 -37q50 0 94 22t97 65q2 2 7 -1t8.5 -8t0.5 -8q-93 -84 -163.5 -121t-135.5 -37q-75 0 -117.5 43t-25.5 146l86 463q14 72 2 91t-72 19q-5 0 -6 7.5 t1.5 14.5t6.5 7q76 0 132 46.5t81 117.5q2 9 24 5q11 -3 11 -7l-29 -158q58 2 151.5 9t106.5 7z" />
<glyph unicode="u" horiz-adv-x="958" d="M899 158q4 5 9.5 2t7.5 -9t-1 -10q-70 -83 -127.5 -121t-113.5 -38t-71.5 45t3.5 145l41 234q-73 -204 -172.5 -318.5t-208.5 -114.5q-179 0 -123 271l74 364q19 113 -33 113q-34 0 -125 -88q-7 -7 -15 1t-1 15q71 83 124 121.5t107 38.5q56 0 73 -46t-5 -155l-66 -325 q-45 -217 70 -217q100 0 203.5 190t161.5 516q7 35 82 35q53 0 53 -14q0 -3 -5 -25.5t-13 -60t-13 -68.5l-84 -457q-18 -114 33 -114t135 90z" />
<glyph unicode="v" horiz-adv-x="894" d="M381 -27q-97 0 -150.5 81.5t-42.5 189.5q6 54 27.5 110.5t68.5 149t56 112.5q13 28 9.5 41t-25.5 13h-103q-75 0 -103.5 -19.5t-49.5 -81.5q-3 -6 -10 -6.5t-11.5 4t-1.5 11.5q24 72 40.5 109t40 63.5t51.5 34.5t75 8h184q18 0 21.5 -5t-4.5 -20q-120 -279 -140 -426 q-17 -115 23.5 -182.5t118.5 -67.5q90 0 173 86.5t113 222.5q11 45 12 82.5t-3 59.5t-17 45.5t-20 31.5t-23 25q-2 2 -11.5 12t-14 15.5t-11 15.5t-9.5 20.5t-3 22.5q0 40 27 60t63 20q64 0 86 -79.5t6 -213.5q-16 -115 -62.5 -219t-108.5 -174t-133.5 -111t-137.5 -41z" />
<glyph unicode="w" horiz-adv-x="1271" d="M1110 811q63 0 83.5 -79.5t4.5 -213.5q-13 -115 -56 -219t-99.5 -174t-121.5 -111t-124 -41q-111 0 -168 138q-58 -66 -123 -102t-125 -36q-103 0 -151 84.5t-29 208.5q18 118 139 350q14 29 10.5 41.5t-26.5 12.5h-103q-75 0 -103.5 -19.5t-49.5 -81.5q-3 -6 -10 -6.5 t-11.5 4t-1.5 11.5q24 72 40.5 109t40 63.5t51.5 34.5t75 8h184q18 0 21.5 -5t-4.5 -20q-114 -266 -136 -426q-15 -116 23 -185t115 -69q76 0 153 80q-38 150 -4 330q24 141 67.5 223t98.5 82q50 0 67.5 -58.5t2.5 -156.5q-36 -220 -144 -387q65 -113 172 -113 q79 0 154.5 88t97.5 225q6 36 7 66t-3 53.5t-9 41.5t-15.5 35.5t-18 28t-20.5 25.5q-15 16 -22 25t-14 24.5t-7 30.5q0 40 27 60t65 20zM649 535q-26 -159 25 -285q79 123 100 268q10 67 -4 103t-47 36q-28 0 -47 -34t-27 -88z" />
<glyph unicode="x" horiz-adv-x="868" d="M745 809q46 0 82.5 -34t30.5 -77q-3 -25 -22.5 -41t-47.5 -16q-29 0 -56.5 23.5t-47.5 23.5q-39 0 -78 -55l-119 -176l84 -279q19 -62 43 -81t54 -19q55 0 125 76q7 6 15.5 -2.5t2.5 -16.5q-146 -155 -231 -155q-46 0 -75.5 28.5t-53.5 104.5l-64 202l-117 -186 q-60 -94 -91 -121.5t-75 -27.5q-45 0 -80.5 34.5t-31.5 77.5q5 24 23.5 39.5t45.5 15.5q30 0 58 -22.5t49 -22.5q38 0 76 54l133 198l-76 244q-19 69 -44.5 92t-55.5 23q-51 0 -127 -76q-4 -5 -10.5 -2t-8.5 8.5t2 9.5q144 156 232 156q47 0 78.5 -31t56.5 -112l51 -170 l107 166q58 93 88 120t75 27z" />
<glyph unicode="y" horiz-adv-x="913" d="M754 811q43 0 65.5 -32.5t22.5 -90.5q0 -69 -33 -174t-90.5 -222t-130.5 -240t-157 -234.5t-165.5 -200t-161 -140.5t-139.5 -52q-48 0 -74.5 23t-19.5 75q16 67 94 67q22 0 61 -3.5t63 -4.5t56.5 7t59.5 28q61 41 155 170q9 437 -51 680.5t-172 243.5q-61 0 -98 -72 q-3 -6 -10 -6.5t-12 3t-3 9.5q36 77 91.5 120.5t113.5 43.5q90 0 154.5 -115.5t92.5 -305.5t19 -421q83 131 148 258t84 195q15 58 8.5 109.5t-19.5 82.5t-26.5 64.5t-13.5 54.5q0 35 24 57.5t64 22.5z" />
<glyph unicode="z" horiz-adv-x="704" d="M709 811q4 3 9.5 -1t9 -9.5t1.5 -7.5l-559 -633q24 4 41 4q54 0 182.5 -23.5t163.5 -23.5q33 0 53 20.5t39 69.5q3 5 13.5 2t9.5 -10q-30 -99 -52 -142.5t-44 -55.5t-66 -11q-58 1 -196 27t-199 28q-33 0 -58 -12.5t-55 -46.5q-3 -2 -8.5 2.5t-9.5 10t-2 7.5l561 631 q-24 -4 -41 -4q-46 0 -156.5 24.5t-142.5 24.5q-35 0 -56 -21.5t-43 -70.5q-2 -6 -8.5 -6t-11.5 4.5t-2 11.5q34 101 56 142.5t45.5 53.5t72.5 11q45 -3 165 -27.5t175 -27.5q34 0 58.5 12.5t54.5 46.5z" />
<glyph unicode="{" horiz-adv-x="534" d="M360 -240q-62 0 -102 5.5t-69 23.5t-42 44t-15.5 75t4 107t22.5 149q16 86 23.5 144t8 115t-10 92.5t-35 60.5t-64.5 34q-6 0 -6 13.5t6 13.5q42 6 75 29t57.5 58.5t45 91.5t35 118.5t29.5 148.5q15 89 30 149.5t36 107t44 73.5t57.5 44t73.5 22.5t96 5.5q6 0 6 -12.5 t-6 -12.5q-133 0 -172 -217q-14 -75 -23.5 -122t-22 -101t-21.5 -86.5t-22 -70t-24.5 -59t-28.5 -47t-34.5 -41t-41.5 -33t-49.5 -30.5t-59.5 -28q51 -23 82.5 -46.5t50.5 -54t25 -70t3 -92.5t-14 -124t-26 -162q-9 -48 -13 -74q-17 -102 8 -159.5t84 -57.5q4 0 4 -12.5 t-4 -12.5z" />
<glyph unicode="|" horiz-adv-x="311" d="M72 -315q-5 -16 -45 -11q-32 5 -31 17l315 1806q3 9 22.5 10.5t38 -4t17.5 -14.5z" />
<glyph unicode="}" horiz-adv-x="536" d="M256 1485q62 0 102 -5.5t69 -23.5t42 -44t16 -75t-3.5 -107t-22.5 -149q-16 -86 -23.5 -144t-8 -115t10 -92.5t35 -60.5t64.5 -34q6 0 6 -13.5t-6 -13.5q-42 -6 -75 -29t-57.5 -58.5t-45 -91.5t-35 -118.5t-29.5 -148.5q-15 -88 -30 -149t-36 -107.5t-44 -73.5t-58 -44 t-74 -22.5t-96 -5.5q-6 0 -6 12.5t6 12.5q133 0 172 217q18 93 29.5 149t26.5 118.5t27.5 97t31 73.5t36.5 60t45.5 45.5t58.5 41t73 34.5q-44 20 -73 40.5t-49 43t-28.5 55.5t-11.5 67.5t3 90t14.5 111.5t23.5 144q8 45 12 70q17 102 -8 159.5t-84 57.5q-4 0 -4 12.5 t4 12.5z" />
<glyph unicode="~" horiz-adv-x="907" d="M102 305q-2 -2 -6 0.5t-7 6.5t-1 7q62 81 115 121.5t116 40.5q45 0 161 -35.5t167 -35.5q58 0 93 20.5t67 56.5q5 3 11.5 -3.5t2.5 -10.5q-73 -94 -121.5 -128t-107.5 -34q-51 0 -164.5 36t-171.5 36q-39 0 -68.5 -12t-41 -22.5t-44.5 -43.5z" />
<glyph unicode="&#xa1;" horiz-adv-x="448" d="M285 745q44 0 70 -26t26 -72q0 -41 -26 -65.5t-70 -24.5q-45 0 -70 24t-25 66q0 46 25 72t70 26zM223 334q1 7 7 8.5t11.5 -1.5t4.5 -9q-64 -592 -70 -879q0 -8 -33.5 -16t-68.5 -8q-15 0 -30.5 1.5t-28 4t-22 5.5t-14.5 6.5t-4 6.5q116 320 248 881z" />
<glyph unicode="&#xa2;" horiz-adv-x="1007" d="M948 922q14 -9 17 -15.5t2 -21.5l-23 -209q-2 -9 -11 -9t-9 9q-12 125 -80 194.5t-176 77.5l-166 -940h18q108 0 192.5 67t153.5 212q3 8 15.5 5.5t11.5 -11.5l-62 -218q0 -2 -1 -5q-3 -18 -14 -24q-5 -2 -13 -5q-159 -54 -303 -54h-4l-33 -188q-1 -9 -12 -11t-21.5 3.5 t-9.5 13.5l33 184q-81 6 -146 32.5t-106 66.5t-70.5 90.5t-39 106t-12.5 112.5t9 109q34 197 186.5 333.5t354.5 153.5l30 174q1 9 12 10.5t21.5 -4t9.5 -14.5l-28 -164h6q68 0 145 -17t123 -44zM248 506q-10 -67 -11 -131.5t13.5 -125t39.5 -108.5t68.5 -82t100.5 -45 l164 934q-134 -10 -237.5 -133.5t-137.5 -308.5z" />
<glyph unicode="&#xa3;" horiz-adv-x="794" d="M729 948q30 -13 27 -39l-25 -209q-1 -5 -7 -6.5t-11.5 1.5t-5.5 10q-20 245 -164 245q-86 0 -137 -62.5t-68 -152.5q-4 -25 -6 -48.5t-1 -53t1.5 -42.5t4 -51t3.5 -44h192q8 0 12 -12.5t1.5 -25t-10.5 -12.5h-191q7 -80 -6 -151q-14 -75 -44.5 -121.5t-78.5 -83.5h209 q82 0 123 12.5t67 46t54 109.5q3 8 14 4.5t8 -12.5q-46 -159 -57 -227q-1 -14 -8 -18.5t-23 -4.5h-606q-6 0 -8.5 6.5t-0.5 13t9 7.5q102 26 146 77t55 134q16 97 4 208h-86q-8 0 -12 12.5t-1 25t11 12.5h82q-12 117 2 190q13 78 50 137t89 93t110.5 50.5t122.5 16.5 q86 0 160 -35z" />
<glyph unicode="&#xa4;" horiz-adv-x="774" d="M729 698l-111 -104q51 -76 33 -191q-17 -100 -92 -172l72 -98l-68 -61l-69 108q-80 -47 -166 -47q-75 0 -129 41l-101 -102l-41 53l101 96q-55 81 -35 203q20 109 100 176l-71 98l65 60l74 -111q74 39 151 39q83 0 136 -47l114 113zM360 174q62 0 107.5 54t64.5 151 q9 69 1.5 128t-42.5 98.5t-90 39.5q-60 0 -102.5 -49.5t-60.5 -146.5q-11 -48 -7.5 -96.5t15.5 -88.5t41.5 -65t72.5 -25z" />
<glyph unicode="&#xa5;" horiz-adv-x="897" d="M985 958q7 0 7 -12t-7 -12q-118 0 -252 -186l-201 -281l-4 -31h183q12 0 12.5 -23.5t-12.5 -23.5h-518q-12 0 -12 23.5t12 23.5h196l2 8l-141 347q-32 79 -65.5 111t-84.5 32q-8 0 -8 12t8 12q19 0 64.5 -3t60.5 -3q51 0 141 3t113 3q6 0 6 -12t-6 -12q-128 0 -88 -100 l135 -322l166 244q54 80 49.5 129t-67.5 49q-8 0 -8 12t8 12q30 0 90 -3t108 -3q26 0 60.5 3t52.5 3zM686 303q8 0 12 -11.5t1 -23.5t-11 -12h-192l-17 -94q-17 -89 5.5 -113t119.5 -24q8 0 8 -12.5t-8 -12.5q-27 0 -100.5 2t-120.5 2q-43 0 -119 -2t-102 -2q-8 0 -8 12.5 t8 12.5q96 0 130.5 28t49.5 117l16 86h-186q-8 0 -12 12t-1 23.5t11 11.5h516z" />
<glyph unicode="&#xa6;" horiz-adv-x="311" d="M256 731q-1 -9 -20.5 -11t-38 3t-17.5 14l131 760q2 9 22 10.5t38.5 -4t17.5 -14.5zM70 -324q-2 -9 -21.5 -10.5t-37.5 4.5t-17 15l131 757q1 9 21 11t39 -3t18 -14z" />
<glyph unicode="&#xa7;" horiz-adv-x="811" d="M760 1139q17 -12 14 -33l-31 -221q0 -5 -10 -5t-10 5q-3 35 -18 74.5t-39.5 76.5t-63.5 61.5t-84 24.5q-49 0 -85.5 -35t-47.5 -106q-9 -57 7 -106t48.5 -85.5t73.5 -71.5t82 -72t73 -79t46.5 -100.5t3.5 -128.5q-23 -140 -178 -275q68 -82 47 -196q-11 -64 -43.5 -113.5 t-78.5 -79t-99.5 -44.5t-112.5 -15q-96 0 -160 33q-17 10 -14 33l29 219q1 6 11.5 6t10.5 -6q4 -35 19 -73.5t39 -76t62.5 -62t82.5 -24.5q51 0 87.5 34t49.5 107q9 57 -7.5 106t-49 85.5t-74 71.5t-82.5 72.5t-73 79.5t-46.5 100.5t-3.5 128.5q24 137 178 272 q-69 86 -49 199q16 84 68 142.5t120.5 83.5t147.5 25q98 0 160 -32zM592 256q10 45 5 87.5t-13 73.5t-27.5 61.5t-38.5 52t-45.5 45.5t-49 41.5t-49 40.5t-44.5 42q-53 -67 -70 -170q-12 -72 0 -131t44.5 -103t65.5 -75t80 -70t72 -65q53 64 70 170z" />
<glyph unicode="&#xa8;" horiz-adv-x="563" d="M242 969q-44 0 -69.5 25t-25.5 69q0 43 25.5 66.5t69.5 23.5q43 0 66.5 -23.5t23.5 -66.5q0 -44 -23.5 -69t-66.5 -25zM555 969q-44 0 -69 25t-25 69q0 43 25 66.5t69 23.5q43 0 67.5 -23.5t24.5 -66.5q0 -44 -24.5 -69t-67.5 -25z" />
<glyph unicode="&#xa9;" horiz-adv-x="1484" d="M764 -211q-115 0 -223.5 39t-197.5 111t-143.5 189t-54.5 259q0 138 57 258.5t151.5 202.5t217.5 129t254 47q118 0 217 -38t165 -103t102.5 -151t36.5 -181q0 -92 -39 -178t-106.5 -150.5t-165 -103.5t-206.5 -39q-95 0 -168 28t-115.5 74.5t-63.5 101.5t-21 115 q0 80 31.5 147t82 109.5t113 66t127.5 23.5q79 0 140.5 -29t64.5 -79q0 -30 -18.5 -50t-51.5 -20q-44 0 -78 62q-16 25 -27 38.5t-34.5 26.5t-52.5 13q-82 0 -116 -62.5t-34 -185.5q0 -67 16.5 -123.5t51 -102.5t94.5 -72t141 -26q89 0 164 38t124.5 120.5t49.5 195.5 q0 133 -63.5 244.5t-176.5 177.5t-251 66q-118 0 -213.5 -43t-157.5 -117t-95.5 -172t-33.5 -209q0 -138 49 -251.5t130 -183.5t181.5 -108t208.5 -38q117 0 205 20t191 78q5 2 10.5 -5t1.5 -11q-112 -85 -225 -116.5t-246 -31.5z" />
<glyph unicode="&#xaa;" horiz-adv-x="565" d="M629 870q5 3 13 -4.5t5 -11.5q-92 -109 -158 -109q-35 0 -46 30t1 99l17 103q-55 -112 -128 -175t-140 -63q-47 0 -68.5 37t-9.5 113q13 91 70 186.5t134.5 158t145.5 62.5q56 0 90 -34q23 23 31 45q2 4 10 2.5t8 -6.5l-78 -429q-14 -71 19 -71q24 0 84 67zM250 813 q40 0 91.5 49.5t92 122.5t53.5 139q11 54 -8.5 87t-64.5 32q-69 -2 -131.5 -83.5t-79.5 -196.5q-23 -150 47 -150zM551 641q9 0 9 -27.5t-9 -27.5h-461q-5 0 -7 14t-0.5 27.5t5.5 13.5h463z" />
<glyph unicode="&#xab;" horiz-adv-x="874" d="M502 745q5 3 12.5 -4.5t3.5 -11.5l-262 -317l152 -316q4 -8 -8 -15q-7 -4 -9 1l-289 305q-8 9 -6.5 23t13.5 24zM803 745q4 2 9.5 -1t7.5 -7.5t-1 -7.5l-262 -317l154 -316q3 -6 -6 -13t-13 -1l-289 305q-7 8 -4.5 22.5t13.5 24.5z" />
<glyph unicode="&#xac;" horiz-adv-x="819" d="M752 551v-389q0 -6 -21.5 -8t-43 -0.5t-21.5 6.5v305h-590q-6 0 -8 21.5t-0.5 43t6.5 21.5h678z" />
<glyph unicode="&#xad;" horiz-adv-x="624" d="M68 340q-6 -1 -9 22t-2.5 47.5t4.5 26.5l510 94q6 1 8.5 -22t1.5 -47t-6 -25z" />
<glyph unicode="&#xae;" horiz-adv-x="1554" d="M897 1485q131 0 241.5 -44.5t185 -120.5t116 -178t41.5 -218q0 -176 -86.5 -323.5t-234.5 -232.5t-322 -85q-90 0 -177.5 25t-165 75t-136.5 119t-93.5 164t-34.5 204q0 135 55 251.5t147.5 195t213 123.5t250.5 45zM899 340q227 0 356 142.5t129 379.5q0 255 -157 415.5 t-400 160.5q-121 0 -217.5 -41.5t-156 -112.5t-90.5 -161.5t-31 -192.5q0 -134 48.5 -247.5t129 -187t181.5 -114.5t208 -41zM1194 586q3 0 3.5 -4t-1 -8.5t-4.5 -4.5h-174q-35 0 -139 332q-44 -8 -103 -8l-37 -209q-10 -59 4 -74.5t78 -15.5q3 -1 2.5 -6.5t-2.5 -12 t-4 -6.5q-18 0 -67 1t-82 1q-25 0 -77.5 -1t-68.5 -1q-2 1 -2 6.5t2 12t4 6.5q60 0 78.5 15t28.5 75l78 442q11 56 -2.5 73.5t-71.5 17.5q-2 1 -2 6.5t2 11.5t4 6q19 0 69 -1t76 -1q25 0 86.5 3t83.5 3q96 0 138.5 -33t29.5 -104q-21 -120 -145 -176q61 -185 102.5 -256 t112.5 -90zM782 930q103 -12 156 17t68 116q28 156 -88 156q-28 0 -41 -2t-27 -11.5t-21.5 -29.5t-13.5 -56z" />
<glyph unicode="&#xaf;" horiz-adv-x="681" d="M209 977q-15 0 -15 32.5t15 32.5h479q15 0 15 -32.5t-15 -32.5h-479z" />
<glyph unicode="&#xb0;" horiz-adv-x="612" d="M377 764q-57 0 -102.5 18.5t-72 48t-44 68t-18.5 78.5t5 78q21 95 109.5 165t208.5 70q56 0 100 -17.5t70 -46.5t43 -66.5t17.5 -78t-5.5 -80.5q-23 -104 -110 -170.5t-201 -66.5zM397 797q74 0 108 50t50 140q45 273 -109 273q-74 0 -111.5 -54t-55.5 -145 q-12 -72 -10 -130.5t34.5 -96t93.5 -37.5z" />
<glyph unicode="&#xb1;" horiz-adv-x="815" d="M70 475q-6 0 -8 21t-0.5 42t6.5 21h297v297q0 8 43 8t43 -8v-297h294q9 0 9 -42t-9 -42h-294v-295q0 -6 -21.5 -8t-43 -0.5t-21.5 6.5v297h-295zM745 80q9 0 9 -39t-9 -39h-675q-6 0 -8 19.5t-0.5 39t6.5 19.5h677z" />
<glyph unicode="&#xb2;" horiz-adv-x="471" d="M557 1335q-10 -53 -56.5 -113t-98.5 -105.5t-107.5 -102t-77.5 -99.5h2q118 0 168.5 8t72 28t40.5 71q3 9 14.5 6t9.5 -12l-37 -187q0 -4 -4 -4h-340q-13 0 -4 19q22 53 61 108.5t78.5 100.5t77 90.5t65 95t34.5 96.5q6 50 -12.5 79.5t-57.5 29.5q-42 0 -81.5 -33 t-59.5 -84q-2 -5 -9 -5t-12.5 3.5t-3.5 9.5q75 158 209 158q75 0 108.5 -44.5t20.5 -113.5z" />
<glyph unicode="&#xb3;" horiz-adv-x="471" d="M549 1335q-10 -55 -50.5 -97.5t-95.5 -63.5q60 -15 92 -57t21 -111q-13 -75 -75 -134t-152 -59q-71 0 -106 38t-42 99q-1 5 4.5 8t11.5 2t7 -6q9 -41 35.5 -69.5t74.5 -28.5q49 0 87 37.5t49 114.5q13 76 -18 112.5t-93 36.5q-6 0 -6 12.5t6 12.5q55 0 94.5 45.5 t50.5 107.5q9 50 -10.5 78.5t-58.5 28.5q-40 0 -76.5 -31.5t-58.5 -77.5q-3 -4 -8.5 -4.5t-10 3.5t-2.5 9q69 152 203 152q73 0 106 -45t21 -113z" />
<glyph unicode="&#xb4;" horiz-adv-x="434" d="M244 969q-4 -8 -18 -1q-6 4 -3 7l178 491q6 16 86 28q74 10 70 -5z" />
<glyph unicode="&#xb6;" horiz-adv-x="1216" d="M514 -395q-69 0 -105 27t-30 69q6 34 27.5 52t52.5 18t46.5 -18.5t18.5 -40t18.5 -40t47.5 -18.5q19 0 32.5 5t26 22.5t21 39t19.5 68t20 95t24 132.5l43 240q-74 -6 -162 -6q-65 0 -125.5 11.5t-118.5 38t-100.5 68t-73.5 102t-37.5 140t9.5 181.5q46 243 210.5 369 t412.5 126q39 0 127.5 -6t144.5 -6q36 0 106 3t99 3q9 0 9 -12.5t-9 -12.5q-80 0 -133 -43t-66 -122l-170 -977q-47 -262 -141 -385t-244 -123z" />
<glyph unicode="&#xb7;" horiz-adv-x="415" d="M213 332q-44 0 -70 26t-26 72q0 41 26 65.5t70 24.5q45 0 69.5 -24t24.5 -66q0 -46 -24.5 -72t-69.5 -26z" />
<glyph unicode="&#xb8;" horiz-adv-x="401" d="M4 -563q-61 0 -98.5 26.5t-30.5 73.5q9 51 68 51q26 0 42.5 -17.5t23 -38.5t20 -38.5t34.5 -17.5q26 0 44 17.5t24 49.5q5 61 -86 174q-51 59 0 160l59 123h27q-22 -48 -22.5 -86.5t12 -64.5t41.5 -62q78 -101 63 -172q-9 -64 -67.5 -121t-153.5 -57z" />
<glyph unicode="&#xb9;" horiz-adv-x="489" d="M164 825q-6 0 -6 11.5t6 11.5q46 0 68 3t39 20t24.5 41t17.5 77l43 242q8 48 11 70.5t2.5 45.5t-7 28t-22.5 5.5t-37.5 -8t-58.5 -26.5q-9 -3 -13 7t2 15l250 125q7 4 13 -1t4 -11l-84 -492q-8 -42 -10 -64.5t0 -40t15.5 -24.5t31.5 -9.5t53 -2.5q6 0 6 -11.5t-6 -11.5 q-22 0 -76 2t-88 2q-35 0 -96 -2t-82 -2z" />
<glyph unicode="&#xba;" horiz-adv-x="550" d="M309 735q-100 0 -147 83t-23 202q21 123 106 196.5t183 73.5q102 0 149 -80.5t27 -195.5q-23 -122 -109.5 -200.5t-185.5 -78.5zM350 772q55 0 96.5 50.5t59.5 144.5q22 124 -12 206t-109 82q-55 0 -95 -47.5t-54 -142.5q-22 -123 10 -208t104 -85zM100 586q-6 0 -8 14 t-0.5 27.5t6.5 13.5h453q9 0 9 -27.5t-9 -27.5h-451z" />
<glyph unicode="&#xbb;" horiz-adv-x="872" d="M74 76q-5 -3 -13 4.5t-4 13.5l265 316l-154 315q-4 7 7 14q6 5 9 0l291 -305q8 -9 6.5 -23t-12.5 -24zM377 76q-6 -3 -14.5 4.5t-2.5 13.5l265 316l-156 315q-2 4 1.5 9t8.5 6.5t8 -1.5l289 -305q8 -9 6.5 -23t-12.5 -24z" />
<glyph unicode="&#xbc;" horiz-adv-x="1128" d="M469 633q-21 0 -76 2t-88 2q-35 0 -96 -2t-82 -2q-6 0 -6 11t6 11q46 0 68 3t39 20t24.5 41.5t17.5 77.5l43 241q8 48 11 70.5t2.5 45.5t-7 28t-22.5 5.5t-37.5 -8t-58.5 -26.5q-9 -3 -12.5 7.5t2.5 15.5l249 124q7 4 13 -1t4 -11l-84 -491q-19 -97 -4.5 -119.5 t94.5 -22.5q6 0 6 -11t-6 -11zM958 1282q3 4 17.5 -1t26.5 -13t8 -13l-693 -1263q-2 -3 -15 2t-25 12t-11 10zM1055 244q2 -2 1.5 -17t-4.5 -32t-8 -17l-77 6l-17 -100q-8 -40 2.5 -52t63.5 -12q9 0 9 -12t-9 -12q-16 0 -54 2t-65 2q-30 0 -81.5 -2t-70.5 -2q-7 0 -7 12 t7 12q63 0 83.5 11.5t27.5 52.5l18 104q-63 2 -227 2q-1 0 -2.5 2.5t-2 5.5t2.5 5l379 465q5 5 15.5 0.5t9.5 -13.5l-72 -415q13 1 39 2t39 2zM735 231q41 0 148 5l45 266l-197 -262q-3 -3 -1.5 -6t5.5 -3z" />
<glyph unicode="&#xbd;" horiz-adv-x="1159" d="M469 633q-21 0 -76 2t-88 2q-35 0 -96 -2t-82 -2q-6 0 -6 11t6 11q46 0 68 3t39 20t24.5 41.5t17.5 77.5l43 241q8 48 11 70.5t2.5 45.5t-7 28t-22.5 5.5t-37.5 -8t-58.5 -26.5q-9 -3 -12.5 7.5t2.5 15.5l249 124q7 4 13 -1t4 -11l-84 -491q-19 -97 -4.5 -119.5 t94.5 -22.5q6 0 6 -11t-6 -11zM958 1282q3 4 17.5 -1t26.5 -13t8 -13l-693 -1263q-2 -3 -15 2t-25 12t-11 10zM1102 510q-10 -53 -56.5 -113t-98.5 -105.5t-107.5 -102t-77.5 -99.5h2q72 0 113.5 2.5t72 7.5t47 19t26 30t21.5 48q3 9 15 5.5t10 -12.5l-37 -186q0 -4 -4 -4 h-340q-13 0 -4 18q22 53 60.5 108.5t78 101t77.5 91t65 95t34 96.5q6 50 -12 79t-57 29q-43 0 -82.5 -32.5t-59.5 -83.5q-3 -8 -15 -4.5t-9 12.5q75 158 209 158q75 0 108.5 -44.5t20.5 -113.5z" />
<glyph unicode="&#xbe;" horiz-adv-x="1112" d="M479 813q-13 -75 -75 -133.5t-152 -58.5q-71 0 -106 38t-42 99q-1 5 4.5 8t11.5 2t7 -6q9 -40 36 -69t75 -29q49 0 86.5 37t48.5 114q13 76 -18 113t-93 37q-6 0 -6 12t6 12q55 0 95 46t51 108q9 50 -11 78t-59 28q-41 0 -77 -31t-58 -77q-3 -4 -8.5 -4.5t-10 3.5t-2.5 9 q30 67 81.5 109t121.5 42q73 0 106 -44.5t21 -112.5q-10 -55 -50 -98t-95 -64q60 -15 91.5 -57t20.5 -111zM940 1282q3 4 17.5 -1t26 -13t7.5 -13l-692 -1263q-2 -3 -15 2t-25 12t-11 10zM1036 244q2 -2 1.5 -17t-4 -32t-7.5 -17l-78 6l-16 -100q-8 -41 2 -52.5t63 -11.5 q9 0 9 -12t-9 -12q-15 0 -53 2t-65 2q-31 0 -82 -2t-70 -2q-7 0 -7 12t7 12q63 0 83.5 11.5t27.5 52.5l18 104q-63 2 -227 2q-1 0 -2.5 2.5t-2 5.5t2.5 5l379 465q5 5 15 0.5t9 -13.5l-72 -415q13 1 39 2t39 2zM717 231q39 0 147 5l45 266l-196 -262q-3 -3 -1.5 -6t5.5 -3z " />
<glyph unicode="&#xbf;" horiz-adv-x="636" d="M422 737q44 0 70 -26t26 -72q0 -41 -26 -65.5t-70 -24.5q-45 0 -69.5 24t-24.5 66q0 46 24.5 72t69.5 26zM377 330q25 -54 35 -126.5t2 -117.5q-8 -46 -31 -85t-52.5 -64.5t-64 -55.5t-64 -57.5t-54 -70.5t-33.5 -95q-13 -81 14.5 -134.5t91.5 -53.5q25 0 43 7.5 t28.5 22.5t15.5 27.5t11 32.5q4 20 8.5 33t14 30.5t27 27t41.5 9.5q39 0 56 -25.5t9 -60.5q-9 -61 -89.5 -99t-180.5 -38q-124 0 -190.5 65t-43.5 181q9 46 29.5 86t46.5 69.5t55.5 55.5t57.5 49q11 8 16 12q85 69 122.5 125t49.5 129q9 47 2 117q0 9 13 10.5t14 -6.5z" />
<glyph unicode="&#xc0;" horiz-adv-x="1232" d="M541 1548q-22 4 27 28q70 33 114 38q11 1 14 -2q18 -12 129 -87t179 -114q5 -2 5 -8t-4 -10.5t-10 -1.5q-230 101 -454 157zM1159 25q7 0 7 -12.5t-7 -12.5q-31 0 -101 4t-112 4t-107 -4t-98 -4q-6 0 -6 12.5t6 12.5q89 0 113.5 30t9.5 117l-61 360h-393l-146 -264 q-40 -73 -54 -121t0 -74.5t46.5 -37t89.5 -10.5q5 0 6.5 -6.5t-0.5 -12.5t-8 -6q-27 0 -105.5 4t-119.5 4t-98 -4t-91 -4q-8 0 -8 12.5t8 12.5q59 0 130 56t141 179l581 1040q5 7 20 4.5t17 -8.5l195 -1124q14 -91 38.5 -119t106.5 -28zM434 580h361l-86 499z" />
<glyph unicode="&#xc1;" horiz-adv-x="1232" d="M594 1389q-9 -3 -12.5 8t2.5 14q69 38 175.5 110t133.5 89q15 11 102 -24q63 -26 59 -35q0 -2 -5 -3q-242 -63 -455 -159zM1159 25q7 0 7 -12.5t-7 -12.5q-31 0 -101 4t-112 4t-107 -4t-98 -4q-6 0 -6 12.5t6 12.5q89 0 113.5 30t9.5 117l-61 360h-393l-146 -264 q-40 -73 -54 -121t0 -74.5t46.5 -37t89.5 -10.5q5 0 6.5 -6.5t-0.5 -12.5t-8 -6q-27 0 -105.5 4t-119.5 4t-98 -4t-91 -4q-8 0 -8 12.5t8 12.5q59 0 130 56t141 179l581 1040q5 7 20 4.5t17 -8.5l195 -1124q14 -91 38.5 -119t106.5 -28zM434 580h361l-86 499z" />
<glyph unicode="&#xc2;" horiz-adv-x="1232" d="M614 1352q-2 -2 -6 0.5t-6 6.5t0 7l225 211q7 9 19 9t18 -9l158 -211q3 -3 1 -7.5t-6.5 -6.5t-8.5 0l-181 104zM1159 25q7 0 7 -12.5t-7 -12.5q-31 0 -101 4t-112 4t-107 -4t-98 -4q-6 0 -6 12.5t6 12.5q89 0 113.5 30t9.5 117l-61 360h-393l-146 -264q-40 -73 -54 -121 t0 -74.5t46.5 -37t89.5 -10.5q5 0 6.5 -6.5t-0.5 -12.5t-8 -6q-27 0 -105.5 4t-119.5 4t-98 -4t-91 -4q-8 0 -8 12.5t8 12.5q59 0 130 56t141 179l581 1040q5 7 20 4.5t17 -8.5l195 -1124q14 -91 38.5 -119t106.5 -28zM434 580h361l-86 499z" />
<glyph unicode="&#xc3;" horiz-adv-x="1232" d="M569 1466q-5 -3 -11.5 3t-2.5 12q98 137 184 137q29 0 115.5 -24.5t138.5 -24.5q38 0 62 13.5t51 41.5q5 3 11.5 -3.5t2.5 -10.5q-57 -83 -93.5 -111.5t-80.5 -28.5q-41 0 -127.5 26t-136.5 26q-15 0 -28.5 -2.5t-21 -4.5t-19 -10t-14 -10t-15.5 -14.5t-15 -14.5z M1159 25q7 0 7 -12.5t-7 -12.5q-31 0 -101 4t-112 4t-107 -4t-98 -4q-6 0 -6 12.5t6 12.5q89 0 113.5 30t9.5 117l-61 360h-393l-146 -264q-40 -73 -54 -121t0 -74.5t46.5 -37t89.5 -10.5q5 0 6.5 -6.5t-0.5 -12.5t-8 -6q-27 0 -105.5 4t-119.5 4t-98 -4t-91 -4 q-8 0 -8 12.5t8 12.5q59 0 130 56t141 179l581 1040q5 7 20 4.5t17 -8.5l195 -1124q14 -91 38.5 -119t106.5 -28zM434 580h361l-86 499z" />
<glyph unicode="&#xc4;" horiz-adv-x="1232" d="M664 1458q-43 0 -70 25t-27 69q0 42 26.5 66t70.5 24t68 -23.5t24 -66.5q0 -44 -24 -69t-68 -25zM1022 1458q-44 0 -69 25t-25 69q0 43 25 66.5t69 23.5q43 0 67.5 -23.5t24.5 -66.5q0 -44 -24.5 -69t-67.5 -25zM1159 25q7 0 7 -12.5t-7 -12.5q-31 0 -101 4t-112 4 t-107 -4t-98 -4q-6 0 -6 12.5t6 12.5q89 0 113.5 30t9.5 117l-61 360h-393l-146 -264q-40 -73 -54 -121t0 -74.5t46.5 -37t89.5 -10.5q5 0 6.5 -6.5t-0.5 -12.5t-8 -6q-27 0 -105.5 4t-119.5 4t-98 -4t-91 -4q-8 0 -8 12.5t8 12.5q59 0 130 56t141 179l581 1040q5 7 20 4.5 t17 -8.5l195 -1124q14 -91 38.5 -119t106.5 -28zM434 580h361l-86 499z" />
<glyph unicode="&#xc5;" horiz-adv-x="1232" d="M807 1368q-82 0 -130 48.5t-48 115.5q0 73 60.5 115.5t135.5 42.5t128 -47.5t53 -116.5q0 -71 -61 -114.5t-138 -43.5zM786 1665q-53 0 -53 -94q0 -67 30 -123.5t75 -56.5q59 0 59 100q0 69 -33.5 121.5t-77.5 52.5zM1159 25q7 0 7 -12.5t-7 -12.5q-31 0 -101 4t-112 4 t-107 -4t-98 -4q-6 0 -6 12.5t6 12.5q89 0 113.5 30t9.5 117l-61 360h-393l-146 -264q-40 -73 -54 -121t0 -74.5t46.5 -37t89.5 -10.5q5 0 6.5 -6.5t-0.5 -12.5t-8 -6q-27 0 -105.5 4t-119.5 4t-98 -4t-91 -4q-8 0 -8 12.5t8 12.5q59 0 130 56t141 179l581 1040q5 7 20 4.5 t17 -8.5l195 -1124q14 -91 38.5 -119t106.5 -28zM434 580h361l-86 499z" />
<glyph unicode="&#xc6;" horiz-adv-x="1576" d="M1554 1280q16 0 13 -18q-5 -31 -19 -130.5t-20 -130.5q-1 -5 -7.5 -5.5t-12.5 2t-5 6.5q5 114 -50 180.5t-157 66.5h-63q-97 0 -133 -29t-45 -110l-54 -422h218q87 0 132 35t60 115q0 6 6 7t12 -2t5 -7q-7 -48 -17.5 -101t-13.5 -71q-7 -38 -17 -105t-14 -92 q-2 -6 -13 -4t-11 8q15 90 -19.5 130t-124.5 40h-209l-59 -469q-11 -88 9.5 -112.5t109.5 -24.5h104q88 0 169.5 75t131.5 199q4 8 18 3q6 -3 5 -7q-38 -123 -66 -276q-3 -18 -9.5 -24.5t-23.5 -6.5h-763q-9 0 -9 12.5t9 12.5q92 0 124.5 26.5t42.5 114.5l62 477h-299 l-285 -391q-78 -106 -60 -166.5t136 -60.5q8 0 7 -12.5t-7 -12.5q-35 0 -123.5 4t-136.5 4q-45 0 -104 -4t-93 -4q-9 0 -9 12.5t9 12.5q81 0 155 51.5t179 195.5l653 906q37 57 21.5 67t-133.5 10q-9 0 -9 12.5t9 12.5h794zM586 690h270l59 453z" />
<glyph unicode="&#xc7;" horiz-adv-x="1200" d="M1190 1235q13 -9 15.5 -17.5t0.5 -31.5l-24 -242q-2 -8 -12.5 -8t-10.5 8q-21 155 -112.5 232t-235.5 77q-194 0 -331 -147t-175 -397q-31 -190 3.5 -351t128.5 -256.5t227 -95.5q235 0 430 309q4 4 9 3.5t9 -4t2 -7.5l-59 -225q-6 -26 -12.5 -34.5t-24.5 -12.5 q-180 -62 -365 -62q-11 -31 -13.5 -56t5 -47.5t18.5 -40.5t31 -42q79 -102 64 -172q-9 -64 -67.5 -121t-153.5 -57q-61 0 -98.5 26.5t-30.5 73.5q9 51 67 51q26 0 43 -17.5t23.5 -38.5t20 -38.5t34.5 -17.5q26 0 44 17.5t24 49.5q5 61 -86 174q-51 59 0 160l47 96 q-94 3 -171.5 26t-132.5 60.5t-95.5 89t-64 110t-34.5 125t-9.5 131.5t13.5 132q27 147 102.5 272t179 208t227.5 129.5t249 46.5q85 0 169.5 -19t131.5 -49z" />
<glyph unicode="&#xc8;" horiz-adv-x="1064" d="M498 1548q-22 5 26 26q72 32 130 39q16 2 20 -1q87 -80 225 -191q9 -4 -1 -14q-7 -8 -13 -4q-202 91 -387 145zM1044 1280q16 0 13 -18l-13 -84.5t-16.5 -105t-11.5 -71.5q-2 -7 -13.5 -5t-11.5 8q8 109 -43.5 175t-144.5 66h-127q-91 0 -119 -24t-43 -109l-74 -422h271 q85 0 127 33.5t57 114.5q1 5 7.5 6t12.5 -1.5t5 -8.5q-7 -41 -18 -92t-15 -76q-25 -166 -31 -197q-1 -6 -7.5 -7.5t-12.5 1t-5 8.5q17 90 -15.5 131t-119.5 41h-264l-84 -469q-14 -85 7 -110t108 -25h170q90 0 176 75t139 197q4 8 18 3q6 -3 5 -7q-38 -123 -66 -276 q-3 -18 -9.5 -24.5t-23.5 -6.5h-837q-5 0 -5 12.5t5 12.5q91 0 121 25.5t47 115.5l166 948q17 88 -4.5 114.5t-110.5 26.5q-6 0 -6 12.5t6 12.5h790z" />
<glyph unicode="&#xc9;" horiz-adv-x="1064" d="M594 1391q-6 -3 -10.5 1.5t-4 10t4.5 8.5q53 29 105.5 63.5t111.5 76t90 61.5q15 11 101 -24q67 -26 62 -37l-5 -3q-223 -55 -455 -157zM1044 1280q16 0 13 -18l-13 -84.5t-16.5 -105t-11.5 -71.5q-2 -7 -13.5 -5t-11.5 8q8 109 -43.5 175t-144.5 66h-127q-91 0 -119 -24 t-43 -109l-74 -422h271q85 0 127 33.5t57 114.5q1 5 7.5 6t12.5 -1.5t5 -8.5q-7 -41 -18 -92t-15 -76q-25 -166 -31 -197q-1 -6 -7.5 -7.5t-12.5 1t-5 8.5q17 90 -15.5 131t-119.5 41h-264l-84 -469q-14 -85 7 -110t108 -25h170q90 0 176 75t139 197q4 8 18 3q6 -3 5 -7 q-38 -123 -66 -276q-3 -18 -9.5 -24.5t-23.5 -6.5h-837q-5 0 -5 12.5t5 12.5q91 0 121 25.5t47 115.5l166 948q17 88 -4.5 114.5t-110.5 26.5q-6 0 -6 12.5t6 12.5h790z" />
<glyph unicode="&#xca;" horiz-adv-x="1064" d="M516 1352q-2 -2 -6 0.5t-6 6.5t0 7l225 211q7 9 19 9t18 -9l158 -211q3 -3 0.5 -7.5t-7 -6.5t-8.5 0l-180 104zM1044 1280q16 0 13 -18l-13 -84.5t-16.5 -105t-11.5 -71.5q-2 -7 -13.5 -5t-11.5 8q8 109 -43.5 175t-144.5 66h-127q-91 0 -119 -24t-43 -109l-74 -422h271 q85 0 127 33.5t57 114.5q1 5 7.5 6t12.5 -1.5t5 -8.5q-7 -41 -18 -92t-15 -76q-25 -166 -31 -197q-1 -6 -7.5 -7.5t-12.5 1t-5 8.5q17 90 -15.5 131t-119.5 41h-264l-84 -469q-14 -85 7 -110t108 -25h170q90 0 176 75t139 197q4 8 18 3q6 -3 5 -7q-38 -123 -66 -276 q-3 -18 -9.5 -24.5t-23.5 -6.5h-837q-5 0 -5 12.5t5 12.5q91 0 121 25.5t47 115.5l166 948q17 88 -4.5 114.5t-110.5 26.5q-6 0 -6 12.5t6 12.5h790z" />
<glyph unicode="&#xcb;" horiz-adv-x="1064" d="M588 1458q-44 0 -69 25t-25 69q0 43 25 66.5t69 23.5q43 0 66.5 -23.5t23.5 -66.5q0 -44 -23.5 -69t-66.5 -25zM901 1458q-44 0 -69 25t-25 69q0 43 25 66.5t69 23.5q43 0 67.5 -23.5t24.5 -66.5q0 -44 -24.5 -69t-67.5 -25zM1044 1280q16 0 13 -18l-13 -84.5t-16.5 -105 t-11.5 -71.5q-2 -7 -13.5 -5t-11.5 8q8 109 -43.5 175t-144.5 66h-127q-91 0 -119 -24t-43 -109l-74 -422h271q85 0 127 33.5t57 114.5q1 5 7.5 6t12.5 -1.5t5 -8.5q-7 -41 -18 -92t-15 -76q-25 -166 -31 -197q-1 -6 -7.5 -7.5t-12.5 1t-5 8.5q17 90 -15.5 131t-119.5 41 h-264l-84 -469q-14 -85 7 -110t108 -25h170q90 0 176 75t139 197q4 8 18 3q6 -3 5 -7q-38 -123 -66 -276q-3 -18 -9.5 -24.5t-23.5 -6.5h-837q-5 0 -5 12.5t5 12.5q91 0 121 25.5t47 115.5l166 948q17 88 -4.5 114.5t-110.5 26.5q-6 0 -6 12.5t6 12.5h790z" />
<glyph unicode="&#xcc;" horiz-adv-x="649" d="M662 1403q-200 90 -388 145q-22 5 26 26q72 31 130 39q17 2 21 -1q87 -80 225 -191q9 -4 -1 -14q-7 -8 -13 -4zM45 0q-6 0 -6 12.5t6 12.5q90 0 119.5 25.5t44.5 115.5l168 948q17 87 -6 114t-111 27q-6 0 -6 12.5t6 12.5q26 0 97 -3t114 -3q51 0 123.5 3t95.5 3 q6 0 6 -12.5t-6 -12.5q-89 0 -118.5 -27.5t-47.5 -117.5l-168 -944q-15 -89 6.5 -115t112.5 -26q5 0 5 -12.5t-5 -12.5q-25 0 -97 2t-120 2q-43 0 -115 -2t-98 -2z" />
<glyph unicode="&#xcd;" horiz-adv-x="649" d="M371 1391q-6 -3 -10.5 1.5t-4.5 10t4 8.5q53 29 105.5 63.5t112.5 76t90 61.5q15 11 100 -23q67 -27 62 -38q0 -2 -5 -3q-220 -55 -454 -157zM45 0q-6 0 -6 12.5t6 12.5q90 0 119.5 25.5t44.5 115.5l168 948q17 87 -6 114t-111 27q-6 0 -6 12.5t6 12.5q26 0 97 -3t114 -3 q51 0 123.5 3t95.5 3q6 0 6 -12.5t-6 -12.5q-89 0 -118.5 -27.5t-47.5 -117.5l-168 -944q-15 -89 6.5 -115t112.5 -26q5 0 5 -12.5t-5 -12.5q-25 0 -97 2t-120 2q-43 0 -115 -2t-98 -2z" />
<glyph unicode="&#xce;" horiz-adv-x="649" d="M295 1352q-2 -2 -6.5 0.5t-6 6.5t0.5 7l225 211q8 9 19.5 9t17.5 -9l157 -211q3 -3 1 -7.5t-6.5 -6.5t-8.5 0l-180 104zM45 0q-6 0 -6 12.5t6 12.5q90 0 119.5 25.5t44.5 115.5l168 948q17 87 -6 114t-111 27q-6 0 -6 12.5t6 12.5q26 0 97 -3t114 -3q51 0 123.5 3t95.5 3 q6 0 6 -12.5t-6 -12.5q-89 0 -118.5 -27.5t-47.5 -117.5l-168 -944q-15 -89 6.5 -115t112.5 -26q5 0 5 -12.5t-5 -12.5q-25 0 -97 2t-120 2q-43 0 -115 -2t-98 -2z" />
<glyph unicode="&#xcf;" horiz-adv-x="649" d="M381 1458q-44 0 -70 25t-26 69q0 42 25.5 66t70.5 24q44 0 67 -23.5t23 -66.5q0 -45 -23 -69.5t-67 -24.5zM666 1458q-44 0 -68.5 25t-24.5 69q0 43 24.5 66.5t68.5 23.5q43 0 66.5 -23.5t23.5 -66.5q0 -44 -23.5 -69t-66.5 -25zM45 0q-6 0 -6 12.5t6 12.5 q90 0 119.5 25.5t44.5 115.5l168 948q17 87 -6 114t-111 27q-6 0 -6 12.5t6 12.5q26 0 97 -3t114 -3q51 0 123.5 3t95.5 3q6 0 6 -12.5t-6 -12.5q-89 0 -118.5 -27.5t-47.5 -117.5l-168 -944q-15 -89 6.5 -115t112.5 -26q5 0 5 -12.5t-5 -12.5q-25 0 -97 2t-120 2 q-43 0 -115 -2t-98 -2z" />
<glyph unicode="&#xd0;" horiz-adv-x="1269" d="M694 1284q188 0 322 -80.5t190 -222t25 -319.5q-35 -198 -149.5 -353t-269 -236t-318.5 -81q-31 0 -122 6t-134 6q-45 0 -116.5 -2t-96.5 -2q-6 0 -6 12.5t6 12.5q91 0 122 26t46 115l79 448h-149q-9 0 -9 22.5t9 22.5h158l79 455q17 88 -5 114.5t-111 26.5q-4 0 -4 12.5 t4 12.5q26 0 99 -3t118 -3q39 0 120 5t113 5zM1057 616q14 100 13.5 192t-27.5 173t-71 141t-116 94.5t-164 34.5q-95 0 -134 -28.5t-54 -112.5l-80 -451h235q9 0 9 -22.5t-9 -22.5h-241l-76 -426q-16 -89 12.5 -126t128.5 -37q211 0 367.5 155.5t206.5 435.5z" />
<glyph unicode="&#xd1;" d="M588 1417q-3 -2 -8 0.5t-7 7t0 7.5q95 139 187 139q30 0 115.5 -25.5t136.5 -25.5q39 0 63 13t51 42q5 3 12 -2.5t3 -11.5q-57 -82 -93.5 -110t-80.5 -28q-41 0 -128 25t-137 25q-16 0 -29.5 -2.5t-21.5 -5t-18.5 -9.5t-14.5 -10.5t-15 -14t-15 -14.5zM1421 1280 q5 0 5 -12.5t-5 -12.5q-152 0 -186 -200l-193 -1073q0 -9 -17 -10.5t-21 8.5l-601 1132l-153 -889q-37 -198 112 -198q4 0 4 -12.5t-4 -12.5q-22 0 -78 2t-94 2q-33 0 -92.5 -2t-83.5 -2q-4 0 -4 12.5t4 12.5q153 0 187 198l168 946q-59 86 -136 86q-6 0 -6 12.5t6 12.5 q25 0 77 -2t71 -2q23 0 61.5 2t42.5 2q14 0 20 -7.5t17 -39t25 -59.5l493 -936l146 817q37 200 -113 200q-5 0 -5 12.5t5 12.5q20 0 77.5 -3t96.5 -3q32 0 91 3t83 3z" />
<glyph unicode="&#xd2;" d="M1006 1403q-200 90 -388 145q-22 5 26 26q72 31 130 39q17 2 21 -1q87 -80 225 -191q9 -4 -1 -14q-7 -8 -13 -4zM580 -25q-100 0 -183 34t-139 94.5t-91.5 144.5t-42 183t10.5 210q51 288 251 475t454 187q102 0 187 -34t141.5 -94.5t93 -144t42 -181.5t-11.5 -208 q-26 -147 -96 -272.5t-165.5 -211.5t-212.5 -134t-238 -48zM668 29q167 0 289 133t167 370q31 147 16.5 278.5t-60 229.5t-129.5 155.5t-193 57.5q-171 0 -292.5 -135t-164.5 -368q-19 -114 -18 -219.5t30 -197t75.5 -159t119 -106.5t160.5 -39z" />
<glyph unicode="&#xd3;" d="M715 1391q-6 -3 -10.5 1.5t-4 10t4.5 8.5q53 29 105.5 63.5t111.5 76t90 61.5q15 11 100 -23q67 -27 62 -38q0 -2 -5 -3q-220 -55 -454 -157zM580 -25q-100 0 -183 34t-139 94.5t-91.5 144.5t-42 183t10.5 210q51 288 251 475t454 187q102 0 187 -34t141.5 -94.5t93 -144 t42 -181.5t-11.5 -208q-26 -147 -96 -272.5t-165.5 -211.5t-212.5 -134t-238 -48zM668 29q167 0 289 133t167 370q31 147 16.5 278.5t-60 229.5t-129.5 155.5t-193 57.5q-171 0 -292.5 -135t-164.5 -368q-19 -114 -18 -219.5t30 -197t75.5 -159t119 -106.5t160.5 -39z" />
<glyph unicode="&#xd4;" d="M637 1352q-2 -2 -6 0.5t-6 6.5t0 7l225 211q8 9 19.5 9t17.5 -9l157 -211q3 -3 1 -7.5t-6.5 -6.5t-8.5 0l-180 104zM580 -25q-100 0 -183 34t-139 94.5t-91.5 144.5t-42 183t10.5 210q51 288 251 475t454 187q102 0 187 -34t141.5 -94.5t93 -144t42 -181.5t-11.5 -208 q-26 -147 -96 -272.5t-165.5 -211.5t-212.5 -134t-238 -48zM668 29q167 0 289 133t167 370q31 147 16.5 278.5t-60 229.5t-129.5 155.5t-193 57.5q-171 0 -292.5 -135t-164.5 -368q-19 -114 -18 -219.5t30 -197t75.5 -159t119 -106.5t160.5 -39z" />
<glyph unicode="&#xd5;" d="M598 1417q-5 -3 -11.5 4t-2.5 11q95 139 186 139q30 0 116 -25.5t136 -25.5q39 0 63.5 13t51.5 42q5 3 11.5 -2.5t2.5 -11.5q-57 -82 -93.5 -110t-80.5 -28q-41 0 -127 25t-137 25q-16 0 -29.5 -2.5t-21.5 -4.5t-19 -10t-14.5 -10.5t-15.5 -14t-15 -14.5zM580 -25 q-100 0 -183 34t-139 94.5t-91.5 144.5t-42 183t10.5 210q51 288 251 475t454 187q102 0 187 -34t141.5 -94.5t93 -144t42 -181.5t-11.5 -208q-26 -147 -96 -272.5t-165.5 -211.5t-212.5 -134t-238 -48zM668 29q167 0 289 133t167 370q31 147 16.5 278.5t-60 229.5 t-129.5 155.5t-193 57.5q-171 0 -292.5 -135t-164.5 -368q-19 -114 -18 -219.5t30 -197t75.5 -159t119 -106.5t160.5 -39z" />
<glyph unicode="&#xd6;" d="M709 1458q-44 0 -69.5 25t-25.5 69q0 43 25.5 66.5t69.5 23.5q43 0 66.5 -23.5t23.5 -66.5q0 -44 -23.5 -69t-66.5 -25zM1022 1458q-44 0 -69 25t-25 69q0 43 25 66.5t69 23.5q43 0 67.5 -23.5t24.5 -66.5q0 -44 -24.5 -69t-67.5 -25zM580 -25q-100 0 -183 34t-139 94.5 t-91.5 144.5t-42 183t10.5 210q51 288 251 475t454 187q102 0 187 -34t141.5 -94.5t93 -144t42 -181.5t-11.5 -208q-26 -147 -96 -272.5t-165.5 -211.5t-212.5 -134t-238 -48zM668 29q167 0 289 133t167 370q31 147 16.5 278.5t-60 229.5t-129.5 155.5t-193 57.5 q-171 0 -292.5 -135t-164.5 -368q-19 -114 -18 -219.5t30 -197t75.5 -159t119 -106.5t160.5 -39z" />
<glyph unicode="&#xd7;" horiz-adv-x="815" d="M467 389l209 -209q6 -7 -24 -36t-38 -23l-206 207l-211 -209q-3 -5 -19.5 8.5t-31 29.5t-11.5 19l211 213l-209 209q-4 4 10 20.5t30.5 30t19.5 10.5l211 -210l206 208q8 5 38 -24.5t24 -36.5z" />
<glyph unicode="&#xd8;" d="M1327 1294q3 4 13.5 -1.5t18.5 -14.5t3 -14l-145 -148q61 -90 80.5 -213.5t-5.5 -261.5q-26 -147 -96 -272.5t-165.5 -211.5t-212.5 -134t-238 -48q-215 0 -340 148l-142 -143q-4 -4 -14.5 2.5t-18 16.5t-2.5 15l148 150q-60 91 -80 214t4 263q51 288 251 475t454 187 q220 0 348 -150zM301 750q-48 -264 29 -465l749 757q-48 100 -130.5 155.5t-190.5 55.5q-171 0 -292.5 -135t-164.5 -368zM1124 532q52 260 -24 465l-750 -761q49 -97 130.5 -152t187.5 -55q167 0 289 133t167 370z" />
<glyph unicode="&#xd9;" horiz-adv-x="1267" d="M1036 1391q-230 101 -454 157q-22 4 27 28q70 33 114 38q11 1 14 -2q21 -13 130 -87.5t177 -113.5q5 -2 5 -8t-3.5 -10.5t-9.5 -1.5zM1151 1049q35 206 -127 206q-6 0 -5.5 12.5t5.5 12.5q28 0 90 -3t98 -3q34 0 93 3t81 3q7 0 6.5 -12.5t-6.5 -12.5q-74 0 -121.5 -56 t-66.5 -159l-106 -602q-38 -218 -181 -341.5t-346 -123.5q-207 0 -308.5 126.5t-63.5 340.5l120 678q15 87 -7.5 112t-115.5 25q-5 0 -6.5 6.5t0 12.5t4.5 6q29 0 104 -3t118 -3q50 0 125.5 3t97.5 3q7 0 6.5 -12.5t-6.5 -12.5q-95 0 -128 -29.5t-48 -121.5l-109 -602 q-40 -229 35 -346t240 -117q164 0 275.5 108t143.5 299z" />
<glyph unicode="&#xda;" horiz-adv-x="1267" d="M635 1389q-9 -3 -12.5 8t2.5 14q69 38 175.5 110t133.5 89q15 11 102 -24q63 -26 59 -35q0 -2 -5 -3q-242 -63 -455 -159zM1151 1049q35 206 -127 206q-6 0 -5.5 12.5t5.5 12.5q28 0 90 -3t98 -3q34 0 93 3t81 3q7 0 6.5 -12.5t-6.5 -12.5q-74 0 -121.5 -56t-66.5 -159 l-106 -602q-38 -218 -181 -341.5t-346 -123.5q-207 0 -308.5 126.5t-63.5 340.5l120 678q15 87 -7.5 112t-115.5 25q-5 0 -6.5 6.5t0 12.5t4.5 6q29 0 104 -3t118 -3q50 0 125.5 3t97.5 3q7 0 6.5 -12.5t-6.5 -12.5q-95 0 -128 -29.5t-48 -121.5l-109 -602q-40 -229 35 -346 t240 -117q164 0 275.5 108t143.5 299z" />
<glyph unicode="&#xdb;" horiz-adv-x="1267" d="M655 1352q-2 -2 -6 0.5t-6 6.5t0 7l225 211q8 9 19.5 9t17.5 -9l158 -211q3 -3 1 -7.5t-6.5 -6.5t-8.5 0l-181 104zM1151 1049q35 206 -127 206q-6 0 -5.5 12.5t5.5 12.5q28 0 90 -3t98 -3q34 0 93 3t81 3q7 0 6.5 -12.5t-6.5 -12.5q-74 0 -121.5 -56t-66.5 -159 l-106 -602q-38 -218 -181 -341.5t-346 -123.5q-207 0 -308.5 126.5t-63.5 340.5l120 678q15 87 -7.5 112t-115.5 25q-5 0 -6.5 6.5t0 12.5t4.5 6q29 0 104 -3t118 -3q50 0 125.5 3t97.5 3q7 0 6.5 -12.5t-6.5 -12.5q-95 0 -128 -29.5t-48 -121.5l-109 -602q-40 -229 35 -346 t240 -117q164 0 275.5 108t143.5 299z" />
<glyph unicode="&#xdc;" horiz-adv-x="1267" d="M705 1458q-43 0 -70 25t-27 69q0 42 26.5 66t70.5 24t68 -23.5t24 -66.5q0 -44 -24 -69t-68 -25zM1063 1458q-44 0 -69 25t-25 69q0 43 25 66.5t69 23.5q43 0 67.5 -23.5t24.5 -66.5q0 -44 -24.5 -69t-67.5 -25zM1151 1049q35 206 -127 206q-6 0 -5.5 12.5t5.5 12.5 q28 0 90 -3t98 -3q34 0 93 3t81 3q7 0 6.5 -12.5t-6.5 -12.5q-74 0 -121.5 -56t-66.5 -159l-106 -602q-38 -218 -181 -341.5t-346 -123.5q-207 0 -308.5 126.5t-63.5 340.5l120 678q15 87 -7.5 112t-115.5 25q-5 0 -6.5 6.5t0 12.5t4.5 6q29 0 104 -3t118 -3q50 0 125.5 3 t97.5 3q7 0 6.5 -12.5t-6.5 -12.5q-95 0 -128 -29.5t-48 -121.5l-109 -602q-40 -229 35 -346t240 -117q164 0 275.5 108t143.5 299z" />
<glyph unicode="&#xdd;" horiz-adv-x="1087" d="M606 1391q-6 -3 -10.5 1.5t-4 10t4.5 8.5q53 29 105.5 63.5t111.5 76t90 61.5q15 11 101 -24q67 -26 62 -37l-5 -3q-223 -55 -455 -157zM1233 1280q6 0 6 -12.5t-6 -12.5q-131 0 -272 -202l-293 -416l-84 -471q-17 -90 5.5 -115.5t121.5 -25.5q6 0 6 -12.5t-6 -12.5 q-27 0 -102 2t-122 2q-49 0 -125 -2t-102 -2q-8 0 -8 12.5t8 12.5q97 0 131 26t47 115l78 450l-209 494q-35 79 -69.5 112t-87.5 33q-8 0 -8 12.5t8 12.5q24 0 78.5 -3t80.5 -3q47 0 129.5 3t106.5 3q5 0 6.5 -6t-1 -12.5t-7.5 -6.5q-71 0 -91 -17.5t-1 -63.5l204 -490 l265 391q57 82 46 131t-87 49q-6 0 -6 12.5t6 12.5q28 0 99 -3t118 -3q29 0 70.5 3t66.5 3z" />
<glyph unicode="&#xde;" horiz-adv-x="1101" d="M657 1022q103 0 186.5 -23.5t142 -70t82 -120.5t3.5 -169t-80.5 -170.5t-141.5 -119.5t-166.5 -66.5t-166.5 -22.5q-48 0 -84 8q-2 2 -1.5 10t4 16t7.5 7q30 -6 62 -6q49 0 97.5 10t97.5 33.5t88.5 58t70 86.5t43.5 115q35 170 -50.5 280.5t-250.5 110.5q-51 0 -117 -8 l-143 -815q-5 -33 -6.5 -52.5t3 -37.5t14 -26.5t31 -14.5t49.5 -8t73 -2q4 0 4 -12.5t-4 -12.5q-31 0 -120.5 2t-145.5 2q-42 0 -114 -2t-97 -2q-5 0 -5 12.5t5 12.5q92 0 122.5 25.5t47.5 115.5l165 948q17 88 -4 114.5t-110 26.5q-6 0 -6 12.5t6 12.5q24 0 95 -3t114 -3 q61 0 150 3t118 3q5 0 5 -12.5t-5 -12.5q-57 0 -88 -3t-56 -10t-37.5 -25t-21 -41t-16.5 -66l-17 -98q69 10 168 10z" />
<glyph unicode="&#xdf;" horiz-adv-x="935" d="M-94 -563q-75 0 -113 28t-33 70q2 30 24.5 49t57.5 19q33 0 50.5 -20t21.5 -43.5t15.5 -43.5t33.5 -20q31 0 54.5 84t64.5 344l154 985q42 276 167 437t312 161q109 0 157 -57.5t37 -139.5q-8 -53 -37 -104t-65.5 -91t-72.5 -78t-64 -80.5t-35 -84.5q-8 -54 13.5 -112.5 t56.5 -112t70 -109.5t54.5 -124t8.5 -136q-15 -110 -93.5 -195.5t-191.5 -85.5q-74 0 -116 35t-42 78q0 33 21 55.5t55 22.5q27 0 44 -14t25 -33.5t16 -39.5t25 -34t44 -14q89 0 106 127q8 60 -13 122t-56 115.5t-69 107.5t-53.5 118t-9.5 127q9 52 34 102t55 91.5 t60.5 84.5t54.5 98t32 115q4 53 0 99.5t-32.5 78t-78.5 31.5q-101 0 -176.5 -140.5t-116.5 -402.5l-147 -950q-44 -294 -111.5 -407t-197.5 -113z" />
<glyph unicode="&#xe0;" horiz-adv-x="894" d="M602 973l-98 516q3 12 34 10.5t68 -12.5t37 -21l-22 -491q0 -3 -4.5 -5t-9.5 -1.5t-5 4.5zM842 158q4 4 9.5 1t7.5 -8.5t-1 -9.5q-134 -159 -229 -159q-56 0 -72 45.5t2 154.5l33 195q-88 -186 -203 -295t-223 -109q-71 0 -105 52t-20 161q20 142 108.5 289.5t210 244.5 t228.5 97q87 0 139 -55q39 30 53 72q3 4 9 4t11.5 -3t4.5 -6l-119 -647q-21 -112 29 -112q42 0 127 88zM258 90q69 0 148 73.5t137.5 180t79.5 207.5q17 83 -14 134t-101 50q-103 -2 -201 -127t-127 -305q-33 -213 78 -213z" />
<glyph unicode="&#xe1;" horiz-adv-x="894" d="M737 1466q6 16 86 28q74 10 70 -5l-313 -520q-4 -8 -18 -1q-6 4 -3 7zM842 158q4 4 9.5 1t7.5 -8.5t-1 -9.5q-134 -159 -229 -159q-56 0 -72 45.5t2 154.5l33 195q-88 -186 -203 -295t-223 -109q-71 0 -105 52t-20 161q20 142 108.5 289.5t210 244.5t228.5 97 q87 0 139 -55q39 30 53 72q3 4 9 4t11.5 -3t4.5 -6l-119 -647q-21 -112 29 -112q42 0 127 88zM258 90q69 0 148 73.5t137.5 180t79.5 207.5q17 83 -14 134t-101 50q-103 -2 -201 -127t-127 -305q-33 -213 78 -213z" />
<glyph unicode="&#xe2;" horiz-adv-x="894" d="M471 971q-3 -4 -7.5 -3.5t-9 3.5t-3.5 6l225 510q3 11 20 11t17 -11l45 -510q0 -3 -6 -4.5t-11.5 -1t-5.5 3.5l-80 285zM842 158q4 4 9.5 1t7.5 -8.5t-1 -9.5q-134 -159 -229 -159q-56 0 -72 45.5t2 154.5l33 195q-88 -186 -203 -295t-223 -109q-71 0 -105 52t-20 161 q20 142 108.5 289.5t210 244.5t228.5 97q87 0 139 -55q39 30 53 72q3 4 9 4t11.5 -3t4.5 -6l-119 -647q-21 -112 29 -112q42 0 127 88zM258 90q69 0 148 73.5t137.5 180t79.5 207.5q17 83 -14 134t-101 50q-103 -2 -201 -127t-127 -305q-33 -213 78 -213z" />
<glyph unicode="&#xe3;" horiz-adv-x="894" d="M879 1135q5 3 11.5 -4t2.5 -11q-57 -82 -93.5 -110.5t-80.5 -28.5q-41 0 -127 25.5t-137 25.5q-13 0 -24 -1t-20.5 -5t-15.5 -6t-15 -9t-12 -9.5t-13 -12t-13 -12.5q-5 -3 -11.5 2.5t-2.5 11.5q98 137 184 137q29 0 115.5 -24.5t138.5 -24.5q38 0 62 13.5t51 42.5z M842 158q4 4 9.5 1t7.5 -8.5t-1 -9.5q-134 -159 -229 -159q-56 0 -72 45.5t2 154.5l33 195q-88 -186 -203 -295t-223 -109q-71 0 -105 52t-20 161q20 142 108.5 289.5t210 244.5t228.5 97q87 0 139 -55q39 30 53 72q3 4 9 4t11.5 -3t4.5 -6l-119 -647q-21 -112 29 -112 q42 0 127 88zM258 90q69 0 148 73.5t137.5 180t79.5 207.5q17 83 -14 134t-101 50q-103 -2 -201 -127t-127 -305q-33 -213 78 -213z" />
<glyph unicode="&#xe4;" horiz-adv-x="894" d="M457 969q-44 0 -69.5 25t-25.5 69q0 43 25.5 66.5t69.5 23.5q43 0 66.5 -23.5t23.5 -66.5q0 -44 -23.5 -69t-66.5 -25zM770 969q-44 0 -69 25t-25 69q0 43 25 66.5t69 23.5q43 0 67.5 -23.5t24.5 -66.5q0 -44 -24.5 -69t-67.5 -25zM842 158q4 4 9.5 1t7.5 -8.5t-1 -9.5 q-134 -159 -229 -159q-56 0 -72 45.5t2 154.5l33 195q-88 -186 -203 -295t-223 -109q-71 0 -105 52t-20 161q20 142 108.5 289.5t210 244.5t228.5 97q87 0 139 -55q39 30 53 72q3 4 9 4t11.5 -3t4.5 -6l-119 -647q-21 -112 29 -112q42 0 127 88zM258 90q69 0 148 73.5 t137.5 180t79.5 207.5q17 83 -14 134t-101 50q-103 -2 -201 -127t-127 -305q-33 -213 78 -213z" />
<glyph unicode="&#xe5;" horiz-adv-x="894" d="M600 958q-81 0 -129.5 48t-48.5 114q0 74 62 117t137 43q73 0 125.5 -48t52.5 -116q0 -71 -61 -114.5t-138 -43.5zM580 1255q-52 0 -52 -94q0 -68 29 -124t76 -56q59 0 59 98q0 70 -34 123t-78 53zM842 158q4 4 9.5 1t7.5 -8.5t-1 -9.5q-134 -159 -229 -159 q-56 0 -72 45.5t2 154.5l33 195q-88 -186 -203 -295t-223 -109q-71 0 -105 52t-20 161q20 142 108.5 289.5t210 244.5t228.5 97q87 0 139 -55q39 30 53 72q3 4 9 4t11.5 -3t4.5 -6l-119 -647q-21 -112 29 -112q42 0 127 88zM258 90q69 0 148 73.5t137.5 180t79.5 207.5 q17 83 -14 134t-101 50q-103 -2 -201 -127t-127 -305q-33 -213 78 -213z" />
<glyph unicode="&#xe6;" horiz-adv-x="1138" d="M999 817q86 0 119 -36t25 -91q-11 -69 -110 -132.5t-337 -137.5q-20 -178 23 -272.5t133 -94.5q92 0 166 66q3 3 8 0t8 -9t0 -10q-136 -125 -272 -125q-128 0 -180 108t-21 296q-84 -184 -187.5 -295t-201.5 -111q-73 0 -109.5 54.5t-21.5 158.5q19 141 99 287t196.5 245 t228.5 99q57 0 99.5 -28.5t52.5 -86.5q127 115 282 115zM991 662q7 40 -10 75t-66 35q-75 0 -136 -91.5t-81 -234.5q272 96 293 216zM264 94q54 0 123.5 71.5t125.5 179.5t75 208q17 84 -12 142t-91 57q-92 -2 -182 -133.5t-117 -317.5q-31 -207 78 -207z" />
<glyph unicode="&#xe7;" horiz-adv-x="708" d="M512 817q77 0 132.5 -34.5t49.5 -92.5q-3 -32 -24 -53t-56 -21q-64 0 -82 74q-22 78 -98 78q-85 0 -140.5 -79t-78.5 -210q-18 -84 -13 -161.5t28 -136t72.5 -93.5t119.5 -35q101 0 205 84q6 5 14 -3.5t2 -14.5q-151 -140 -305 -146q-11 -30 -13.5 -55t5 -48t18.5 -41 t31 -42q78 -101 63 -172q-9 -64 -67.5 -121t-153.5 -57q-61 0 -98.5 26.5t-30.5 73.5q9 51 68 51q26 0 43 -17.5t23.5 -38.5t20 -38.5t34.5 -17.5q55 0 67 67q5 61 -86 174q-51 59 0 160l47 96q-65 3 -115.5 30.5t-78.5 71t-44.5 100t-14.5 117.5t12 122q23 122 96 216 t164.5 140.5t183.5 46.5z" />
<glyph unicode="&#xe8;" horiz-adv-x="710" d="M508 973l-98 516q3 12 34 10.5t68 -12.5t37 -21l-23 -491q0 -3 -4.5 -5t-9 -1.5t-4.5 4.5zM539 817q77 0 116 -29.5t31 -80.5q-10 -60 -79 -116.5t-172.5 -96t-225.5 -60.5q-27 -168 26.5 -275.5t178.5 -107.5q110 0 198 68q5 3 12 -5t3 -14q-144 -125 -305 -125 q-82 0 -141.5 33.5t-88 90t-38.5 129.5t7 151q15 79 58 157t105 140.5t145 101.5t170 39zM526 664q11 48 -14 73t-70 25q-85 0 -144 -83t-85 -216q280 54 313 201z" />
<glyph unicode="&#xe9;" horiz-adv-x="710" d="M643 1466q6 16 86 28q74 10 70 -5l-314 -520q-4 -8 -17 -1q-6 4 -3 7zM539 817q77 0 116 -29.5t31 -80.5q-10 -60 -79 -116.5t-172.5 -96t-225.5 -60.5q-27 -168 26.5 -275.5t178.5 -107.5q110 0 198 68q5 3 12 -5t3 -14q-144 -125 -305 -125q-82 0 -141.5 33.5t-88 90 t-38.5 129.5t7 151q15 79 58 157t105 140.5t145 101.5t170 39zM526 664q11 48 -14 73t-70 25q-85 0 -144 -83t-85 -216q280 54 313 201z" />
<glyph unicode="&#xea;" horiz-adv-x="710" d="M362 971q-3 -3 -8 -2.5t-9.5 3.5t-2.5 7l223 510q5 11 22 11t17 -11l45 -510q0 -6 -11.5 -7t-12.5 5l-78 285zM539 817q77 0 116 -29.5t31 -80.5q-10 -60 -79 -116.5t-172.5 -96t-225.5 -60.5q-27 -168 26.5 -275.5t178.5 -107.5q110 0 198 68q5 3 12 -5t3 -14 q-144 -125 -305 -125q-82 0 -141.5 33.5t-88 90t-38.5 129.5t7 151q15 79 58 157t105 140.5t145 101.5t170 39zM526 664q11 48 -14 73t-70 25q-85 0 -144 -83t-85 -216q280 54 313 201z" />
<glyph unicode="&#xeb;" horiz-adv-x="710" d="M362 969q-44 0 -69 25t-25 69q0 43 25 66.5t69 23.5q43 0 67 -23.5t24 -66.5q0 -44 -24 -69t-67 -25zM676 1153q43 0 67.5 -23.5t24.5 -66.5q0 -44 -24.5 -69t-67.5 -25q-44 0 -69 25t-25 69q0 43 25 66.5t69 23.5zM539 817q77 0 116 -29.5t31 -80.5q-10 -60 -79 -116.5 t-172.5 -96t-225.5 -60.5q-27 -168 26.5 -275.5t178.5 -107.5q110 0 198 68q5 3 12 -5t3 -14q-144 -125 -305 -125q-82 0 -141.5 33.5t-88 90t-38.5 129.5t7 151q15 79 58 157t105 140.5t145 101.5t170 39zM526 664q11 48 -14 73t-70 25q-85 0 -144 -83t-85 -216 q280 54 313 201z" />
<glyph unicode="&#xec;" horiz-adv-x="505" d="M324 973l-99 516q3 12 34.5 10.5t68.5 -12.5t37 -21l-23 -491q0 -3 -4.5 -5t-9 -1.5t-4.5 4.5zM221 -18q-56 0 -73 45.5t4 154.5l84 426q11 57 2 86t-35 29q-49 0 -133 -90q-4 -5 -10.5 -2t-8.5 8.5t2 9.5q135 160 240 160q57 0 73 -45.5t-4 -145.5l-83 -436 q-19 -112 30 -112q46 0 129 86q5 5 11 2t8 -9t-2 -10q-68 -80 -124 -118.5t-110 -38.5z" />
<glyph unicode="&#xed;" horiz-adv-x="505" d="M301 969q-4 -8 -17 -1q-6 4 -3 7l178 491q6 15 85 28q74 10 70 -5zM221 -18q-56 0 -73 45.5t4 154.5l84 426q11 57 2 86t-35 29q-49 0 -133 -90q-4 -5 -10.5 -2t-8.5 8.5t2 9.5q135 160 240 160q57 0 73 -45.5t-4 -145.5l-83 -436q-19 -112 30 -112q46 0 129 86q5 5 11 2 t8 -9t-2 -10q-68 -80 -124 -118.5t-110 -38.5z" />
<glyph unicode="&#xee;" horiz-adv-x="505" d="M434 1487l45 -510q0 -3 -5.5 -4.5t-11 -1t-5.5 3.5l-80 285l-184 -289q-3 -4 -8 -3.5t-9.5 3.5t-3.5 6l225 510q3 11 20 11t17 -11zM221 -18q-56 0 -73 45.5t4 154.5l84 426q11 57 2 86t-35 29q-49 0 -133 -90q-4 -5 -10.5 -2t-8.5 8.5t2 9.5q135 160 240 160 q57 0 73 -45.5t-4 -145.5l-83 -436q-19 -112 30 -112q46 0 129 86q5 5 11 2t8 -9t-2 -10q-68 -80 -124 -118.5t-110 -38.5z" />
<glyph unicode="&#xef;" horiz-adv-x="505" d="M195 969q-45 0 -71 25t-26 69q0 42 26 66t71 24q44 0 67 -23.5t23 -66.5q0 -45 -23 -69.5t-67 -24.5zM479 969q-44 0 -68 25t-24 69q0 43 24 66.5t68 23.5q43 0 66.5 -23.5t23.5 -66.5q0 -44 -23.5 -69t-66.5 -25zM221 -18q-56 0 -73 45.5t4 154.5l84 426q11 57 2 86 t-35 29q-49 0 -133 -90q-4 -5 -10.5 -2t-8.5 8.5t2 9.5q135 160 240 160q57 0 73 -45.5t-4 -145.5l-83 -436q-19 -112 30 -112q46 0 129 86q5 5 11 2t8 -9t-2 -10q-68 -80 -124 -118.5t-110 -38.5z" />
<glyph unicode="&#xf0;" horiz-adv-x="821" d="M829 1319q5 3 12 -6t9.5 -18.5t-2.5 -12.5l-197 -94q91 -162 124 -357t-1 -389q-26 -151 -98.5 -259.5t-165 -159t-195.5 -50.5q-101 0 -168.5 57t-90 149t-1.5 202q18 107 67.5 193.5t113.5 137.5t131 78t129 27q80 0 141 -43q-21 196 -88 365l-260 -123q-5 -3 -12.5 6 t-10.5 18.5t2 12.5l264 125q-83 193 -204 280q-10 7 16 21q28 14 37 6q149 -89 250 -260zM371 16q91 0 158.5 98t99.5 304q28 178 -8.5 269t-153.5 91q-88 0 -162.5 -90.5t-99.5 -247.5q-15 -117 -3 -211.5t57 -153.5t112 -59z" />
<glyph unicode="&#xf1;" horiz-adv-x="958" d="M313 977q-5 -3 -11.5 2.5t-2.5 11.5q98 137 184 137q29 0 115.5 -24.5t138.5 -24.5q38 0 62 13.5t51 42.5q5 3 11.5 -4t2.5 -11q-57 -82 -93.5 -110.5t-80.5 -28.5q-42 0 -128 25.5t-136 25.5q-13 0 -24 -1t-20.5 -5t-15.5 -6t-15 -9t-12 -9.5t-13 -12t-13 -12.5z M907 158q4 5 10 2.5t8 -8.5t-1 -11q-70 -81 -125 -120t-109 -39q-56 0 -71 47t4 153l59 326q43 217 -68 217q-100 0 -203.5 -190t-162.5 -517q-7 -34 -80 -34q-55 0 -55 14q0 3 5 25.5t12.5 60t12.5 68.5l84 456q21 115 -32 115q-49 0 -136 -90q-4 -5 -9.5 -2t-7.5 8.5 t1 9.5q135 160 244 160q55 0 70 -45.5t-3 -145.5l-41 -225q73 200 171.5 312t207.5 112q88 0 118.5 -65t4.5 -205l-67 -365q-19 -112 32 -112q36 0 127 88z" />
<glyph unicode="&#xf2;" horiz-adv-x="821" d="M506 973l-98 516q3 12 34 10.5t68 -12.5t37 -21l-23 -491q0 -3 -4.5 -5t-9 -1.5t-4.5 4.5zM317 -29q-151 0 -219 122t-35 302q35 183 159.5 302.5t279.5 119.5q79 0 138.5 -33.5t90 -91t40.5 -134t-9 -163.5q-26 -128 -96.5 -226.5t-162 -148t-186.5 -49.5zM389 23 q79 0 142 76t87 206q17 81 11 163t-26 149t-63.5 109t-101.5 42q-78 0 -140.5 -75.5t-88.5 -209.5q-19 -84 -13 -166t27 -147.5t65 -106t101 -40.5z" />
<glyph unicode="&#xf3;" horiz-adv-x="821" d="M483 969q-4 -8 -17 -1q-6 4 -3 7l178 491q6 16 86 28q74 10 70 -5zM317 -29q-151 0 -219 122t-35 302q35 183 159.5 302.5t279.5 119.5q79 0 138.5 -33.5t90 -91t40.5 -134t-9 -163.5q-26 -128 -96.5 -226.5t-162 -148t-186.5 -49.5zM389 23q79 0 142 76t87 206 q17 81 11 163t-26 149t-63.5 109t-101.5 42q-78 0 -140.5 -75.5t-88.5 -209.5q-19 -84 -13 -166t27 -147.5t65 -106t101 -40.5z" />
<glyph unicode="&#xf4;" horiz-adv-x="821" d="M602 1489l45 -510q0 -6 -11.5 -7t-12.5 5l-78 285l-185 -291q-3 -3 -8 -2.5t-9.5 3.5t-2.5 7l223 510q5 11 22 11t17 -11zM317 -29q-151 0 -219 122t-35 302q35 183 159.5 302.5t279.5 119.5q79 0 138.5 -33.5t90 -91t40.5 -134t-9 -163.5q-26 -128 -96.5 -226.5 t-162 -148t-186.5 -49.5zM389 23q79 0 142 76t87 206q17 81 11 163t-26 149t-63.5 109t-101.5 42q-78 0 -140.5 -75.5t-88.5 -209.5q-19 -84 -13 -166t27 -147.5t65 -106t101 -40.5z" />
<glyph unicode="&#xf5;" horiz-adv-x="821" d="M246 977q-5 -3 -12 2.5t-3 11.5q98 137 185 137q29 0 115.5 -24.5t138.5 -24.5q38 0 61.5 13.5t50.5 42.5q5 3 12 -4t3 -11q-57 -82 -93.5 -110.5t-80.5 -28.5q-41 0 -128 25.5t-137 25.5q-13 0 -24 -1t-20.5 -4.5t-15.5 -6t-14.5 -9t-12 -9.5t-12.5 -12.5t-13 -12.5z M317 -29q-151 0 -219 122t-35 302q35 183 159.5 302.5t279.5 119.5q79 0 138.5 -33.5t90 -91t40.5 -134t-9 -163.5q-26 -128 -96.5 -226.5t-162 -148t-186.5 -49.5zM389 23q79 0 142 76t87 206q17 81 11 163t-26 149t-63.5 109t-101.5 42q-78 0 -140.5 -75.5t-88.5 -209.5 q-19 -84 -13 -166t27 -147.5t65 -106t101 -40.5z" />
<glyph unicode="&#xf6;" horiz-adv-x="821" d="M360 969q-44 0 -69 25t-25 69q0 43 25 66.5t69 23.5q43 0 67 -23.5t24 -66.5q0 -44 -24 -69t-67 -25zM674 969q-44 0 -69 25t-25 69q0 43 25 66.5t69 23.5q43 0 67.5 -23.5t24.5 -66.5q0 -44 -24.5 -69t-67.5 -25zM317 -29q-151 0 -219 122t-35 302q35 183 159.5 302.5 t279.5 119.5q79 0 138.5 -33.5t90 -91t40.5 -134t-9 -163.5q-26 -128 -96.5 -226.5t-162 -148t-186.5 -49.5zM389 23q79 0 142 76t87 206q17 81 11 163t-26 149t-63.5 109t-101.5 42q-78 0 -140.5 -75.5t-88.5 -209.5q-19 -84 -13 -166t27 -147.5t65 -106t101 -40.5z" />
<glyph unicode="&#xf7;" horiz-adv-x="796" d="M403 645q-44 0 -70 26t-26 70q0 43 26 68t70 25q45 0 71 -25t26 -68q0 -45 -26 -70.5t-71 -25.5zM70 356q-6 0 -8 21.5t-0.5 43t6.5 21.5h677q9 0 9 -43t-9 -43h-675zM408 -20q-46 0 -72.5 26t-26.5 72q0 41 26.5 65.5t72.5 24.5q44 0 69 -24t25 -66q0 -46 -25 -72 t-69 -26z" />
<glyph unicode="&#xf8;" horiz-adv-x="835" d="M791 819q5 5 21.5 -8t10.5 -20l-94 -97q68 -119 33 -299q-26 -128 -96.5 -226.5t-162 -148t-186.5 -49.5q-125 0 -198 92l-92 -96q-6 -5 -22 10.5t-9 22.5l98 100q-62 118 -31 295q35 183 159.5 302.5t279.5 119.5q130 0 203 -86zM209 483q-28 -141 0 -264l391 404 q-52 145 -162 145q-78 0 -140.5 -75.5t-88.5 -209.5zM618 305q24 140 -4 270l-391 -405q52 -147 166 -147q79 0 142 76t87 206z" />
<glyph unicode="&#xf9;" horiz-adv-x="958" d="M555 973l-98 516q3 12 34 10.5t68 -12.5t37 -21l-23 -491q0 -3 -4.5 -5t-9 -1.5t-4.5 4.5zM899 158q4 5 9.5 2t7.5 -9t-1 -10q-70 -83 -127.5 -121t-113.5 -38t-71.5 45t3.5 145l41 234q-73 -204 -172.5 -318.5t-208.5 -114.5q-179 0 -123 271l74 364q19 113 -33 113 q-34 0 -125 -88q-7 -7 -15 1t-1 15q71 83 124 121.5t107 38.5q56 0 73 -46t-5 -155l-66 -325q-45 -217 70 -217q100 0 203.5 190t161.5 516q7 35 82 35q53 0 53 -14q0 -3 -5 -25.5t-13 -60t-13 -68.5l-84 -457q-18 -114 33 -114t135 90z" />
<glyph unicode="&#xfa;" horiz-adv-x="958" d="M532 969q-4 -8 -17 -1q-6 4 -3 7l178 491q6 16 86 28q74 10 70 -5zM899 158q4 5 9.5 2t7.5 -9t-1 -10q-70 -83 -127.5 -121t-113.5 -38t-71.5 45t3.5 145l41 234q-73 -204 -172.5 -318.5t-208.5 -114.5q-179 0 -123 271l74 364q19 113 -33 113q-34 0 -125 -88 q-7 -7 -15 1t-1 15q71 83 124 121.5t107 38.5q56 0 73 -46t-5 -155l-66 -325q-45 -217 70 -217q100 0 203.5 190t161.5 516q7 35 82 35q53 0 53 -14q0 -3 -5 -25.5t-13 -60t-13 -68.5l-84 -457q-18 -114 33 -114t135 90z" />
<glyph unicode="&#xfb;" horiz-adv-x="958" d="M410 971q-3 -3 -8.5 -2.5t-10 3.5t-2.5 7l223 510q4 11 21.5 11t17.5 -11l45 -510q0 -6 -11 -7t-13 5l-78 285zM899 158q4 5 9.5 2t7.5 -9t-1 -10q-70 -83 -127.5 -121t-113.5 -38t-71.5 45t3.5 145l41 234q-73 -204 -172.5 -318.5t-208.5 -114.5q-179 0 -123 271l74 364 q19 113 -33 113q-34 0 -125 -88q-7 -7 -15 1t-1 15q71 83 124 121.5t107 38.5q56 0 73 -46t-5 -155l-66 -325q-45 -217 70 -217q100 0 203.5 190t161.5 516q7 35 82 35q53 0 53 -14q0 -3 -5 -25.5t-13 -60t-13 -68.5l-84 -457q-18 -114 33 -114t135 90z" />
<glyph unicode="&#xfc;" horiz-adv-x="958" d="M410 969q-44 0 -69.5 25t-25.5 69q0 43 25.5 66.5t69.5 23.5q43 0 66.5 -23.5t23.5 -66.5q0 -44 -23.5 -69t-66.5 -25zM723 969q-44 0 -69 25t-25 69q0 43 25 66.5t69 23.5q43 0 67.5 -23.5t24.5 -66.5q0 -44 -24.5 -69t-67.5 -25zM899 158q4 5 9.5 2t7.5 -9t-1 -10 q-70 -83 -127.5 -121t-113.5 -38t-71.5 45t3.5 145l41 234q-73 -204 -172.5 -318.5t-208.5 -114.5q-179 0 -123 271l74 364q19 113 -33 113q-34 0 -125 -88q-7 -7 -15 1t-1 15q71 83 124 121.5t107 38.5q56 0 73 -46t-5 -155l-66 -325q-45 -217 70 -217q100 0 203.5 190 t161.5 516q7 35 82 35q53 0 53 -14q0 -3 -5 -25.5t-13 -60t-13 -68.5l-84 -457q-18 -114 33 -114t135 90z" />
<glyph unicode="&#xfd;" horiz-adv-x="913" d="M496 969q-4 -8 -18 -1q-6 4 -3 7l178 491q6 16 86 28q74 10 70 -5zM754 811q43 0 65.5 -32.5t22.5 -90.5q0 -69 -33 -174t-90.5 -222t-130.5 -240t-157 -234.5t-165.5 -200t-161 -140.5t-139.5 -52q-48 0 -74.5 23t-19.5 75q16 67 94 67q22 0 61 -3.5t63 -4.5t56.5 7 t59.5 28q61 41 155 170q9 437 -51 680.5t-172 243.5q-61 0 -98 -72q-3 -6 -10 -6.5t-12 3t-3 9.5q36 77 91.5 120.5t113.5 43.5q90 0 154.5 -115.5t92.5 -305.5t19 -421q83 131 148 258t84 195q15 58 8.5 109.5t-19.5 82.5t-26.5 64.5t-13.5 54.5q0 35 24 57.5t64 22.5z" />
<glyph unicode="&#xfe;" horiz-adv-x="837" d="M596 805q114 0 168.5 -79t32.5 -210q-20 -112 -74 -211t-124.5 -165t-149.5 -104t-152 -38q-63 0 -107 6l-65 -369q-13 -83 9 -106t102 -12q5 1 8.5 -4.5t3.5 -11.5t-6 -7l-365 -57q-5 -1 -8 4.5t-2 12t6 7.5q63 12 82 38.5t37 121.5l176 975q-49 -32 -96 -70 q-5 -3 -10.5 1t-7 9t2.5 9q71 60 119 94l111 610q17 81 -11.5 98.5t-117.5 -24.5q-6 -2 -11 4t-5 12t5 9l283 137q7 3 16 -4.5t7 -12.5l-134 -741q146 78 277 78zM651 451q10 73 -1.5 132t-52.5 99.5t-110 40.5q-86 0 -176 -43l-104 -590q68 -33 153 -33q230 0 291 394z" />
<glyph unicode="&#xff;" horiz-adv-x="913" d="M373 969q-44 0 -69 25t-25 69q0 43 25 66.5t69 23.5q43 0 66.5 -23.5t23.5 -66.5q0 -44 -23.5 -69t-66.5 -25zM686 969q-44 0 -69 25t-25 69q0 43 25 66.5t69 23.5q43 0 67.5 -23.5t24.5 -66.5q0 -44 -24.5 -69t-67.5 -25zM754 811q43 0 65.5 -32.5t22.5 -90.5 q0 -69 -33 -174t-90.5 -222t-130.5 -240t-157 -234.5t-165.5 -200t-161 -140.5t-139.5 -52q-48 0 -74.5 23t-19.5 75q16 67 94 67q22 0 61 -3.5t63 -4.5t56.5 7t59.5 28q61 41 155 170q9 437 -51 680.5t-172 243.5q-61 0 -98 -72q-3 -6 -10 -6.5t-12 3t-3 9.5 q36 77 91.5 120.5t113.5 43.5q90 0 154.5 -115.5t92.5 -305.5t19 -421q83 131 148 258t84 195q15 58 8.5 109.5t-19.5 82.5t-26.5 64.5t-13.5 54.5q0 35 24 57.5t64 22.5z" />
<glyph unicode="&#x152;" horiz-adv-x="1652" d="M1655 1280q15 0 12 -18q-39 -249 -41 -261q-1 -5 -7.5 -5.5t-12 2t-4.5 6.5q5 113 -37 177t-133 64h-86q-64 0 -94.5 -11t-45 -36.5t-26.5 -85.5l-74 -422h215q86 0 128.5 33.5t55.5 114.5q1 5 7.5 6t12.5 -1.5t5 -8.5q-7 -44 -17.5 -96t-13.5 -72q-13 -89 -31 -197 q-1 -6 -7.5 -7.5t-12 1t-4.5 8.5q15 90 -17.5 131t-119.5 41h-209l-82 -469q-15 -87 6 -112t111 -25h122q163 0 283 274q2 8 17 3q6 -3 6 -7q-38 -112 -64 -276q-5 -18 -11.5 -24.5t-23.5 -6.5h-538q-44 0 -133 -4t-121 -4q-189 0 -323 83.5t-190 227.5t-26 322 q35 196 148.5 348t269 231.5t323.5 79.5q32 0 126.5 -2t138.5 -2h518zM866 168l160 919q18 91 -10 126.5t-129 35.5q-217 0 -374.5 -151t-203.5 -428q-30 -181 2 -328t122 -232t222 -85q109 0 153 25.5t58 117.5z" />
<glyph unicode="&#x153;" horiz-adv-x="1249" d="M1092 817q76 0 113.5 -29.5t29.5 -80.5q-11 -62 -87 -120t-177.5 -95.5t-210.5 -55.5q-27 -170 25.5 -277.5t179.5 -107.5q110 0 198 68q5 3 12 -5t3 -14q-144 -125 -306 -125q-183 0 -245 162q-65 -80 -150 -123t-172 -43q-75 0 -131 34.5t-85 92.5t-38.5 135t8.5 162 q32 184 155.5 303t279.5 119q94 0 155.5 -49t87.5 -135q70 84 162 134t193 50zM375 23q78 0 140 76t85 206q17 81 11.5 163t-25 149t-61 109t-97.5 42q-77 0 -139.5 -77t-85.5 -208q-17 -84 -11.5 -166.5t26 -148t62 -105.5t95.5 -40zM1075 664q10 49 -12 73.5t-68 24.5 q-87 0 -145.5 -82.5t-83.5 -214.5q131 23 212 69t97 130z" />
<glyph unicode="&#x178;" horiz-adv-x="1087" d="M600 1458q-44 0 -69 25t-25 69q0 43 25 66.5t69 23.5q43 0 66.5 -23.5t23.5 -66.5q0 -44 -23.5 -69t-66.5 -25zM913 1458q-44 0 -69 25t-25 69q0 43 25 66.5t69 23.5q43 0 68 -24t25 -66q0 -44 -25 -69t-68 -25zM1233 1280q6 0 6 -12.5t-6 -12.5q-131 0 -272 -202 l-293 -416l-84 -471q-17 -90 5.5 -115.5t121.5 -25.5q6 0 6 -12.5t-6 -12.5q-27 0 -102 2t-122 2q-49 0 -125 -2t-102 -2q-8 0 -8 12.5t8 12.5q97 0 131 26t47 115l78 450l-209 494q-35 79 -69.5 112t-87.5 33q-8 0 -8 12.5t8 12.5q24 0 78.5 -3t80.5 -3q47 0 129.5 3 t106.5 3q5 0 6.5 -6t-1 -12.5t-7.5 -6.5q-71 0 -91 -17.5t-1 -63.5l204 -490l265 391q57 82 46 131t-87 49q-6 0 -6 12.5t6 12.5q28 0 99 -3t118 -3q29 0 70.5 3t66.5 3z" />
<glyph unicode="&#x2c6;" horiz-adv-x="489" d="M469 1489l45 -510q0 -6 -12 -7t-13 5l-77 285l-185 -291q-3 -3 -8 -2.5t-9.5 3.5t-2.5 7l223 510q4 11 21.5 11t17.5 -11z" />
<glyph unicode="&#x2dc;" horiz-adv-x="559" d="M127 977q-5 -3 -11.5 2.5t-2.5 11.5q98 137 184 137q29 0 115.5 -24.5t138.5 -24.5q38 0 62 13.5t51 42.5q5 3 11.5 -4t2.5 -11q-57 -82 -93.5 -110.5t-80.5 -28.5q-42 0 -128 25.5t-136 25.5q-13 0 -24 -1t-20.5 -5t-15.5 -6t-15 -9t-12 -9.5t-13 -12t-13 -12.5z" />
<glyph unicode="&#x2000;" horiz-adv-x="845" />
<glyph unicode="&#x2001;" horiz-adv-x="1690" />
<glyph unicode="&#x2002;" horiz-adv-x="845" />
<glyph unicode="&#x2003;" horiz-adv-x="1690" />
<glyph unicode="&#x2004;" horiz-adv-x="563" />
<glyph unicode="&#x2005;" horiz-adv-x="422" />
<glyph unicode="&#x2006;" horiz-adv-x="281" />
<glyph unicode="&#x2007;" horiz-adv-x="281" />
<glyph unicode="&#x2008;" horiz-adv-x="211" />
<glyph unicode="&#x2009;" horiz-adv-x="338" />
<glyph unicode="&#x200a;" horiz-adv-x="93" />
<glyph unicode="&#x2010;" horiz-adv-x="624" d="M68 340q-6 -1 -9 22t-2.5 47.5t4.5 26.5l510 94q6 1 8.5 -22t1.5 -47t-6 -25z" />
<glyph unicode="&#x2011;" horiz-adv-x="624" d="M68 340q-6 -1 -9 22t-2.5 47.5t4.5 26.5l510 94q6 1 8.5 -22t1.5 -47t-6 -25z" />
<glyph unicode="&#x2012;" horiz-adv-x="624" d="M68 340q-6 -1 -9 22t-2.5 47.5t4.5 26.5l510 94q6 1 8.5 -22t1.5 -47t-6 -25z" />
<glyph unicode="&#x2013;" horiz-adv-x="1054" d="M70 346q-6 0 -8 21t-0.5 42t6.5 21h917q9 0 9 -42t-9 -42h-915z" />
<glyph unicode="&#x2014;" horiz-adv-x="1699" d="M70 346q-6 0 -8 21t-0.5 42t6.5 21h1562q9 0 9 -42t-9 -42h-1560z" />
<glyph unicode="&#x2018;" horiz-adv-x="380" d="M418 1296q5 4 10.5 0.5t6.5 -9t-3 -9.5q-131 -128 -156 -268q-6 -29 -6 -70q15 6 35 6q45 0 69 -30.5t19 -69.5q-3 -38 -30.5 -61t-73.5 -23q-67 0 -99 52t-14 144q36 181 242 338z" />
<glyph unicode="&#x2019;" horiz-adv-x="380" d="M317 1300q67 0 99 -52t14 -144q-36 -181 -242 -338q-5 -4 -10.5 -0.5t-6.5 9t3 9.5q131 128 156 269q6 29 6 69q-15 -6 -35 -6q-45 0 -69 31t-19 70q3 38 30.5 60.5t73.5 22.5z" />
<glyph unicode="&#x201a;" horiz-adv-x="337" d="M100 168q67 0 99 -52t14 -145q-36 -181 -242 -338q-5 -4 -10.5 0t-6.5 9.5t3 9.5q131 128 156 268q6 29 6 70q-15 -6 -35 -6q-45 0 -69 30.5t-19 69.5q3 38 30.5 61t73.5 23z" />
<glyph unicode="&#x201c;" horiz-adv-x="688" d="M399 1296q5 4 10.5 0.5t7 -9t-2.5 -9.5q-131 -128 -156 -268q-6 -29 -6 -70q15 6 35 6q45 0 69 -30.5t19 -69.5q-3 -38 -31 -61t-74 -23q-67 0 -98.5 51.5t-13.5 144.5q36 182 241 338zM709 1296q5 4 10.5 0.5t6.5 -9t-3 -9.5q-131 -128 -156 -268q-6 -29 -6 -70 q15 6 35 6q45 0 69 -30.5t19 -69.5q-3 -38 -30.5 -61t-73.5 -23q-67 0 -99 52t-14 144q36 181 242 338z" />
<glyph unicode="&#x201d;" horiz-adv-x="690" d="M334 1300q67 0 98.5 -51.5t13.5 -144.5q-36 -182 -241 -338q-5 -4 -10.5 -0.5t-7 9t2.5 9.5q131 128 156 269q6 29 6 69q-15 -6 -35 -6q-45 0 -69 31t-19 70q3 38 31 60.5t74 22.5zM643 1300q67 0 99 -52t14 -144q-36 -181 -242 -338q-5 -4 -10.5 -0.5t-6.5 9t3 9.5 q130 127 155 269q7 34 7 69q-15 -6 -35 -6q-45 0 -69 31t-19 70q3 38 30.5 60.5t73.5 22.5z" />
<glyph unicode="&#x201e;" horiz-adv-x="688" d="M117 168q67 0 98.5 -52t13.5 -145q-36 -182 -241 -338q-5 -4 -10.5 0t-7 9.5t2.5 9.5q131 128 156 268q6 29 6 70q-15 -6 -35 -6q-45 0 -69 30.5t-19 69.5q3 38 31 61t74 23zM426 168q67 0 99 -52t14 -145q-36 -181 -242 -338q-5 -4 -10.5 0t-6.5 9.5t3 9.5 q130 127 155 268q6 29 6 70q-15 -6 -34 -6q-45 0 -69 30.5t-19 69.5q3 38 30.5 61t73.5 23z" />
<glyph unicode="&#x2022;" horiz-adv-x="632" d="M336 297q-88 0 -149.5 61t-61.5 150q0 87 62 149t149 62t149 -62t62 -149q0 -89 -61.5 -150t-149.5 -61z" />
<glyph unicode="&#x2026;" horiz-adv-x="1368" d="M145 -20q-44 0 -70 26t-26 72q0 41 26 65.5t70 24.5q45 0 70 -24t25 -66q0 -46 -25 -72t-70 -26zM625 -20q-45 0 -71 26t-26 72q0 41 26.5 65.5t70.5 24.5q45 0 69.5 -24t24.5 -66q0 -46 -24.5 -72t-69.5 -26zM1104 -20q-44 0 -70 26t-26 72q0 41 26 65.5t70 24.5 q45 0 69.5 -24t24.5 -66q0 -46 -24.5 -72t-69.5 -26z" />
<glyph unicode="&#x202f;" horiz-adv-x="338" />
<glyph unicode="&#x2039;" horiz-adv-x="573" d="M502 745q5 3 12.5 -4.5t3.5 -11.5l-262 -317l152 -316q4 -8 -8 -15q-7 -4 -9 1l-289 305q-8 9 -6.5 23t13.5 24z" />
<glyph unicode="&#x203a;" horiz-adv-x="571" d="M76 76q-5 -3 -13 4.5t-4 13.5l265 316l-154 315q-4 7 7 14q6 5 9 0l291 -305q8 -9 6.5 -23t-12.5 -24z" />
<glyph unicode="&#x205f;" horiz-adv-x="422" />
<glyph unicode="&#x20ac;" horiz-adv-x="1081" d="M1036 911q2 -2 9 -7t8.5 -6.5t5.5 -6t3.5 -8t-1.5 -8.5t-4 -11l-105 -182q-3 -5 -14 -1t-8 11q41 110 -21 184t-174 74q-129 0 -238.5 -109t-152.5 -278h541q12 0 -2 -25q-13 -24 -25 -24h-752q-13 0 -12.5 24.5t12.5 24.5h87q57 184 220.5 302t362.5 118 q76 0 147.5 -19.5t112.5 -52.5zM946 268q3 4 9 4.5t11 -4t3 -10.5l-60 -195q-1 -3 -2.5 -7t-2.5 -6t-2 -4.5t-2.5 -4t-3 -3.5t-4 -3t-6 -2.5t-7.5 -3.5q-159 -54 -304 -54q-86 0 -155.5 22.5t-115 59t-76.5 88t-45 105.5t-17 115h-84q-14 0 -14 24.5t14 24.5h725q14 0 1 -25 q-13 -23 -26 -24h-463q3 -154 72 -256.5t199 -102.5q224 0 356 262z" />
<glyph unicode="&#x2122;" horiz-adv-x="1486" d="M705 1124q20 131 -89 131q-44 0 -60 -15t-24 -58l-65 -379q-8 -45 7.5 -59.5t74.5 -14.5q3 0 3 -12t-3 -12q-18 0 -69.5 1t-84.5 1q-29 0 -79.5 -1t-69.5 -1q-3 0 -3 12t3 12q59 0 79.5 14.5t26.5 59.5l68 381q7 44 -4 57.5t-54 13.5q-59 0 -94 -30.5t-55 -100.5 q-2 -7 -19 -4q-6 2 -6 4q34 111 43 181q4 8 18 7q7 -3 7 -7q-1 -8 2.5 -13t13 -7t16 -2.5t19.5 -0.5q23 0 86 -1t99 -1q43 0 94.5 1t68.5 1q41 0 60.5 5t27.5 24q5 7 18 4q5 -2 5 -4q-2 -12 -18.5 -90.5t-18.5 -96.5q-5 -7 -20 -4q-3 2 -4 4zM1571 1280q3 0 3 -12.5 t-3 -12.5q-51 0 -76.5 -17t-32.5 -67l-53 -368q-5 -46 8 -60t64 -14q5 0 5 -12t-5 -12q-17 0 -64 1t-74 1q-31 0 -77.5 -1t-63.5 -1q-3 0 -3 12t3 12q61 0 81.5 14.5t23.5 59.5l53 366l-281 -454q-3 -6 -15 -6t-15 6l-142 418l-63 -302q-26 -102 49 -102q5 0 5 -12t-5 -12 q-12 0 -42.5 1t-51.5 1q-18 0 -54.5 -1t-50.5 -1q-3 0 -3 12t3 12q89 0 109 102l78 373q-30 51 -84 51q-5 0 -5 12.5t5 12.5q11 0 40 -2t35 -2q13 0 40 2t30 2q18 0 29 -12.5t24 -50.5l125 -377l250 407q7 14 20.5 23.5t24.5 9.5q1 0 24 -2t40 -2q23 0 51 2t41 2z" />
<glyph unicode="&#x25fc;" horiz-adv-x="808" d="M0 809h809v-809h-809v809z" />
</font>
</defs>
</svg>
