<?xml version="1.0" standalone="no"?>
<!DOCTYPE svg PUBLIC "-//W3C//DTD SVG 1.1//EN" "http://www.w3.org/Graphics/SVG/1.1/DTD/svg11.dtd" >
<svg xmlns="http://www.w3.org/2000/svg" xmlns:xlink="http://www.w3.org/1999/xlink" version="1.1">
<metadata></metadata>
<defs>
<font id="cormorant_garamondbold_italic" horiz-adv-x="1341" >
<font-face units-per-em="2048" ascent="1638" descent="-410" />
<missing-glyph horiz-adv-x="479" />
<glyph unicode="&#xfb01;" horiz-adv-x="985" d="M659 1444q-86 0 -153.5 -138.5t-106.5 -406.5l-18 -125q153 1 307 9t174 8q24 0 26.5 -13t-8.5 -58q-10 -50 -16 -87l-82 -451q-17 -96 27 -96q33 0 109 72q5 5 11 2.5t7.5 -8.5t-2.5 -11q-69 -82 -123 -120.5t-111 -38.5q-67 0 -87.5 49.5t-2.5 150.5l78 420q2 26 4 45 t-10.5 33t-30.5 23.5t-57 15t-90 8.5t-129 4l-115 -774q-42 -292 -116.5 -406t-215.5 -114q-90 0 -140 34t-42 83q6 39 32.5 60t61.5 21q36 0 56.5 -16t26.5 -39.5t9.5 -46.5t12 -39t28.5 -16q30 0 48 74t59 352l104 723q10 75 -6 91.5t-94 16.5q-7 0 -6.5 16.5t6.5 16.5 q68 0 97 18.5t36 69.5q60 322 188 476.5t330 154.5q107 0 169 -40t54 -101q-6 -40 -34 -63t-66 -23t-63.5 19t-38 46t-23 54t-28.5 46t-46 19z" />
<glyph unicode="&#xfb02;" horiz-adv-x="1050" d="M1061 1524l-240 -1342q-17 -96 27 -96q32 0 108 72q4 5 10.5 2.5t8.5 -8.5t-2 -11q-69 -82 -123.5 -120.5t-112.5 -38.5q-66 0 -86.5 49.5t-1.5 150.5l201 1082q-19 85 -61 132.5t-99 47.5q-107 0 -178.5 -133t-112.5 -412l-18 -121q42 1 109.5 6.5t84.5 6.5 q8 0 12.5 -8.5t2.5 -16.5q-6 -21 -28 -48t-42 -24q-5 1 -59.5 9t-87.5 12l-113 -758q-42 -292 -116.5 -406t-215.5 -114q-90 0 -140 34t-42 83q6 39 32.5 60t61.5 21q36 0 56.5 -16t26.5 -39.5t9.5 -46.5t12 -39t28.5 -16q30 0 48 74t59 352l104 723q10 75 -6 91.5t-94 16.5 q-7 0 -6.5 16.5t6.5 16.5q68 0 97 18.5t36 69.5q55 320 175 475.5t343 155.5q153 0 221 -49q69 33 80 88q2 5 8.5 5.5t12 -2t4.5 -5.5z" />
<glyph unicode="&#xfb03;" horiz-adv-x="1533" d="M1208 1444q-86 0 -153.5 -138.5t-106.5 -406.5l-18 -125q153 1 307 9t174 8q24 0 26.5 -13t-8.5 -58q-10 -50 -16 -87l-82 -451q-17 -96 27 -96q32 0 108 72q8 8 16 -1t1 -16q-69 -82 -123 -120.5t-111 -38.5q-67 0 -87.5 49.5t-2.5 150.5l78 420q2 26 4 45t-10.5 33 t-30.5 23.5t-57 15t-90 8.5t-129 4l-115 -774q-42 -292 -116.5 -406t-215.5 -114q-90 0 -140 34t-42 83q6 39 32.5 60t61.5 21q36 0 56.5 -16t26.5 -39.5t9.5 -46.5t12 -39t28.5 -16q30 0 48 74t59 352l104 723l2 14q3 36 -14.5 52t-61.5 22q-53 4 -286 8l-113 -766 q-42 -292 -116.5 -406t-215.5 -114q-90 0 -140 34t-42 83q6 39 32.5 60t61.5 21q36 0 56.5 -16t26.5 -39.5t9.5 -46.5t12 -39t28.5 -16q30 0 48 74t59 352l104 723q10 75 -6 91.5t-94 16.5q-7 0 -6.5 16.5t6.5 16.5q67 0 95 18t38 70q48 237 171.5 376.5t313.5 139.5 q122 0 244 -49q127 164 338 164q107 0 169 -40t54 -101q-6 -40 -34 -63t-66 -23t-63.5 19t-38 46t-23 54t-28.5 46t-46 19zM766 856q26 152 74 272q-34 106 -79.5 153.5t-107.5 47.5q-96 0 -157 -105t-97 -325l-18 -127q201 0 254 2q59 3 87 15t38 40z" />
<glyph unicode="&#xfb04;" horiz-adv-x="1599" d="M1610 1524l-240 -1342q-17 -96 27 -96q32 0 108 72q4 5 10.5 2.5t8.5 -8.5t-2 -11q-69 -82 -123.5 -120.5t-112.5 -38.5q-66 0 -86.5 49.5t-1.5 150.5l201 1082q-19 85 -61 132.5t-99 47.5q-107 0 -178.5 -133t-112.5 -412l-18 -121q42 1 109.5 6.5t84.5 6.5 q8 0 12.5 -8.5t2.5 -16.5q-6 -21 -28 -48t-42 -24q-5 1 -59.5 9t-87.5 12l-113 -758q-42 -292 -116.5 -406t-215.5 -114q-90 0 -140 34t-42 83q6 39 32.5 60t61.5 21q36 0 56.5 -16t26.5 -39.5t9.5 -46.5t12 -39t28.5 -16q30 0 48 74t59 352l104 723l2 14q3 36 -14.5 52 t-61.5 22q-53 4 -286 8l-113 -766q-42 -292 -116.5 -406t-215.5 -114q-90 0 -140 34t-42 83q6 39 32.5 60t61.5 21q36 0 56.5 -16t26.5 -39.5t9.5 -46.5t12 -39t28.5 -16q30 0 48 74t59 352l104 723q10 75 -6 91.5t-94 16.5q-7 0 -6.5 16.5t6.5 16.5q67 0 95 18t38 70 q48 237 171.5 376.5t313.5 139.5q121 0 234 -47q128 162 348 162q153 0 221 -49q69 33 80 88q2 5 8.5 5.5t12 -2t4.5 -5.5zM766 856q29 168 72 283q-34 100 -79.5 145t-105.5 45q-96 0 -157 -105t-97 -325l-18 -127q201 0 254 2q59 3 87 15t38 40z" />
<glyph horiz-adv-x="0" />
<glyph horiz-adv-x="682" />
<glyph horiz-adv-x="0" />
<glyph horiz-adv-x="0" />
<glyph unicode="&#xd;" horiz-adv-x="479" />
<glyph unicode=" "  horiz-adv-x="479" />
<glyph unicode="&#x09;" horiz-adv-x="479" />
<glyph unicode="&#xa0;" horiz-adv-x="479" />
<glyph unicode="!" horiz-adv-x="448" d="M231 391q-1 -7 -7 -8.5t-11 1.5t-4 9q31 462 37 879q0 8 45.5 16t89.5 8q84 0 123 -16q10 -5 8 -8q-140 -339 -281 -881zM184 -16q-54 0 -85 30.5t-31 85.5q0 51 31 81t85 30t83.5 -29.5t29.5 -81.5q0 -55 -29.5 -85.5t-83.5 -30.5z" />
<glyph unicode="&#x22;" horiz-adv-x="690" d="M174 604l43 643q1 19 64 38.5t114.5 24t55.5 -4.5l-242 -699q-1 -4 -9.5 -6t-17 -1t-8.5 5zM508 604l43 643q1 19 63.5 38.5t114 24t55.5 -4.5l-241 -699q-1 -4 -9.5 -6t-17 -1t-8.5 5z" />
<glyph unicode="#" horiz-adv-x="909" d="M870 651q4 0 5 -24t-1.5 -48t-7.5 -24h-159l-105 -311h131q5 0 6 -23.5t-1.5 -47t-6.5 -23.5h-162l-106 -320q-4 -5 -22.5 -0.5t-39.5 13.5t-20 14l98 293h-219l-106 -320q-4 -5 -22.5 -0.5t-39.5 13.5t-20 14l98 293h-125q-6 0 -6 47t6 47h156l104 311h-123q-8 0 -8 48 t8 48h156l115 346q1 3 9.5 2t21.5 -5.5t24.5 -9.5t19.5 -10.5t7 -8.5l-105 -314h217l115 346q1 3 9.5 2t21.5 -5.5t24.5 -9.5t19.5 -10.5t7 -8.5l-105 -314h131zM510 244l104 311h-217l-104 -311h217z" />
<glyph unicode="$" horiz-adv-x="827" d="M762 932q27 -16 24 -43l-34 -197q-2 -8 -11.5 -7.5t-9.5 9.5q0 16 -10.5 48.5t-30 72t-57.5 73.5t-84 44l-62 -348l39 -25q21 -13 33 -21l31.5 -21t31 -23t27.5 -24t25.5 -27t20.5 -29.5t16 -33.5t9 -36.5t3.5 -41.5t-4.5 -46q-19 -113 -113.5 -191t-224.5 -88l-33 -188 q-2 -9 -15.5 -10.5t-25.5 4t-10 14.5l31 178q-76 3 -145.5 29t-102.5 53q-15 15 -10 43l30 234q2 6 11 6.5t12 -6.5q12 -48 29.5 -93t43.5 -92.5t63 -80t79 -41.5l70 393l-50 33q-47 31 -74.5 53t-58.5 57.5t-41.5 78t-1.5 93.5q13 71 62 126t116.5 84.5t145.5 35.5l31 174 q1 9 14 10.5t25.5 -4t11.5 -14.5l-29 -164q103 -5 203 -51zM344 791q-8 -57 17 -98t79 -79l58 322q-64 -4 -103.5 -44t-50.5 -101zM543 186q20 113 -90 199l-64 -360q58 6 100.5 47t53.5 114z" />
<glyph unicode="%" horiz-adv-x="1083" d="M328 618q-96 0 -145 77t-29 190q19 109 95.5 184.5t172.5 75.5q95 0 143 -77t27 -189q-21 -110 -95.5 -185.5t-168.5 -75.5zM143 -23q-2 -3 -17 6t-28 20.5t-10 14.5l881 1115q3 5 18 -4.5t27 -22t8 -16.5zM344 659q30 0 50.5 28.5t30 69.5t17.5 107q14 118 3.5 179 t-39.5 61q-82 0 -107 -213q-13 -97 -1.5 -164.5t46.5 -67.5zM725 -12q-96 0 -145 76.5t-29 189.5q19 109 95.5 184.5t172.5 75.5q95 0 143 -76.5t27 -187.5q-20 -112 -95 -187t-169 -75zM743 29q43 0 65 53.5t34 153.5q13 118 2 178.5t-41 60.5q-82 0 -107 -215 q-14 -97 -2 -164t49 -67z" />
<glyph unicode="&#x26;" horiz-adv-x="1566" d="M1520 817q71 0 71 -80q0 -91 -77 -173.5t-173 -82.5q-48 0 -139 37q-42 -261 -192 -402t-363 -141q-102 0 -192 33.5t-152.5 90.5t-105.5 133t-52.5 161.5t7.5 175.5q35 168 167.5 275.5t303.5 107.5q103 0 172 -34q100 118 100 196q0 32 -12.5 53t-29.5 32t-34.5 21.5 t-30 31.5t-12.5 53q0 47 28.5 75.5t74.5 28.5q60 0 90 -47.5t30 -122.5q0 -44 -11 -88.5t-26 -83t-46 -83t-56 -77t-72 -78.5t-77 -74t-89 -76t-90 -72.5t-97 -75.5t-95 -74q23 -167 131 -265t252 -98q160 0 282.5 120.5t153.5 324.5q-17 8 -56.5 29.5t-61 32t-53.5 24.5 t-58.5 20t-50.5 6q-68 0 -68 -43q0 -21 26.5 -55t26.5 -57q0 -24 -17 -44t-52 -20q-31 0 -52.5 19.5t-21.5 60.5q0 92 90 173t193 81q64 0 150.5 -39.5t166.5 -79t129 -39.5q27 0 44 10.5t17 28.5q0 15 -32.5 47.5t-32.5 63.5q0 27 19.5 43t54.5 16zM342 635q-9 -68 -6 -127 q236 191 307 256q-40 127 -131 127q-68 0 -110.5 -72.5t-59.5 -183.5z" />
<glyph unicode="'" horiz-adv-x="284" d="M150 604l43 643q1 19 63.5 38.5t114 24t55.5 -4.5l-242 -699q-1 -4 -9.5 -6t-16.5 -1t-8 5z" />
<glyph unicode="(" horiz-adv-x="593" d="M418 -240q-127 73 -201 204.5t-88.5 297t16.5 361.5q51 288 205.5 520t370.5 342q6 3 10.5 -4.5t1.5 -12.5q-135 -148 -223 -353.5t-137 -491.5q-42 -248 -27.5 -453t86.5 -393q2 -5 -4 -12.5t-10 -4.5z" />
<glyph unicode=")" horiz-adv-x="593" d="M258 1485q127 -73 200.5 -204.5t88 -296.5t-16.5 -361q-51 -289 -205 -521t-370 -342q-6 -3 -10.5 4.5t-1.5 12.5q135 148 223 353.5t137 492.5q42 248 27.5 452.5t-86.5 392.5q-2 5 4 12.5t10 4.5z" />
<glyph unicode="*" horiz-adv-x="917" d="M543 1083l-76 271q-7 23 83 46q93 24 140 18q12 -2 12 -7l-137 -328q-1 -6 -10 -6t-12 6zM498 1047l-275 10q-27 0 -14 116q10 99 27 122q3 5 6 3l264 -229q3 -5 0.5 -14t-8.5 -8zM944 999l-348 31q-5 0 -7.5 10t3.5 11l225 153q16 11 53 -40.5t62 -108t12 -56.5z M426 735q-9 -27 -115 20q-87 38 -108 63q-5 6 -2 9l299 179q6 4 14 -2t6 -11zM635 645l-76 340q-3 4 4 9.5t12 2.5l218 -168q16 -12 -22.5 -63.5t-85.5 -92.5t-50 -28z" />
<glyph unicode="+" horiz-adv-x="815" d="M745 436q9 0 9 -48t-9 -48h-290v-289q0 -6 -24.5 -8.5t-48.5 -1t-24 5.5v293h-288q-6 0 -8 24t-0.5 48t6.5 24h290v289q0 9 48.5 9t48.5 -9v-289h290z" />
<glyph unicode="," horiz-adv-x="479" d="M168 213q77 0 112 -60.5t11 -162.5q-23 -96 -89.5 -192t-166.5 -167q-5 -4 -10.5 0t-7 9.5t2.5 9.5q114 123 146 258q11 47 8 78q-8 -2 -22 -2q-60 0 -88.5 43t-18.5 92q8 41 39 67.5t84 26.5z" />
<glyph unicode="-" horiz-adv-x="624" d="M70 336q-6 -1 -10 25.5t-4 50t3 28.5l510 97q6 1 10.5 -25t4.5 -52.5t-6 -27.5z" />
<glyph unicode="." horiz-adv-x="423" d="M160 -16q-54 0 -85.5 30.5t-31.5 85.5q0 51 31.5 81t85.5 30q53 0 82.5 -29.5t29.5 -81.5q0 -56 -29 -86t-83 -30z" />
<glyph unicode="/" horiz-adv-x="624" d="M-18 -348q-3 -4 -12.5 -3t-23 5.5t-25.5 10t-19.5 11.5t-5.5 9l786 1820q7 6 27 1.5t40.5 -16.5t16.5 -20z" />
<glyph unicode="0" horiz-adv-x="917" d="M385 -27q-172 0 -266.5 120.5t-59.5 307.5q34 182 170 299t310 117q172 0 263 -117t56 -305q-36 -187 -169.5 -304.5t-303.5 -117.5zM420 14q88 0 147 99t82 258q27 188 -13 296.5t-128 108.5q-84 0 -151 -97t-91 -261q-13 -111 -4 -200.5t50.5 -146.5t107.5 -57z" />
<glyph unicode="1" horiz-adv-x="595" d="M10 0q-9 0 -9 12.5t9 12.5q101 0 135.5 26t51.5 115l71 393q7 34 7 56.5t-13.5 31.5t-51.5 -1t-106 -42q-9 -5 -13 10q-2 11 3 17l381 186q5 3 10 -0.5t4 -9.5l-116 -641q-15 -90 10.5 -115.5t130.5 -25.5q8 0 8 -12.5t-8 -12.5q-31 0 -115.5 2t-134.5 2q-51 0 -136.5 -2 t-117.5 -2z" />
<glyph unicode="2" horiz-adv-x="763" d="M2 33q117 104 178.5 160.5t124.5 119t92 101.5t49.5 79t28.5 82q13 73 -12.5 126t-89.5 53q-63 0 -115 -60.5t-113 -181.5q-3 -5 -14 -1t-8 11l121 320q5 7 16 2t8 -15q-22 -57 8 -57q12 0 80.5 22.5t126.5 22.5q104 0 153.5 -57t31.5 -148q-10 -55 -44.5 -104.5t-85 -91 t-102.5 -78t-114.5 -83t-104.5 -87.5q-6 -4 0 -4q217 0 316 20.5t129 94.5q2 2 7 2.5t10 -3t3 -8.5l-86 -256q-3 -14 -14 -14h-566q-9 0 -14 11t0 22z" />
<glyph unicode="3" horiz-adv-x="724" d="M647 573q-18 -97 -87.5 -180t-172.5 -125q125 -25 175 -110.5t30 -194.5q-25 -145 -195 -290t-467 -238q-5 -2 -10.5 9t0.5 15q92 37 168.5 87.5t127.5 102t89 108.5t57.5 106.5t28.5 97.5q22 115 -22 184.5t-138 69.5q-32 0 -75 -16q-7 -2 -12.5 5t-5 14.5t6.5 10.5 q136 36 211.5 115t98.5 217q39 199 -70 199q-77 0 -150.5 -60.5t-134.5 -171.5q-5 -8 -16 -3t-8 14l119 288q3 3 8.5 3t10 -4t1.5 -9q-16 -45 21 -45q15 0 88 22.5t129 22.5q75 0 123.5 -36t64.5 -90t6 -118z" />
<glyph unicode="4" horiz-adv-x="886" d="M752 137q4 -5 2.5 -33t-7.5 -61t-12 -33l-121 6l-59 -340q-3 -22 -18 -28l-152 -33q-11 -6 -14 -3.5t-2 15.5l69 396q-123 2 -450 2q-8 0 -11 7.5t5 14.5l747 782q5 5 16.5 1.5t8.5 -11.5l-119 -686q35 0 117 4zM137 127q226 0 320 2l75 436l-403 -424q-14 -14 8 -14z " />
<glyph unicode="5" horiz-adv-x="765" d="M729 866q3 3 8.5 3t10 -3.5t2.5 -7.5l-74 -199q-8 -17 -17 -25t-17.5 -9.5t-25.5 -1.5l-364 -11q-24 0 -35 -28l-57 -183q135 -2 231 -31.5t147.5 -82t68.5 -119.5t1 -150q-32 -169 -185 -302.5t-470 -278.5q-8 -3 -12.5 7.5t2.5 14.5q224 124 328.5 251t127.5 274 q27 163 -47.5 260.5t-240.5 97.5q-9 0 -12.5 8t-0.5 17l123 364q3 14 7.5 18t21.5 5q333 41 396 56t83 56z" />
<glyph unicode="6" horiz-adv-x="870" d="M401 -27q-191 0 -277.5 118t-47.5 335q26 139 99 279.5t180.5 264t253.5 225t309 159.5q8 2 10.5 -10t-4.5 -15q-133 -66 -247 -166.5t-194 -215.5t-132.5 -239t-71.5 -245q-31 -191 19 -315.5t165 -124.5q120 0 153 215q16 120 -13.5 195t-110.5 75q-47 0 -109 -39 q-4 -4 -11.5 2.5t-4.5 11.5q92 95 223 95q59 0 104.5 -17.5t71 -46t41.5 -66t16 -77.5t-6 -80q-28 -136 -146.5 -227t-269.5 -91z" />
<glyph unicode="7" horiz-adv-x="802" d="M-29 -563q-3 -2 -8 4t-2 10l713 1170q8 14 -6 14q-135 0 -214 -1t-147 -7.5t-98.5 -13.5t-58 -26.5t-38 -37.5t-26.5 -55q-1 -5 -8 -5t-13 3.5t-4 7.5l136 350q2 4 7.5 3.5t11.5 -3.5t5 -6q-13 -35 0.5 -44t75.5 -9h489q8 0 11.5 -9.5t-0.5 -17.5l-598 -1215 q-18 -34 -47 -49z" />
<glyph unicode="8" horiz-adv-x="901" d="M623 713q106 -74 145 -113q108 -110 81 -265q0 -2 -1 -5q-22 -109 -93 -192t-165 -124t-195 -41q-182 0 -277.5 98.5t-72.5 233.5q19 116 121.5 220t230.5 163q-76 54 -111.5 109t-21.5 137q14 77 67.5 133.5t122 82.5t140.5 26q69 0 122 -23.5t81 -60t40.5 -76 t6.5 -74.5q-19 -122 -221 -229zM438 989q-8 -83 32.5 -140.5t121.5 -113.5q71 85 82 183q9 84 -23 150.5t-88 66.5q-47 0 -83 -42.5t-42 -103.5zM655 270q5 33 6 62.5t-5 56t-11 48.5t-20 44.5t-24 37.5t-30.5 35t-32 30.5t-36.5 29.5t-36 26t-38 26q-150 -104 -178 -308 q-13 -85 5 -160.5t69.5 -125t128.5 -49.5q73 0 130 67.5t72 179.5z" />
<glyph unicode="9" horiz-adv-x="872" d="M-43 -563q-7 -1 -10.5 10t2.5 14q132 66 248 171t196.5 223.5t132.5 240t70 232.5q16 83 9 161.5t-28 140t-63.5 99t-99.5 37.5q-127 0 -154 -188q-15 -121 22 -207t113 -86q42 0 101 41q4 3 9.5 2t8.5 -6t0 -9q-84 -100 -213 -100q-57 0 -103.5 20t-75 52t-48 73 t-21.5 83.5t4 82.5q25 125 146.5 209t273.5 84q177 0 266 -119.5t52 -332.5q-31 -185 -144 -368t-295.5 -333t-398.5 -227z" />
<glyph unicode=":" horiz-adv-x="423" d="M236 559q-54 0 -85.5 31t-31.5 86q0 51 31.5 80.5t85.5 29.5t83 -29t29 -81q0 -56 -29 -86.5t-83 -30.5zM160 -16q-54 0 -85.5 30.5t-31.5 85.5q0 51 31.5 81t85.5 30q53 0 82.5 -29.5t29.5 -81.5q0 -56 -29 -86t-83 -30z" />
<glyph unicode=";" horiz-adv-x="454" d="M236 786q54 0 83 -29t29 -81q0 -56 -29 -86.5t-83 -30.5t-85.5 31t-31.5 86q0 51 31.5 80.5t85.5 29.5zM168 213q77 0 112 -60.5t11 -162.5q-23 -96 -89.5 -192t-166.5 -167q-5 -4 -10.5 0t-7 9.5t2.5 9.5q114 123 146 258q11 47 8 78q-8 -2 -22 -2q-60 0 -88.5 43 t-18.5 92q8 41 39 67.5t84 26.5z" />
<glyph unicode="&#x3c;" horiz-adv-x="833" d="M756 152q15 -8 13 -63q-2 -41 -13 -38l-684 303q-10 6 -10 36t10 34l684 301q8 4 11 -16q8 -40 -4 -71q-3 -9 -7 -11l-557 -238z" />
<glyph unicode="=" horiz-adv-x="958" d="M70 483q-6 0 -8 24.5t-0.5 48.5t6.5 24h821q9 0 9 -48.5t-9 -48.5h-819zM70 197q-6 0 -8 24t-0.5 48t6.5 24h821q9 0 9 -48t-9 -48h-819z" />
<glyph unicode="&#x3e;" horiz-adv-x="833" d="M760 422q10 -6 10 -36t-10 -34l-684 -301q-8 -4 -11 15q-8 40 3 72q4 10 8 12l557 237l-557 238q-15 8 -13 62q2 41 13 38z" />
<glyph unicode="?" horiz-adv-x="604" d="M283 381q-42 54 -64 126t-16 118q9 55 40.5 100t70.5 77.5t78.5 66t71 82t40.5 108.5q4 44 1 84t-22 68t-51 28q-55 0 -63 -82q-11 -125 -111 -125q-54 0 -77 33t-13 78q13 66 95.5 101.5t185.5 35.5q132 0 202 -63t49 -183q-11 -57 -45.5 -110t-59 -76t-83.5 -72 q-11 -10 -16 -14q-95 -72 -135.5 -126.5t-51.5 -125.5q-7 -58 4 -117q1 -6 -6 -11t-14 -5t-10 4zM250 -16q-54 0 -85.5 30.5t-31.5 85.5q0 51 31.5 81t85.5 30q53 0 82.5 -29.5t29.5 -81.5q0 -56 -29 -86t-83 -30z" />
<glyph unicode="@" horiz-adv-x="1492" d="M950 115q-84 0 -115 48t-8 138l4 16q-70 -95 -149 -150.5t-147 -55.5q-60 0 -94.5 43.5t-20.5 138.5q16 110 87 214t165 167t178 63q70 0 102 -49q61 22 70 64q3 3 12 3t17 -1.5t8 -3.5l-84 -459q-11 -61 4.5 -92t67.5 -31q35 0 72 20t71 57t56 99.5t22 138.5 q0 102 -39 194t-106 159.5t-162 107t-203 39.5q-117 0 -214 -46t-159.5 -124.5t-96.5 -181.5t-34 -219q0 -255 153 -406t410 -151q96 0 176.5 23t165.5 81q4 2 8 -1.5t5 -8t-1 -6.5q-107 -91 -211 -125.5t-217 -34.5q-174 0 -312 66t-221 198.5t-83 310.5q0 146 58 273.5 t154.5 213.5t224 135.5t265.5 49.5q123 0 228 -39.5t175 -106t109 -153.5t39 -182q0 -180 -125 -307t-305 -127zM637 242q38 0 89 47.5t93.5 123.5t57.5 150q8 55 -5 91.5t-45 35.5q-73 -3 -136.5 -90.5t-88.5 -202.5q-17 -53 -10 -104t45 -51z" />
<glyph unicode="A" horiz-adv-x="1239" d="M1174 25q8 0 8 -12.5t-8 -12.5q-34 0 -108.5 4t-119.5 4t-114 -4t-103 -4q-7 0 -7 12.5t7 12.5q78 0 101.5 31t5.5 116l-60 297h-397l-113 -205q-70 -128 -45.5 -183.5t150.5 -55.5q5 0 6.5 -6.5t-0.5 -12.5t-8 -6q-28 0 -115.5 4t-134.5 4q-41 0 -98 -4t-91 -4 q-8 0 -8 12.5t8 12.5q58 0 135.5 65.5t145.5 188.5l571 1019q5 7 20 5.5t17 -7.5l223 -1124q9 -50 14.5 -72t19.5 -42.5t36.5 -26.5t61.5 -6zM410 526h354l-94 471z" />
<glyph unicode="B" horiz-adv-x="1148" d="M764 717q165 -25 247 -123t54 -236q-32 -157 -184.5 -261.5t-348.5 -104.5q-34 0 -128.5 6t-135.5 6q-48 0 -128.5 -2t-108.5 -2q-4 0 -3.5 12.5t3.5 12.5q80 0 113.5 30t50.5 117l167 948q13 87 -7.5 111t-98.5 24q-7 0 -5.5 12.5t5.5 12.5q30 0 107 -3t122 -3 q36 0 113.5 6t118.5 6q193 0 285.5 -71.5t66.5 -202.5q-21 -95 -98.5 -172t-206.5 -123zM686 1245q-56 0 -83.5 -32.5t-39.5 -110.5l-67 -381q43 -2 71 -2q114 0 194.5 84t108.5 213q26 113 -23 171t-161 58zM846 334q34 153 -29.5 241.5t-232.5 88.5q-47 0 -101 -5 l-88 -501q-13 -69 6 -95t99 -26q148 0 232 75.5t114 221.5z" />
<glyph unicode="C" horiz-adv-x="1204" d="M655 -25q-101 0 -185 21t-142.5 57.5t-102.5 87.5t-68.5 109.5t-36.5 125t-10.5 132.5t13.5 133q28 154 104 281t181.5 209t230.5 127t254 45q82 0 169.5 -17.5t135.5 -42.5q13 -7 15.5 -15.5t0.5 -31.5l-32 -274q0 -6 -11 -6t-12 6q-36 154 -127 239.5t-223 85.5 q-178 0 -300 -143t-157 -395q-26 -186 3 -344t111 -253.5t202 -95.5q203 0 434 312q4 5 9.5 4.5t9.5 -4t3 -6.5l-55 -236q-6 -26 -12.5 -34.5t-24.5 -12.5q-187 -64 -377 -64z" />
<glyph unicode="D" horiz-adv-x="1302" d="M514 -8q-31 0 -123.5 6t-136.5 6q-49 0 -124.5 -2t-102.5 -2q-6 0 -6 12.5t6 12.5q82 0 109 25.5t44 115.5l168 948q15 88 -4.5 114.5t-97.5 26.5q-4 0 -4 12.5t4 12.5q28 0 105.5 -3t125.5 -3q38 0 119 5t119 5q195 0 333.5 -78.5t197.5 -220.5t26 -323 q-35 -196 -153 -351.5t-277.5 -237t-327.5 -81.5zM506 33q197 0 341 154t193 429q13 75 14.5 147.5t-8 144t-36 131.5t-67 106t-104 72t-143.5 26q-74 0 -104 -30t-43 -103l-164 -922q-14 -84 10.5 -119.5t110.5 -35.5z" />
<glyph unicode="E" horiz-adv-x="1087" d="M1063 1280q15 0 12 -18l-43 -275q-2 -7 -13 -5t-11 7q-7 114 -79.5 181t-185.5 67h-36q-84 0 -108 -22t-38 -103l-74 -418h232q93 0 143.5 36t69.5 120q1 6 7.5 7.5t12 -1t4.5 -8.5q-8 -52 -20 -112.5t-14 -69.5q-6 -32 -16 -100.5t-17 -110.5q-1 -6 -7.5 -7t-12.5 1.5 t-5 7.5q15 88 -27.5 134t-131.5 46h-228l-82 -463q-13 -82 5.5 -106.5t93.5 -24.5h53q120 0 234.5 77t189.5 206q4 8 18 2q4 -3 4 -6q-32 -103 -69 -291q-3 -18 -9.5 -24.5t-23.5 -6.5h-850q-6 0 -6 12.5t6 12.5q82 0 108 25t44 116l165 948q17 87 -2.5 114t-97.5 27 q-4 0 -4 12.5t4 12.5h805z" />
<glyph unicode="F" horiz-adv-x="993" d="M1057 1280q15 0 12 -18q-4 -30 -21 -135.5t-22 -139.5q-3 -7 -14 -5t-11 7q-9 114 -80.5 181t-185.5 67h-35q-60 0 -87 -11t-38 -33.5t-22 -80.5l-78 -442h189q93 0 143.5 36.5t69.5 120.5q0 2 2 3.5t4 2t5 1t5.5 -0.5t4 -2t2.5 -3.5t1 -4.5q-8 -51 -20 -109.5t-15 -72.5 q-25 -170 -32 -209q-1 -6 -7.5 -7.5t-12.5 1t-5 8.5q15 86 -28 132t-132 46h-184l-78 -438q-15 -92 18 -120.5t154 -28.5q5 0 5 -12.5t-5 -12.5q-12 0 -112.5 2t-192.5 2q-45 0 -121 -2t-102 -2q-5 0 -5 12.5t5 12.5q83 0 110.5 25.5t42.5 115.5l168 948q15 88 -4 114.5 t-96 26.5q-6 0 -6 12.5t6 12.5h805z" />
<glyph unicode="G" horiz-adv-x="1296" d="M676 -25q-105 0 -193.5 23.5t-154 67t-114 105t-72.5 136.5t-30 162.5t13 183.5q34 188 149.5 337t283.5 231t357 82q87 0 175.5 -17.5t136.5 -42.5q13 -7 15.5 -15.5t0.5 -31.5l-33 -274q-3 -6 -11.5 -6t-10.5 6q-36 156 -127.5 242.5t-231.5 86.5q-183 0 -309.5 -140.5 t-163.5 -381.5q-31 -213 6.5 -374.5t136 -249t244.5 -87.5q100 0 145 51t62 189q7 53 9.5 85t-2.5 59t-15.5 40t-35 22t-54.5 11t-80 2q-10 0 -9.5 16.5t9.5 16.5q220 -16 453 -4q7 0 8 -14.5t-8 -14.5q-38 1 -48.5 -32.5t-35.5 -206.5q-8 -58 -12 -97.5t-5 -55t-4 -28.5 q-1 -11 -5 -15t-17 -9q-244 -58 -422 -58z" />
<glyph unicode="H" horiz-adv-x="1382" d="M1438 1280q4 0 4 -12.5t-4 -12.5q-80 0 -107 -26.5t-45 -114.5l-168 -948q-15 -88 5 -114.5t98 -26.5q6 0 6 -12.5t-6 -12.5q-21 0 -99 2t-125 2t-125 -2t-106 -2q-4 0 -4 12.5t4 12.5q58 0 85.5 11.5t41 38.5t25.5 91l81 471h-534l-84 -471q-17 -88 2 -114.5t98 -26.5 q6 0 6 -12.5t-6 -12.5q-27 0 -104.5 2t-126.5 2q-45 0 -121 -2t-102 -2q-6 0 -6 12.5t6 12.5q82 0 109 25.5t44 115.5l168 948q15 86 -4.5 113.5t-97.5 27.5q-4 0 -4 12.5t4 12.5q27 0 102 -3t121 -3t125 3t106 3q4 0 4 -12.5t-4 -12.5q-43 0 -68 -6t-41.5 -24t-25 -43 t-16.5 -72l-74 -416h535l73 416q14 88 -4.5 116.5t-93.5 28.5q-6 0 -6 12.5t6 12.5q26 0 102.5 -3t122.5 -3q45 0 123.5 3t104.5 3z" />
<glyph unicode="I" horiz-adv-x="688" d="M51 0q-6 0 -6 12.5t6 12.5q81 0 108 25.5t42 115.5l168 948q17 86 -4 113.5t-99 27.5q-6 0 -6 12.5t6 12.5q27 0 103.5 -3t122.5 -3q53 0 129.5 3t101.5 3q6 0 6 -12.5t-6 -12.5q-81 0 -108 -27.5t-42 -117.5l-167 -944q-17 -89 2.5 -115t99.5 -26q4 0 4 -12.5t-4 -12.5 q-27 0 -103 2t-126 2q-46 0 -123.5 -2t-104.5 -2z" />
<glyph unicode="J" horiz-adv-x="649" d="M-51 -395q-5 -2 -10.5 8t0.5 14q91 55 145 166t86 289l182 1032q15 87 -5 114t-97 27q-6 0 -6 12.5t6 12.5q27 0 102.5 -3t122.5 -3q51 0 129 3t103 3q6 0 6 -12.5t-6 -12.5q-81 0 -107.5 -27t-44.5 -118l-172 -973q-21 -121 -54.5 -205.5t-88 -146t-122 -102 t-169.5 -78.5z" />
<glyph unicode="K" horiz-adv-x="1280" d="M1348 1280q6 0 6 -12.5t-6 -12.5q-82 0 -190.5 -52t-207.5 -142l-248 -230l193 -389q54 -107 83 -163t60.5 -111.5t47.5 -77t38.5 -40t39 -22t42.5 -3.5q6 0 6 -12.5t-6 -12.5h-192h-1h-1h-1h-1h-1h-1h-2q-98 0 -122 10q-26 10 -46 54q-6 14 -21 52q-46 116 -94 212 l-178 358l-86 -80l-78 -440q-21 -89 -6 -115t106 -26q6 0 6 -12.5t-6 -12.5q-31 0 -103.5 2t-127.5 2q-45 0 -121 -2t-102 -2q-6 0 -6 12.5t6 12.5q82 0 109 25.5t44 115.5l168 948q15 88 -4.5 114.5t-97.5 26.5q-4 0 -4 12.5t4 12.5q27 0 102 -3t121 -3t125 3t106 3 q4 0 4 -12.5t-4 -12.5q-81 0 -108.5 -27.5t-42.5 -117.5l-78 -438l428 401q46 43 60.5 85.5t-6 69.5t-72.5 27q-5 0 -5 12.5t5 12.5q23 0 119 -3t147 -3q55 0 117.5 3t83.5 3z" />
<glyph unicode="L" horiz-adv-x="1034" d="M29 0q-5 0 -5 12.5t5 12.5q82 0 107.5 25t43.5 116l168 948q15 88 -4.5 114.5t-97.5 26.5q-4 0 -4 12.5t4 12.5q27 0 102 -3t121 -3t125 3t106 3q4 0 4 -12.5t-4 -12.5q-82 0 -109 -26.5t-42 -116.5l-166 -938q-13 -81 1.5 -106t72.5 -25h53q151 0 266 74.5t207 232.5 q2 3 8 3t11 -2.5t4 -6.5q-52 -189 -72 -313q-5 -31 -33 -31h-872z" />
<glyph unicode="M" horiz-adv-x="1519" d="M1577 1280q3 0 3 -12.5t-3 -12.5q-66 0 -97 -27.5t-42 -109.5l-142 -952q-12 -89 7 -115t96 -26q6 0 6 -12.5t-6 -12.5q-26 0 -103 2t-125 2q-47 0 -123.5 -2t-103.5 -2q-6 0 -6 12.5t6 12.5q84 0 111 25.5t41 115.5l145 975l-555 -1127q-4 -8 -16 -7.5t-15 9.5 l-225 1076l-149 -826q-20 -113 8 -177t98 -64q6 0 6 -12.5t-6 -12.5q-21 0 -82.5 2t-101.5 2q-33 0 -92 -2t-84 -2q-6 0 -6 12.5t6 12.5q69 0 122.5 63.5t73.5 171.5l172 924q-45 71 -145 71q-6 0 -6 12.5t6 12.5q14 0 57.5 -2t73.5 -2q44 0 103 2t69 2q24 0 36 -20.5 t27 -85.5l179 -846l438 901q23 51 76 51q10 0 59 -2t74 -2q32 0 74.5 2t60.5 2z" />
<glyph unicode="N" d="M1454 1280q4 0 4 -12.5t-4 -12.5q-77 0 -133.5 -57.5t-75.5 -155.5l-188 -1056q0 -11 -27 -14.5t-33 10.5l-589 1077l-148 -821q-17 -99 19.5 -156t115.5 -57q5 0 5 -12.5t-5 -12.5q-25 0 -89.5 2t-108.5 2q-38 0 -105.5 -2t-95.5 -2q-6 0 -6 12.5t6 12.5q77 0 133.5 57 t73.5 156l162 897q-39 67 -76 93.5t-80 26.5q-6 0 -6 12.5t6 12.5q28 0 91.5 -2t86.5 -2q26 0 78 2t55 2q14 0 20 -8t18.5 -38.5t29.5 -59.5l469 -855l131 723q19 98 -17 155.5t-116 57.5q-6 0 -6 12.5t6 12.5q20 0 86.5 -3t111.5 -3q38 0 105.5 3t95.5 3z" />
<glyph unicode="O" d="M575 -25q-102 0 -186.5 34t-141.5 94.5t-93.5 144t-42.5 182.5t12 211q50 286 253.5 474t465.5 188q129 0 229.5 -51.5t158.5 -140.5t80.5 -210t-5.5 -260q-27 -151 -99.5 -278t-171.5 -211t-218 -130.5t-241 -46.5zM664 29q147 0 257 136t150 367q26 141 14.5 271 t-48.5 230t-109 160t-166 60q-147 0 -257.5 -135.5t-150.5 -367.5q-16 -111 -16.5 -215.5t23.5 -196.5t63 -160.5t101 -108.5t139 -40z" />
<glyph unicode="P" horiz-adv-x="1089" d="M31 0q-5 0 -5 12.5t5 12.5q83 0 110.5 25.5t42.5 115.5l168 948q15 89 -4 115t-96 26q-6 0 -6 12.5t6 12.5q26 0 100.5 -3t122.5 -3q23 0 112 6t134 6q199 0 306 -92t75 -266q-18 -98 -74 -176.5t-130 -123.5t-151.5 -68t-150.5 -23q-50 0 -84 10q-2 2 -1.5 11.5t4.5 20 t9 9.5q24 -8 60 -8q51 0 97 18t86 54t69 96t41 139q26 162 -34.5 259t-160.5 97q-65 0 -89.5 -25t-41.5 -108l-166 -944q-15 -89 4 -115t96 -26q6 0 6 -12.5t-6 -12.5q-27 0 -104.5 2t-126.5 2q-45 0 -121 -2t-102 -2z" />
<glyph unicode="Q" d="M1427 -356q4 1 7.5 -4.5t4 -11t-2.5 -7.5q-91 -31 -152 -31q-151 0 -292 105.5t-247 302.5q-90 -23 -170 -23q-102 0 -186.5 34t-141.5 94.5t-93.5 144t-42.5 182.5t12 211q50 286 253.5 474t465.5 188q129 0 229.5 -51.5t158.5 -140.5t80.5 -210t-5.5 -260 q-33 -184 -130.5 -328t-236.5 -231q68 -185 201.5 -316t222.5 -131q35 0 65 9zM354 750q-16 -111 -16.5 -215.5t23.5 -196.5t63 -160.5t101 -108.5t139 -40q147 0 257 136t150 367q26 141 14.5 271t-48.5 230t-109 160t-166 60q-147 0 -257.5 -135.5t-150.5 -367.5z" />
<glyph unicode="R" horiz-adv-x="1300" d="M1251 25q6 0 6 -12.5t-6 -12.5h-309q-21 0 -51.5 36t-70 108t-88.5 198.5t-99 290.5q-65 -10 -121 -10h-23l-81 -457q-15 -88 3.5 -114.5t100.5 -26.5q5 0 7 -6.5t0.5 -12.5t-5.5 -6q-30 0 -108 2t-127 2q-48 0 -130 -2t-110 -2q-7 0 -7 12.5t7 12.5q88 0 119.5 27 t48.5 114l166 948q17 88 -3 114.5t-104 26.5q-8 0 -8 12.5t8 12.5q28 0 107.5 -3t126.5 -3q32 0 112 6t107 6q203 0 289 -71t61 -209q-18 -106 -89 -188.5t-177 -131.5q141 -367 242 -514t206 -147zM500 684q27 -6 53 -6q135 0 205.5 66t93.5 217q26 146 -19.5 214 t-132.5 68q-26 0 -39 -0.5t-28 -5.5t-21 -12t-14 -23.5t-12.5 -37t-10.5 -54.5z" />
<glyph unicode="S" horiz-adv-x="962" d="M393 -25q-164 0 -313 70q-20 14 -12 39l65 289q0 9 11.5 9t13.5 -9q75 -348 291 -348q89 0 148.5 56.5t72.5 154.5q8 50 -1 96t-27 81t-51.5 72.5t-62.5 62t-73 58.5q-29 22 -43.5 33.5t-40.5 33t-39.5 35.5t-34 36.5t-30.5 40.5t-21.5 42.5t-15.5 48t-4.5 51.5t5.5 58 q22 103 93 177t164.5 107.5t199.5 33.5q119 0 242 -50q28 -14 22 -34l-30 -267q-2 -6 -12 -6t-11 6q-32 142 -103.5 225t-162.5 83q-59 0 -103 -29.5t-65 -69t-29 -84.5q-4 -23 -4.5 -44t3 -40.5t8.5 -36.5t15.5 -34.5t19 -31t24.5 -30t27 -27.5t31 -27.5t32 -26.5t34 -27 q4 -3 6.5 -5t6 -5t6.5 -5q66 -52 101.5 -84t80 -85.5t59.5 -112.5t3 -127q-29 -155 -158.5 -254t-337.5 -99z" />
<glyph unicode="T" horiz-adv-x="1132" d="M231 0q-5 0 -5 12.5t5 12.5q110 0 147 26t54 115l166 948q13 72 0.5 95.5t-63.5 23.5h-25q-99 0 -199.5 -95t-138.5 -225q-2 -8 -16 -3q-7 4 -6 8q18 58 50.5 195.5t45.5 211.5q2 4 8.5 5t11.5 -1t4 -6q-2 -14 5 -23.5t21.5 -13.5t26 -5t27.5 -1q150 -6 375 -6 q91 0 207 3t153 3q61 0 92 10t44 41q2 4 8 5t10.5 -1.5t3.5 -7.5q-19 -66 -50.5 -211.5t-37.5 -197.5q-1 -5 -7.5 -6.5t-12.5 1t-5 7.5q23 128 -37.5 220.5t-168.5 92.5h-23q-53 0 -70 -23.5t-30 -99.5l-166 -944q-7 -38 -7.5 -60.5t6 -40t26.5 -25.5t49 -11.5t77 -3.5 q4 0 4 -12.5t-4 -12.5q-33 0 -125 2t-153 2q-54 0 -148 -2t-129 -2z" />
<glyph unicode="U" horiz-adv-x="1269" d="M1145 1026q19 108 -16 168.5t-113 60.5q-6 0 -5 12.5t5 12.5q29 0 95 -3t106 -3q36 0 99 3t85 3q7 0 6 -12.5t-6 -12.5q-73 0 -125.5 -66.5t-71.5 -176.5l-108 -619q-35 -194 -180.5 -308t-348.5 -114q-210 0 -320 119.5t-75 321.5l127 708q15 88 -4 111.5t-100 23.5 q-5 0 -6 6.5t0.5 12.5t3.5 6q31 0 108 -3t123 -3q53 0 133 3t105 3q4 0 3.5 -12.5t-3.5 -12.5q-84 0 -115.5 -31.5t-46.5 -121.5l-113 -633q-37 -217 31 -319.5t223 -102.5q156 0 260.5 95.5t132.5 263.5z" />
<glyph unicode="V" horiz-adv-x="1226" d="M1382 1280q8 0 8 -12.5t-8 -12.5q-27 0 -48 -4t-47 -17t-49.5 -36.5t-52 -64t-57.5 -97.5l-538 -1034q-6 -10 -29.5 -9t-25.5 9l-269 1108q-21 81 -47.5 113t-77.5 32q-6 0 -6 12.5t6 12.5q30 0 97.5 -3t97.5 -3q64 0 145.5 3t108.5 3q6 0 6 -12.5t-6 -12.5 q-69 0 -100 -28t-13 -97l203 -843l383 755q49 101 17.5 157t-122.5 56q-6 0 -6 12.5t6 12.5q32 0 107.5 -3t136.5 -3q37 0 91 3t89 3z" />
<glyph unicode="W" horiz-adv-x="1705" d="M1862 1280q6 0 6 -12.5t-6 -12.5q-27 0 -48 -4t-47 -17t-49.5 -36.5t-52 -64t-57.5 -97.5l-539 -1034q-6 -10 -29.5 -9t-25.5 9l-135 557l-289 -557q-6 -10 -29.5 -9t-25.5 9l-269 1108q-21 81 -47.5 113t-77.5 32q-6 0 -6 12.5t6 12.5q30 0 97.5 -3t97.5 -3q51 0 118 3 t87 3q7 0 7 -12.5t-7 -12.5q-42 0 -65 -29.5t-7 -95.5l207 -851l184 360l-115 471q-21 84 -41 114.5t-59 30.5q-6 0 -6 12.5t6 12.5q25 0 84 -3t86 -3q40 0 90.5 3t67.5 3q7 0 7 -12.5t-7 -12.5q-34 0 -39 -20t14 -105l64 -262l88 174q56 109 53.5 161t-63.5 52 q-4 0 -4 12.5t4 12.5q19 0 65 -3t84 -3q31 0 75 3t72 3q8 0 8 -12.5t-8 -12.5q-29 0 -50.5 -7.5t-48.5 -29.5t-56.5 -66.5t-67.5 -115.5l-131 -254l121 -506l389 766q45 88 28 150.5t-91 62.5q-6 0 -6 12.5t6 12.5q26 0 88.5 -3t113.5 -3q37 0 92 3t89 3z" />
<glyph unicode="X" horiz-adv-x="1187" d="M1284 1280q9 0 9 -12.5t-9 -12.5q-65 0 -149.5 -56.5t-173.5 -170.5l-240 -305l211 -553q31 -79 68.5 -112t101.5 -33q8 0 8 -12.5t-8 -12.5q-25 0 -89.5 2t-103.5 2q-49 0 -145.5 -2t-122.5 -2q-7 0 -6.5 12.5t6.5 12.5q26 0 50.5 7.5t39.5 26.5t4 45l-170 449 l-266 -342q-40 -51 -52.5 -88.5t1 -58t41 -30t69.5 -9.5q8 0 8 -12.5t-8 -12.5q-26 0 -120.5 2t-143.5 2q-28 0 -81.5 -2t-78.5 -2q-8 0 -8 12.5t8 12.5q66 0 149.5 56t174.5 171l285 358l-191 500q-30 78 -63.5 111.5t-85.5 33.5q-6 0 -6 12.5t6 12.5q25 0 76.5 -3t74.5 -3 q54 0 145 3t117 3q6 0 6 -12.5t-6 -12.5q-37 0 -60 -21.5t-7 -59.5l149 -392l222 287q40 51 53 88t-0.5 58t-41.5 30.5t-71 9.5q-8 0 -8 12.5t8 12.5q25 0 120.5 -3t145.5 -3q28 0 80.5 3t77.5 3z" />
<glyph unicode="Y" horiz-adv-x="1095" d="M1239 1280q6 0 6 -12.5t-6 -12.5q-130 0 -278 -223l-259 -391l-84 -475q-17 -90 5 -115.5t120 -25.5q6 0 6 -12.5t-6 -12.5q-30 0 -113 2t-136 2q-54 0 -139 -2t-115 -2q-8 0 -8 12.5t8 12.5q97 0 130 26t48 115l76 450l-209 494q-32 75 -66.5 110t-75.5 35q-7 0 -7 12.5 t7 12.5q29 0 98 -3t101 -3q42 0 128 3t108 3q8 0 8 -12.5t-8 -12.5q-70 0 -90.5 -17t-2.5 -64l197 -472l240 375q48 72 29.5 125t-91.5 53q-8 0 -8 12.5t8 12.5q27 0 111 -3t131 -3q29 0 70.5 3t66.5 3z" />
<glyph unicode="Z" horiz-adv-x="1140" d="M971 -4q-291 4 -959 4q-9 0 -11 10t3 17l957 1202q9 11 8 13.5t-13 2.5q-171 0 -275 -11t-189 -45t-141.5 -88t-121.5 -149q-4 -3 -9.5 -3t-9.5 3.5t-1 8.5l149 380q3 3 9.5 2.5t12 -3.5t3.5 -7q-10 -35 5.5 -44t86.5 -9h725q9 0 12 -10.5t-2 -16.5l-946 -1198 q-9 -11 -8 -13.5t12 -2.5h209q209 0 337 60.5t230 215.5q3 5 9.5 6t11.5 -2t4 -8l-80 -295q0 -6 -6 -13t-12 -7z" />
<glyph unicode="[" horiz-adv-x="518" d="M29 -240q-11 0 -13.5 4t0.5 19l297 1681q1 13 5.5 17t15.5 4h317q7 0 7 -12.5t-7 -12.5q-96 0 -129 -27.5t-51 -117.5l-244 -1385q-15 -89 8.5 -117t116.5 -28q9 0 9 -12.5t-9 -12.5h-323z" />
<glyph unicode="\" horiz-adv-x="624" d="M373 -334l-148 1815q-1 9 20.5 15t44 6t23.5 -9l150 -1817q1 -8 -20.5 -14t-44.5 -5t-25 9z" />
<glyph unicode="]" horiz-adv-x="514" d="M567 1485q11 0 13.5 -4t-0.5 -19l-297 -1681q-1 -13 -5.5 -17t-15.5 -4h-317q-7 0 -7 12.5t7 12.5q96 0 129 27.5t51 117.5l244 1385q15 89 -8.5 117t-116.5 28q-9 0 -9 12.5t9 12.5h323z" />
<glyph unicode="^" horiz-adv-x="722" d="M197 768q-6 -4 -15.5 0.5t-7.5 9.5l324 510q4 10 22 10t19 -10l143 -510q0 -3 -4.5 -6t-9 -3.5t-6.5 3.5l-195 227z" />
<glyph unicode="_" horiz-adv-x="743" d="M-14 -164q-6 0 -8 24t-0.5 48t6.5 24h653q9 0 9 -48t-9 -48h-651z" />
<glyph unicode="`" horiz-adv-x="339" d="M352 973l-125 516q5 15 48 15t94.5 -12.5t50.5 -25.5l-49 -491q0 -3 -4.5 -5t-9.5 -1.5t-5 4.5z" />
<glyph unicode="a" horiz-adv-x="909" d="M850 158q4 4 9.5 1t7.5 -8.5t-1 -9.5q-131 -159 -229 -159q-66 0 -89.5 48t-6.5 152l24 140q-78 -164 -185.5 -256.5t-209.5 -92.5q-75 0 -112 53t-21 160q14 101 72 214.5t137.5 205t175.5 151.5t180 60q87 0 146 -53q38 27 63 70q4 4 10 3.5t11 -4t4 -6.5l-119 -645 q-17 -96 22 -96t111 72zM301 123q62 0 128.5 67.5t112 157.5t60.5 170q17 91 -11.5 145t-90.5 54q-87 0 -166.5 -104.5t-106.5 -260.5q-20 -121 2 -175t72 -54z" />
<glyph unicode="b" horiz-adv-x="923" d="M721 817q96 0 141 -84.5t23 -218.5q-22 -126 -87.5 -232.5t-148.5 -171.5t-170.5 -101t-163.5 -36q-121 0 -181.5 55.5t-43.5 149.5l189 1028q17 98 -8.5 118.5t-110.5 -19.5q-5 -2 -9.5 3.5t-4 11.5t5.5 9l317 156q8 3 17.5 -4.5t7.5 -12.5l-177 -991 q71 153 179.5 246.5t224.5 93.5zM682 451q23 95 3 162t-81 67q-112 0 -205 -133.5t-131 -349.5q-12 -71 24.5 -118.5t98.5 -47.5q95 0 178 114t113 306z" />
<glyph unicode="c" horiz-adv-x="710" d="M328 -27q-71 0 -126 25.5t-86 69t-49.5 100.5t-17.5 119.5t10 126.5q16 89 63.5 166t112 128t138.5 80t145 29q50 0 93 -13t73.5 -45.5t26.5 -78.5q-3 -42 -31 -67t-74 -25q-86 0 -102 92q-9 38 -25 59t-51 21q-62 0 -108.5 -75t-67.5 -200q-17 -116 -6 -207.5 t64.5 -147.5t142.5 -56q42 0 94.5 19t85.5 44q5 3 12.5 -4.5t3.5 -13.5q-74 -72 -158.5 -109t-162.5 -37z" />
<glyph unicode="d" horiz-adv-x="921" d="M973 1468l-230 -1286q-17 -96 25 -96q33 0 109 72q5 5 11 2.5t7.5 -8.5t-2.5 -11q-69 -82 -123 -120.5t-111 -38.5q-67 0 -87.5 49.5t-2.5 150.5l27 142q-85 -165 -180.5 -258t-194.5 -93q-43 0 -78.5 15t-63.5 48.5t-36 88t4 133.5q20 108 78.5 211.5t135.5 179t168 122 t173 46.5q47 0 82 -14l74 403q17 98 -8.5 118.5t-110.5 -19.5q-6 -2 -10 3.5t-4 12t6 8.5l317 156q8 3 17.5 -4.5t7.5 -12.5zM324 117q50 0 101 38.5t90 98t68 123.5t44 121l10 53q7 79 -36.5 122.5t-111.5 43.5q-97 0 -165.5 -91t-96.5 -257q-21 -128 5.5 -190t91.5 -62z " />
<glyph unicode="e" horiz-adv-x="731" d="M553 817q83 0 126 -28.5t38 -81.5q-9 -90 -143.5 -168t-321.5 -113q-21 -157 29 -258.5t168 -101.5q105 0 184 63q5 3 11.5 -4.5t2.5 -11.5q-144 -138 -319 -138q-114 0 -184 60t-89.5 149.5t0.5 194.5q15 81 59 159t108 140.5t151 100.5t180 38zM510 664q8 44 -9.5 71 t-54.5 27q-66 0 -115.5 -84.5t-74.5 -218.5q235 62 254 205z" />
<glyph unicode="f" horiz-adv-x="548" d="M664 1487q90 0 140 -33t42 -84q-6 -40 -34.5 -63t-66.5 -23q-42 0 -65 16.5t-29 40t-9 47t-12.5 40t-31.5 16.5q-65 0 -111.5 -132.5t-87.5 -412.5l-18 -121q42 2 111.5 7.5t82.5 5.5q8 0 12.5 -8.5t2.5 -16.5q-5 -20 -26.5 -46t-39.5 -26l-22 4q-21 3 -58 8t-71 9 l-113 -758q-42 -292 -116.5 -406t-215.5 -114q-90 0 -140 34t-42 83q6 39 32.5 60t61.5 21q36 0 56.5 -16t26.5 -39.5t9.5 -46.5t12 -39t28.5 -16q30 0 48 74t59 352l104 723q10 75 -6 91.5t-94 16.5q-7 0 -6.5 16.5t6.5 16.5q68 0 97 18.5t36 69.5q40 251 95.5 386.5 t137 190t214.5 54.5z" />
<glyph unicode="g" horiz-adv-x="794" d="M807 811q18 0 7 -71q-8 -63 -21 -65q-1 0 -2 1q-65 46 -152 49q68 -83 39 -221q-28 -136 -133 -219.5t-230 -83.5q-27 0 -39 2q-12 -24 -12 -39q-5 -36 18 -66t62.5 -52.5t87.5 -44.5t95.5 -49.5t85 -60t56.5 -81.5t9 -109q-21 -125 -150.5 -200.5t-302.5 -75.5 q-162 0 -248 66.5t-71 166.5q13 73 82.5 136t191.5 130q-86 56 -71 127q15 68 133 160q-88 26 -125.5 107.5t-16.5 185.5q25 130 127.5 214.5t233.5 84.5q87 0 143 -43q108 51 203 51zM500 485q4 60 0.5 121.5t-27 107.5t-61.5 46q-46 0 -84.5 -69.5t-48.5 -172.5 q-13 -117 14 -194.5t76 -77.5q45 0 83 66.5t48 172.5zM514 -358q1 41 -17.5 75.5t-55 61.5t-69.5 45.5t-85 43.5t-78 40q-107 -87 -119 -191q-12 -99 59 -164t181 -65q94 0 139 45.5t45 108.5z" />
<glyph unicode="h" horiz-adv-x="931" d="M872 158q4 5 10.5 2.5t8.5 -8.5t-2 -11q-69 -82 -123.5 -120.5t-112.5 -38.5q-66 0 -86.5 49.5t-1.5 150.5l60 326q18 98 3 145t-59 47q-89 0 -178.5 -165.5t-144.5 -458.5l-8 -51q-10 -41 -115 -41q-68 0 -68 16q0 4 5 26t13 58.5t13 67.5l193 1054q17 98 -8.5 118.5 t-110.5 -19.5q-5 -2 -9.5 3.5t-4 11.5t5.5 9l317 156q8 3 17.5 -4.5t7.5 -12.5l-181 -1017q69 174 163 270t198 96q179 0 131 -270l-68 -365q-17 -96 27 -96q32 0 108 72z" />
<glyph unicode="i" horiz-adv-x="505" d="M354 1022q-54 0 -85 31t-31 88q0 50 31 80t85 30q53 0 83 -30t30 -80q0 -57 -29.5 -88t-83.5 -31zM217 -18q-129 0 -88 200l84 426q10 51 1.5 76t-32.5 25q-43 0 -116 -82q-7 -7 -16 1.5t-3 16.5q137 164 250 164q126 0 90 -176l-86 -451q-17 -96 27 -96q32 0 108 72 q8 8 16 -1t1 -16q-69 -82 -123.5 -120.5t-112.5 -38.5z" />
<glyph unicode="j" horiz-adv-x="509" d="M387 1022q-55 0 -86 31t-31 88q0 50 31.5 80t85.5 30q53 0 83 -30t30 -80q0 -57 -29.5 -88t-83.5 -31zM-43 -563q-90 0 -140 34t-42 83q6 39 32.5 60t61.5 21q36 0 56.5 -16t26.5 -39.5t9.5 -46.5t12 -39t28.5 -16q29 0 46 68.5t67 357.5l125 704q18 101 -31 101 q-43 0 -119 -82q-7 -9 -15 3q-6 9 -1 15q73 87 132 125.5t118 38.5q64 0 85 -44t5 -132l-117 -676q-51 -290 -126 -405t-214 -115z" />
<glyph unicode="k" horiz-adv-x="843" d="M848 154q5 5 11 2t7.5 -9t-2.5 -10q-134 -155 -215 -155q-54 0 -93.5 29.5t-88.5 107.5l-119 196q-24 44 -51 47l-59 -337q-10 -41 -115 -41q-68 0 -68 16q0 4 5 26t13 58.5t13 67.5l193 1054q17 98 -8.5 118.5t-110.5 -19.5q-5 -2 -9.5 3.5t-4 11.5t5.5 9l317 156 q8 3 17 -3.5t8 -13.5l-142 -794q160 143 326 143q46 0 76.5 -12t43 -32t16.5 -39t1 -40q-12 -76 -99.5 -149.5t-234.5 -128.5l129 -207q40 -65 68 -87t59 -22q45 0 111 54zM547 729q-83 0 -148.5 -85t-91.5 -224l-2 -17q150 35 221.5 92t77.5 142q6 92 -57 92z" />
<glyph unicode="l" horiz-adv-x="505" d="M193 -18q-67 0 -88 49.5t-3 150.5l189 1024q17 98 -8.5 118.5t-110.5 -19.5q-9 -3 -13 9t5 15l317 156q8 3 17.5 -4.5t7.5 -12.5l-230 -1286q-20 -96 25 -96q33 0 109 72q5 5 11 2.5t7.5 -8.5t-2.5 -11q-69 -82 -122.5 -120.5t-110.5 -38.5z" />
<glyph unicode="m" horiz-adv-x="1402" d="M1343 158q7 8 16 -1t1 -16q-69 -82 -123 -120.5t-111 -38.5q-67 0 -87.5 49.5t-2.5 150.5l62 326q34 192 -49 192q-76 0 -160.5 -154t-138.5 -431l-17 -90q-7 -41 -115 -41q-67 0 -67 16q0 4 5 26t13 58.5t13 67.5l67 360q35 188 -55 188q-80 0 -165.5 -164t-137.5 -444 l-12 -67q-10 -41 -115 -41q-68 0 -68 16q0 4 5 26t13 58.5t13 67.5l84 456q18 101 -31 101q-43 0 -119 -82q-7 -9 -15 3q-6 9 -1 15q73 87 132 125.5t118 38.5q64 0 85 -44t5 -132l-31 -172q68 170 158 263t190 93q81 0 115 -66t10 -200l-14 -84q67 168 156 259t186 91 q82 0 114.5 -67.5t6.5 -202.5l-66 -365q-17 -96 27 -96q20 0 43.5 17.5t62.5 54.5z" />
<glyph unicode="n" horiz-adv-x="972" d="M913 158q4 5 10 2.5t8 -8.5t-1 -11q-69 -82 -123.5 -120.5t-112.5 -38.5q-66 0 -86.5 49.5t-1.5 150.5l60 326q18 98 3 145t-59 47q-89 0 -179.5 -169t-145.5 -468l-6 -38q-10 -41 -115 -41q-68 0 -68 16q0 4 5 26t13 58.5t13 67.5l84 456q18 101 -31 101q-43 0 -119 -82 q-7 -9 -15 3q-6 9 -1 15q73 87 132 125.5t118 38.5q64 0 85 -44t5 -132l-33 -187q71 177 165 274t198 97q179 0 131 -270l-68 -365q-17 -96 27 -96q32 0 108 72z" />
<glyph unicode="o" horiz-adv-x="835" d="M324 -29q-83 0 -143.5 34.5t-91 93t-41 135.5t8.5 161q35 187 162 304.5t291 117.5q165 0 235.5 -118.5t34.5 -303.5q-26 -135 -100 -233.5t-166 -144.5t-190 -46zM393 23q65 0 113 75.5t72 206.5q20 126 12 229t-48 168.5t-100 65.5q-61 0 -109 -71.5t-73 -213.5 q-20 -127 -12 -229.5t47 -166.5t98 -64z" />
<glyph unicode="p" horiz-adv-x="829" d="M584 805q123 0 176 -73.5t33 -213.5q-20 -138 -95.5 -258t-182.5 -191t-218 -71q-32 0 -82 4l-65 -367q-15 -79 4 -100t92 -12q5 0 8.5 -5.5t3.5 -11t-6 -6.5l-389 -63q-4 -1 -7 4.5t-2.5 12t5.5 7.5q58 13 75 39.5t35 120.5l176 981q-37 -21 -104 -70q-6 -5 -12 -1.5 t-6.5 10.5t4.5 12q74 60 125 94l26 144q1 4 41.5 26.5t85 59t53.5 73.5q2 5 8 6t11 -2t4 -8l-35 -194q121 53 238 53zM608 451q7 48 1 94t-22.5 81.5t-53.5 57t-91 21.5q-50 0 -106 -15l-107 -602q71 -29 144 -29q98 0 155.5 106t79.5 286z" />
<glyph unicode="q" horiz-adv-x="862" d="M842 827l-219 -1192q-14 -79 11 -107.5t111 -16.5q7 3 10 -10q3 -12 -5 -13l-426 -51q-5 0 -8 5.5t-2.5 11.5t5.5 7q68 10 89.5 37t40.5 123l110 633q-72 -132 -169.5 -206.5t-190.5 -74.5q-88 0 -132 59t-26 179q21 157 101.5 295.5t204.5 224.5t259 86q89 0 146 -51 q34 22 65 68q3 4 9 3.5t11.5 -4t4.5 -6.5zM326 123q67 0 125.5 52.5t94.5 130.5t52 169q22 124 -9 183t-120 59q-87 0 -151 -84.5t-89 -270.5q-3 -32 -4.5 -55t1 -61t12 -62t32 -42.5t56.5 -18.5z" />
<glyph unicode="r" horiz-adv-x="729" d="M608 809q53 0 101 -38.5t41 -88.5q-3 -31 -29 -57.5t-62 -26.5q-34 0 -75.5 30.5t-61.5 30.5q-36 0 -89 -113.5t-97 -259t-64 -259.5v-2q-7 -41 -114 -41q-68 0 -68 16q0 4 5.5 26t14 58.5t13.5 67.5l84 456q15 101 -33 101q-41 0 -117 -82q-5 -5 -11 -2t-7.5 9t2.5 11 q73 87 132 125.5t118 38.5q64 0 84 -44t6 -132l-41 -225q122 401 268 401z" />
<glyph unicode="s" horiz-adv-x="647" d="M221 -23q-93 0 -156.5 43.5t-54.5 104.5q6 40 31.5 62t60.5 22q29 0 51 -16.5t37.5 -40.5l31 -48t40 -40.5t57.5 -16.5q36 0 53 19.5t23 62.5q7 50 -13.5 94t-56 74.5t-76.5 65t-75.5 66t-52.5 77t-8 98.5q14 79 101 143t204 64q97 0 151.5 -33t48.5 -90 q-6 -39 -33 -61.5t-59 -22.5q-36 0 -58 15.5t-32 37.5t-20.5 44t-31 37.5t-54.5 15.5t-52 -19t-22 -45q-7 -39 7.5 -75t42 -65t62.5 -56.5t69 -56.5t61 -60t40 -71t5 -85q-15 -88 -106 -166t-216 -78z" />
<glyph unicode="t" horiz-adv-x="616" d="M623 791q8 0 12 -8t2 -17q-4 -20 -26 -48t-42 -28q-1 0 -30.5 5t-78.5 11t-93 9l-86 -488q-12 -72 12 -105.5t88 -33.5q78 0 172 76q5 3 13.5 -5t2.5 -14q-95 -91 -167.5 -130.5t-143.5 -39.5q-200 0 -160 218l80 434q12 68 -0.5 88t-68.5 20q-7 0 -6.5 16.5t6.5 16.5 q164 0 260 180q1 3 5.5 4.5t10.5 1t11.5 -2t9 -4t2.5 -5.5l-31 -168q64 2 147 9.5t99 7.5z" />
<glyph unicode="u" horiz-adv-x="974" d="M913 164q6 8 15 -3q6 -9 2 -16q-73 -87 -132 -125t-118 -38q-64 0 -85 44t-5 132l33 186q-71 -177 -165 -274t-198 -97q-88 0 -122.5 67.5t-8.5 203.5l72 364q17 97 -27 97q-20 0 -43.5 -17.5t-62.5 -54.5q-5 -5 -11 -2.5t-8 8t2 10.5q70 83 122.5 121.5t109.5 38.5 q131 0 90 -201l-64 -325q-19 -98 -3.5 -145.5t59.5 -47.5q89 0 179.5 169t145.5 468l6 39q10 41 115 41q68 0 68 -16q0 -4 -5 -26t-13 -58.5t-13 -67.5l-84 -457q-18 -100 31 -100q42 0 118 82z" />
<glyph unicode="v" horiz-adv-x="917" d="M387 -27q-94 0 -156 72t-57 172q4 51 25.5 106t66 137.5t60.5 117.5q8 17 11 26t3.5 17t-5 11t-16.5 3h-98q-71 0 -104 -20.5t-49 -67.5q-5 -11 -19 -6q-8 4 -6 12q47 141 88 190.5t127 49.5h191q17 0 20.5 -5t-4.5 -20q-106 -245 -125 -381q-18 -116 25 -186t124 -70 q89 0 165.5 77.5t93.5 199.5q8 66 -8 106.5t-60 91.5q-53 57 -53 105q0 50 31.5 75t80.5 25q45 0 70.5 -21t36 -79t0.5 -158q-11 -114 -57 -222t-110 -186t-141.5 -125t-150.5 -47z" />
<glyph unicode="w" horiz-adv-x="1286" d="M1106 811q44 0 69 -21.5t37 -78.5t0 -158q-14 -152 -79.5 -287.5t-157.5 -214t-184 -78.5q-115 0 -173 125q-115 -125 -231 -125q-107 0 -157.5 79t-28.5 214q22 137 125 312q19 31 17.5 44t-24.5 13h-98q-71 0 -104 -20.5t-49 -67.5q-5 -11 -19 -6q-8 4 -6 12 q47 141 88 190.5t127 49.5h191q17 0 20.5 -5t-4.5 -20q-106 -245 -125 -381q-18 -116 25 -186t124 -70q52 0 105 43q-32 150 2 348q26 146 69 213.5t107 67.5q55 0 74 -49t4 -152q-28 -204 -135 -379q69 -92 176 -92q79 0 144.5 77.5t78.5 199.5q8 67 -8 107.5t-59 90.5 q-54 58 -54 105q0 50 32 75t81 25zM645 537q-13 -57 -3 -129t40 -132q76 115 96 234q16 111 -57 111q-59 0 -76 -84z" />
<glyph unicode="x" horiz-adv-x="880" d="M754 809q53 0 95 -40.5t36 -92.5q-5 -31 -30.5 -54.5t-61.5 -23.5q-32 0 -54.5 15t-39.5 30.5t-37 15.5q-23 0 -52 -41l-96 -145l92 -285q18 -57 41 -74.5t55 -17.5q52 0 105 56q8 6 15.5 -3t0.5 -16q-78 -80 -137 -118t-113 -38q-55 0 -84.5 31.5t-56.5 114.5l-53 166 l-103 -162q-60 -94 -90.5 -122t-74.5 -28q-53 0 -94.5 42t-34.5 94q3 30 28.5 52.5t61.5 22.5q33 0 55.5 -15t39 -29.5t36.5 -14.5q22 0 51 41l111 162l-89 266q-18 57 -41.5 75.5t-54.5 18.5q-48 0 -106 -55q-4 -5 -10.5 -2t-8.5 8.5t2 9.5q150 156 252 156q54 0 84 -30.5 t58 -112.5l47 -148l92 144q58 93 88.5 120t75.5 27z" />
<glyph unicode="y" horiz-adv-x="927" d="M754 811q52 0 80 -36.5t28 -106.5q0 -75 -46.5 -199t-120.5 -260.5t-171.5 -277.5t-194.5 -252.5t-194 -182.5t-166 -71q-137 0 -119 122q8 45 39 70t80 25q26 0 58.5 -13t55.5 -24.5t55.5 -10t64.5 24.5q52 35 133 139q7 444 -49 690t-158 246q-26 0 -51.5 -18 t-40.5 -45q-3 -6 -10 -6.5t-12 3t-3 9.5q35 74 106.5 123t131.5 49q86 0 148 -111.5t88 -296t16 -407.5q186 295 209 397q18 68 8.5 117.5t-28 73t-37.5 56.5t-19 69q0 46 32.5 75t86.5 29z" />
<glyph unicode="z" horiz-adv-x="704" d="M709 811q4 3 11 -2t12 -12t3 -9l-524 -585h4q55 0 183.5 -23.5t164.5 -23.5q63 0 92 80q3 5 13.5 1.5t9.5 -10.5q-30 -109 -53.5 -159.5t-47 -64.5t-67.5 -13q-58 1 -196 27t-199 28q-33 0 -58 -12.5t-55 -46.5q-3 -2 -10.5 4t-13 13t-3.5 9l527 582h-4q-46 0 -157 23.5 t-142 23.5q-39 0 -62 -17.5t-41 -58.5q-5 -9 -15.5 -4.5t-6.5 14.5q36 114 58 159.5t47 59.5t77 13q45 -3 165 -27.5t175 -27.5q34 0 58.5 12.5t54.5 46.5z" />
<glyph unicode="{" horiz-adv-x="538" d="M367 -240q-70 0 -114 5.5t-76 24t-46 43.5t-17.5 75t3 107t22.5 149q13 75 20.5 124t12 96t2 76t-8.5 55.5t-21 42.5t-35 29t-50 23q-5 0 -5 13.5t5 13.5q71 12 111 50.5t70.5 128.5t60.5 267q16 89 32 150.5t38.5 107.5t47.5 73t63.5 43.5t80.5 22t103 5.5q6 0 6 -12.5 t-6 -12.5q-110 0 -146 -217q-22 -118 -38 -192t-38 -141.5t-43.5 -105.5t-57 -73.5t-76 -58t-101.5 -47.5q45 -17 76.5 -33t55 -36t37 -40.5t20 -51t7 -61t-5 -76.5t-13.5 -92t-20 -113q-14 -77 -22 -120q-17 -98 3 -157.5t63 -59.5q5 0 5 -12.5t-5 -12.5z" />
<glyph unicode="|" horiz-adv-x="311" d="M76 -315q-2 -9 -24 -11t-42.5 3t-19.5 14l317 1806q2 9 24.5 10.5t43.5 -4t20 -14.5z" />
<glyph unicode="}" horiz-adv-x="540" d="M254 1485q52 0 88.5 -3t67 -12.5t49 -22t30.5 -36.5t16.5 -51.5t2.5 -71.5t-8.5 -91t-18.5 -116q-13 -75 -20.5 -124t-12 -96t-2 -76t8.5 -55.5t21 -42.5t35 -29t50 -23q5 0 5 -13.5t-5 -13.5q-71 -12 -111 -50.5t-70.5 -128.5t-60.5 -267q-19 -106 -40 -175 t-47.5 -115.5t-67 -70t-88 -32.5t-121.5 -9q-6 0 -6 12.5t6 12.5q109 0 145 217q22 118 38 192t38 141.5t44 106t57.5 74t76 58t101.5 47.5q-166 61 -189.5 160.5t32.5 343.5q14 76 21 118q17 98 -2.5 157.5t-62.5 59.5q-4 0 -4 12.5t4 12.5z" />
<glyph unicode="~" horiz-adv-x="907" d="M88 293q-2 -2 -6 -0.5t-7 6t-1 8.5q84 111 132 148t107 37q47 0 174.5 -33t167.5 -33q96 0 166 74q6 6 14 -5q3 -6 1 -10q-80 -105 -133 -144.5t-119 -39.5q-43 0 -167.5 33t-174.5 33q-37 0 -66 -11t-44 -23t-44 -40z" />
<glyph unicode="&#xa1;" horiz-adv-x="446" d="M276 741q54 0 85.5 -30.5t31.5 -85.5q0 -51 -31.5 -81t-85.5 -30q-53 0 -82.5 29.5t-29.5 81.5q0 56 29 86t83 30zM229 334q1 7 7 8.5t11.5 -1.5t4.5 -9q-31 -462 -37 -879q0 -8 -45.5 -16t-89.5 -8q-84 0 -123 16q-8 5 -8 8q137 333 280 881z" />
<glyph unicode="&#xa2;" horiz-adv-x="1019" d="M961 920q9 -6 12 -9.5t6 -11.5t0 -18l-29 -211q-2 -8 -9 -8t-9 8q-23 110 -86 182t-146 84l-163 -918h2q96 0 168.5 60t162.5 207q2 5 9.5 6t14 -2t5.5 -10l-53 -218q-2 -4 -3.5 -9t-2 -7.5t-2.5 -5.5t-4.5 -5t-6.5 -4t-10 -3q-138 -48 -289 -52l-32 -190 q-1 -9 -14.5 -11t-25.5 3t-10 14l33 184q-85 4 -152.5 30t-110 66t-73 92t-41 108t-13.5 114t9 111q22 133 103 241.5t200.5 173t255.5 72.5l31 174q1 9 13.5 10.5t24.5 -4t11 -14.5l-28 -166q69 -3 140 -20t112 -43zM315 504q-16 -80 -12.5 -160.5t20 -146.5t59 -113.5 t105.5 -60.5l162 915q-124 -10 -211.5 -129t-122.5 -305z" />
<glyph unicode="&#xa3;" horiz-adv-x="794" d="M739 950q35 -9 29 -37l-23 -217q-1 -3 -6 -4.5t-10.5 1.5t-7.5 9q-30 120 -67.5 180t-106.5 60q-71 0 -113.5 -60.5t-60.5 -150.5q-11 -73 6 -231h162q9 0 13 -15t1 -30t-12 -15h-160q7 -79 -6 -147q-24 -122 -115 -195h176q119 0 161 28.5t83 139.5q5 8 16.5 4t8.5 -14 q-44 -128 -60 -238q-1 -12 -7.5 -15t-23.5 -3h-630q-5 0 -7.5 7t-1 14t8.5 8q56 13 95.5 37t61 56.5t31.5 63t14 68.5q12 95 5 186h-80q-8 0 -12 15t-1 30t11 15h75q-15 108 -2 182q15 81 54 141.5t95 94t118 49.5t131 16q84 0 157 -33z" />
<glyph unicode="&#xa4;" horiz-adv-x="786" d="M739 692l-112 -106q46 -78 28 -187q-17 -92 -82 -161l72 -99l-84 -73l-69 108q-77 -41 -158 -41q-70 0 -123 37l-102 -104l-52 65l101 98q-48 85 -29 197q16 96 90 170l-69 96l77 72l76 -113q69 35 146 35q76 0 129 -41l112 113zM367 182q51 0 90.5 53t56.5 146 q18 103 -9 179.5t-97 76.5q-51 0 -89 -50t-53 -141q-9 -64 -6.5 -123t31 -100t76.5 -41z" />
<glyph unicode="&#xa5;" horiz-adv-x="917" d="M1008 958q8 0 8 -12t-8 -12q-108 0 -240 -189l-193 -276l-6 -33h168q8 0 12 -13t1 -26.5t-11 -13.5h-540q-12 0 -12.5 26.5t12.5 26.5h182l-141 357q-30 76 -63 108.5t-75 32.5q-6 0 -6 12t6 12q20 0 74 -3t68 -3q51 0 160 3t131 3q6 0 6 -12t-6 -12q-64 0 -92 -28.5 t-3 -90.5l123 -293l154 236q33 51 43 89.5t-8 62.5t-66 24q-8 0 -8 12t8 12q34 0 101 -3t120 -3q24 0 55 3t46 3zM711 291q8 0 12.5 -13.5t2 -26.5t-10.5 -13h-180l-13 -80q-17 -87 3.5 -110t109.5 -23q7 0 7 -12.5t-7 -12.5q-31 0 -108 2t-126 2q-46 0 -127 -2t-108 -2 q-8 0 -8 12.5t8 12.5q86 0 118 29t50 118l12 66h-172q-8 0 -12 13t-1 26.5t11 13.5h539z" />
<glyph unicode="&#xa6;" horiz-adv-x="311" d="M260 731q-1 -9 -23 -11t-43 3t-20 14l133 760q1 9 23.5 10.5t44 -4t20.5 -14.5zM74 -324q-1 -9 -23 -10.5t-43 4.5t-20 15l131 757q2 9 25 11t44.5 -3t20.5 -14z" />
<glyph unicode="&#xa7;" horiz-adv-x="835" d="M543 1118q-91 0 -111 -125q-9 -56 7 -107t49 -90.5t74 -77.5t81.5 -76.5t72.5 -80t46.5 -95t3.5 -114.5q-22 -136 -195 -282q82 -95 56 -226q-24 -115 -121 -172t-238 -57q-104 0 -166 27q-16 12 -14 32l43 252q0 4 10.5 4t12.5 -4q37 -117 64 -165q55 -95 134 -95 q93 0 113 125q9 57 -7.5 108t-49.5 90t-74 77t-81.5 76.5t-72.5 80t-47 96t-4 115.5q23 138 195 281q-81 98 -56 227q24 115 121.5 172t237.5 57q99 0 166 -26q17 -10 14 -33l-43 -252q0 -6 -10 -6t-11 6q-38 117 -67 166q-56 92 -133 92zM592 250q7 35 5 69.5t-5.5 60.5 t-14.5 52.5t-22 46t-28.5 40.5t-32.5 37t-35.5 34t-37 32t-36.5 31.5t-35 32.5q-36 -62 -49 -149q-11 -71 -1 -129t40.5 -103t58.5 -73.5t76 -69t70 -62.5q34 63 47 150z" />
<glyph unicode="&#xa8;" horiz-adv-x="563" d="M236 950q-53 0 -82 29.5t-29 83.5q0 49 29 76.5t82 27.5q50 0 77 -27.5t27 -76.5q0 -54 -27 -83.5t-77 -29.5zM561 950q-53 0 -81.5 29.5t-28.5 83.5q0 50 29 77t81 27q50 0 77.5 -27.5t27.5 -76.5q0 -54 -27.5 -83.5t-77.5 -29.5z" />
<glyph unicode="&#xa9;" horiz-adv-x="1488" d="M778 -217q-132 0 -249 41t-206.5 115.5t-141.5 189.5t-52 254q0 113 39 215t108 179.5t158.5 135t194.5 87.5t213 30q120 0 222.5 -39.5t171 -106t106.5 -153.5t38 -182q0 -90 -40 -174.5t-109.5 -150t-172.5 -105t-220 -39.5q-98 0 -173 27.5t-117.5 74.5t-63.5 101.5 t-21 115.5q0 80 31.5 147t83 109.5t115 66t130.5 23.5q88 0 154.5 -31.5t66.5 -92.5q0 -86 -88 -86q-32 0 -52 19t-38 54q-12 22 -19 33t-20 26t-30 22t-39 7q-64 0 -86.5 -53t-22.5 -172q0 -69 17 -127.5t52 -105.5t94 -74t136 -27q119 0 207 96t88 250q0 209 -136 354.5 t-339 145.5q-114 0 -207.5 -44t-154 -119t-93 -174t-32.5 -210q0 -266 155 -423.5t416 -157.5q107 0 196.5 23t182.5 81q7 4 13 -7q4 -6 -1 -9q-115 -91 -229 -125.5t-236 -34.5z" />
<glyph unicode="&#xaa;" horiz-adv-x="565" d="M633 877q2 2 6.5 -1.5t8 -8.5t1.5 -7q-92 -115 -166 -115q-80 0 -59 127l8 56q-50 -94 -114 -141.5t-125 -47.5q-47 0 -69 40t-11 122q13 85 69.5 177.5t135 155t147.5 62.5q57 0 92 -32q24 17 39 41q4 4 10 1.5t6 -6.5l-80 -428q-12 -61 17 -61q21 0 84 66zM272 831 q51 0 104 72t79 156l2 16l2 2l6 29q12 59 -6 92t-60 33q-59 0 -104 -63t-64 -164q-14 -97 -2 -135t43 -38zM551 641q9 0 9 -30.5t-9 -30.5h-461q-5 0 -7 15t-0.5 30.5t5.5 15.5h463z" />
<glyph unicode="&#xab;" horiz-adv-x="888" d="M514 745q4 2 9.5 -1t8.5 -7.5t0 -7.5l-225 -317l115 -316q4 -7 -7 -14q-6 -5 -9 0l-318 305q-7 8 -5 22.5t13 24.5zM817 745q3 2 9 -1t8.5 -7.5t-0.5 -7.5l-226 -317l115 -316q5 -7 -6 -14q-7 -5 -10 0l-316 305q-8 9 -6.5 23t12.5 24z" />
<glyph unicode="&#xac;" horiz-adv-x="833" d="M758 555v-387q0 -6 -24 -8t-48 -0.5t-24 6.5v295h-580q-6 0 -8 23.5t-0.5 47t6.5 23.5h678z" />
<glyph unicode="&#xad;" horiz-adv-x="624" d="M70 336q-6 -1 -10 25.5t-4 50t3 28.5l510 97q6 1 10.5 -25t4.5 -52.5t-6 -27.5z" />
<glyph unicode="&#xae;" horiz-adv-x="1538" d="M895 1485q267 0 430.5 -159t163.5 -402q0 -131 -51.5 -250t-139.5 -204.5t-211 -136t-260 -50.5q-158 0 -297 69t-228 202.5t-89 303.5q0 142 56 261.5t150.5 198.5t217.5 123t258 44zM905 336q220 0 334.5 143.5t114.5 376.5q0 272 -148 426t-389 154q-122 0 -216 -41 t-150 -111.5t-83.5 -159t-27.5 -190.5q0 -173 75 -310t204 -212.5t286 -75.5zM1192 590q4 -2 3.5 -9.5t-5.5 -7.5h-201q-34 0 -125 328q-50 -4 -78 -4l-36 -209q-10 -61 1.5 -76.5t67.5 -15.5q2 -1 2 -6t-2 -11t-4 -6q-18 0 -67.5 1t-81.5 1q-25 0 -78 -1t-68 -1 q-3 1 -2.5 6t2.5 11t4 6q43 0 57.5 15.5t24.5 76.5l76 440q12 56 3.5 73.5t-50.5 17.5q-2 1 -2 6.5t2 11.5t4 6q20 0 69.5 -1t73.5 -1q26 0 87 3t83 3q105 0 150.5 -33.5t30.5 -107.5q-20 -116 -144 -170q45 -151 90 -226.5t113 -119.5zM793 928q92 -6 131 23.5t53 113.5 q32 156 -62 156q-44 0 -60.5 -15.5t-27.5 -81.5z" />
<glyph unicode="&#xaf;" horiz-adv-x="681" d="M215 969q-20 0 -20 41t20 41h467q14 0 19.5 -20.5t0 -41t-19.5 -20.5h-467z" />
<glyph unicode="&#xb0;" horiz-adv-x="612" d="M377 764q-57 0 -102 18.5t-71.5 48t-43.5 68t-18.5 78.5t3.5 78q20 96 109 165.5t209 69.5q56 0 100 -17.5t69.5 -46.5t42 -66.5t17.5 -78t-4 -80.5q-20 -104 -108 -170.5t-203 -66.5zM401 805q92 0 113 182q38 264 -74 264q-92 0 -121 -190q-21 -100 -0.5 -178t82.5 -78 z" />
<glyph unicode="&#xb1;" horiz-adv-x="815" d="M70 469q-6 0 -8 24t-0.5 48t6.5 24h290v291q0 8 48.5 8t48.5 -8v-291h290q9 0 9 -48t-9 -48h-290v-289q0 -6 -24.5 -8t-48.5 -0.5t-24 6.5v291h-288zM745 90q9 0 9 -44t-9 -44h-675q-6 0 -8 22t-0.5 44t6.5 22h677z" />
<glyph unicode="&#xb2;" horiz-adv-x="479" d="M567 1329q-8 -41 -32 -78.5t-55.5 -64t-69.5 -55.5t-72.5 -54t-66 -59t-48.5 -70q159 0 218.5 19t68.5 71q1 6 7 6.5t11 -3t4 -9.5l-38 -205q0 -5 -3 -3q-1 1 -2 1h-360q-6 0 -8 6.5t2 16.5q31 79 73.5 142.5t80 102.5t71.5 74t57 74.5t29 87.5q10 107 -63 107 q-38 0 -76.5 -31t-58.5 -80q-4 -5 -10 -5.5t-11.5 4t-3.5 9.5q76 160 217 160q80 0 116 -46t23 -118z" />
<glyph unicode="&#xb3;" horiz-adv-x="479" d="M563 1329q-8 -52 -47 -92t-90 -61q56 -14 86 -58t20 -108q-14 -76 -78.5 -136.5t-162.5 -60.5q-74 0 -110.5 36.5t-43.5 92.5q-1 5 4.5 8t11.5 2t7 -6q10 -36 38.5 -57t67.5 -21q42 0 78.5 38t48.5 118q23 131 -112 131q-9 0 -9 12.5t9 12.5q55 0 93 41t50 108 q18 103 -57 103q-41 0 -75 -29.5t-54 -73.5q-2 -4 -8.5 -4t-11.5 4.5t-3 11.5q32 68 85.5 110t125.5 42q81 0 115.5 -47t21.5 -117z" />
<glyph unicode="&#xb4;" horiz-adv-x="434" d="M244 969q-4 -8 -18 -1q-6 4 -3 7l154 491q4 19 105 30q96 11 101 -3q0 -2 -1 -4z" />
<glyph unicode="&#xb6;" horiz-adv-x="1216" d="M489 -395q-83 0 -124 29t-35 83q12 80 92 80q32 0 49 -14.5t22 -34.5t9.5 -40.5t19 -35t41.5 -14.5q40 0 55.5 45t49.5 236q9 49 14 77l43 240q-74 -6 -162 -6q-70 0 -132.5 17t-121 56t-94 101.5t-52 153.5t4.5 213q46 243 210.5 369t412.5 126q39 0 127.5 -6t144.5 -6 q36 0 106 3t99 3q9 0 9 -12.5t-9 -12.5q-80 0 -133 -43t-66 -122l-170 -977q-47 -262 -148.5 -385t-261.5 -123z" />
<glyph unicode="&#xb7;" horiz-adv-x="428" d="M227 336q-54 0 -85 31t-31 86q0 51 31 80.5t85 29.5t83.5 -29.5t29.5 -80.5q0 -56 -29.5 -86.5t-83.5 -30.5z" />
<glyph unicode="&#xb8;" horiz-adv-x="401" d="M8 -563q-75 0 -123 30t-41 78q4 34 29 52t57 18q34 0 53.5 -21.5t25 -48t20.5 -48t41 -21.5q46 0 53 49q3 34 -24.5 79t-80.5 113q-16 21 -15 50t9.5 50t28.5 60l59 123h33q-7 -15 -10.5 -29t-6 -25t-0.5 -24.5t2 -21t6.5 -21t8.5 -18.5t12 -19.5t12 -17.5t14.5 -19 t14.5 -18q42 -54 58.5 -93t9.5 -77q-11 -66 -75 -123t-171 -57z" />
<glyph unicode="&#xb9;" horiz-adv-x="495" d="M158 825q-6 0 -6 11.5t6 11.5q81 0 102.5 21.5t38.5 119.5l43 242q17 95 -6 118t-98 -14q-6 -3 -10 2t-4 10.5t3 8.5l281 141q8 4 14.5 -0.5t3.5 -11.5l-86 -496q-6 -36 -8 -56t-0.5 -38t6 -25.5t17 -13.5t27.5 -7t42 -1q8 0 8 -11.5t-8 -11.5q-22 0 -80 2t-96 2 q-37 0 -102 -2t-88 -2z" />
<glyph unicode="&#xba;" horiz-adv-x="550" d="M311 733q-71 0 -117.5 40t-58.5 103.5t2 141.5q22 120 103.5 196t187.5 76q109 0 155.5 -77.5t22.5 -198.5q-24 -131 -109.5 -206t-185.5 -75zM354 772q88 0 125 184q24 121 -3 209t-91 88q-41 0 -73 -44t-48 -136q-22 -127 3 -214t87 -87zM100 580q-6 0 -8 15t-0.5 30.5 t6.5 15.5h453q9 0 9 -30.5t-9 -30.5h-451z" />
<glyph unicode="&#xbb;" horiz-adv-x="886" d="M76 76q-5 -3 -13 4.5t-4 13.5l226 316l-115 315q-4 7 7 14q6 5 9 0l318 -305q7 -8 5 -22.5t-13 -24.5zM379 76q-6 -3 -14.5 4.5t-2.5 13.5l226 316l-117 315q-2 4 1.5 9t8.5 6.5t8 -1.5l316 -305q8 -8 6.5 -22.5t-14.5 -24.5z" />
<glyph unicode="&#xbc;" horiz-adv-x="1142" d="M487 633q-22 0 -80 2t-96 2q-37 0 -102 -2t-88 -2q-6 0 -6 11t6 11q81 0 102.5 22t38.5 120l43 241q17 95 -6 118.5t-98 -13.5q-6 -3 -10 1.5t-4 10t3 8.5l281 142q7 4 14 -0.5t4 -12.5l-86 -495q-6 -36 -8 -56t-0.5 -38t6 -25.5t17 -14t27.5 -7.5t42 -1q7 0 7 -11 t-7 -11zM965 1284q3 5 19.5 -1.5t30 -16.5t9.5 -15l-692 -1263q-1 -2 -8 0t-16 6t-17.5 9t-14 9t-4.5 6zM1073 256q3 -3 2.5 -20.5t-4 -37.5t-6.5 -20q-46 4 -72 4l-16 -98q-8 -41 1 -52.5t58 -11.5q9 0 9 -12t-9 -12q-19 0 -61.5 2t-71.5 2q-34 0 -89 -2t-75 -2q-9 0 -9 12 t9 12q59 0 77.5 11.5t25.5 52.5l18 104q-63 2 -219 2q-1 0 -2.5 2t-2 5t2.5 6l397 471q5 6 20.5 -1t14.5 -16l-67 -405q12 1 34.5 2t34.5 2zM743 244q88 0 127 2l37 213l-168 -209q-9 -6 4 -6z" />
<glyph unicode="&#xbd;" horiz-adv-x="1173" d="M487 633q-22 0 -80 2t-96 2q-37 0 -102 -2t-88 -2q-6 0 -6 11t6 11q81 0 102.5 22t38.5 120l43 241q17 95 -6 118.5t-98 -13.5q-6 -3 -10 1.5t-4 10t3 8.5l281 142q7 4 14 -0.5t4 -12.5l-86 -495q-6 -36 -8 -56t-0.5 -38t6 -25.5t17 -14t27.5 -7.5t42 -1q7 0 7 -11 t-7 -11zM965 1284q3 5 19.5 -1.5t30 -16.5t9.5 -15l-692 -1263q-1 -2 -8 0t-16 6t-17.5 9t-14 9t-4.5 6zM1118 504q-8 -41 -32 -78.5t-55.5 -64t-69.5 -55.5t-72.5 -54t-66 -59t-48.5 -70q159 0 218.5 19t68.5 71q1 6 7 6.5t11 -3t4 -9.5l-39 -205q-1 -3 -2 -3l-2 1h-360 q-6 0 -8 6t2 17q31 79 73.5 142.5t80 102.5t71.5 74t57 74.5t29 87.5q10 106 -63 106q-38 0 -77 -31t-59 -79q-4 -5 -10 -5.5t-11 4t-3 9.5q76 160 217 160q80 0 116 -46t23 -118z" />
<glyph unicode="&#xbe;" horiz-adv-x="1126" d="M496 817q-13 -76 -78.5 -136t-163.5 -60q-74 0 -110.5 36.5t-43.5 92.5q-1 5 4.5 8t11.5 2t7 -6q10 -36 38.5 -57t67.5 -21q42 0 78.5 37.5t48.5 117.5q23 132 -112 132q-9 0 -9 12t9 12q54 0 92.5 41.5t50.5 108.5q18 102 -57 102q-41 0 -75 -29t-54 -73q-2 -4 -8.5 -4 t-11.5 4.5t-3 11.5q32 68 85.5 109.5t125.5 41.5q81 0 115.5 -46.5t21.5 -116.5q-8 -52 -47.5 -92.5t-89.5 -61.5q56 -14 86.5 -58t20.5 -108zM948 1284q3 5 19.5 -1.5t30.5 -16.5t10 -15l-693 -1263q-1 -2 -8 0t-16 6t-17.5 9t-13.5 9t-4 6zM1057 256q3 -3 2.5 -20.5 t-4 -37.5t-6.5 -20q-46 4 -72 4l-16 -98q-8 -41 1 -52.5t58 -11.5q9 0 9 -12t-9 -12q-19 0 -61.5 2t-71.5 2q-34 0 -89 -2t-75 -2q-9 0 -9 12t9 12q58 0 76 11.5t26 52.5l19 104q-63 2 -219 2q-1 0 -2.5 2t-2 5t2.5 6l397 471q5 6 20.5 -1t14.5 -16l-68 -405q12 1 35 2t35 2 zM727 244q88 0 127 2l37 213l-168 -209q-9 -6 4 -6z" />
<glyph unicode="&#xbf;" horiz-adv-x="669" d="M420 733q54 0 85.5 -31t31.5 -86q0 -51 -31.5 -80.5t-85.5 -29.5t-83.5 29.5t-29.5 80.5q0 56 29.5 86.5t83.5 30.5zM387 336q42 -54 64 -126t16 -118q-9 -55 -40.5 -100t-70.5 -77.5t-78.5 -66t-71 -82t-40.5 -108.5q-4 -44 -1 -84t22 -68t51 -28q55 0 63 82 q11 125 111 125q54 0 77 -33t13 -78q-13 -66 -95.5 -101.5t-185.5 -35.5q-132 0 -202.5 63t-49.5 183q4 19 10.5 38t12 33.5t17.5 32t18 28t23 28t22.5 24t25.5 24l24 21t27 22.5t25 21q95 72 135 126.5t51 125.5q7 58 -4 117q-1 9 13.5 14.5t17.5 -2.5z" />
<glyph unicode="&#xc0;" horiz-adv-x="1239" d="M541 1548q-27 5 31 32q81 36 147 46q23 3 29 -2q25 -20 113 -96.5t143 -116.5q5 -2 5 -8t-4 -10.5t-10 -1.5q-230 101 -454 157zM1174 25q8 0 8 -12.5t-8 -12.5q-34 0 -108.5 4t-119.5 4t-114 -4t-103 -4q-7 0 -7 12.5t7 12.5q78 0 101.5 31t5.5 116l-60 297h-397 l-113 -205q-70 -128 -45.5 -183.5t150.5 -55.5q5 0 6.5 -6.5t-0.5 -12.5t-8 -6q-28 0 -115.5 4t-134.5 4q-41 0 -98 -4t-91 -4q-8 0 -8 12.5t8 12.5q58 0 135.5 65.5t145.5 188.5l571 1019q5 7 20 5.5t17 -7.5l223 -1124q9 -50 14.5 -72t19.5 -42.5t36.5 -26.5t61.5 -6z M410 526h354l-94 471z" />
<glyph unicode="&#xc1;" horiz-adv-x="1239" d="M592 1389q-9 -3 -12.5 8t2.5 14q44 31 87.5 67t94 80t76.5 66q16 13 125 -26q93 -33 90 -46q-1 -3 -8 -4q-242 -63 -455 -159zM1174 25q8 0 8 -12.5t-8 -12.5q-34 0 -108.5 4t-119.5 4t-114 -4t-103 -4q-7 0 -7 12.5t7 12.5q78 0 101.5 31t5.5 116l-60 297h-397 l-113 -205q-70 -128 -45.5 -183.5t150.5 -55.5q5 0 6.5 -6.5t-0.5 -12.5t-8 -6q-28 0 -115.5 4t-134.5 4q-41 0 -98 -4t-91 -4q-8 0 -8 12.5t8 12.5q58 0 135.5 65.5t145.5 188.5l571 1019q5 7 20 5.5t17 -7.5l223 -1124q9 -50 14.5 -72t19.5 -42.5t36.5 -26.5t61.5 -6z M410 526h354l-94 471z" />
<glyph unicode="&#xc2;" horiz-adv-x="1239" d="M598 1352q-3 -2 -7.5 0.5t-6 6.5t1.5 7l237 236q7 9 19 9t18 -9l170 -236q3 -3 1 -7.5t-6.5 -6.5t-8.5 0l-193 78zM1174 25q8 0 8 -12.5t-8 -12.5q-34 0 -108.5 4t-119.5 4t-114 -4t-103 -4q-7 0 -7 12.5t7 12.5q78 0 101.5 31t5.5 116l-60 297h-397l-113 -205 q-70 -128 -45.5 -183.5t150.5 -55.5q5 0 6.5 -6.5t-0.5 -12.5t-8 -6q-28 0 -115.5 4t-134.5 4q-41 0 -98 -4t-91 -4q-8 0 -8 12.5t8 12.5q58 0 135.5 65.5t145.5 188.5l571 1019q5 7 20 5.5t17 -7.5l223 -1124q9 -50 14.5 -72t19.5 -42.5t36.5 -26.5t61.5 -6zM410 526h354 l-94 471z" />
<glyph unicode="&#xc3;" horiz-adv-x="1239" d="M553 1452q-1 -1 -3.5 -0.5t-4.5 2t-4 4t-2.5 4.5t0.5 4q21 32 36.5 52.5t43.5 51t59 46.5t63 16q23 0 111.5 -25.5t136.5 -25.5q43 0 70.5 12t58.5 43q2 2 6.5 0.5t7.5 -6t1 -8.5q-62 -98 -102 -131t-93 -33q-35 0 -121.5 24.5t-134.5 24.5q-47 0 -69.5 -10t-51.5 -37z M1174 25q8 0 8 -12.5t-8 -12.5q-34 0 -108.5 4t-119.5 4t-114 -4t-103 -4q-7 0 -7 12.5t7 12.5q78 0 101.5 31t5.5 116l-60 297h-397l-113 -205q-70 -128 -45.5 -183.5t150.5 -55.5q5 0 6.5 -6.5t-0.5 -12.5t-8 -6q-28 0 -115.5 4t-134.5 4q-41 0 -98 -4t-91 -4 q-8 0 -8 12.5t8 12.5q58 0 135.5 65.5t145.5 188.5l571 1019q5 7 20 5.5t17 -7.5l223 -1124q9 -50 14.5 -72t19.5 -42.5t36.5 -26.5t61.5 -6zM410 526h354l-94 471z" />
<glyph unicode="&#xc4;" horiz-adv-x="1239" d="M664 1440q-53 0 -83 29t-30 83q0 50 30.5 78.5t82.5 28.5q51 0 78.5 -28.5t27.5 -78.5q0 -54 -27.5 -83t-78.5 -29zM1020 1440q-53 0 -82 29t-29 83q0 50 29.5 77.5t81.5 27.5q51 0 78.5 -27.5t27.5 -77.5q0 -54 -27.5 -83t-78.5 -29zM1174 25q8 0 8 -12.5t-8 -12.5 q-34 0 -108.5 4t-119.5 4t-114 -4t-103 -4q-7 0 -7 12.5t7 12.5q78 0 101.5 31t5.5 116l-60 297h-397l-113 -205q-70 -128 -45.5 -183.5t150.5 -55.5q5 0 6.5 -6.5t-0.5 -12.5t-8 -6q-28 0 -115.5 4t-134.5 4q-41 0 -98 -4t-91 -4q-8 0 -8 12.5t8 12.5q58 0 135.5 65.5 t145.5 188.5l571 1019q5 7 20 5.5t17 -7.5l223 -1124q9 -50 14.5 -72t19.5 -42.5t36.5 -26.5t61.5 -6zM410 526h354l-94 471z" />
<glyph unicode="&#xc5;" horiz-adv-x="1239" d="M803 1352q-100 0 -159.5 48.5t-59.5 115.5q0 49 37 86t90 54t110 17q91 0 155 -47.5t64 -116.5q0 -71 -72 -114t-165 -43zM780 1645q-47 0 -47 -91q0 -66 27.5 -120t73.5 -54q29 0 42 22.5t13 72.5q0 68 -32.5 119t-76.5 51zM1174 25q8 0 8 -12.5t-8 -12.5 q-34 0 -108.5 4t-119.5 4t-114 -4t-103 -4q-7 0 -7 12.5t7 12.5q78 0 101.5 31t5.5 116l-60 297h-397l-113 -205q-70 -128 -45.5 -183.5t150.5 -55.5q5 0 6.5 -6.5t-0.5 -12.5t-8 -6q-28 0 -115.5 4t-134.5 4q-41 0 -98 -4t-91 -4q-8 0 -8 12.5t8 12.5q58 0 135.5 65.5 t145.5 188.5l571 1019q5 7 20 5.5t17 -7.5l223 -1124q9 -50 14.5 -72t19.5 -42.5t36.5 -26.5t61.5 -6zM410 526h354l-94 471z" />
<glyph unicode="&#xc6;" horiz-adv-x="1581" d="M1556 1280q16 0 13 -18l-43 -275q-2 -7 -13.5 -5t-11.5 7q-9 120 -80.5 191t-183.5 71h-37q-52 0 -80 -34t-37 -105l-53 -418h182q92 0 143.5 36.5t69.5 119.5q1 6 7.5 7.5t12.5 -1t5 -8.5q-13 -80 -35 -182q-8 -38 -17.5 -107t-15.5 -104q-1 -6 -7.5 -7t-12 1.5 t-4.5 7.5q15 88 -28 134t-132 46h-174l-59 -463q-11 -87 6.5 -112t91.5 -25h27q105 0 205.5 78t168.5 211q2 4 8 4t11 -2.5t4 -5.5q-31 -92 -70 -291q-3 -18 -9.5 -24.5t-23.5 -6.5h-763q-9 0 -9 12.5t9 12.5q76 0 102.5 26.5t36.5 114.5l61 471h-276l-266 -385 q-65 -94 -31.5 -160.5t145.5 -66.5q9 0 8 -12.5t-8 -12.5q-35 0 -149 4t-162 4q-45 0 -104 -4t-93 -4q-9 0 -9 12.5t9 12.5q85 0 164 53t176 198l617 906q33 55 18 64t-122 9h-4.5h-4h-4.5h-4q-9 0 -9 12.5t9 12.5h835zM584 694h243l58 434z" />
<glyph unicode="&#xc7;" horiz-adv-x="1204" d="M1198 1243q13 -7 15.5 -15.5t0.5 -31.5l-32 -274q0 -6 -11 -6t-12 6q-36 154 -127 239.5t-223 85.5q-178 0 -300 -143t-157 -395q-26 -186 3 -344t111 -253.5t202 -95.5q203 0 434 312q4 5 9.5 4.5t9.5 -4t3 -6.5l-55 -236q-6 -26 -12.5 -34.5t-24.5 -12.5 q-184 -64 -373 -64q-4 -14 -6.5 -26.5t-1 -25t2 -21.5t6.5 -22t8.5 -18.5t12.5 -19.5l12.5 -17.5t15 -19.5t14.5 -18q42 -54 58.5 -93t9.5 -77q-11 -66 -75 -123t-171 -57q-75 0 -123 30t-41 78q4 34 29 52t57 18q28 0 45.5 -14.5t25 -34.5t14 -40.5t19.5 -35t35 -14.5 q46 0 53 49q3 34 -24.5 79.5t-79.5 112.5q-16 21 -15 50t9.5 50t28.5 60l47 98q-96 3 -175 26t-134.5 60t-97 88t-65 108.5t-34.5 123t-9.5 130t13.5 130.5q28 154 104 281t181.5 209t230.5 127t254 45q82 0 169.5 -17.5t135.5 -42.5z" />
<glyph unicode="&#xc8;" horiz-adv-x="1087" d="M510 1548q-30 8 34 34q85 35 159 43q29 3 34 -3q28 -32 55 -58.5t64.5 -62t67.5 -65.5q3 -4 0.5 -9.5t-9 -9t-12.5 -0.5q-168 65 -393 131zM1063 1280q15 0 12 -18l-43 -275q-2 -7 -13 -5t-11 7q-7 114 -79.5 181t-185.5 67h-36q-84 0 -108 -22t-38 -103l-74 -418h232 q93 0 143.5 36t69.5 120q1 6 7.5 7.5t12 -1t4.5 -8.5q-8 -52 -20 -112.5t-14 -69.5q-6 -32 -16 -100.5t-17 -110.5q-1 -6 -7.5 -7t-12.5 1.5t-5 7.5q15 88 -27.5 134t-131.5 46h-228l-82 -463q-13 -82 5.5 -106.5t93.5 -24.5h53q120 0 234.5 77t189.5 206q4 8 18 2 q4 -3 4 -6q-32 -103 -69 -291q-3 -18 -9.5 -24.5t-23.5 -6.5h-850q-6 0 -6 12.5t6 12.5q82 0 108 25t44 116l165 948q17 87 -2.5 114t-97.5 27q-4 0 -4 12.5t4 12.5h805z" />
<glyph unicode="&#xc9;" horiz-adv-x="1087" d="M614 1391q-6 -3 -10.5 1.5t-4 10t4.5 8.5q58 42 154 125t102 88q17 14 125 -24q92 -32 92 -47q0 -4 -8 -5q-223 -55 -455 -157zM1063 1280q15 0 12 -18l-43 -275q-2 -7 -13 -5t-11 7q-7 114 -79.5 181t-185.5 67h-36q-84 0 -108 -22t-38 -103l-74 -418h232q93 0 143.5 36 t69.5 120q1 6 7.5 7.5t12 -1t4.5 -8.5q-8 -52 -20 -112.5t-14 -69.5q-6 -32 -16 -100.5t-17 -110.5q-1 -6 -7.5 -7t-12.5 1.5t-5 7.5q15 88 -27.5 134t-131.5 46h-228l-82 -463q-13 -82 5.5 -106.5t93.5 -24.5h53q120 0 234.5 77t189.5 206q4 8 18 2q4 -3 4 -6 q-32 -103 -69 -291q-3 -18 -9.5 -24.5t-23.5 -6.5h-850q-6 0 -6 12.5t6 12.5q82 0 108 25t44 116l165 948q17 87 -2.5 114t-97.5 27q-4 0 -4 12.5t4 12.5h805z" />
<glyph unicode="&#xca;" horiz-adv-x="1087" d="M524 1352q-3 -2 -7.5 0.5t-6 6.5t1.5 7l238 236q8 9 19 9t17 -9l170 -236q3 -3 1 -7.5t-6.5 -6.5t-8.5 0l-192 78zM1063 1280q15 0 12 -18l-43 -275q-2 -7 -13 -5t-11 7q-7 114 -79.5 181t-185.5 67h-36q-84 0 -108 -22t-38 -103l-74 -418h232q93 0 143.5 36t69.5 120 q1 6 7.5 7.5t12 -1t4.5 -8.5q-8 -52 -20 -112.5t-14 -69.5q-6 -32 -16 -100.5t-17 -110.5q-1 -6 -7.5 -7t-12.5 1.5t-5 7.5q15 88 -27.5 134t-131.5 46h-228l-82 -463q-13 -82 5.5 -106.5t93.5 -24.5h53q120 0 234.5 77t189.5 206q4 8 18 2q4 -3 4 -6q-32 -103 -69 -291 q-3 -18 -9.5 -24.5t-23.5 -6.5h-850q-6 0 -6 12.5t6 12.5q82 0 108 25t44 116l165 948q17 87 -2.5 114t-97.5 27q-4 0 -4 12.5t4 12.5h805z" />
<glyph unicode="&#xcb;" horiz-adv-x="1087" d="M602 1440q-53 0 -81.5 29t-28.5 83q0 50 29 77.5t81 27.5q50 0 77.5 -27.5t27.5 -77.5q0 -54 -27.5 -83t-77.5 -29zM928 1440q-53 0 -82 29t-29 83q0 50 29.5 77.5t81.5 27.5q49 0 76.5 -27.5t27.5 -77.5q0 -54 -27 -83t-77 -29zM1063 1280q15 0 12 -18l-43 -275 q-2 -7 -13 -5t-11 7q-7 114 -79.5 181t-185.5 67h-36q-84 0 -108 -22t-38 -103l-74 -418h232q93 0 143.5 36t69.5 120q1 6 7.5 7.5t12 -1t4.5 -8.5q-8 -52 -20 -112.5t-14 -69.5q-6 -32 -16 -100.5t-17 -110.5q-1 -6 -7.5 -7t-12.5 1.5t-5 7.5q15 88 -27.5 134t-131.5 46 h-228l-82 -463q-13 -82 5.5 -106.5t93.5 -24.5h53q120 0 234.5 77t189.5 206q4 8 18 2q4 -3 4 -6q-32 -103 -69 -291q-3 -18 -9.5 -24.5t-23.5 -6.5h-850q-6 0 -6 12.5t6 12.5q82 0 108 25t44 116l165 948q17 87 -2.5 114t-97.5 27q-4 0 -4 12.5t4 12.5h805z" />
<glyph unicode="&#xcc;" horiz-adv-x="688" d="M680 1417q-168 65 -393 131q-30 8 34 34q85 35 159 43q29 3 34 -3q28 -32 54.5 -58.5t64 -62t67.5 -65.5q3 -4 1 -9.5t-8.5 -9t-12.5 -0.5zM51 0q-6 0 -6 12.5t6 12.5q81 0 108 25.5t42 115.5l168 948q17 86 -4 113.5t-99 27.5q-6 0 -6 12.5t6 12.5q27 0 103.5 -3 t122.5 -3q53 0 129.5 3t101.5 3q6 0 6 -12.5t-6 -12.5q-81 0 -108 -27.5t-42 -117.5l-167 -944q-17 -89 2.5 -115t99.5 -26q4 0 4 -12.5t-4 -12.5q-27 0 -103 2t-126 2q-46 0 -123.5 -2t-104.5 -2z" />
<glyph unicode="&#xcd;" horiz-adv-x="688" d="M391 1391q-6 -3 -10.5 1.5t-4 10t4.5 8.5q58 42 154 125t102 88q17 14 125 -24q92 -32 92 -47q0 -4 -8 -5q-223 -55 -455 -157zM51 0q-6 0 -6 12.5t6 12.5q81 0 108 25.5t42 115.5l168 948q17 86 -4 113.5t-99 27.5q-6 0 -6 12.5t6 12.5q27 0 103.5 -3t122.5 -3 q53 0 129.5 3t101.5 3q6 0 6 -12.5t-6 -12.5q-81 0 -108 -27.5t-42 -117.5l-167 -944q-17 -89 2.5 -115t99.5 -26q4 0 4 -12.5t-4 -12.5q-27 0 -103 2t-126 2q-46 0 -123.5 -2t-104.5 -2z" />
<glyph unicode="&#xce;" horiz-adv-x="688" d="M301 1352q-3 -2 -7.5 0.5t-6 6.5t1.5 7l237 236q8 9 19.5 9t17.5 -9l170 -236q3 -3 1 -7.5t-6.5 -6.5t-8.5 0l-193 78zM51 0q-6 0 -6 12.5t6 12.5q81 0 108 25.5t42 115.5l168 948q17 86 -4 113.5t-99 27.5q-6 0 -6 12.5t6 12.5q27 0 103.5 -3t122.5 -3q53 0 129.5 3 t101.5 3q6 0 6 -12.5t-6 -12.5q-81 0 -108 -27.5t-42 -117.5l-167 -944q-17 -89 2.5 -115t99.5 -26q4 0 4 -12.5t-4 -12.5q-27 0 -103 2t-126 2q-46 0 -123.5 -2t-104.5 -2z" />
<glyph unicode="&#xcf;" horiz-adv-x="688" d="M389 1440q-52 0 -82.5 29.5t-30.5 82.5q0 49 31 78t82 29q50 0 77.5 -28.5t27.5 -78.5q0 -54 -27 -83t-78 -29zM702 1440q-106 0 -106 112q0 50 27 77.5t79 27.5q50 0 77.5 -27.5t27.5 -77.5q0 -54 -27.5 -83t-77.5 -29zM51 0q-6 0 -6 12.5t6 12.5q81 0 108 25.5 t42 115.5l168 948q17 86 -4 113.5t-99 27.5q-6 0 -6 12.5t6 12.5q27 0 103.5 -3t122.5 -3q53 0 129.5 3t101.5 3q6 0 6 -12.5t-6 -12.5q-81 0 -108 -27.5t-42 -117.5l-167 -944q-17 -89 2.5 -115t99.5 -26q4 0 4 -12.5t-4 -12.5q-27 0 -103 2t-126 2q-46 0 -123.5 -2 t-104.5 -2z" />
<glyph unicode="&#xd0;" horiz-adv-x="1302" d="M715 1284q195 0 333.5 -78.5t197.5 -220.5t26 -323q-35 -196 -153 -351.5t-277.5 -237t-327.5 -81.5q-31 0 -123.5 6t-136.5 6q-49 0 -124.5 -2t-102.5 -2q-6 0 -6 12.5t6 12.5q82 0 109 25.5t44 115.5l78 442h-117q-9 0 -9 29t9 29h127l80 448q15 88 -4.5 114.5 t-97.5 26.5q-4 0 -4 12.5t4 12.5q28 0 105.5 -3t125.5 -3q38 0 119 5t119 5zM1040 616q13 75 14.5 147.5t-8 144t-36 131.5t-67 106t-104 72t-143.5 26q-74 0 -104 -30t-43 -103l-80 -444h209q9 0 9 -29t-9 -29h-219l-74 -420q-14 -84 10.5 -119.5t110.5 -35.5 q197 0 341 154t193 429z" />
<glyph unicode="&#xd1;" d="M592 1405q-2 -2 -6 -0.5t-7 6t-1 8.5q21 32 36.5 52.5t43.5 51t59.5 46.5t64.5 16q23 0 110.5 -25.5t135.5 -25.5q45 0 72.5 12t58.5 43q3 3 10.5 -3.5t4.5 -10.5q-62 -100 -102 -133t-93 -33q-35 0 -122 25.5t-134 25.5q-16 0 -28.5 -0.5t-24 -4.5t-17.5 -5t-17 -9 t-13 -9.5t-15.5 -13t-15.5 -13.5zM1454 1280q4 0 4 -12.5t-4 -12.5q-77 0 -133.5 -57.5t-75.5 -155.5l-188 -1056q0 -11 -27 -14.5t-33 10.5l-589 1077l-148 -821q-17 -99 19.5 -156t115.5 -57q5 0 5 -12.5t-5 -12.5q-25 0 -89.5 2t-108.5 2q-38 0 -105.5 -2t-95.5 -2 q-6 0 -6 12.5t6 12.5q77 0 133.5 57t73.5 156l162 897q-39 67 -76 93.5t-80 26.5q-6 0 -6 12.5t6 12.5q28 0 91.5 -2t86.5 -2q26 0 78 2t55 2q14 0 20 -8t18.5 -38.5t29.5 -59.5l469 -855l131 723q19 98 -17 155.5t-116 57.5q-6 0 -6 12.5t6 12.5q20 0 86.5 -3t111.5 -3 q38 0 105.5 3t95.5 3z" />
<glyph unicode="&#xd2;" d="M1004 1417q-165 64 -394 131q-30 8 34 34q85 35 160 43q29 3 34 -3q28 -32 54.5 -58.5t64 -62t67.5 -65.5q3 -4 1 -9.5t-8.5 -9t-12.5 -0.5zM575 -25q-102 0 -186.5 34t-141.5 94.5t-93.5 144t-42.5 182.5t12 211q50 286 253.5 474t465.5 188q129 0 229.5 -51.5 t158.5 -140.5t80.5 -210t-5.5 -260q-27 -151 -99.5 -278t-171.5 -211t-218 -130.5t-241 -46.5zM664 29q147 0 257 136t150 367q26 141 14.5 271t-48.5 230t-109 160t-166 60q-147 0 -257.5 -135.5t-150.5 -367.5q-16 -111 -16.5 -215.5t23.5 -196.5t63 -160.5t101 -108.5 t139 -40z" />
<glyph unicode="&#xd3;" d="M715 1391q-6 -3 -10.5 1.5t-4 10t4.5 8.5q58 42 154 125t102 88q17 14 124 -23q92 -33 92 -48q0 -4 -8 -5q-220 -55 -454 -157zM575 -25q-102 0 -186.5 34t-141.5 94.5t-93.5 144t-42.5 182.5t12 211q50 286 253.5 474t465.5 188q129 0 229.5 -51.5t158.5 -140.5 t80.5 -210t-5.5 -260q-27 -151 -99.5 -278t-171.5 -211t-218 -130.5t-241 -46.5zM664 29q147 0 257 136t150 367q26 141 14.5 271t-48.5 230t-109 160t-166 60q-147 0 -257.5 -135.5t-150.5 -367.5q-16 -111 -16.5 -215.5t23.5 -196.5t63 -160.5t101 -108.5t139 -40z" />
<glyph unicode="&#xd4;" d="M625 1352q-3 -2 -8 0.5t-6.5 6.5t1.5 7l238 236q8 9 19.5 9t17.5 -9l170 -236q3 -3 0.5 -7.5t-7 -6.5t-8.5 0l-192 78zM575 -25q-102 0 -186.5 34t-141.5 94.5t-93.5 144t-42.5 182.5t12 211q50 286 253.5 474t465.5 188q129 0 229.5 -51.5t158.5 -140.5t80.5 -210 t-5.5 -260q-27 -151 -99.5 -278t-171.5 -211t-218 -130.5t-241 -46.5zM664 29q147 0 257 136t150 367q26 141 14.5 271t-48.5 230t-109 160t-166 60q-147 0 -257.5 -135.5t-150.5 -367.5q-16 -111 -16.5 -215.5t23.5 -196.5t63 -160.5t101 -108.5t139 -40z" />
<glyph unicode="&#xd5;" d="M588 1405q-2 -2 -6.5 -0.5t-7.5 6t-1 8.5q21 32 36.5 52.5t43.5 51t60 46.5t65 16q23 0 110.5 -25.5t135.5 -25.5q45 0 72.5 12t58.5 43q2 2 6 -0.5t7 -6.5t1 -7q-62 -100 -101.5 -133t-92.5 -33q-35 0 -122 25.5t-134 25.5q-16 0 -28.5 -0.5t-24 -4.5t-17.5 -5t-17 -9 t-13 -9.5t-15.5 -13t-15.5 -13.5zM575 -25q-102 0 -186.5 34t-141.5 94.5t-93.5 144t-42.5 182.5t12 211q50 286 253.5 474t465.5 188q129 0 229.5 -51.5t158.5 -140.5t80.5 -210t-5.5 -260q-27 -151 -99.5 -278t-171.5 -211t-218 -130.5t-241 -46.5zM664 29q147 0 257 136 t150 367q26 141 14.5 271t-48.5 230t-109 160t-166 60q-147 0 -257.5 -135.5t-150.5 -367.5q-16 -111 -16.5 -215.5t23.5 -196.5t63 -160.5t101 -108.5t139 -40z" />
<glyph unicode="&#xd6;" d="M702 1440q-53 0 -81.5 29t-28.5 83q0 50 29 77.5t81 27.5q50 0 77.5 -27.5t27.5 -77.5q0 -54 -27.5 -83t-77.5 -29zM1028 1440q-53 0 -81.5 29t-28.5 83q0 50 29 77.5t81 27.5q50 0 77.5 -27.5t27.5 -77.5q0 -54 -27.5 -83t-77.5 -29zM575 -25q-102 0 -186.5 34 t-141.5 94.5t-93.5 144t-42.5 182.5t12 211q50 286 253.5 474t465.5 188q129 0 229.5 -51.5t158.5 -140.5t80.5 -210t-5.5 -260q-27 -151 -99.5 -278t-171.5 -211t-218 -130.5t-241 -46.5zM664 29q147 0 257 136t150 367q26 141 14.5 271t-48.5 230t-109 160t-166 60 q-147 0 -257.5 -135.5t-150.5 -367.5q-16 -111 -16.5 -215.5t23.5 -196.5t63 -160.5t101 -108.5t139 -40z" />
<glyph unicode="&#xd7;" horiz-adv-x="817" d="M680 184q6 -7 -28 -40t-42 -27l-202 205l-207 -207q-3 -5 -21.5 10.5t-35 33.5t-13.5 21l207 209l-205 205q-4 4 12 22.5t34 34.5t20 13l207 -207l204 205q8 5 41.5 -29t26.5 -41l-203 -203z" />
<glyph unicode="&#xd8;" d="M1325 1300q3 4 15.5 -3.5t22.5 -18.5t5 -16l-143 -146q64 -90 85 -211.5t-5 -263.5q-27 -151 -99.5 -278t-171.5 -211t-218 -130.5t-241 -46.5q-210 0 -337 140l-142 -144q-4 -4 -16 5t-21 21t-4 17l146 148q-62 91 -82 214.5t4 264.5q50 286 253.5 474t465.5 188 q218 0 348 -140zM354 750q-39 -236 11 -422l679 688q-41 111 -112.5 174t-169.5 63q-147 0 -257.5 -135.5t-150.5 -367.5zM1071 532q41 230 -8 420l-680 -690q40 -108 111.5 -170.5t169.5 -62.5q147 0 257 136t150 367z" />
<glyph unicode="&#xd9;" horiz-adv-x="1269" d="M1051 1391q-229 101 -455 157q-27 5 31 32q81 36 147 46q23 3 29 -2q25 -20 113 -96.5t143 -116.5q5 -2 5 -8t-3.5 -10.5t-9.5 -1.5zM1145 1026q19 108 -16 168.5t-113 60.5q-6 0 -5 12.5t5 12.5q29 0 95 -3t106 -3q36 0 99 3t85 3q7 0 6 -12.5t-6 -12.5 q-73 0 -125.5 -66.5t-71.5 -176.5l-108 -619q-35 -194 -180.5 -308t-348.5 -114q-210 0 -320 119.5t-75 321.5l127 708q15 88 -4 111.5t-100 23.5q-5 0 -6 6.5t0.5 12.5t3.5 6q31 0 108 -3t123 -3q53 0 133 3t105 3q4 0 3.5 -12.5t-3.5 -12.5q-84 0 -115.5 -31.5 t-46.5 -121.5l-113 -633q-37 -217 31 -319.5t223 -102.5q156 0 260.5 95.5t132.5 263.5z" />
<glyph unicode="&#xda;" horiz-adv-x="1269" d="M647 1389q-9 -3 -12.5 8t2.5 14q44 31 87.5 67t94 80t76.5 66q16 13 125 -26q93 -33 90 -46q-1 -3 -8 -4q-242 -63 -455 -159zM1145 1026q19 108 -16 168.5t-113 60.5q-6 0 -5 12.5t5 12.5q29 0 95 -3t106 -3q36 0 99 3t85 3q7 0 6 -12.5t-6 -12.5q-73 0 -125.5 -66.5 t-71.5 -176.5l-108 -619q-35 -194 -180.5 -308t-348.5 -114q-210 0 -320 119.5t-75 321.5l127 708q15 88 -4 111.5t-100 23.5q-5 0 -6 6.5t0.5 12.5t3.5 6q31 0 108 -3t123 -3q53 0 133 3t105 3q4 0 3.5 -12.5t-3.5 -12.5q-84 0 -115.5 -31.5t-46.5 -121.5l-113 -633 q-37 -217 31 -319.5t223 -102.5q156 0 260.5 95.5t132.5 263.5z" />
<glyph unicode="&#xdb;" horiz-adv-x="1269" d="M653 1352q-3 -2 -7.5 0.5t-6 6.5t1.5 7l238 236q7 9 18.5 9t17.5 -9l170 -236q3 -3 1 -7.5t-6.5 -6.5t-8.5 0l-192 78zM1145 1026q19 108 -16 168.5t-113 60.5q-6 0 -5 12.5t5 12.5q29 0 95 -3t106 -3q36 0 99 3t85 3q7 0 6 -12.5t-6 -12.5q-73 0 -125.5 -66.5 t-71.5 -176.5l-108 -619q-35 -194 -180.5 -308t-348.5 -114q-210 0 -320 119.5t-75 321.5l127 708q15 88 -4 111.5t-100 23.5q-5 0 -6 6.5t0.5 12.5t3.5 6q31 0 108 -3t123 -3q53 0 133 3t105 3q4 0 3.5 -12.5t-3.5 -12.5q-84 0 -115.5 -31.5t-46.5 -121.5l-113 -633 q-37 -217 31 -319.5t223 -102.5q156 0 260.5 95.5t132.5 263.5z" />
<glyph unicode="&#xdc;" horiz-adv-x="1269" d="M719 1440q-53 0 -83 29t-30 83q0 50 30.5 78.5t82.5 28.5q51 0 78.5 -28.5t27.5 -78.5q0 -54 -27.5 -83t-78.5 -29zM1075 1440q-53 0 -81.5 29t-28.5 83q0 50 29 77.5t81 27.5q51 0 79 -27.5t28 -77.5q0 -54 -28 -83t-79 -29zM1145 1026q19 108 -16 168.5t-113 60.5 q-6 0 -5 12.5t5 12.5q29 0 95 -3t106 -3q36 0 99 3t85 3q7 0 6 -12.5t-6 -12.5q-73 0 -125.5 -66.5t-71.5 -176.5l-108 -619q-35 -194 -180.5 -308t-348.5 -114q-210 0 -320 119.5t-75 321.5l127 708q15 88 -4 111.5t-100 23.5q-5 0 -6 6.5t0.5 12.5t3.5 6q31 0 108 -3 t123 -3q53 0 133 3t105 3q4 0 3.5 -12.5t-3.5 -12.5q-84 0 -115.5 -31.5t-46.5 -121.5l-113 -633q-37 -217 31 -319.5t223 -102.5q156 0 260.5 95.5t132.5 263.5z" />
<glyph unicode="&#xdd;" horiz-adv-x="1095" d="M612 1391q-6 -3 -10.5 1.5t-4 10t4.5 8.5q58 42 154 125t102 88q17 14 125 -24q92 -32 92 -47q0 -4 -8 -5q-223 -55 -455 -157zM1239 1280q6 0 6 -12.5t-6 -12.5q-130 0 -278 -223l-259 -391l-84 -475q-17 -90 5 -115.5t120 -25.5q6 0 6 -12.5t-6 -12.5q-30 0 -113 2 t-136 2q-54 0 -139 -2t-115 -2q-8 0 -8 12.5t8 12.5q97 0 130 26t48 115l76 450l-209 494q-32 75 -66.5 110t-75.5 35q-7 0 -7 12.5t7 12.5q29 0 98 -3t101 -3q42 0 128 3t108 3q8 0 8 -12.5t-8 -12.5q-70 0 -90.5 -17t-2.5 -64l197 -472l240 375q48 72 29.5 125t-91.5 53 q-8 0 -8 12.5t8 12.5q27 0 111 -3t131 -3q29 0 70.5 3t66.5 3z" />
<glyph unicode="&#xde;" horiz-adv-x="1118" d="M666 1022q234 0 355 -100.5t81 -282.5q-20 -93 -78.5 -166.5t-135 -115.5t-157.5 -63.5t-158 -21.5q-38 0 -84 11q-2 1 -2.5 5t0.5 10t3 11.5t5 9.5t5 3q30 -9 61 -9q47 0 92.5 14t91 45t80 89t49.5 137q10 60 9 115.5t-22 104t-54.5 84.5t-88.5 56.5t-124 20.5 q-22 0 -68 -4l-141 -809q-7 -39 -7 -61.5t6 -40t25.5 -25t48 -11t77.5 -3.5q5 0 5 -12.5t-5 -12.5q-32 0 -126.5 2t-154.5 2q-45 0 -121 -2t-102 -2q-5 0 -5 12.5t5 12.5q83 0 110.5 25.5t42.5 115.5l168 948q15 88 -4 114.5t-96 26.5q-6 0 -6 12.5t6 12.5q26 0 100.5 -3 t122.5 -3q63 0 155.5 3t123.5 3q6 0 6 -12.5t-6 -12.5q-65 0 -96.5 -3.5t-55 -20.5t-32.5 -42.5t-19 -78.5l-16 -94q67 6 131 6z" />
<glyph unicode="&#xdf;" horiz-adv-x="972" d="M-74 -563q-90 0 -139 33t-43 84q3 37 30 59t68 22q34 0 53 -16t25 -39.5t10 -46.5t13 -39t28 -16q25 0 49 92.5t60 333.5l141 952q20 137 61 250t104.5 199t153.5 134t199 48q110 0 171 -48.5t51 -140.5q-6 -53 -35 -101.5t-66.5 -85.5t-75 -72t-66.5 -77t-36 -85 q-6 -39 9.5 -85.5t43.5 -88.5t59.5 -93.5t58 -100.5t39.5 -111t3 -122q-20 -128 -102 -213.5t-205 -85.5q-83 0 -130.5 38.5t-47.5 84.5q0 43 25 72t69 29q37 0 59 -16.5t31 -39.5t16 -46t23 -39.5t43 -16.5q42 0 60 27.5t26 72.5q8 55 -14 116.5t-57.5 118t-71 115 t-56.5 126t-12 131.5q9 60 43.5 127.5t70 118.5t67 125.5t36.5 148.5q6 83 -21.5 126.5t-84.5 43.5q-97 0 -159 -132.5t-106 -408.5l-139 -942q-42 -292 -116.5 -406t-215.5 -114z" />
<glyph unicode="&#xe0;" horiz-adv-x="909" d="M610 973l-125 516q5 15 48 15t94.5 -12.5t50.5 -25.5l-49 -491q0 -3 -4.5 -5t-9.5 -1.5t-5 4.5zM850 158q4 4 9.5 1t7.5 -8.5t-1 -9.5q-131 -159 -229 -159q-66 0 -89.5 48t-6.5 152l24 140q-78 -164 -185.5 -256.5t-209.5 -92.5q-75 0 -112 53t-21 160q14 101 72 214.5 t137.5 205t175.5 151.5t180 60q87 0 146 -53q38 27 63 70q4 4 10 3.5t11 -4t4 -6.5l-119 -645q-17 -96 22 -96t111 72zM301 123q62 0 128.5 67.5t112 157.5t60.5 170q17 91 -11.5 145t-90.5 54q-87 0 -166.5 -104.5t-106.5 -260.5q-20 -121 2 -175t72 -54z" />
<glyph unicode="&#xe1;" horiz-adv-x="909" d="M721 1466q4 19 105 30q96 11 101 -3q0 -2 -1 -4l-338 -520q-4 -8 -18 -1q-6 4 -3 7zM850 158q4 4 9.5 1t7.5 -8.5t-1 -9.5q-131 -159 -229 -159q-66 0 -89.5 48t-6.5 152l24 140q-78 -164 -185.5 -256.5t-209.5 -92.5q-75 0 -112 53t-21 160q14 101 72 214.5t137.5 205 t175.5 151.5t180 60q87 0 146 -53q38 27 63 70q4 4 10 3.5t11 -4t4 -6.5l-119 -645q-17 -96 22 -96t111 72zM301 123q62 0 128.5 67.5t112 157.5t60.5 170q17 91 -11.5 145t-90.5 54q-87 0 -166.5 -104.5t-106.5 -260.5q-20 -121 2 -175t72 -54z" />
<glyph unicode="&#xe2;" horiz-adv-x="909" d="M461 971q-4 -4 -9.5 -3.5t-10 3.5t-3.5 6l246 510q4 11 20.5 11t16.5 -11l65 -510q0 -5 -11 -5.5t-13 3.5l-109 221zM850 158q4 4 9.5 1t7.5 -8.5t-1 -9.5q-131 -159 -229 -159q-66 0 -89.5 48t-6.5 152l24 140q-78 -164 -185.5 -256.5t-209.5 -92.5q-75 0 -112 53 t-21 160q14 101 72 214.5t137.5 205t175.5 151.5t180 60q87 0 146 -53q38 27 63 70q4 4 10 3.5t11 -4t4 -6.5l-119 -645q-17 -96 22 -96t111 72zM301 123q62 0 128.5 67.5t112 157.5t60.5 170q17 91 -11.5 145t-90.5 54q-87 0 -166.5 -104.5t-106.5 -260.5q-20 -121 2 -175 t72 -54z" />
<glyph unicode="&#xe3;" horiz-adv-x="909" d="M901 1147q2 2 6 0.5t7 -6t1 -8.5q-62 -99 -101.5 -131.5t-92.5 -32.5q-35 0 -121.5 24.5t-134.5 24.5q-47 0 -69.5 -10t-51.5 -37l-8 -8q-2 -2 -6 0.5t-7 6.5t-1 7q21 32 36.5 52.5t43.5 51t59 46.5t63 16q23 0 111.5 -25.5t136.5 -25.5q43 0 70.5 12t58.5 43zM850 158 q4 4 9.5 1t7.5 -8.5t-1 -9.5q-131 -159 -229 -159q-66 0 -89.5 48t-6.5 152l24 140q-78 -164 -185.5 -256.5t-209.5 -92.5q-75 0 -112 53t-21 160q14 101 72 214.5t137.5 205t175.5 151.5t180 60q87 0 146 -53q38 27 63 70q4 4 10 3.5t11 -4t4 -6.5l-119 -645 q-17 -96 22 -96t111 72zM301 123q62 0 128.5 67.5t112 157.5t60.5 170q17 91 -11.5 145t-90.5 54q-87 0 -166.5 -104.5t-106.5 -260.5q-20 -121 2 -175t72 -54z" />
<glyph unicode="&#xe4;" horiz-adv-x="909" d="M459 950q-53 0 -82 29.5t-29 83.5q0 49 29 76.5t82 27.5q49 0 76.5 -27.5t27.5 -76.5q0 -54 -27 -83.5t-77 -29.5zM784 950q-53 0 -81.5 29.5t-28.5 83.5q0 50 29 77t81 27q50 0 77.5 -27.5t27.5 -76.5q0 -54 -27.5 -83.5t-77.5 -29.5zM850 158q4 4 9.5 1t7.5 -8.5 t-1 -9.5q-131 -159 -229 -159q-66 0 -89.5 48t-6.5 152l24 140q-78 -164 -185.5 -256.5t-209.5 -92.5q-75 0 -112 53t-21 160q14 101 72 214.5t137.5 205t175.5 151.5t180 60q87 0 146 -53q38 27 63 70q4 4 10 3.5t11 -4t4 -6.5l-119 -645q-17 -96 22 -96t111 72zM301 123 q62 0 128.5 67.5t112 157.5t60.5 170q17 91 -11.5 145t-90.5 54q-87 0 -166.5 -104.5t-106.5 -260.5q-20 -121 2 -175t72 -54z" />
<glyph unicode="&#xe5;" horiz-adv-x="909" d="M608 958q-99 0 -158 48t-59 114q0 74 73.5 117t164.5 43q89 0 153 -48.5t64 -115.5q0 -71 -72 -114.5t-166 -43.5zM588 1251q-47 0 -47 -90q0 -68 27 -121t73 -53q55 0 55 92q0 69 -32 120.5t-76 51.5zM850 158q4 4 9.5 1t7.5 -8.5t-1 -9.5q-131 -159 -229 -159 q-66 0 -89.5 48t-6.5 152l24 140q-78 -164 -185.5 -256.5t-209.5 -92.5q-75 0 -112 53t-21 160q14 101 72 214.5t137.5 205t175.5 151.5t180 60q87 0 146 -53q38 27 63 70q4 4 10 3.5t11 -4t4 -6.5l-119 -645q-17 -96 22 -96t111 72zM301 123q62 0 128.5 67.5t112 157.5 t60.5 170q17 91 -11.5 145t-90.5 54q-87 0 -166.5 -104.5t-106.5 -260.5q-20 -121 2 -175t72 -54z" />
<glyph unicode="&#xe6;" horiz-adv-x="1206" d="M1065 817q96 0 134 -33.5t28 -91.5q-8 -46 -46.5 -87t-141 -93.5t-271.5 -108.5q-14 -159 34 -245t136 -86q81 0 152 59q6 6 14 -2t2 -14q-148 -140 -295 -140q-140 0 -194.5 109t-20.5 297q-87 -185 -197.5 -296.5t-218.5 -111.5q-77 0 -117.5 57.5t-25.5 155.5 q13 99 65.5 209.5t128 204.5t176.5 155.5t201 61.5q63 0 110.5 -23.5t57.5 -72.5q128 96 289 96zM1026 662q5 40 -9.5 71t-53.5 31q-67 0 -120.5 -90.5t-70.5 -233.5v-6q235 102 254 228zM311 133q43 0 107.5 62.5t119 154.5t70.5 170q20 97 -9.5 164.5t-92.5 67.5 q-79 0 -158 -117t-108 -285q-9 -69 -8 -111.5t15.5 -66t29.5 -31.5t34 -8z" />
<glyph unicode="&#xe7;" horiz-adv-x="710" d="M518 817q50 0 93 -13t73.5 -45.5t26.5 -78.5q-3 -42 -31 -67t-74 -25q-86 0 -102 92q-9 38 -25 59t-51 21q-62 0 -108.5 -75t-67.5 -200q-17 -116 -6 -207.5t64.5 -147.5t142.5 -56q42 0 94.5 19t85.5 44q5 3 12.5 -4.5t3.5 -13.5q-139 -136 -303 -146q-4 -13 -6.5 -25.5 t-1 -25t2 -21t6.5 -21.5t8.5 -18.5t12.5 -19.5l12.5 -17.5t15 -19t14.5 -18.5q42 -54 58 -93t9 -77q-11 -66 -75 -123t-171 -57q-74 0 -122 30t-41 78q4 34 29 52t57 18q28 0 45.5 -14.5t25 -34.5t14 -40.5t19.5 -35t35 -14.5q46 0 53 49q3 34 -24.5 79.5t-79.5 112.5 q-16 21 -15.5 49.5t9 50t28.5 60.5l47 96q-67 3 -118.5 30t-80.5 70t-46.5 99t-16.5 117.5t10 124.5q16 89 63.5 166t112 128t138.5 80t145 29z" />
<glyph unicode="&#xe8;" horiz-adv-x="731" d="M516 973l-125 516q5 15 48 15t94.5 -12.5t50.5 -25.5l-49 -491q0 -3 -4.5 -5t-9.5 -1.5t-5 4.5zM553 817q83 0 126 -28.5t38 -81.5q-9 -90 -143.5 -168t-321.5 -113q-21 -157 29 -258.5t168 -101.5q105 0 184 63q5 3 11.5 -4.5t2.5 -11.5q-144 -138 -319 -138 q-114 0 -184 60t-89.5 149.5t0.5 194.5q15 81 59 159t108 140.5t151 100.5t180 38zM510 664q8 44 -9.5 71t-54.5 27q-66 0 -115.5 -84.5t-74.5 -218.5q235 62 254 205z" />
<glyph unicode="&#xe9;" horiz-adv-x="731" d="M627 1466q4 19 104 30q94 11 101 -3q0 -2 -1 -4l-337 -520q-4 -8 -18 -1q-6 4 -3 7zM553 817q83 0 126 -28.5t38 -81.5q-9 -90 -143.5 -168t-321.5 -113q-21 -157 29 -258.5t168 -101.5q105 0 184 63q5 3 11.5 -4.5t2.5 -11.5q-144 -138 -319 -138q-114 0 -184 60 t-89.5 149.5t0.5 194.5q15 81 59 159t108 140.5t151 100.5t180 38zM510 664q8 44 -9.5 71t-54.5 27q-66 0 -115.5 -84.5t-74.5 -218.5q235 62 254 205z" />
<glyph unicode="&#xea;" horiz-adv-x="731" d="M367 971q-5 -5 -14.5 -1.5t-8.5 9.5l244 510q6 11 22.5 11t16.5 -11l65 -510q0 -6 -11 -7t-13 5l-109 219zM553 817q83 0 126 -28.5t38 -81.5q-9 -90 -143.5 -168t-321.5 -113q-21 -157 29 -258.5t168 -101.5q105 0 184 63q5 3 11.5 -4.5t2.5 -11.5q-144 -138 -319 -138 q-114 0 -184 60t-89.5 149.5t0.5 194.5q15 81 59 159t108 140.5t151 100.5t180 38zM510 664q8 44 -9.5 71t-54.5 27q-66 0 -115.5 -84.5t-74.5 -218.5q235 62 254 205z" />
<glyph unicode="&#xeb;" horiz-adv-x="731" d="M365 950q-53 0 -82 29.5t-29 83.5q0 49 29 76.5t82 27.5q49 0 76.5 -27.5t27.5 -76.5q0 -54 -27 -83.5t-77 -29.5zM690 1167q50 0 77.5 -27.5t27.5 -76.5q0 -54 -27.5 -83.5t-77.5 -29.5q-53 0 -81.5 29.5t-28.5 83.5q0 50 29 77t81 27zM553 817q83 0 126 -28.5t38 -81.5 q-9 -90 -143.5 -168t-321.5 -113q-21 -157 29 -258.5t168 -101.5q105 0 184 63q5 3 11.5 -4.5t2.5 -11.5q-144 -138 -319 -138q-114 0 -184 60t-89.5 149.5t0.5 194.5q15 81 59 159t108 140.5t151 100.5t180 38zM510 664q8 44 -9.5 71t-54.5 27q-66 0 -115.5 -84.5 t-74.5 -218.5q235 62 254 205z" />
<glyph unicode="&#xec;" horiz-adv-x="505" d="M324 973l-125 516q5 15 48 15t94 -12.5t50 -25.5l-49 -491q0 -3 -4.5 -5t-9 -1.5t-4.5 4.5zM217 -18q-129 0 -88 200l84 426q10 51 1.5 76t-32.5 25q-43 0 -116 -82q-7 -7 -16 1.5t-3 16.5q137 164 250 164q126 0 90 -176l-86 -451q-17 -96 27 -96q32 0 108 72q8 8 16 -1 t1 -16q-69 -82 -123.5 -120.5t-112.5 -38.5z" />
<glyph unicode="&#xed;" horiz-adv-x="505" d="M301 969q-4 -8 -17 -1q-6 4 -3 7l153 491q4 19 105 30q96 11 101 -3q0 -2 -1 -4zM217 -18q-129 0 -88 200l84 426q10 51 1.5 76t-32.5 25q-43 0 -116 -82q-7 -7 -16 1.5t-3 16.5q137 164 250 164q126 0 90 -176l-86 -451q-17 -96 27 -96q32 0 108 72q8 8 16 -1t1 -16 q-69 -82 -123.5 -120.5t-112.5 -38.5z" />
<glyph unicode="&#xee;" horiz-adv-x="505" d="M434 1487l66 -510q0 -5 -12 -5.5t-13 3.5l-108 221l-193 -225q-4 -4 -9 -3.5t-9.5 3.5t-3.5 6l245 510q5 11 21 11t16 -11zM217 -18q-129 0 -88 200l84 426q10 51 1.5 76t-32.5 25q-43 0 -116 -82q-7 -7 -16 1.5t-3 16.5q137 164 250 164q126 0 90 -176l-86 -451 q-17 -96 27 -96q32 0 108 72q8 8 16 -1t1 -16q-69 -82 -123.5 -120.5t-112.5 -38.5z" />
<glyph unicode="&#xef;" horiz-adv-x="505" d="M182 950q-52 0 -82 30t-30 83q0 49 30.5 77.5t81.5 28.5t78 -28t27 -78q0 -54 -27 -83.5t-78 -29.5zM496 950q-52 0 -79.5 29.5t-27.5 83.5q0 50 27.5 77t79.5 27q50 0 77 -27.5t27 -76.5q0 -54 -27 -83.5t-77 -29.5zM217 -18q-129 0 -88 200l84 426q10 51 1.5 76 t-32.5 25q-43 0 -116 -82q-7 -7 -16 1.5t-3 16.5q137 164 250 164q126 0 90 -176l-86 -451q-17 -96 27 -96q32 0 108 72q8 8 16 -1t1 -16q-69 -82 -123.5 -120.5t-112.5 -38.5z" />
<glyph unicode="&#xf0;" horiz-adv-x="821" d="M827 1323q4 2 12.5 -8.5t12 -20.5t-1.5 -14l-191 -90q94 -164 129 -361.5t0 -386.5q-41 -224 -174.5 -346.5t-298.5 -122.5q-106 0 -177 57t-95 149.5t-2 201.5q20 107 71 193.5t117 137.5t135 78t132 27q52 0 98 -18q-19 185 -64 329l-239 -114q-5 -3 -13.5 7t-12.5 21 t1 15l248 119q-63 189 -162 282q-4 5 2 13.5t14.5 13.5t12.5 0q150 -87 254 -254zM371 23q77 0 134 96t85 299q21 175 -6.5 265.5t-116.5 90.5q-75 0 -138.5 -90t-84.5 -244q-12 -115 -2.5 -208t44 -151t85.5 -58z" />
<glyph unicode="&#xf1;" horiz-adv-x="972" d="M305 963q-2 -2 -6 0.5t-7 6.5t-1 7q21 32 36.5 52.5t43.5 51t59.5 46.5t63.5 16q23 0 111 -25.5t136 -25.5q43 0 70.5 12t58.5 43q2 2 6.5 0.5t7.5 -6t1 -8.5q-62 -98 -102 -131t-93 -33q-35 0 -121.5 24.5t-134.5 24.5q-47 0 -69.5 -10t-51.5 -37zM913 158q4 5 10 2.5 t8 -8.5t-1 -11q-69 -82 -123.5 -120.5t-112.5 -38.5q-66 0 -86.5 49.5t-1.5 150.5l60 326q18 98 3 145t-59 47q-89 0 -179.5 -169t-145.5 -468l-6 -38q-10 -41 -115 -41q-68 0 -68 16q0 4 5 26t13 58.5t13 67.5l84 456q18 101 -31 101q-43 0 -119 -82q-7 -9 -15 3 q-6 9 -1 15q73 87 132 125.5t118 38.5q64 0 85 -44t5 -132l-33 -187q71 177 165 274t198 97q179 0 131 -270l-68 -365q-17 -96 27 -96q32 0 108 72z" />
<glyph unicode="&#xf2;" horiz-adv-x="835" d="M520 973l-125 516q5 15 48 15t94.5 -12.5t50.5 -25.5l-49 -491q0 -3 -4.5 -5t-9.5 -1.5t-5 4.5zM324 -29q-83 0 -143.5 34.5t-91 93t-41 135.5t8.5 161q35 187 162 304.5t291 117.5q165 0 235.5 -118.5t34.5 -303.5q-26 -135 -100 -233.5t-166 -144.5t-190 -46zM393 23 q65 0 113 75.5t72 206.5q20 126 12 229t-48 168.5t-100 65.5q-61 0 -109 -71.5t-73 -213.5q-20 -127 -12 -229.5t47 -166.5t98 -64z" />
<glyph unicode="&#xf3;" horiz-adv-x="835" d="M498 969q-4 -8 -18 -1q-6 4 -3 7l154 491q4 19 105 30q96 11 101 -3q0 -2 -1 -4zM324 -29q-83 0 -143.5 34.5t-91 93t-41 135.5t8.5 161q35 187 162 304.5t291 117.5q165 0 235.5 -118.5t34.5 -303.5q-26 -135 -100 -233.5t-166 -144.5t-190 -46zM393 23q65 0 113 75.5 t72 206.5q20 126 12 229t-48 168.5t-100 65.5q-61 0 -109 -71.5t-73 -213.5q-20 -127 -12 -229.5t47 -166.5t98 -64z" />
<glyph unicode="&#xf4;" horiz-adv-x="835" d="M631 1489l65 -510q0 -6 -11 -7t-13 5l-109 219l-192 -225q-5 -5 -14.5 -1.5t-8.5 9.5l244 510q6 11 22.5 11t16.5 -11zM324 -29q-83 0 -143.5 34.5t-91 93t-41 135.5t8.5 161q35 187 162 304.5t291 117.5q165 0 235.5 -118.5t34.5 -303.5q-26 -135 -100 -233.5 t-166 -144.5t-190 -46zM393 23q65 0 113 75.5t72 206.5q20 126 12 229t-48 168.5t-100 65.5q-61 0 -109 -71.5t-73 -213.5q-20 -127 -12 -229.5t47 -166.5t98 -64z" />
<glyph unicode="&#xf5;" horiz-adv-x="835" d="M246 963q-3 -3 -10.5 3.5t-4.5 10.5q21 32 36.5 52.5t43.5 51t59.5 46.5t63.5 16q23 0 111.5 -25.5t136.5 -25.5q43 0 70.5 12t58.5 43q2 2 6 0.5t7 -6t1 -8.5q-62 -99 -101.5 -131.5t-92.5 -32.5q-35 0 -121.5 24.5t-134.5 24.5q-47 0 -69.5 -10t-51.5 -37zM324 -29 q-83 0 -143.5 34.5t-91 93t-41 135.5t8.5 161q35 187 162 304.5t291 117.5q165 0 235.5 -118.5t34.5 -303.5q-26 -135 -100 -233.5t-166 -144.5t-190 -46zM393 23q65 0 113 75.5t72 206.5q20 126 12 229t-48 168.5t-100 65.5q-61 0 -109 -71.5t-73 -213.5 q-20 -127 -12 -229.5t47 -166.5t98 -64z" />
<glyph unicode="&#xf6;" horiz-adv-x="835" d="M369 950q-53 0 -82 29.5t-29 83.5q0 49 29 76.5t82 27.5q49 0 76.5 -27.5t27.5 -76.5q0 -54 -27 -83.5t-77 -29.5zM694 950q-53 0 -81.5 29.5t-28.5 83.5q0 50 29 77t81 27q50 0 77.5 -27.5t27.5 -76.5q0 -54 -27.5 -83.5t-77.5 -29.5zM324 -29q-83 0 -143.5 34.5t-91 93 t-41 135.5t8.5 161q35 187 162 304.5t291 117.5q165 0 235.5 -118.5t34.5 -303.5q-26 -135 -100 -233.5t-166 -144.5t-190 -46zM393 23q65 0 113 75.5t72 206.5q20 126 12 229t-48 168.5t-100 65.5q-61 0 -109 -71.5t-73 -213.5q-20 -127 -12 -229.5t47 -166.5t98 -64z" />
<glyph unicode="&#xf7;" horiz-adv-x="806" d="M408 633q-54 0 -85.5 31t-31.5 86q0 51 31.5 80.5t85.5 29.5t83 -29t29 -81q0 -56 -29 -86.5t-83 -30.5zM70 365q-6 0 -8 24t-0.5 48t6.5 24h677q9 0 9 -48t-9 -48h-675zM410 -16q-54 0 -85.5 30.5t-31.5 85.5q0 51 31.5 81t85.5 30q53 0 82.5 -29.5t29.5 -81.5 q0 -56 -29 -86t-83 -30z" />
<glyph unicode="&#xf8;" horiz-adv-x="835" d="M791 823q3 4 13.5 -1.5t18.5 -14.5t4 -14l-86 -88q78 -117 39 -310q-26 -135 -100 -233.5t-166 -144.5t-190 -46q-135 0 -207 88l-92 -96q-6 -5 -23.5 12.5t-11.5 24.5l98 100q-63 114 -31 295q35 187 162 304.5t291 117.5q130 0 203 -76zM260 483q-19 -105 -12 -219 l332 342q-18 76 -53 119t-85 43q-61 0 -109 -71.5t-73 -213.5zM578 305q23 124 10 242l-332 -344q14 -83 49.5 -131.5t87.5 -48.5q65 0 113 75.5t72 206.5z" />
<glyph unicode="&#xf9;" horiz-adv-x="974" d="M565 973l-125 516q5 15 48 15t94.5 -12.5t50.5 -25.5l-49 -491q0 -3 -5 -5t-9.5 -1.5t-4.5 4.5zM913 164q6 8 15 -3q6 -9 2 -16q-73 -87 -132 -125t-118 -38q-64 0 -85 44t-5 132l33 186q-71 -177 -165 -274t-198 -97q-88 0 -122.5 67.5t-8.5 203.5l72 364q17 97 -27 97 q-20 0 -43.5 -17.5t-62.5 -54.5q-5 -5 -11 -2.5t-8 8t2 10.5q70 83 122.5 121.5t109.5 38.5q131 0 90 -201l-64 -325q-19 -98 -3.5 -145.5t59.5 -47.5q89 0 179.5 169t145.5 468l6 39q10 41 115 41q68 0 68 -16q0 -4 -5 -26t-13 -58.5t-13 -67.5l-84 -457q-18 -100 31 -100 q42 0 118 82z" />
<glyph unicode="&#xfa;" horiz-adv-x="974" d="M543 969q-4 -8 -18 -1q-6 4 -3 7l154 491q4 19 105 30q96 11 101 -3q0 -2 -1 -4zM913 164q6 8 15 -3q6 -9 2 -16q-73 -87 -132 -125t-118 -38q-64 0 -85 44t-5 132l33 186q-71 -177 -165 -274t-198 -97q-88 0 -122.5 67.5t-8.5 203.5l72 364q17 97 -27 97 q-20 0 -43.5 -17.5t-62.5 -54.5q-5 -5 -11 -2.5t-8 8t2 10.5q70 83 122.5 121.5t109.5 38.5q131 0 90 -201l-64 -325q-19 -98 -3.5 -145.5t59.5 -47.5q89 0 179.5 169t145.5 468l6 39q10 41 115 41q68 0 68 -16q0 -4 -5 -26t-13 -58.5t-13 -67.5l-84 -457q-18 -100 31 -100 q42 0 118 82z" />
<glyph unicode="&#xfb;" horiz-adv-x="974" d="M416 971q-5 -5 -14.5 -1.5t-8.5 9.5l244 510q6 11 22.5 11t16.5 -11l65 -510q0 -6 -11.5 -7t-12.5 5l-109 219zM913 164q6 8 15 -3q6 -9 2 -16q-73 -87 -132 -125t-118 -38q-64 0 -85 44t-5 132l33 186q-71 -177 -165 -274t-198 -97q-88 0 -122.5 67.5t-8.5 203.5l72 364 q17 97 -27 97q-20 0 -43.5 -17.5t-62.5 -54.5q-5 -5 -11 -2.5t-8 8t2 10.5q70 83 122.5 121.5t109.5 38.5q131 0 90 -201l-64 -325q-19 -98 -3.5 -145.5t59.5 -47.5q89 0 179.5 169t145.5 468l6 39q10 41 115 41q68 0 68 -16q0 -4 -5 -26t-13 -58.5t-13 -67.5l-84 -457 q-18 -100 31 -100q42 0 118 82z" />
<glyph unicode="&#xfc;" horiz-adv-x="974" d="M414 950q-53 0 -82 29.5t-29 83.5q0 49 29 76.5t82 27.5q50 0 77 -27.5t27 -76.5q0 -54 -27 -83.5t-77 -29.5zM739 950q-53 0 -81.5 29.5t-28.5 83.5q0 50 29 77t81 27q50 0 77.5 -27.5t27.5 -76.5q0 -54 -27.5 -83.5t-77.5 -29.5zM913 164q6 8 15 -3q6 -9 2 -16 q-73 -87 -132 -125t-118 -38q-64 0 -85 44t-5 132l33 186q-71 -177 -165 -274t-198 -97q-88 0 -122.5 67.5t-8.5 203.5l72 364q17 97 -27 97q-20 0 -43.5 -17.5t-62.5 -54.5q-5 -5 -11 -2.5t-8 8t2 10.5q70 83 122.5 121.5t109.5 38.5q131 0 90 -201l-64 -325 q-19 -98 -3.5 -145.5t59.5 -47.5q89 0 179.5 169t145.5 468l6 39q10 41 115 41q68 0 68 -16q0 -4 -5 -26t-13 -58.5t-13 -67.5l-84 -457q-18 -100 31 -100q42 0 118 82z" />
<glyph unicode="&#xfd;" horiz-adv-x="927" d="M510 969q-4 -8 -18 -1q-6 4 -3 7l154 491q4 19 105 30q96 11 101 -3q0 -2 -1 -4zM754 811q52 0 80 -36.5t28 -106.5q0 -75 -46.5 -199t-120.5 -260.5t-171.5 -277.5t-194.5 -252.5t-194 -182.5t-166 -71q-137 0 -119 122q8 45 39 70t80 25q26 0 58.5 -13t55.5 -24.5 t55.5 -10t64.5 24.5q52 35 133 139q7 444 -49 690t-158 246q-26 0 -51.5 -18t-40.5 -45q-3 -6 -10 -6.5t-12 3t-3 9.5q35 74 106.5 123t131.5 49q86 0 148 -111.5t88 -296t16 -407.5q186 295 209 397q18 68 8.5 117.5t-28 73t-37.5 56.5t-19 69q0 46 32.5 75t86.5 29z" />
<glyph unicode="&#xfe;" horiz-adv-x="841" d="M584 805q124 0 182.5 -74.5t38.5 -212.5q-20 -137 -98.5 -258t-188.5 -191.5t-221 -70.5q-28 0 -82 4l-65 -367q-15 -79 4 -100t92 -12q5 0 8.5 -5.5t3.5 -11t-6 -6.5l-389 -63q-4 -1 -7 4.5t-2.5 12t5.5 7.5q58 13 75 39.5t35 120.5l176 981q-48 -29 -104 -70 q-6 -5 -12 -1.5t-6.5 10.5t4.5 12q47 40 127 94l100 559q19 98 -4.5 118.5t-108.5 -19.5q-6 -2 -11 3.5t-4.5 11.5t5.5 9l320 156q8 3 17 -4.5t7 -12.5l-127 -714q124 51 236 51zM621 451q5 50 -1.5 94t-26 81t-58.5 58t-93 21q-50 0 -106 -15l-107 -602q71 -29 144 -29 q67 0 119.5 53t83.5 139t45 200z" />
<glyph unicode="&#xff;" horiz-adv-x="927" d="M381 950q-53 0 -82 29.5t-29 83.5q0 49 29 76.5t82 27.5q49 0 76.5 -27.5t27.5 -76.5q0 -54 -27 -83.5t-77 -29.5zM707 950q-53 0 -82 29.5t-29 83.5q0 49 29 76.5t82 27.5q49 0 76.5 -27.5t27.5 -76.5q0 -54 -27 -83.5t-77 -29.5zM754 811q52 0 80 -36.5t28 -106.5 q0 -75 -46.5 -199t-120.5 -260.5t-171.5 -277.5t-194.5 -252.5t-194 -182.5t-166 -71q-137 0 -119 122q8 45 39 70t80 25q26 0 58.5 -13t55.5 -24.5t55.5 -10t64.5 24.5q52 35 133 139q7 444 -49 690t-158 246q-26 0 -51.5 -18t-40.5 -45q-3 -6 -10 -6.5t-12 3t-3 9.5 q35 74 106.5 123t131.5 49q86 0 148 -111.5t88 -296t16 -407.5q186 295 209 397q18 68 8.5 117.5t-28 73t-37.5 56.5t-19 69q0 46 32.5 75t86.5 29z" />
<glyph unicode="&#x152;" horiz-adv-x="1656" d="M1653 1280q15 0 12 -18q-4 -30 -21 -135.5t-22 -139.5q-2 -7 -13.5 -5t-11.5 7q-10 123 -56.5 185.5t-154.5 62.5h-34q-45 0 -69 -4t-40.5 -20t-23.5 -37t-15 -64l-74 -418h185q94 0 145 36.5t68 119.5q1 6 7.5 7.5t12 -1t4.5 -8.5q-7 -45 -17.5 -100t-14.5 -82 q-5 -30 -16 -98.5t-19 -112.5q-1 -6 -7.5 -7t-12.5 1.5t-5 7.5q15 88 -28 134t-132 46h-180l-80 -463q-15 -86 3.5 -111.5t95.5 -25.5h51q59 0 108 19t91 60.5t76 89t75 120.5q2 4 8.5 4t12 -2.5t4.5 -5.5q-40 -119 -70 -291q-5 -18 -11.5 -24.5t-23.5 -6.5h-538 q-44 0 -133 -4t-121 -4q-192 0 -329.5 84.5t-195 230.5t-24.5 326q28 146 102 269.5t175.5 206.5t224 129t249.5 46q32 0 126.5 -2t138.5 -2h518zM997 1087q15 90 -7 122t-105 32q-201 0 -345 -145t-190 -418q-30 -188 -3.5 -331.5t108 -228.5t198.5 -85q52 0 77.5 3t50 16 t36.5 40.5t19 75.5z" />
<glyph unicode="&#x153;" horiz-adv-x="1243" d="M1077 817q83 0 126 -28.5t38 -81.5q-9 -90 -143.5 -168t-321.5 -113q-21 -157 29 -258.5t168 -101.5q105 0 184 63q5 3 11.5 -4.5t2.5 -11.5q-141 -138 -319 -138q-163 0 -238 123q-65 -62 -144 -94.5t-159 -32.5q-83 0 -143.5 34.5t-90.5 93t-40.5 135.5t8.5 161 q37 187 163.5 304.5t289.5 117.5q178 0 247 -139q149 139 332 139zM381 23q65 0 112.5 75t71.5 207q20 126 12 229t-47 168.5t-98 65.5q-62 0 -110 -71.5t-72 -213.5q-20 -127 -12.5 -229.5t46 -166.5t97.5 -64zM1034 664q8 44 -9 71t-54 27q-66 0 -116.5 -84.5 t-74.5 -218.5q235 62 254 205z" />
<glyph unicode="&#x178;" horiz-adv-x="1095" d="M600 1440q-53 0 -82 29t-29 83q0 50 29.5 77.5t81.5 27.5q50 0 77.5 -27.5t27.5 -77.5q0 -54 -27.5 -83t-77.5 -29zM926 1440q-53 0 -82 29t-29 83q0 50 29.5 77.5t81.5 27.5q49 0 76.5 -27.5t27.5 -77.5q0 -54 -27 -83t-77 -29zM1239 1280q6 0 6 -12.5t-6 -12.5 q-130 0 -278 -223l-259 -391l-84 -475q-17 -90 5 -115.5t120 -25.5q6 0 6 -12.5t-6 -12.5q-30 0 -113 2t-136 2q-54 0 -139 -2t-115 -2q-8 0 -8 12.5t8 12.5q97 0 130 26t48 115l76 450l-209 494q-32 75 -66.5 110t-75.5 35q-7 0 -7 12.5t7 12.5q29 0 98 -3t101 -3 q42 0 128 3t108 3q8 0 8 -12.5t-8 -12.5q-70 0 -90.5 -17t-2.5 -64l197 -472l240 375q48 72 29.5 125t-91.5 53q-8 0 -8 12.5t8 12.5q27 0 111 -3t131 -3q29 0 70.5 3t66.5 3z" />
<glyph unicode="&#x2c6;" horiz-adv-x="489" d="M469 1489l66 -510q0 -6 -11.5 -7t-13.5 5l-109 219l-192 -225q-5 -5 -14.5 -1.5t-8.5 9.5l244 510q6 11 22.5 11t16.5 -11z" />
<glyph unicode="&#x2dc;" horiz-adv-x="559" d="M113 963q-3 -3 -10.5 3.5t-4.5 10.5q21 32 36.5 52.5t43.5 51t59.5 46.5t63.5 16q23 0 111.5 -25.5t136.5 -25.5q43 0 70.5 12t58.5 43q2 2 6 0.5t7 -6t1 -8.5q-62 -99 -101.5 -131.5t-92.5 -32.5q-35 0 -121.5 24.5t-134.5 24.5q-47 0 -69.5 -10t-51.5 -37 q-2 -3 -4 -4.5t-4 -3.5z" />
<glyph unicode="&#x2000;" horiz-adv-x="836" />
<glyph unicode="&#x2001;" horiz-adv-x="1673" />
<glyph unicode="&#x2002;" horiz-adv-x="836" />
<glyph unicode="&#x2003;" horiz-adv-x="1673" />
<glyph unicode="&#x2004;" horiz-adv-x="557" />
<glyph unicode="&#x2005;" horiz-adv-x="418" />
<glyph unicode="&#x2006;" horiz-adv-x="278" />
<glyph unicode="&#x2007;" horiz-adv-x="278" />
<glyph unicode="&#x2008;" horiz-adv-x="209" />
<glyph unicode="&#x2009;" horiz-adv-x="334" />
<glyph unicode="&#x200a;" horiz-adv-x="92" />
<glyph unicode="&#x2010;" horiz-adv-x="624" d="M70 336q-6 -1 -10 25.5t-4 50t3 28.5l510 97q6 1 10.5 -25t4.5 -52.5t-6 -27.5z" />
<glyph unicode="&#x2011;" horiz-adv-x="624" d="M70 336q-6 -1 -10 25.5t-4 50t3 28.5l510 97q6 1 10.5 -25t4.5 -52.5t-6 -27.5z" />
<glyph unicode="&#x2012;" horiz-adv-x="624" d="M70 336q-6 -1 -10 25.5t-4 50t3 28.5l510 97q6 1 10.5 -25t4.5 -52.5t-6 -27.5z" />
<glyph unicode="&#x2013;" horiz-adv-x="1054" d="M70 340q-6 0 -8 24t-0.5 48t6.5 24h917q9 0 9 -48t-9 -48h-915z" />
<glyph unicode="&#x2014;" horiz-adv-x="1699" d="M70 340q-6 0 -8 24t-0.5 48t6.5 24h1562q9 0 9 -48t-9 -48h-1560z" />
<glyph unicode="&#x2018;" horiz-adv-x="387" d="M416 1300q5 4 10.5 0.5t6.5 -9t-3 -9.5q-56 -60 -93.5 -128.5t-51.5 -129.5q-12 -50 -9 -78q8 2 23 2q60 0 88.5 -43t18.5 -92q-8 -41 -39 -67.5t-84 -26.5q-77 0 -112 60.5t-11 162.5q22 95 89 191t167 167z" />
<glyph unicode="&#x2019;" horiz-adv-x="389" d="M322 1300q77 0 111.5 -60.5t10.5 -162.5q-22 -95 -89 -191t-167 -167q-5 -4 -10.5 -0.5t-6.5 9t3 9.5q56 60 93.5 128.5t51.5 129.5q12 50 9 78q-8 -2 -23 -2q-60 0 -88 43t-18 92q8 41 39 67.5t84 26.5z" />
<glyph unicode="&#x201a;" horiz-adv-x="292" d="M94 213q77 0 112 -60.5t11 -162.5q-23 -96 -89.5 -192t-166.5 -167q-5 -4 -10.5 0t-6.5 9.5t3 9.5q56 60 93.5 128.5t51.5 129.5q11 47 8 78q-8 -2 -22 -2q-60 0 -88.5 43t-18.5 92q8 41 39 67.5t84 26.5z" />
<glyph unicode="&#x201c;" horiz-adv-x="720" d="M381 1300q5 4 10.5 0.5t6.5 -9t-3 -9.5q-56 -60 -93.5 -128.5t-51.5 -129.5q-11 -47 -8 -78q8 2 22 2q60 0 88.5 -43t18.5 -92q-8 -41 -39 -67.5t-84 -26.5q-77 0 -112 60.5t-11 162.5q22 95 89 191t167 167zM715 1300q5 4 10.5 0.5t6.5 -9t-3 -9.5q-56 -60 -93.5 -128.5 t-51.5 -129.5q-12 -50 -9 -78q8 2 23 2q60 0 88.5 -43t18.5 -92q-8 -41 -39 -67.5t-84 -26.5q-77 0 -112 60.5t-11 162.5q22 95 89 191t167 167z" />
<glyph unicode="&#x201d;" horiz-adv-x="722" d="M356 1300q77 0 112 -60.5t11 -162.5q-22 -95 -89 -191t-167 -167q-5 -4 -10.5 -0.5t-6.5 9t3 9.5q56 60 93.5 128.5t51.5 129.5q11 47 8 78q-8 -2 -22 -2q-60 0 -88.5 43t-18.5 92q8 41 39 67.5t84 26.5zM690 1300q77 0 112 -60.5t11 -162.5q-22 -95 -89 -191t-167 -167 q-5 -4 -10.5 -0.5t-6.5 9t3 9.5q56 60 93.5 128.5t51.5 129.5q11 47 8 78q-8 -2 -22 -2q-60 0 -88.5 43t-18.5 92q8 41 39 67.5t84 26.5z" />
<glyph unicode="&#x201e;" horiz-adv-x="720" d="M129 213q77 0 112 -60.5t11 -162.5q-23 -96 -89.5 -192t-166.5 -167q-5 -4 -10.5 0t-6.5 9.5t3 9.5q56 60 93.5 128.5t51.5 129.5q11 47 8 78q-8 -2 -22 -2q-60 0 -88.5 43t-18.5 92q8 41 39 67.5t84 26.5zM463 213q77 0 112 -60.5t11 -162.5q-23 -96 -89.5 -192 t-166.5 -167q-5 -4 -10.5 0t-7 9.5t2.5 9.5q114 123 146 258q11 47 8 78q-8 -2 -23 -2q-60 0 -88 43t-18 92q8 41 39 67.5t84 26.5z" />
<glyph unicode="&#x2022;" horiz-adv-x="659" d="M350 268q-100 0 -170.5 69.5t-70.5 170.5q0 97 71 168.5t170 71.5q98 0 169 -71.5t71 -168.5q0 -101 -70.5 -170.5t-169.5 -69.5z" />
<glyph unicode="&#x2026;" horiz-adv-x="1382" d="M160 -16q-54 0 -85.5 30.5t-31.5 85.5q0 51 31.5 81t85.5 30q53 0 82.5 -29.5t29.5 -81.5q0 -56 -29 -86t-83 -30zM639 -16q-54 0 -85.5 30.5t-31.5 85.5q0 51 31.5 81t85.5 30q53 0 83 -29.5t30 -81.5q0 -55 -29.5 -85.5t-83.5 -30.5zM1118 -16q-54 0 -85.5 30.5 t-31.5 85.5q0 51 31.5 81t85.5 30t83.5 -29.5t29.5 -81.5q0 -55 -29.5 -85.5t-83.5 -30.5z" />
<glyph unicode="&#x202f;" horiz-adv-x="334" />
<glyph unicode="&#x2039;" horiz-adv-x="587" d="M514 745q4 2 9.5 -1t8.5 -7.5t0 -7.5l-225 -317l115 -316q4 -7 -7 -14q-6 -5 -9 0l-318 305q-7 8 -5 22.5t13 24.5z" />
<glyph unicode="&#x203a;" horiz-adv-x="583" d="M76 76q-5 -3 -13 4.5t-4 13.5l226 316l-115 315q-4 7 7 14q6 5 9 0l318 -305q7 -8 5 -22.5t-13 -24.5z" />
<glyph unicode="&#x205f;" horiz-adv-x="418" />
<glyph unicode="&#x20ac;" horiz-adv-x="1105" d="M1051 909q9 -7 12.5 -10.5t8 -9.5t4 -12.5t-4.5 -14.5l-110 -192q-3 -6 -13.5 -2.5t-9.5 10.5q25 120 -26.5 193t-159.5 73q-115 0 -213.5 -105t-139.5 -270h502q13 0 -4 -32q-14 -26 -25 -27h-759q-8 0 -12 15t-1 29.5t11 14.5h86q60 182 224.5 298t366.5 116 q78 0 150 -19t113 -55zM956 268q3 3 9 3t11 -4.5t3 -10.5l-59 -195q-1 -2 -2 -6.5t-1.5 -5.5t-1.5 -4t-2 -4l-3 -3t-4 -3.5t-5.5 -3.5t-7.5 -4q-153 -52 -303 -52q-87 0 -157.5 21.5t-117 57.5t-79 85.5t-48 102.5t-18.5 112h-86q-12 0 -12 30t12 30h737q13 0 -3 -31 q-14 -29 -25 -29h-422q1 -95 25 -169.5t77.5 -122.5t130.5 -48q99 0 184 61t168 193z" />
<glyph unicode="&#x2122;" horiz-adv-x="1513" d="M705 1124q7 45 -21.5 86t-67.5 41q-31 0 -42 -13t-19 -56l-66 -379q-8 -45 6 -59.5t68 -14.5q3 0 3 -12t-3 -12q-20 0 -75.5 1t-92.5 1q-31 0 -86.5 -1t-77.5 -1q-3 0 -3 12t3 12q55 0 74 14.5t25 59.5l67 381q7 44 1 55.5t-36 11.5q-46 0 -89 -36.5t-60 -90.5 q-2 -7 -19 -4q-6 2 -6 4q34 111 43 181q4 8 18 7q7 -3 7 -7q-1 -8 2.5 -13t13 -7t16 -2.5t19.5 -0.5q23 0 86 -1t99 -1q43 0 94.5 1t68.5 1q41 0 60.5 5t27.5 24q5 7 18 4q5 -2 5 -4q-2 -12 -18.5 -90.5t-18.5 -96.5q-5 -7 -20 -4q-3 2 -4 4zM1595 1280q3 0 3 -12.5 t-3 -12.5q-46 0 -69.5 -17t-30.5 -67l-53 -368q-5 -46 6 -60t59 -14q3 0 3 -12t-3 -12q-19 0 -69.5 1t-79.5 1q-31 0 -77.5 -1t-63.5 -1q-3 0 -3 12t3 12q47 0 62.5 14.5t20.5 59.5l41 313l-243 -401q-4 -7 -23 -7t-24 7l-133 385l-58 -269q-12 -54 0 -78t49 -24q5 0 5 -12 t-5 -12q-10 0 -41.5 1t-56.5 1l-117 -2q-3 0 -3 12t3 12q47 0 80 25t43 77l72 349q-30 75 -92 75q-3 0 -3 12.5t3 12.5q11 0 47.5 -2t42.5 -2q11 0 47.5 2t40.5 2q18 0 30 -12.5t23 -50.5l121 -351l231 381q6 14 19 23.5t24 9.5q1 0 27 -2t43 -2q25 0 57 2t45 2z" />
<glyph unicode="&#x25fc;" horiz-adv-x="808" d="M0 809h809v-809h-809v809z" />
</font>
</defs>
</svg>
