<?xml version="1.0" standalone="no"?>
<!DOCTYPE svg PUBLIC "-//W3C//DTD SVG 1.1//EN" "http://www.w3.org/Graphics/SVG/1.1/DTD/svg11.dtd" >
<svg xmlns="http://www.w3.org/2000/svg" xmlns:xlink="http://www.w3.org/1999/xlink" version="1.1">
<metadata></metadata>
<defs>
<font id="cormorant_garamondmedium" horiz-adv-x="1568" >
<font-face units-per-em="2048" ascent="1638" descent="-410" />
<missing-glyph horiz-adv-x="479" />
<glyph horiz-adv-x="0" />
<glyph horiz-adv-x="682" />
<glyph unicode=" "  horiz-adv-x="479" />
<glyph unicode="&#x09;" horiz-adv-x="479" />
<glyph unicode="&#xa0;" horiz-adv-x="479" />
<glyph unicode="!" horiz-adv-x="512" d="M154 1268q-1 6 15 10.5t39.5 7t47.5 2.5q38 0 71.5 -6t30.5 -14q-8 -39 -15.5 -84t-13 -82t-11.5 -92.5t-10 -86.5t-9 -95.5t-7 -87.5t-6.5 -95t-5.5 -85.5t-5.5 -91t-4.5 -81.5q0 -6 -18.5 -6t-18.5 6q-9 199 -14.5 303t-23 279.5t-41.5 298.5zM246 -23 q-43 0 -69.5 26.5t-26.5 70.5q0 41 26.5 65.5t69.5 24.5q45 0 69.5 -24t24.5 -66q0 -45 -24.5 -71t-69.5 -26z" />
<glyph unicode="&#x22;" horiz-adv-x="585" d="M115 748l-33 497q-1 26 71 50q68 23 92 13q6 -2 5 -8l-111 -550q-2 -3 -8 -5t-11 -1.5t-5 4.5zM410 748l-33 497q-1 26 71 50q68 23 92 13q6 -2 5 -8l-111 -550q-2 -3 -8 -5t-11 -1.5t-5 4.5z" />
<glyph unicode="#" horiz-adv-x="1077" d="M948 645q9 0 9 -41t-9 -41h-145l-58 -323h132q9 0 9 -42t-9 -42h-146l-57 -320q-3 -5 -21 -5t-39 5t-20 10l55 310h-301l-57 -320q-3 -5 -21 -5t-39 5t-20 10l55 310h-137q-6 0 -8 21t-0.5 42t6.5 21h154l57 323h-137q-6 0 -8 20.5t-0.5 41t6.5 20.5h153l62 342 q3 5 20.5 4t38 -7.5t19.5 -12.5l-58 -326h301l62 342q0 10 45 0q35 -8 32 -16l-57 -326h131zM664 240l57 323h-301l-58 -323h302z" />
<glyph unicode="$" horiz-adv-x="845" d="M760 254q0 -108 -81 -186t-216 -91v-186q0 -13 -23.5 -13t-23.5 13v184h-4q-157 0 -258 72q-17 11 -17 41l-20 207q0 9 10.5 10.5t13.5 -6.5q33 -107 107 -188.5t168 -98.5v426l-33 19q-39 21 -62 34t-56.5 34.5t-52.5 41t-38.5 45.5t-28 56t-8.5 65q0 108 80 173t199 75 v168q0 15 23.5 15t23.5 -15v-166q110 -4 203 -47q19 -7 24.5 -14t5.5 -21l13 -182q0 -8 -11 -9.5t-14 5.5q-14 69 -74.5 140.5t-146.5 90.5v-389l37 -18q53 -28 77.5 -41.5t67 -43t62.5 -54.5t36.5 -63.5t16.5 -82.5zM256 793q0 -69 42 -118t118 -91v366q-76 0 -118 -43.5 t-42 -113.5zM463 10q70 3 119 44.5t49 125.5q0 53 -25 98t-58.5 74t-84.5 60v-402z" />
<glyph unicode="%" horiz-adv-x="1175" d="M307 621q-110 0 -183 76.5t-73 189.5q0 108 73.5 184t182.5 76t179.5 -77t70.5 -189q0 -110 -71 -185t-179 -75zM219 -12q-2 -3 -15.5 2.5t-25.5 13.5t-10 12l760 1114q3 4 16.5 -2t25 -15t9.5 -13zM322 645q34 0 56 15.5t32.5 48t14 68t3.5 89.5q0 256 -133 256 q-66 0 -90.5 -60.5t-24.5 -168.5q0 -248 142 -248zM874 -10q-109 0 -182.5 77.5t-73.5 188.5q0 109 73.5 185.5t182.5 76.5q108 0 179 -77.5t71 -188.5t-71 -186.5t-179 -75.5zM889 16q34 0 56 16t32.5 48.5t14 68t3.5 89.5q0 254 -133 254q-34 0 -57.5 -17.5t-35 -50.5 t-16.5 -71t-5 -89q0 -248 141 -248z" />
<glyph unicode="&#x26;" horiz-adv-x="1433" d="M1438 25q6 -1 7.5 -7t-1 -12t-6.5 -6h-242q-87 0 -266 137q-162 -162 -410 -162q-190 0 -289.5 89t-99.5 215q0 49 16.5 96t40.5 82.5t64.5 75.5t74.5 67t85 64q-40 61 -60 102q-59 124 -59 223q0 140 97 237t253 97q65 0 117.5 -17.5t90.5 -65t38 -120.5q0 -27 -6 -53.5 t-13 -47.5t-24.5 -45.5t-28.5 -40.5t-37.5 -39.5t-39 -35t-46.5 -36t-46 -33t-50.5 -34t-48.5 -32.5q151 -233 436 -453q59 115 59 258q0 82 -31 122t-118 40q-6 0 -6.5 12.5t6.5 12.5l438 2q7 0 7 -12.5t-7 -12.5q-51 0 -82.5 -6.5t-50 -25.5t-26.5 -37t-19 -58 q-57 -197 -137 -319q258 -187 420 -221zM424 1092q0 -161 108 -340q105 81 161.5 158t56.5 175q0 91 -48 142t-127 51q-151 0 -151 -186zM625 43q161 0 278 117q-26 18 -47 37q-268 214 -424 440q-156 -128 -156 -279q0 -130 98.5 -222.5t250.5 -92.5z" />
<glyph unicode="'" horiz-adv-x="290" d="M115 748l-33 497q-1 26 71 50q68 23 92 13q6 -2 5 -8l-111 -550q-2 -3 -8 -5t-11 -1.5t-5 4.5z" />
<glyph unicode="(" horiz-adv-x="632" d="M125 623q0 291 114.5 522t321.5 340q3 2 7.5 -3t0.5 -9q-286 -280 -286 -850t286 -850q4 -3 -0.5 -9t-7.5 -4q-207 111 -321.5 341.5t-114.5 521.5z" />
<glyph unicode=")" horiz-adv-x="632" d="M508 623q0 -291 -114.5 -522.5t-321.5 -340.5q-3 -2 -8 3.5t-1 9.5q287 281 287 850t-287 850q-3 2 -1.5 5t5 5.5t5.5 1.5q207 -111 321.5 -341t114.5 -521z" />
<glyph unicode="*" horiz-adv-x="917" d="M463 1083l-6 263q-1 27 83 51q71 20 87 11q3 -2 2 -5l-146 -320q-1 -6 -10.5 -6t-9.5 6zM418 1047l-254 75q-27 8 -21 106q4 72 16 78q2 0 3 -1l262 -240q3 -3 2.5 -7t-3 -8t-5.5 -3zM864 991l-350 39q-5 0 -7.5 10t1.5 11l250 88q25 8 73 -64q40 -60 37 -80q0 -4 -4 -4z M289 778q-16 -24 -103 9q-65 24 -71 40q-1 2 2 4l305 175q4 4 11.5 -2t4.5 -11zM549 641l-72 344q-2 3 2 7t9 6.5t6 0.5l159 -211q17 -22 -41 -95q-40 -51 -58 -55q-4 -1 -5 3z" />
<glyph unicode="+" horiz-adv-x="815" d="M745 430q9 0 9 -42t-9 -42h-294v-295q0 -6 -21.5 -8.5t-43 -1t-21.5 5.5v299h-295q-6 0 -8 21t-0.5 42t6.5 21h297v295q0 9 43 9t43 -9v-295h294z" />
<glyph unicode="," horiz-adv-x="454" d="M209 158q63 0 99 -46.5t36 -136.5q0 -178 -164 -348q-7 -6 -14 0.5t-2 14.5q48 63 65 122t17 132q0 55 -17 94q-15 -6 -34 -6q-41 0 -65 23.5t-24 62.5q0 43 26.5 65.5t76.5 22.5z" />
<glyph unicode="-" horiz-adv-x="661" d="M66 334q-6 -1 -8.5 21t-1.5 45t5 24l535 96q6 1 8 -21t0 -45t-8 -24z" />
<glyph unicode="." horiz-adv-x="407" d="M205 -23q-43 0 -69.5 26.5t-26.5 70.5q0 41 26.5 65.5t69.5 24.5q45 0 69.5 -24t24.5 -66q0 -45 -24.5 -71t-69.5 -26z" />
<glyph unicode="/" horiz-adv-x="702" d="M135 -336q-3 -7 -43.5 5t-38.5 20l516 1806q4 9 43.5 -4.5t36.5 -22.5z" />
<glyph unicode="0" horiz-adv-x="976" d="M492 -27q-185 0 -304.5 120.5t-119.5 307.5q0 183 120 299.5t306 116.5q183 0 299 -118.5t116 -303.5t-117 -303.5t-300 -118.5zM514 4q118 0 178 98t60 267q0 206 -80 311.5t-199 105.5t-184.5 -101t-65.5 -265q0 -184 79.5 -300t211.5 -116z" />
<glyph unicode="1" horiz-adv-x="679" d="M276 625q0 90 -30.5 115.5t-143.5 25.5q-6 0 -6 12.5t6 12.5q28 0 108 -2.5t130 -2.5q48 0 129 2.5t109 2.5q6 0 6 -12.5t-6 -12.5q-108 0 -141.5 -26.5t-33.5 -114.5v-459q0 -90 31 -115.5t144 -25.5q6 0 6 -12.5t-6 -12.5q-28 0 -108 2t-130 2q-48 0 -129 -2t-109 -2 q-6 0 -6 12.5t6 12.5q108 0 141 26t33 115v459z" />
<glyph unicode="2" horiz-adv-x="823" d="M76 35q263 217 358.5 330t95.5 217q0 82 -49 134t-127 52q-155 0 -231 -256q-1 -3 -7.5 -3t-12.5 2.5t-5 6.5l82 318q2 8 17 2q8 -4 6 -7q-12 -55 28 -55q14 0 84.5 20.5t128.5 20.5q106 0 168 -55.5t62 -145.5q0 -33 -11 -67t-26.5 -63t-48.5 -66.5t-61 -65t-81 -71.5 t-91 -74t-107 -84q-6 -6 -2.5 -10t12.5 -4q82 0 128 0.5t101 2.5t82 5t59.5 9.5t46.5 15.5t30 23t23 31.5t13 41.5q1 6 13 4.5t12 -6.5l-33 -215q0 -8 -5.5 -15.5t-12.5 -7.5h-625q-9 0 -15 14t1 21z" />
<glyph unicode="3" horiz-adv-x="798" d="M440 266q137 -14 208 -95t71 -189q0 -74 -36 -150.5t-107 -150t-188.5 -138t-268.5 -106.5q-5 -1 -9.5 4t-4.5 10t4 8q102 33 182.5 81t129.5 99t81 108.5t44.5 108.5t12.5 101q0 112 -57.5 188t-171.5 76q-46 0 -99 -12q-6 -1 -9 8q-5 13 3 16q156 39 222.5 113.5 t66.5 202.5q0 104 -41.5 162.5t-126.5 58.5q-183 0 -256 -242q-3 -3 -8.5 -3t-11 3t-4.5 7l75 299q3 4 9 4t11.5 -3t4.5 -6q-8 -31 2.5 -44t28.5 -13q14 0 86.5 22.5t130.5 22.5q116 0 180.5 -68t64.5 -165q0 -99 -59 -187t-160 -131z" />
<glyph unicode="4" horiz-adv-x="925" d="M850 92q6 0 7.5 -22.5t-1 -45t-8.5 -22.5q-54 4 -166 8v-317q0 -23 -16 -29l-99 -49q-11 -6 -14.5 -3.5t-3.5 15.5v385q-127 4 -488 4q-10 0 -15.5 8t1.5 17l604 770q5 6 18 3.5t13 -11.5v-717zM166 80q171 0 383 4v506l-393 -496q-11 -14 10 -14z" />
<glyph unicode="5" horiz-adv-x="837" d="M244 653q-28 0 -31 -30l-41 -222q285 -3 418 -104.5t133 -278.5q0 -171 -135 -304t-449 -277q-8 -3 -13.5 7.5t1.5 14.5q127 64 216 130t138 132.5t70.5 129.5t21.5 133q0 169 -112 263.5t-322 94.5q-10 0 -16 8t-4 17l65 364q2 14 6 18t21 5q372 43 433 60q46 12 57 36 l6 16q1 4 7 5t11 -1.5t4 -7.5l-41 -164q-5 -17 -12.5 -25t-16.5 -9.5t-28 -1.5z" />
<glyph unicode="6" horiz-adv-x="952" d="M614 582q71 0 125 -22t85 -59.5t46 -81.5t15 -93q0 -146 -121.5 -249.5t-292.5 -103.5q-175 0 -277 119.5t-102 333.5q0 192 85 373.5t252 329.5t390 225q7 1 11.5 -8.5t-1.5 -14.5q-144 -66 -258.5 -167t-186 -217t-109 -240.5t-37.5 -247.5t33.5 -223t100.5 -161 t156 -61q95 0 153 68t58 188q0 111 -50.5 179.5t-149.5 68.5q-51 0 -94 -20t-101 -68q-4 -3 -9.5 -1.5t-9.5 6.5t-1 9q116 138 290 138z" />
<glyph unicode="7" horiz-adv-x="878" d="M338 -444q-12 -31 -43 -50l-115 -69q-3 -2 -9 4t-5 10l545 1208q6 15 -11 15q-116 0 -190 -0.5t-144 -3.5t-108 -6t-74 -12t-51 -17t-30 -25t-21 -32t-14 -43q-1 -4 -7 -4.5t-11.5 2.5t-4.5 8l74 305q2 3 8.5 3.5t11.5 -1t4 -4.5q-7 -35 10.5 -44t86.5 -9h542 q9 0 15.5 -9.5t3.5 -17.5z" />
<glyph unicode="8" horiz-adv-x="1001" d="M612 705q59 -31 95.5 -53t84 -58t74.5 -71t46.5 -85t19.5 -106q0 -153 -127.5 -256t-308.5 -103q-179 0 -291.5 98.5t-112.5 235.5q0 118 79.5 222.5t199.5 166.5q-77 50 -119.5 104.5t-42.5 127.5q0 61 30 110.5t78.5 78.5t103.5 44t109 15q124 0 201.5 -66.5 t77.5 -148.5q0 -65 -51.5 -133t-145.5 -123zM492 1141q-69 0 -113.5 -40t-44.5 -108q0 -27 8.5 -52.5t18 -44.5t33.5 -42t38.5 -35.5t50 -35.5t50.5 -32t57 -34q92 100 92 211q0 96 -53.5 154.5t-136.5 58.5zM551 12q110 0 180 69.5t70 182.5q0 32 -6.5 62t-15 54 t-27.5 48.5t-32.5 41.5t-41.5 38.5t-44 33.5t-50.5 32t-50 28.5t-52.5 28.5q-39 21 -82 47q-75 -54 -117 -137t-42 -179q0 -141 88.5 -245.5t222.5 -104.5z" />
<glyph unicode="9" horiz-adv-x="952" d="M356 221q-75 0 -132.5 25.5t-90.5 67.5t-49 89t-16 97q0 139 107 228t269 89q191 0 303.5 -130t112.5 -345q0 -139 -49.5 -277.5t-140.5 -260t-230 -219t-307 -148.5q-6 -2 -10.5 8t2.5 14q143 59 258 157.5t186 213t108.5 235.5t37.5 236q0 62 -10 125t-33 127 t-56.5 113.5t-86.5 80.5t-117 31q-95 0 -147 -63t-52 -174q0 -113 55.5 -185.5t159.5 -72.5q50 0 90 16.5t90 56.5q6 6 16 -1t7 -13q-105 -121 -275 -121z" />
<glyph unicode=":" horiz-adv-x="407" d="M205 553q-43 0 -69.5 26t-26.5 70q0 41 26.5 65.5t69.5 24.5q45 0 69.5 -24t24.5 -66q0 -45 -24.5 -70.5t-69.5 -25.5zM205 -23q-43 0 -69.5 26.5t-26.5 70.5q0 41 26.5 65.5t69.5 24.5q45 0 69.5 -24t24.5 -66q0 -45 -24.5 -71t-69.5 -26z" />
<glyph unicode=";" horiz-adv-x="460" d="M209 553q-43 0 -69.5 26t-26.5 70q0 41 26.5 65.5t69.5 24.5q45 0 69.5 -24t24.5 -66q0 -45 -24.5 -70.5t-69.5 -25.5zM215 158q63 0 99 -46.5t36 -136.5q0 -178 -164 -348q-7 -6 -14 0.5t-2 14.5q48 63 65 122t17 132q0 57 -16 94q-15 -6 -35 -6q-41 0 -64.5 23.5 t-23.5 62.5q0 88 102 88z" />
<glyph unicode="&#x3c;" horiz-adv-x="833" d="M758 137q14 -6 13 -53q-2 -36 -13 -33l-684 303q-10 6 -10 36t10 34l684 301q9 5 12 -16q6 -38 -6 -61l-6 -7l-586 -252z" />
<glyph unicode="=" horiz-adv-x="958" d="M70 489q-6 0 -8 21t-0.5 42t6.5 21h821q9 0 9 -42t-9 -42h-819zM70 203q-6 0 -8 21t-0.5 42t6.5 21h821q9 0 9 -42t-9 -42h-819z" />
<glyph unicode="&#x3e;" horiz-adv-x="833" d="M760 422q10 -6 10 -36t-10 -34l-684 -301q-9 -5 -12 16q-6 38 6 61q3 5 6 7l586 252l-586 252q-14 6 -13 53q2 36 13 33z" />
<glyph unicode="?" horiz-adv-x="677" d="M328 1251q-24 0 -40.5 -8t-25 -23.5t-12 -28.5t-6.5 -34q-4 -28 -10 -47t-25.5 -36t-50.5 -17q-36 0 -56 23.5t-20 52.5q0 60 73.5 103.5t176.5 43.5q123 0 203.5 -63.5t80.5 -182.5q0 -24 -4.5 -47.5t-9.5 -40.5t-18 -38t-20 -32t-26.5 -32t-26.5 -27.5t-30 -28 t-28 -26.5q-69 -68 -98 -125t-29 -129q0 -46 12 -111q1 -4 -5.5 -7t-13.5 -3t-8 4q-23 54 -38 126t-15 120q0 54 21 97t51 73.5t60.5 62.5t51.5 80.5t21 110.5q0 85 -37.5 137.5t-97.5 52.5zM303 -23q-43 0 -69.5 26.5t-26.5 70.5q0 41 26.5 65.5t69.5 24.5q45 0 69.5 -24 t24.5 -66q0 -45 -24.5 -71t-69.5 -26z" />
<glyph unicode="@" horiz-adv-x="1476" d="M956 106q-72 0 -100 48t-10 133l16 86q-72 -124 -157 -197.5t-160 -73.5q-56 0 -86.5 40.5t-20.5 125.5q16 110 85 218.5t160.5 175.5t172.5 67q66 0 98 -43q35 23 41 57q5 7 30 2q7 -2 7 -4l-84 -458q-6 -40 -5.5 -69.5t19 -46.5t56.5 -17q87 0 162 91t75 242 q0 201 -145 342.5t-358 141.5q-117 0 -214.5 -45.5t-161 -123t-98 -178t-34.5 -212.5q0 -247 155 -396t408 -149q99 0 175 20.5t167 75.5q3 2 7 -1.5t5.5 -8t-0.5 -6.5q-183 -146 -420 -146q-124 0 -232 38.5t-188.5 108.5t-127 176.5t-46.5 235.5q0 113 36 216.5t100.5 183 t148.5 138t183.5 89.5t203.5 31q115 0 213 -38t164.5 -102.5t103.5 -150t37 -180.5q0 -174 -113.5 -305.5t-267.5 -131.5zM608 193q77 0 168 116t119 246q11 55 -10 91.5t-70 35.5q-77 -2 -155 -104t-101 -236q-24 -149 49 -149z" />
<glyph unicode="A" horiz-adv-x="1441" d="M1438 25q8 0 8 -12.5t-8 -12.5q-39 0 -121 4t-121 4q-45 0 -113 -4t-106 -4q-9 0 -9 12.5t9 12.5q105 0 127.5 31t-19.5 122l-176 369h-489l-121 -281q-100 -241 172 -241q9 0 9 -12.5t-9 -12.5q-38 0 -112.5 4t-129.5 4q-52 0 -120 -4t-109 -4q-9 0 -9 12.5t9 12.5 q84 0 136.5 52.5t119.5 207.5l432 1011q3 6 15.5 6t15.5 -6l487 -1015q69 -150 118.5 -203t113.5 -53zM438 590h451l-238 495z" />
<glyph unicode="B" horiz-adv-x="1157" d="M690 721q164 -13 263.5 -109t99.5 -235q0 -166 -120 -275.5t-300 -109.5q-41 0 -146.5 6t-152.5 6q-49 0 -132 -2t-114 -2q-4 0 -4 12.5t4 12.5q107 0 139.5 26t32.5 115v948q0 88 -31.5 114.5t-136.5 26.5q-6 0 -6 12.5t6 12.5q30 0 111.5 -3t130.5 -3q36 0 122 6t122 6 q176 0 264 -73.5t88 -196.5q0 -98 -64 -175.5t-176 -119.5zM537 1253q-39 0 -60 -4t-38 -19t-23 -43t-6 -77v-389q51 -2 92 -2q142 0 210 77.5t68 204.5q0 115 -59.5 183.5t-183.5 68.5zM602 31q147 0 219 76.5t72 218.5q0 155 -89 251t-247 97q-58 3 -147 -4v-504 q0 -76 37.5 -105.5t154.5 -29.5z" />
<glyph unicode="C" horiz-adv-x="1402" d="M848 1303q122 0 211.5 -18t175.5 -58q14 -8 17.5 -15t4.5 -32l27 -250q0 -6 -11 -7.5t-13 5.5q-101 342 -424 342q-252 0 -407 -168.5t-155 -450.5q0 -180 77 -328t208 -231.5t287 -83.5q162 0 265.5 81.5t164.5 250.5q2 6 12 4.5t10 -6.5l-20 -229q-3 -25 -7 -32.5 t-18 -15.5q-104 -49 -197.5 -68.5t-211.5 -19.5q-161 0 -299 49.5t-236 137t-153.5 213t-55.5 272.5q0 193 97 343.5t267 232.5t384 82z" />
<glyph unicode="D" horiz-adv-x="1421" d="M629 -8q-38 0 -150.5 6t-163.5 6q-49 0 -131.5 -2t-113.5 -2q-4 0 -4 12.5t4 12.5q109 0 140.5 26t31.5 115v948q0 88 -31 114.5t-139 26.5q-4 0 -4 12.5t4 12.5q31 0 112.5 -3t130.5 -3q47 0 148 5t137 5q160 0 295.5 -48t228.5 -131t145 -197.5t52 -245.5 q0 -150 -55.5 -277t-150 -212.5t-220.5 -133t-266 -47.5zM608 25q241 0 390 155.5t149 435.5q0 177 -64 321t-185.5 229t-279.5 85q-131 0 -179 -26.5t-48 -114.5v-922q0 -89 44.5 -126t172.5 -37z" />
<glyph unicode="E" horiz-adv-x="1105" d="M981 307q0 4 6.5 5t12.5 -1t6 -6q-19 -141 -19 -274q0 -17 -7 -24t-26 -7h-866q-4 0 -4 12.5t4 12.5q108 0 139 25.5t31 115.5v948q0 88 -31 114.5t-139 26.5q-4 0 -4 12.5t4 12.5h832q18 0 18 -18l4 -256q0 -6 -11 -6t-11 6q-12 110 -75.5 169.5t-166.5 59.5h-113 q-95 0 -126 -26.5t-31 -102.5v-418h235q102 0 148.5 35.5t46.5 112.5q0 4 12 4t12 -4q0 -46 -1 -97.5t-1 -72.5q0 -30 2 -93t2 -100q0 -5 -12 -5t-12 5q0 89 -47.5 129.5t-153.5 40.5h-231v-469q0 -77 29 -103t120 -26h145q108 0 180.5 69t98.5 193z" />
<glyph unicode="F" horiz-adv-x="1048" d="M938 1262l4 -256q0 -6 -11 -6t-11 6q-12 110 -75.5 169.5t-166.5 59.5h-113q-93 0 -125 -26t-32 -97v-448h196q109 0 159 35.5t50 111.5q0 5 12.5 5t12.5 -5q0 -46 -1 -97.5t-1 -72.5q0 -30 2 -92.5t2 -99.5q0 -5 -12.5 -5t-12.5 5q0 89 -51 129t-166 40h-190v-444 q0 -65 17.5 -94.5t67.5 -42t158 -12.5q5 0 5 -12.5t-5 -12.5q-40 0 -145 2t-176 2q-48 0 -131.5 -2t-114.5 -2q-6 0 -6 12.5t6 12.5q110 0 142 26t32 115v948q0 88 -31 114.5t-139 26.5q-4 0 -4 12.5t4 12.5h832q18 0 18 -18z" />
<glyph unicode="G" horiz-adv-x="1468" d="M842 -25q-171 0 -313 53.5t-235 145t-143.5 213t-50.5 258.5q0 197 102.5 348t277.5 230.5t394 79.5q231 0 361 -76q17 -7 20 -13t5 -32l26 -248q0 -6 -10.5 -8t-13.5 4q-21 71 -55.5 129.5t-86.5 106.5t-127 75t-166 27q-116 0 -217.5 -41.5t-176 -116.5t-117 -187 t-42.5 -247q0 -104 25 -201.5t76 -183t123.5 -149t174.5 -100t222 -36.5q142 0 198 55t56 195q0 55 -1.5 85t-10.5 58.5t-21.5 40.5t-40.5 21.5t-62 11.5t-91 2q-8 0 -11 8.5t-0.5 16.5t9.5 8q234 -16 469 -4q8 0 9 -14.5t-9 -14.5q-25 1 -39.5 -1t-27 -12t-18.5 -23.5 t-10 -44t-5 -65t-1 -93.5q0 -82 7.5 -130t7.5 -51q0 -11 -4 -15t-19 -9q-255 -56 -438 -56z" />
<glyph unicode="H" horiz-adv-x="1556" d="M1483 25q6 0 6 -12.5t-6 -12.5q-30 0 -114.5 2t-133.5 2q-58 0 -142 -2t-112 -2q-6 0 -6 12.5t6 12.5q115 0 146.5 25.5t31.5 115.5v477h-764v-477q0 -90 31.5 -115.5t146.5 -25.5q5 0 5 -12.5t-5 -12.5q-31 0 -115.5 2t-140.5 2q-49 0 -132.5 -2t-114.5 -2q-4 0 -4 12.5 t4 12.5q112 0 144 25.5t32 115.5v948q0 88 -32 114.5t-142 26.5q-4 0 -4 12.5t4 12.5q31 0 113.5 -3t131.5 -3q57 0 142 3t114 3q5 0 5 -12.5t-5 -12.5q-112 0 -145 -28t-33 -117v-422h764v422q0 90 -32.5 117.5t-145.5 27.5q-6 0 -6 12.5t6 12.5q28 0 112 -3t142 -3 q49 0 133.5 3t114.5 3q6 0 6 -12.5t-6 -12.5q-112 0 -144 -26.5t-32 -114.5v-948q0 -90 32 -115.5t144 -25.5z" />
<glyph unicode="I" horiz-adv-x="684" d="M418 166q0 -90 30.5 -115.5t139.5 -25.5q4 0 4 -12.5t-4 -12.5q-30 0 -112.5 2t-135.5 2q-49 0 -132 -2t-114 -2q-6 0 -6 12.5t6 12.5q109 0 140.5 26t31.5 115v948q0 88 -32 114.5t-140 26.5q-6 0 -6 12.5t6 12.5q31 0 114 -3t132 -3q53 0 136 3t112 3q4 0 4 -12.5 t-4 -12.5q-107 0 -138.5 -28t-31.5 -117v-944z" />
<glyph unicode="J" horiz-adv-x="665" d="M580 1280q4 0 4 -12.5t-4 -12.5q-93 0 -119.5 -27.5t-26.5 -117.5v-1159q0 -207 -97.5 -328t-279.5 -121q-72 0 -113.5 24.5t-41.5 67.5q0 32 20 54t55 22t59 -20t35 -44.5t30.5 -44.5t45.5 -20q68 0 102 82.5t34 265.5v1225q0 88 -36.5 114.5t-160.5 26.5q-4 0 -4 12.5 t4 12.5q37 0 127.5 -3t142.5 -3q49 0 123.5 3t100.5 3z" />
<glyph unicode="K" horiz-adv-x="1333" d="M1321 25q6 0 6 -12.5t-6 -12.5h-229q-14 0 -36 -1q-51 -1 -68 9q-21 12 -71 80q-5 7 -17 24q-76 103 -140 185l-305 387l-64 -61v-457q0 -90 30.5 -115.5t139.5 -25.5q6 0 6 -12.5t-6 -12.5q-31 0 -113 2t-133 2q-49 0 -131.5 -2t-113.5 -2q-4 0 -4 12.5t4 12.5 q109 0 140.5 26t31.5 115v948q0 88 -31 114.5t-139 26.5q-4 0 -4 12.5t4 12.5q31 0 112.5 -3t130.5 -3q52 0 134.5 3t111.5 3q5 0 5 -12.5t-5 -12.5q-107 0 -138.5 -28t-31.5 -117v-434l428 430q77 78 64.5 113.5t-119.5 35.5q-4 0 -4 12.5t4 12.5q29 0 104.5 -3t139.5 -3 q62 0 131.5 3t93.5 3q6 0 6 -12.5t-6 -12.5q-87 0 -185 -39.5t-180 -121.5l-307 -306l295 -380q74 -96 127 -161.5t96.5 -108.5t69.5 -65.5t57.5 -33.5t49 -12.5t54.5 -1.5h11z" />
<glyph unicode="L" horiz-adv-x="1095" d="M389 1112v-938q0 -83 28 -106t128 -23h196q123 0 202 75t104 204q0 4 5.5 5t11 -1t5.5 -6q-18 -175 -18 -291q0 -18 -6.5 -24.5t-24.5 -6.5h-950q-4 0 -4 12.5t4 12.5q108 0 139 25.5t31 115.5v948q0 88 -31 114.5t-139 26.5q-4 0 -4 12.5t4 12.5q30 0 112 -3t131 -3 q52 0 134.5 3t111.5 3q5 0 5 -12.5t-5 -12.5q-107 0 -138.5 -27t-31.5 -116z" />
<glyph unicode="M" horiz-adv-x="1718" d="M1671 25q6 0 6 -12.5t-6 -12.5q-31 0 -114 2t-132 2t-125.5 -2t-103.5 -2q-4 0 -4 12.5t4 12.5q100 0 129 26t25 115l-39 911l-459 -1063q-3 -8 -16.5 -8t-18.5 8l-506 1059l-16 -844q-2 -108 37.5 -156t134.5 -48q5 0 5 -12.5t-5 -12.5q-27 0 -93 2t-106 2 q-39 0 -103 -2t-89 -2q-6 0 -6 12.5t6 12.5q85 0 126 49.5t42 154.5l18 932q-61 94 -172 94q-6 0 -6 12.5t6 12.5q25 0 74 -2t65 -2q27 0 66 2t47 2q27 0 43.5 -18.5t50.5 -87.5l457 -943l434 998q22 51 62 51q5 0 33.5 -2t50.5 -2q41 0 94.5 2t77.5 2q5 0 5 -12.5t-5 -12.5 q-102 0 -147 -31.5t-42 -113.5l43 -944q3 -63 16 -90.5t47 -39t109 -11.5z" />
<glyph unicode="N" horiz-adv-x="1490" d="M1448 1280q6 0 6 -12.5t-6 -12.5q-85 0 -124.5 -50t-39.5 -156v-1074q0 -6 -10 -7.5t-14 1.5l-955 1143q-4 4 -6 8v-891q0 -106 38.5 -155t121.5 -49q6 0 6 -12.5t-6 -12.5q-24 0 -84.5 2t-98.5 2t-103.5 -2t-92.5 -2q-4 0 -4 12.5t4 12.5q89 0 128.5 49t39.5 155v945 q-85 81 -170 81q-6 0 -6 12.5t6 12.5q24 0 74 -2t71 -2q33 0 81 2t58 2q16 0 24.5 -7.5t29.5 -39t43 -59.5l774 -938v813q0 107 -37 156.5t-121 49.5q-5 0 -5 12.5t5 12.5q25 0 86 -3t99 -3q36 0 99.5 3t88.5 3z" />
<glyph unicode="O" d="M750 -25q-191 0 -341 91t-229.5 242t-79.5 331q0 129 43 239t115 187t165.5 131.5t195 80.5t202.5 26q146 0 270 -55t205.5 -146.5t126.5 -208t45 -240.5q0 -140 -58 -266t-155 -216t-229 -143t-276 -53zM821 20q207 0 341 152.5t134 423.5q0 143 -40 264.5t-112 208 t-177 135.5t-230 49q-220 0 -342.5 -144.5t-122.5 -397.5q0 -193 68.5 -350.5t194.5 -249t286 -91.5z" />
<glyph unicode="P" horiz-adv-x="1114" d="M401 174q0 -65 17 -94.5t65.5 -42t153.5 -12.5q6 0 6 -12.5t-6 -12.5q-40 0 -142 2t-167 2q-48 0 -130.5 -2t-113.5 -2q-6 0 -6 12.5t6 12.5q107 0 137.5 26t30.5 115v948q0 88 -31 114.5t-137 26.5q-6 0 -6 12.5t6 12.5q31 0 112.5 -3t129.5 -3q31 0 130 6t154 6 q188 0 303.5 -83t118.5 -253q1 -83 -25.5 -153t-71 -117t-103.5 -80t-122.5 -48t-127.5 -15q-60 0 -101 10q-4 1 -4.5 8t2.5 13t8 5q31 -8 72 -8q61 0 114.5 21t96 62t67.5 108t25 151q0 162 -84 254t-221 92q-41 0 -64 -2.5t-43.5 -10t-29.5 -23.5t-14 -41.5t-5 -65.5v-936 z" />
<glyph unicode="Q" d="M1526 -336q4 2 7 -3t3.5 -10t-2.5 -7q-105 -25 -172 -25q-144 0 -304 94.5t-274 261.5h-34q-191 0 -341 91t-229.5 242t-79.5 331q0 129 43 239t115 187t165.5 131.5t195 80.5t202.5 26q146 0 270 -55t205.5 -146.5t126.5 -208t45 -240.5q0 -228 -141 -404.5t-362 -242.5 q84 -152 222.5 -250t264.5 -98q47 0 74 6zM272 711q0 -193 68.5 -350.5t194.5 -249t286 -91.5q207 0 341 152.5t134 423.5q0 143 -40 264.5t-112 208t-177 135.5t-230 49q-220 0 -342.5 -144.5t-122.5 -397.5z" />
<glyph unicode="R" horiz-adv-x="1388" d="M1407 25q6 0 6 -12.5t-6 -12.5h-281q-50 0 -185.5 166.5t-332.5 466.5q-55 -10 -102 -10q-9 0 -96 6v-463q0 -90 30.5 -115.5t139.5 -25.5q6 0 6 -12.5t-6 -12.5q-30 0 -112 2t-134 2q-49 0 -132 -2t-114 -2q-4 0 -4 12.5t4 12.5q109 0 140.5 26t31.5 115v948 q0 88 -31 114.5t-137 26.5q-6 0 -6 12.5t6 12.5q30 0 111.5 -3t130.5 -3q44 0 147 6t144 6q165 0 255.5 -72.5t90.5 -195.5q0 -110 -64.5 -200.5t-171.5 -141.5q254 -367 399 -509t273 -142zM410 678q59 -6 120 -6q153 0 219 68.5t66 213.5q0 162 -67 230.5t-195 68.5 q-80 0 -111.5 -29t-31.5 -114v-432z" />
<glyph unicode="S" horiz-adv-x="1013" d="M307 1047q0 -35 9.5 -67.5t21 -57t38 -52t44 -43.5t56 -42.5t57 -37.5t63.5 -38q134 -82 185 -128q122 -108 122 -253q0 -154 -114 -253.5t-310 -99.5q-165 0 -295 74q-17 10 -20 39l-23 287q-1 9 10 10.5t13 -6.5q19 -69 46.5 -128.5t70.5 -116t106 -89.5t139 -33 q47 0 87 11.5t74.5 36.5t54.5 71t20 109q0 41 -9.5 78.5t-22.5 66t-39.5 58.5t-46 49t-57.5 45t-59.5 39.5t-64.5 39.5q-38 24 -48.5 30.5t-45 29.5t-46 33.5t-39 33.5t-38 38.5t-28.5 41t-25 48t-13 51t-6 59.5q0 79 33.5 142t90 101.5t125 58.5t142.5 20q126 0 244 -48 q31 -13 31 -36l12 -246q0 -9 -12 -10.5t-13 6.5q-6 35 -18 71t-36 78.5t-56 75t-81.5 54.5t-107.5 22q-108 0 -164.5 -63.5t-56.5 -159.5z" />
<glyph unicode="T" horiz-adv-x="1302" d="M397 1241q-127 0 -195.5 -68.5t-99.5 -224.5q-1 -4 -7 -5t-11.5 0.5t-5.5 4.5q8 57 18 184.5t10 192.5q0 9 12.5 9.5t12.5 -9.5q0 -45 111 -45q176 -6 411 -6q107 0 230.5 3t165.5 3q74 0 109.5 10t45.5 41q2 7 12.5 7t10.5 -7q-6 -61 -12.5 -196.5t-6.5 -186.5 q0 -4 -11 -4t-13 4q-9 158 -73.5 225.5t-199.5 67.5q-118 0 -149 -22t-31 -109v-944q0 -48 6 -73t28 -41.5t58 -21.5t103 -5q4 0 4 -12.5t-4 -12.5q-33 0 -123.5 2t-149.5 2q-54 0 -144.5 -2t-125.5 -2q-5 0 -5 12.5t5 12.5q125 0 161 26t36 115v948q0 86 -32 106.5 t-151 20.5z" />
<glyph unicode="U" horiz-adv-x="1431" d="M1171 1049q0 206 -180 206q-6 0 -6 12.5t6 12.5q28 0 96.5 -3t110.5 -3q36 0 100.5 3t90.5 3q5 0 5 -12.5t-5 -12.5q-164 0 -164 -206v-580q0 -232 -133.5 -364t-356.5 -132q-229 0 -367.5 131.5t-138.5 354.5v655q0 88 -31 114.5t-139 26.5q-5 0 -5 12.5t5 12.5 q31 0 113 -3t131 -3q52 0 134.5 3t109.5 3q6 0 6 -12.5t-6 -12.5q-106 0 -137 -28t-31 -117v-580q0 -242 106.5 -367.5t300.5 -125.5q181 0 283 113.5t102 316.5v582z" />
<glyph unicode="V" horiz-adv-x="1361" d="M1368 1280q6 0 6 -12.5t-6 -12.5q-144 0 -215 -176l-426 -1077q-3 -8 -22 -8t-23 8l-510 1108q-36 78 -74.5 111.5t-97.5 33.5q-6 0 -6 12.5t6 12.5q24 0 76 -3t90 -3q82 0 172 3t111 3q6 0 6 -12.5t-6 -12.5q-85 0 -114 -34.5t5 -110.5l416 -905l350 885 q34 82 0.5 123.5t-141.5 41.5q-6 0 -6 12.5t6 12.5q31 0 99.5 -3t123.5 -3q39 0 93 3t87 3z" />
<glyph unicode="W" horiz-adv-x="1898" d="M1907 1280q6 0 6 -12.5t-6 -12.5q-145 0 -215 -176l-426 -1077q-3 -8 -21.5 -8t-23.5 8l-267 576l-227 -576q-3 -8 -22 -8t-23 8l-510 1108q-39 84 -74.5 114.5t-97.5 30.5q-6 0 -6 12.5t6 12.5q24 0 76 -3t90 -3q72 0 152.5 3t101.5 3q6 0 6 -12.5t-6 -12.5 q-43 0 -68 -6t-38 -22.5t-9 -44.5t25 -72l424 -909l174 436l-219 473q-35 77 -71.5 111t-90.5 34q-6 0 -6 12.5t6 12.5q24 0 73.5 -3t84.5 -3q57 0 116.5 3t73.5 3q6 0 6 -12.5t-6 -12.5q-63 0 -67.5 -25t38.5 -120l140 -299l110 279q36 88 23.5 126.5t-78.5 38.5 q-5 0 -5 12.5t5 12.5q17 0 53 -3t82 -3q38 0 90 3t84 3q4 0 4 -12.5t-4 -12.5q-68 0 -119 -40.5t-88 -135.5l-131 -325l260 -553l350 882q34 85 2 128.5t-133 43.5q-6 0 -6 12.5t6 12.5q31 0 97 -3t116 -3q40 0 94.5 3t88.5 3z" />
<glyph unicode="X" horiz-adv-x="1333" d="M1305 25q5 0 5 -12.5t-5 -12.5q-26 0 -93.5 2t-107.5 2q-60 0 -145.5 -2t-116.5 -2q-4 0 -4 12.5t4 12.5q72 0 91 16.5t-11 62.5l-306 465l-245 -346q-68 -95 -51.5 -146.5t114.5 -51.5q6 0 6 -12.5t-6 -12.5q-32 0 -104.5 2t-132.5 2q-37 0 -86.5 -2t-79.5 -2 q-6 0 -6 12.5t6 12.5q67 0 143 50.5t148 151.5l274 375l-330 502q-55 83 -107 117t-120 34q-5 0 -5 12.5t5 12.5q26 0 81 -3t79 -3q60 0 153.5 3t124.5 3q6 0 6 -12.5t-6 -12.5q-71 0 -89.5 -17t9.5 -64l297 -451l228 321q71 101 56.5 156t-112.5 55q-6 0 -6 12.5t6 12.5 q33 0 106 -3t132 -3q37 0 86.5 3t79.5 3q6 0 6 -12.5t-6 -12.5q-67 0 -145 -55t-156 -162l-254 -346l344 -522q53 -80 108 -112.5t138 -32.5z" />
<glyph unicode="Y" horiz-adv-x="1251" d="M1262 1280q4 0 4 -12.5t-4 -12.5q-72 0 -151 -58.5t-140 -158.5l-264 -409v-463q0 -90 29.5 -115.5t137.5 -25.5q6 0 6 -12.5t-6 -12.5q-29 0 -110 2t-133 2q-49 0 -132 -2t-114 -2q-5 0 -5 12.5t5 12.5q109 0 140.5 26t31.5 115v430l-332 491q-62 94 -112.5 131 t-112.5 37q-6 0 -6 12.5t6 12.5q23 0 72 -3t71 -3q61 0 163 3t132 3q4 0 4 -12.5t-4 -12.5q-74 0 -93.5 -26.5t15.5 -73.5l322 -477l238 373q60 97 44 150.5t-108 53.5q-4 0 -4 12.5t4 12.5q33 0 109 -3t137 -3q35 0 82.5 3t77.5 3z" />
<glyph unicode="Z" horiz-adv-x="1222" d="M115 27l792 1202q3 6 4.5 8.5t0.5 4.5t-4.5 2.5t-10.5 0.5q-178 0 -269 -1t-185 -10t-131.5 -21t-78.5 -42t-58.5 -64t-41.5 -95q-1 -4 -7.5 -4t-12 2.5t-4.5 5.5l81 325q2 7 19 1q6 -3 6 -5q-6 -36 16 -46.5t101 -10.5h747q9 0 15 -10.5t0 -16.5l-783 -1198 q-7 -11 -5 -13.5t16 -2.5h501q263 0 307 244q2 5 12.5 5t10.5 -5l-29 -267q0 -7 -5 -13.5t-13 -6.5q-305 4 -979 4q-9 0 -13.5 10t1.5 17z" />
<glyph unicode="[" horiz-adv-x="561" d="M174 -217v1681q0 13 3.5 17t15.5 4h290q6 0 6 -12.5t-6 -12.5q-111 0 -143.5 -28t-32.5 -117v-1385q0 -89 32.5 -117t143.5 -28q6 0 6 -12.5t-6 -12.5h-290q-12 0 -15.5 4t-3.5 19z" />
<glyph unicode="\" horiz-adv-x="702" d="M567 -336l-514 1804q-3 9 36.5 22.5t43.5 4.5l516 -1806q1 -3 -6.5 -7.5t-19 -8.5t-24 -7.5t-21.5 -4t-11 2.5z" />
<glyph unicode="]" horiz-adv-x="561" d="M387 -217q0 -15 -3 -19t-15 -4h-291q-6 0 -6 12.5t6 12.5q111 0 143.5 28t32.5 117v1385q0 89 -32.5 117t-143.5 28q-6 0 -6 12.5t6 12.5h291q12 0 15 -3.5t3 -17.5v-1681z" />
<glyph unicode="^" horiz-adv-x="802" d="M682 778q2 -3 -2 -6.5t-8.5 -4.5t-7.5 1l-263 338l-262 -338q-4 -4 -13 0.5t-7 9.5l260 510q1 10 21.5 10t23.5 -10z" />
<glyph unicode="_" horiz-adv-x="815" d="M70 -158q-6 0 -8 21.5t-0.5 43t6.5 21.5h677q9 0 9 -43t-9 -43h-675z" />
<glyph unicode="`" horiz-adv-x="436" d="M80 1489q-6 14 61 3q73 -13 76 -26l98 -491q1 -3 -3.5 -5.5t-10 -2.5t-6.5 4z" />
<glyph unicode="a" horiz-adv-x="860" d="M848 111q9 3 13 -8t-5 -15l-211 -100q-8 -4 -18 -4q-26 0 -48.5 35.5t-29.5 97.5l-103 -68q-92 -63 -174 -63q-78 0 -120.5 39.5t-42.5 101.5q0 66 52.5 110.5t166.5 86.5l219 79v136q0 233 -125 233q-36 0 -64.5 -15.5t-44.5 -41t-25.5 -49t-13.5 -48.5q-11 -90 -84 -90 q-36 0 -54.5 18.5t-18.5 45.5q0 51 66.5 103.5t155.5 84t159 31.5q85 0 130.5 -54.5t45.5 -156.5v-379q0 -135 80 -135q33 0 94 25zM467 98l80 49v13v215l-172 -70q-113 -44 -113 -125q0 -48 31.5 -80t81.5 -32q43 0 92 30z" />
<glyph unicode="b" horiz-adv-x="1046" d="M641 817q140 0 236 -99t96 -280q0 -112 -39 -203t-103 -147t-143 -85.5t-164 -29.5q-157 0 -280 90l-162 -73q-9 -3 -12.5 5.5t2.5 14.5q62 40 88 82t26 119v1010q0 74 -13.5 105.5t-49.5 31.5q-34 0 -92 -27q-5 -2 -9.5 4t-5 12t3.5 9l265 127q6 2 10 2q6 0 13 -6.5 t7 -12.5v-819q162 170 326 170zM584 12q114 0 177.5 92.5t63.5 262.5q0 182 -70.5 278t-185.5 96q-123 0 -254 -131v-329q0 -71 27.5 -126t70 -84.5t86.5 -44t85 -14.5z" />
<glyph unicode="c" horiz-adv-x="845" d="M473 -25q-101 0 -180.5 35.5t-126 94.5t-70.5 129t-24 145q0 99 41 182t106.5 136t145.5 82.5t161 29.5q92 0 167 -36.5t75 -92.5q0 -30 -21 -51t-57 -21q-66 0 -98 74q-23 44 -52 65t-85 21q-110 0 -172 -89t-62 -237q0 -82 19.5 -150.5t58.5 -123.5t106 -86t156 -31 q117 0 205 66q4 2 9 -1.5t6.5 -8t-1.5 -7.5q-71 -65 -144 -95t-163 -30z" />
<glyph unicode="d" horiz-adv-x="1048" d="M1032 119q5 3 10 -2.5t5.5 -11.5t-3.5 -9l-235 -112q-12 -4 -14 -4q-26 0 -44.5 43t-21.5 120q-166 -170 -336 -170q-134 0 -227.5 109t-93.5 285q0 90 29.5 166.5t77.5 127.5t110 87t126 52.5t126 16.5q105 0 188 -47v451q0 73 -14.5 105t-50.5 32q-25 0 -91 -27 q-6 -3 -11 2.5t-5 11.5t4 9l266 129q4 2 11 2q6 0 13 -6.5t7 -12.5v-1239q0 -73 17 -105t55 -32q50 0 102 29zM479 51q124 0 250 129v459q-94 135 -240 135q-126 0 -198 -89t-72 -257q0 -171 73 -274t187 -103z" />
<glyph unicode="e" horiz-adv-x="837" d="M743 119q5 3 12 -6t3 -15q-137 -123 -303 -123q-120 0 -209 57t-131.5 145.5t-42.5 193.5q0 183 127 310.5t311 127.5q118 0 181 -60.5t63 -173.5q0 -55 -25 -55l-506 -2q-4 -46 -4 -69q0 -178 84.5 -287t237.5 -109q61 0 103.5 16t98.5 50zM440 768q-86 0 -141 -58 t-72 -163l373 8q0 104 -42 158.5t-118 54.5z" />
<glyph unicode="f" horiz-adv-x="624" d="M653 1487q106 0 173 -32t67 -79q0 -33 -23 -52t-55 -19q-29 0 -47.5 13.5t-40.5 45.5q-29 43 -62 64.5t-85 21.5q-114 0 -181 -136t-67 -415v-131q128 6 256 20q14 0 14 -47q0 -11 -3 -23.5t-7.5 -20.5t-9.5 -7q-105 28 -250 31v-555q0 -38 4.5 -60.5t15 -40t34 -25.5 t56.5 -11.5t88 -3.5q6 0 6 -12.5t-6 -12.5q-46 0 -133.5 2t-132.5 2q-40 0 -108.5 -2t-92.5 -2q-6 0 -6 12.5t6 12.5q87 0 112.5 26t25.5 115v461q0 73 -24.5 90.5t-121.5 17.5q-6 0 -6 14.5t6 14.5q83 0 112.5 19.5t31.5 72.5q10 334 121.5 482.5t332.5 148.5z" />
<glyph unicode="g" horiz-adv-x="913" d="M516 55q141 -2 199 -15q164 -38 164 -196q0 -112 -71.5 -209t-189.5 -153.5t-249 -56.5q-140 0 -223 64t-83 163q0 151 209 295q-74 11 -114.5 44t-40.5 97q0 61 35.5 111.5t111.5 107.5q-72 35 -112.5 98t-40.5 136q0 116 94.5 190t238.5 74q129 0 213 -64 q116 68 220 68q12 0 12 -49q0 -45 -13 -69q-4 -7 -8 -5q-69 31 -139 31q-29 0 -43 -2q68 -74 68 -172q0 -112 -94 -191.5t-236 -79.5q-61 0 -129 21q-70 -56 -70 -123q0 -68 63.5 -91.5t227.5 -23.5zM391 772q-141 0 -141 -180q0 -134 66 -211.5t151 -77.5q65 0 105 48 t40 147q0 126 -64.5 200t-156.5 74zM461 -512q135 0 219 72.5t84 195.5q0 29 -5 52t-13.5 41t-24 31.5t-30 23t-38.5 16t-44 10t-52 5.5t-55.5 3t-61.5 1q-81 0 -118 4q-62 -40 -95.5 -91t-33.5 -124q0 -112 71.5 -176t196.5 -64z" />
<glyph unicode="h" horiz-adv-x="1024" d="M983 25q6 0 6 -12.5t-6 -12.5q-23 0 -87 2t-103 2q-40 0 -105 -2t-86 -2q-6 0 -6 12.5t6 12.5q76 0 100.5 27.5t24.5 113.5v319q0 121 -44.5 178.5t-139.5 57.5q-61 0 -124 -31.5t-114 -87.5v-436q0 -86 24.5 -113.5t102.5 -27.5q6 0 6 -12.5t-6 -12.5q-23 0 -87 2 t-103 2q-40 0 -105 -2t-86 -2q-6 0 -6 12.5t6 12.5q76 0 100.5 27.5t24.5 113.5v1055q0 74 -14 106.5t-49 32.5q-27 0 -90 -29q-6 -2 -11 4t-5.5 12t3.5 9l269 129h6q7 0 13.5 -6.5t6.5 -12.5v-827q149 174 316 174q113 0 174 -65.5t61 -186.5v-395q0 -86 24.5 -113.5 t102.5 -27.5z" />
<glyph unicode="i" horiz-adv-x="555" d="M281 1042q-44 0 -70.5 25.5t-26.5 69.5q0 41 26.5 65.5t70.5 24.5q43 0 67.5 -24.5t24.5 -65.5q0 -44 -24.5 -69.5t-67.5 -25.5zM104 0q-6 0 -6 12.5t6 12.5q76 0 100.5 27.5t24.5 113.5v381q0 72 -14.5 104.5t-50.5 32.5q-33 0 -90 -29q-6 -2 -10.5 4t-4.5 12t4 9 l273 127l8 2q6 0 13.5 -6t7.5 -12q0 -7 -1.5 -41t-2.5 -88.5t-1 -112.5v-383q0 -87 23.5 -114t101.5 -27q6 0 6 -12.5t-6 -12.5q-23 0 -87 2t-103 2q-40 0 -105 -2t-86 -2z" />
<glyph unicode="j" horiz-adv-x="528" d="M264 1042q-44 0 -70 25.5t-26 69.5q0 41 26 65.5t70 24.5q43 0 67.5 -24.5t24.5 -65.5q0 -44 -24.5 -69.5t-67.5 -25.5zM348 791q0 -7 -1 -41t-2 -88.5t-1 -112.5v-647q0 -206 -65.5 -312t-235.5 -168q-5 -2 -9.5 9t-0.5 14q100 42 141 137t41 273v692q0 72 -14 104.5 t-49 32.5q-34 0 -91 -29q-6 -2 -11 4t-5 12t4 9l275 127q4 2 6 2q7 0 12.5 -6t5.5 -12z" />
<glyph unicode="k" horiz-adv-x="1005" d="M995 25q5 0 5 -12.5t-5 -12.5q-23 0 -87 2t-103 2q-57 0 -135.5 -2t-104.5 -2q-5 0 -5 12.5t5 12.5q70 0 89.5 20.5t-9.5 63.5l-250 333l-90 -71v-205q0 -86 24.5 -113.5t102.5 -27.5q6 0 6 -12.5t-6 -12.5q-23 0 -87 2t-103 2q-40 0 -105 -2t-86 -2q-6 0 -6 12.5t6 12.5 q76 0 100.5 27.5t24.5 113.5v1055q0 74 -14 106.5t-49 32.5q-27 0 -90 -29q-6 -2 -11 4t-5.5 12t3.5 9l264 127q6 2 11 2q6 0 13 -6.5t7 -12.5v-1060l260 217q75 60 61.5 101.5t-108.5 41.5q-6 0 -6 12.5t6 12.5q28 0 101.5 -2.5t136.5 -2.5q58 0 125 2.5t90 2.5 q5 0 5 -12.5t-5 -12.5q-80 0 -175.5 -38t-187.5 -114l-112 -90l266 -358q103 -141 233 -141z" />
<glyph unicode="l" horiz-adv-x="532" d="M80 0q-6 0 -6 12.5t6 12.5q76 0 100.5 27.5t24.5 113.5v1055q0 74 -14 106.5t-48 32.5q-29 0 -92 -29q-5 -2 -10 4t-5.5 12t3.5 9l270 127q4 2 8 2q6 0 14.5 -6.5t8.5 -12.5v-1300q0 -86 24 -113.5t101 -27.5q6 0 6 -12.5t-6 -12.5q-23 0 -88 2t-105 2t-105.5 -2 t-86.5 -2z" />
<glyph unicode="m" d="M1526 25q8 0 8 -12.5t-8 -12.5q-21 0 -86 2t-105 2q-39 0 -103 -2t-87 -2q-5 0 -5 12.5t5 12.5q77 0 102 27.5t25 113.5v319q0 121 -41.5 178.5t-130.5 57.5q-60 0 -121 -32.5t-109 -88.5v-31v-403q0 -86 24.5 -113.5t102.5 -27.5q5 0 5 -12.5t-5 -12.5q-24 0 -88 2 t-104 2q-39 0 -103 -2t-86 -2q-6 0 -6 12.5t6 12.5q76 0 100.5 27.5t24.5 113.5v319q0 120 -42 178t-130 58q-59 0 -118 -31t-107 -86v-438q0 -87 23.5 -114t101.5 -27q6 0 6 -12.5t-6 -12.5q-23 0 -87 2t-103 2t-103 -2t-86 -2q-6 0 -6 12.5t6 12.5q76 0 99.5 27t23.5 114 v401q0 67 -16 98t-54 31q-30 0 -108 -30q-6 -2 -10.5 3t-4 10.5t4.5 8.5l245 119q6 2 13 2q12 0 25.5 -18t24 -58t11.5 -92q141 172 301 172q92 0 149 -46t72 -134q149 180 310 180q109 0 167 -63t58 -189v-395q0 -87 23.5 -114t101.5 -27z" />
<glyph unicode="n" horiz-adv-x="1062" d="M1020 25q6 0 6 -12.5t-6 -12.5q-23 0 -87.5 2t-103.5 2t-102.5 -2t-85.5 -2q-6 0 -6 12.5t6 12.5q76 0 99.5 27t23.5 114v326q0 120 -44.5 175.5t-139.5 55.5q-60 0 -122.5 -31t-113.5 -86v-440q0 -87 23.5 -114t101.5 -27q6 0 6 -12.5t-6 -12.5q-23 0 -87 2t-103 2 t-103 -2t-86 -2q-6 0 -6 12.5t6 12.5q76 0 99.5 27t23.5 114v401q0 67 -16 98t-54 31q-30 0 -108 -30q-6 -2 -10.5 3t-4 10.5t4.5 8.5l245 119q6 2 13 2q12 0 25.5 -18t24 -58t11.5 -92q148 176 313 176q113 0 175.5 -65.5t62.5 -186.5v-399q0 -87 23.5 -114t101.5 -27z" />
<glyph unicode="o" horiz-adv-x="985" d="M475 -27q-120 0 -213.5 60.5t-141.5 158.5t-48 214q0 82 26.5 151t70.5 116t101.5 80.5t118.5 48.5t123 15q91 0 168 -36t127.5 -95.5t78 -135t27.5 -155.5q0 -189 -127.5 -305.5t-310.5 -116.5zM535 12q106 0 164.5 80.5t58.5 243.5q0 195 -89.5 317.5t-224.5 122.5 q-105 0 -162 -78t-57 -227q0 -194 87.5 -326.5t222.5 -132.5z" />
<glyph unicode="p" horiz-adv-x="1046" d="M655 817q131 0 223.5 -102t92.5 -275q0 -81 -20 -150.5t-54.5 -119.5t-78.5 -88.5t-94.5 -62t-99.5 -35t-96 -11.5q-120 0 -211 47v-417q0 -61 15.5 -89.5t57 -40.5t130.5 -12q4 0 4 -12t-4 -12q-35 0 -124 2t-142 2q-39 0 -104 -2t-87 -2q-6 0 -6 12t6 12q79 0 102 27 t23 115v960q0 72 -15.5 103.5t-55.5 31.5q-39 0 -107 -30q-5 -2 -10 3t-5.5 10.5t3.5 8.5l240 115q8 4 14 4q26 0 44 -42.5t21 -119.5q167 170 338 170zM586 18q106 0 172.5 94.5t66.5 264.5q0 169 -74.5 262.5t-191.5 93.5q-69 0 -126.5 -31.5t-115.5 -91.5v-465 q54 -63 116 -95t153 -32z" />
<glyph unicode="q" horiz-adv-x="1003" d="M975 -539q5 0 5 -12t-5 -12q-23 0 -88 2t-105 2q-44 0 -119 -2t-106 -2q-5 0 -5 12t5 12q102 0 132 27t30 115v538q-74 -76 -151.5 -122t-172.5 -46q-135 0 -229 101t-94 278q0 97 27 176.5t71 132t103 88.5t121 52t126 16q142 0 275 -74l143 52q5 3 9 -1.5t3.5 -9.5 t-4.5 -8q-50 -30 -75 -69.5t-25 -102.5v-1001q0 -88 24.5 -115t104.5 -27zM469 49q121 0 250 129v371q0 106 -73.5 166.5t-184.5 60.5q-240 0 -240 -356q0 -178 67.5 -274.5t180.5 -96.5z" />
<glyph unicode="r" horiz-adv-x="751" d="M571 809q46 0 87.5 -27t41.5 -63q0 -29 -19 -48.5t-52 -19.5q-31 0 -69 33t-73 33q-26 0 -53.5 -20.5t-89.5 -90.5v-440q0 -87 37.5 -114t159.5 -27q6 0 6 -12.5t-6 -12.5q-31 0 -119.5 2t-142.5 2q-39 0 -103 -2t-86 -2q-6 0 -6 12.5t6 12.5q76 0 99.5 27t23.5 114v401 q0 67 -16 98t-54 31q-30 0 -108 -30q-6 -2 -10.5 3t-4 10.5t4.5 8.5l245 119q6 2 13 2q12 0 25.5 -18t24 -57.5t11.5 -90.5q84 95 133.5 130.5t93.5 35.5z" />
<glyph unicode="s" horiz-adv-x="692" d="M213 672q0 -37 13.5 -67.5t43.5 -55.5t54.5 -41t68.5 -39q32 -17 44.5 -23.5t41 -23.5t41 -28t32.5 -31t29 -38t16 -43t7 -53q0 -104 -78.5 -178t-214.5 -74q-106 0 -198 62q-13 9 -13 24l-4 166q0 6 12 7t13 -5q37 -103 102 -159t148 -56q63 0 95.5 31.5t29.5 93.5 q-1 41 -15.5 73t-46 58t-55 40t-68.5 36q-35 18 -50.5 26.5t-45 27t-44 34t-31.5 38.5t-24 51t-7 61q0 113 83 171t199 58q83 0 154 -31q18 -8 18 -22q0 -21 -2 -73t-2 -83q0 -4 -12 -4t-12 4q0 64 -69.5 116t-146.5 52q-106 0 -106 -102z" />
<glyph unicode="t" horiz-adv-x="692" d="M639 111q4 3 9 -1t6 -9.5t-3 -10.5q-75 -62 -137 -88.5t-131 -26.5q-86 0 -142.5 40t-56.5 132v478q0 72 -19 92t-87 20q-6 0 -6 14.5t6 14.5q87 1 141 43t66 115q1 6 15.5 6t14.5 -6v-156q99 2 281 20q14 0 14 -47q0 -11 -3 -23.5t-7.5 -20.5t-9.5 -7q-113 28 -275 31 v-504q0 -164 160 -164q86 0 164 58z" />
<glyph unicode="u" horiz-adv-x="1013" d="M997 119q9 4 15 -7t-2 -16l-248 -116q-6 -3 -8 -3q-21 0 -39.5 49t-18.5 128q-153 -172 -319 -172q-104 0 -163.5 65.5t-59.5 185.5v314q0 77 -14 112t-46 35q-24 0 -67 -18q-5 -3 -9.5 2t-5 11t3.5 9l236 109q4 2 8 2q6 0 14.5 -6t8.5 -12v-482q0 -235 172 -235 q61 0 124.5 31t116.5 85v357q0 78 -14 112.5t-47 34.5q-25 0 -68 -18q-8 -5 -12 9q-3 10 4 13l236 109q4 2 8 2q6 0 13 -6t7 -12v-568q0 -70 16.5 -100.5t53.5 -30.5q28 0 104 27z" />
<glyph unicode="v" horiz-adv-x="890" d="M891 791q5 0 5 -12.5t-5 -12.5q-53 0 -91 -35.5t-73 -120.5l-256 -608q-3 -9 -22 -9t-23 9l-291 619q-41 89 -69.5 117t-69.5 28q-6 0 -6 12.5t6 12.5q18 0 67.5 -2.5t81.5 -2.5q54 0 126.5 2.5t97.5 2.5q6 0 6 -12.5t-6 -12.5q-73 0 -104.5 -17t-8.5 -63l244 -512 l184 444q29 75 -5 111.5t-138 36.5q-5 0 -5 12.5t5 12.5q29 0 93 -2.5t114 -2.5q32 0 75 2.5t68 2.5z" />
<glyph unicode="w" horiz-adv-x="1378" d="M1376 791q6 0 6 -12.5t-6 -12.5q-52 0 -89 -35t-73 -121l-253 -608q-5 -8 -24 -8t-22 8l-235 496l-209 -496q-1 -8 -21 -8t-24 8l-291 619q-41 89 -69.5 117t-69.5 28q-6 0 -6 12.5t6 12.5q18 0 67.5 -2.5t81.5 -2.5q49 0 118.5 2.5t96.5 2.5q6 0 6 -12.5t-6 -12.5 q-70 0 -99.5 -18t-6.5 -62l248 -510l153 375l-32 70q-42 89 -68.5 117t-65.5 28q-5 0 -5 12.5t5 12.5q19 0 67 -2.5t77 -2.5q52 0 121.5 2.5t93.5 2.5q6 0 6 -12.5t-6 -12.5q-67 0 -97.5 -18.5t-7.5 -61.5l244 -512l182 444q31 75 -3.5 111.5t-137.5 36.5q-4 0 -4 12.5 t4 12.5q30 0 93 -2.5t114 -2.5q31 0 73 2.5t68 2.5z" />
<glyph unicode="x" horiz-adv-x="899" d="M879 25q5 0 5 -12.5t-5 -12.5q-22 0 -69 2t-67 2q-50 0 -121.5 -2t-95.5 -2q-6 0 -6 12.5t6 12.5q55 0 62.5 16.5t-23.5 62.5l-151 230l-113 -164q-25 -37 -35 -62.5t-5 -45t32 -28.5t78 -9q6 0 6 -12.5t-6 -12.5q-28 0 -91.5 2t-113.5 2q-31 0 -73.5 -2t-69.5 -2 q-5 0 -5 12.5t5 12.5q57 0 119.5 41t117.5 116l133 183l-170 256q-50 74 -100 109.5t-92 35.5q-5 0 -5 12.5t5 12.5q20 0 63.5 -2.5t63.5 -2.5q52 0 122.5 2.5t94.5 2.5q5 0 5 -12.5t-5 -12.5q-54 0 -62 -16.5t23 -63.5l137 -209l96 144q56 75 43 110t-112 35q-4 0 -4 12.5 t4 12.5q30 0 93 -2.5t114 -2.5q31 0 73.5 2.5t69.5 2.5q4 0 4 -12.5t-4 -12.5q-57 0 -119 -40t-119 -118l-118 -162l184 -276q51 -77 104 -111t97 -34z" />
<glyph unicode="y" horiz-adv-x="888" d="M887 791q6 0 6 -12.5t-6 -12.5q-55 0 -93.5 -39t-72.5 -129l-246 -655q-111 -291 -209 -404.5t-231 -113.5q-48 0 -78.5 21t-30.5 62q0 32 21 50t51 18q39 0 79 -24.5t73 -24.5q73 0 136.5 97t164.5 358l-316 639q-46 90 -71.5 117.5t-63.5 27.5q-4 0 -4 12.5t4 12.5 q22 0 71 -2.5t72 -2.5q50 0 120.5 2.5t94.5 2.5q4 0 4 -12.5t-4 -12.5q-73 0 -101 -17.5t-5 -62.5l264 -545l158 453q32 92 0.5 132t-135.5 40q-5 0 -5 12.5t5 12.5q29 0 92 -2.5t114 -2.5q30 0 73 2.5t69 2.5z" />
<glyph unicode="z" horiz-adv-x="829" d="M82 25l485 725q8 14 -10 14q-221 0 -319 -38.5t-132 -150.5q-2 -4 -7.5 -4t-11.5 3t-5 6l72 274q1 3 7.5 3.5t12 -1.5t4.5 -6q-9 -34 13 -46.5t85 -12.5h441q8 0 14 -9t2 -16l-481 -721q-6 -14 10 -14q95 0 156 2.5t113.5 11.5t82.5 22t55 38t39.5 56t28.5 79q1 4 12 4 t11 -4l-4 -217q0 -8 -6 -15.5t-13 -7.5h-641q-8 0 -13 9t-1 16z" />
<glyph unicode="{" horiz-adv-x="591" d="M66 610q-6 0 -6 13.5t6 13.5q40 5 69.5 34.5t45.5 70t25.5 102t12 115t2.5 124.5q0 107 8 174.5t25.5 115t53 70.5t82 32.5t122.5 9.5q8 0 8 -12.5t-8 -12.5q-69 0 -108 -56.5t-42 -160.5q-2 -103 -3 -150t-5 -117t-9.5 -98t-17.5 -71.5t-26.5 -61.5t-38.5 -44t-53.5 -42 t-71.5 -34q41 -19 71 -35.5t54 -43.5t39 -45.5t26 -63t17 -73t10 -98.5t5 -116t3 -148q3 -104 42 -160.5t108 -56.5q8 0 8 -12.5t-8 -12.5q-64 0 -106.5 6t-77 23.5t-54 44t-32 74t-17 107.5t-4.5 149q0 72 -2.5 126t-12 115t-25.5 101.5t-45.5 69.5t-69.5 34z" />
<glyph unicode="|" horiz-adv-x="344" d="M133 -315v1812q0 13 42 13t42 -13v-1812q0 -15 -42 -15t-42 15z" />
<glyph unicode="}" horiz-adv-x="579" d="M514 610q-40 -5 -69.5 -34t-45.5 -69.5t-26 -101.5t-12.5 -115.5t-2.5 -125.5q0 -90 -4 -149.5t-17 -107t-32 -74t-53.5 -44t-77 -23.5t-106.5 -6q-8 0 -8 12.5t8 12.5q69 0 107.5 56.5t41.5 160.5q2 102 3 148t5 116t10 98.5t17 73t26 63t39 45.5t54 43.5t71 35.5 q-42 18 -71.5 34t-53.5 42t-38.5 44t-26.5 61.5t-17.5 71.5t-9.5 98t-5 117t-3 150q-3 104 -41.5 160.5t-107.5 56.5q-8 0 -8 12.5t8 12.5q63 0 104.5 -5.5t76 -22.5t54 -43.5t33 -73.5t18 -107.5t4.5 -149.5q0 -70 2.5 -124t12.5 -115t26 -102t45.5 -70.5t69.5 -34.5 q6 0 6 -13.5t-6 -13.5z" />
<glyph unicode="~" horiz-adv-x="907" d="M643 410q40 0 72 14t45 26.5t37 38.5q5 3 11.5 -3.5t2.5 -10.5q-73 -99 -119 -132.5t-102 -33.5t-159 37t-165 37q-20 0 -37.5 -3.5t-27 -6t-25 -14t-19.5 -14t-22.5 -21l-21.5 -21.5t-10.5 3.5t-4.5 10.5q122 166 236 166q42 0 144.5 -36.5t164.5 -36.5z" />
<glyph unicode="&#xa1;" horiz-adv-x="512" d="M266 748q43 0 69.5 -26.5t26.5 -70.5q0 -41 -26.5 -65.5t-69.5 -24.5q-45 0 -69.5 24t-24.5 66q0 45 24.5 71t69.5 26zM358 -543q1 -6 -15 -10.5t-39.5 -7t-47.5 -2.5q-39 0 -72 6t-30 14q8 39 15.5 84t13 82t11.5 92.5t10 86.5t9 95.5t7 87.5t6.5 95t5.5 85.5t5.5 91 t4.5 81.5q0 6 18.5 6t18.5 -6q9 -199 14.5 -303t23 -279.5t41.5 -298.5z" />
<glyph unicode="&#xa2;" horiz-adv-x="1099" d="M985 287q1 7 12 5.5t11 -7.5l-25 -217q-2 -18 -6.5 -24t-22.5 -13q-160 -56 -327 -56h-15v-184q0 -13 -23.5 -13t-23.5 13v186q-106 8 -192.5 43.5t-141 87t-91.5 117t-52.5 129.5t-15.5 129q0 196 139 335t354 161v170q0 15 23.5 15t23.5 -15v-166h25q76 0 165 -15.5 t146 -43.5q14 -6 18.5 -13t4.5 -22l18 -211q0 -6 -10.5 -7.5t-13.5 5.5q-83 264 -353 274v-942q12 -2 37 -2q248 0 336 281zM236 514q0 -114 34 -216.5t111 -182t184 -101.5v934q-147 -12 -238 -132.5t-91 -301.5z" />
<glyph unicode="&#xa3;" horiz-adv-x="884" d="M754 256q0 3 6 3.5t12 -1t6 -4.5q-18 -106 -18 -223q0 -17 -7 -24t-24 -7h-672q-5 0 -5 12t5 13q106 26 144.5 73.5t36.5 126.5q-2 113 -39 221h-95q-14 0 -14 24t14 24h80q-34 108 -34 184q0 79 29 139t79.5 95.5t112.5 53t133 17.5q94 0 184 -33q30 -9 33 -39l14 -206 q0 -9 -10.5 -9t-13.5 9q-13 49 -31 89.5t-46 78t-68.5 58.5t-90.5 21q-51 0 -89 -18t-59 -48.5t-30.5 -65.5t-9.5 -75q0 -44 9 -93.5t16 -73.5t26 -84h223q13 0 13 -24t-13 -24h-211q21 -79 21 -143q0 -77 -27 -126t-76 -89h246q130 0 173.5 31t66.5 137z" />
<glyph unicode="&#xa4;" horiz-adv-x="847" d="M743 131l-61 -59l-98 112q-85 -51 -183 -51q-82 0 -149 41l-90 -102l-51 51l90 94q-76 82 -76 197q0 109 78 184l-103 102l62 56l104 -113q76 43 166 43q88 0 158 -45l102 109l49 -50l-100 -102q74 -77 74 -186q0 -106 -72 -181zM440 172q69 0 110.5 52t41.5 145 q0 113 -56 195.5t-151 82.5q-65 0 -104 -48t-39 -142q0 -70 20 -132.5t66.5 -107.5t111.5 -45z" />
<glyph unicode="&#xa5;" horiz-adv-x="991" d="M975 958q6 0 6 -12t-6 -12q-134 0 -242 -184l-166 -281v-33h207q14 0 14 -22.5t-14 -22.5h-559q-15 0 -15 22.5t15 22.5h211v2l-227 350q-54 81 -97.5 113.5t-103.5 32.5q-6 0 -6 12t6 12q19 0 68.5 -3t68.5 -3q54 0 148 3t120 3q6 0 6 -12t-6 -12q-130 0 -71 -94 l217 -332l139 244q45 82 29 132t-84 50q-6 0 -6 12t6 12q30 0 96 -3t121 -3q27 0 64.5 3t60.5 3zM774 309q14 0 14 -22.5t-14 -22.5h-207v-98q0 -48 5.5 -73t25 -41.5t51 -21.5t90.5 -5q5 0 5 -12.5t-5 -12.5q-30 0 -110 2t-133 2q-45 0 -128.5 -2t-115.5 -2q-4 0 -4 12.5 t4 12.5q110 0 142 26t32 115v98h-211q-15 0 -15 22.5t15 22.5h559z" />
<glyph unicode="&#xa6;" horiz-adv-x="344" d="M133 737v760q0 13 42 13t42 -13v-760q0 -13 -42 -13t-42 13zM133 -315v757q0 15 42 15t42 -15v-757q0 -15 -42 -15t-42 15z" />
<glyph unicode="&#xa7;" horiz-adv-x="919" d="M668 63q84 -77 84 -180q0 -130 -94.5 -199t-223.5 -69q-106 0 -178 37q-22 15 -25 35l-14 207q0 6 11.5 6t13.5 -6q16 -73 94 -152.5t172 -79.5q57 0 94 36.5t37 111.5q0 59 -27 108.5t-70 85t-94.5 69t-103.5 69.5t-95 77.5t-70 102.5t-27 135q0 75 29.5 134.5 t111.5 133.5q-78 78 -78 178q0 67 27 120t72.5 84.5t100.5 47.5t115 16q111 0 179 -38q22 -11 22 -33l17 -209q0 -5 -12.5 -5t-12.5 5q-10 45 -45 97t-95.5 94t-125.5 42q-58 0 -93.5 -36.5t-35.5 -110.5q0 -59 26.5 -108.5t68.5 -85t93 -69t102.5 -69.5t93.5 -77.5 t68.5 -102.5t26.5 -135q0 -76 -29 -135.5t-110 -131.5zM260 532q0 -62 19 -115t48.5 -89.5t72.5 -72.5t81.5 -60t87 -56t78.5 -57q51 63 51 170q0 74 -25 134t-70.5 104.5t-90.5 76.5t-104.5 71.5t-92.5 68.5q-55 -68 -55 -175z" />
<glyph unicode="&#xa8;" horiz-adv-x="659" d="M152 973q-43 0 -68 24t-25 66q0 41 25 64.5t68 23.5q41 0 64.5 -23.5t23.5 -64.5q0 -43 -23.5 -66.5t-64.5 -23.5zM510 973q-42 0 -67 24t-25 66q0 41 25 63.5t67 22.5q43 0 65.5 -22.5t22.5 -63.5q0 -43 -22.5 -66.5t-65.5 -23.5z" />
<glyph unicode="&#xa9;" horiz-adv-x="1474" d="M760 -211q-88 0 -174 23.5t-165.5 73t-140.5 118.5t-97 169t-36 216q0 137 56 257t149.5 201.5t215 128t251.5 46.5q116 0 214 -38t164 -102.5t103 -150t37 -180.5q0 -124 -65.5 -232t-183.5 -173.5t-261 -65.5q-95 0 -168 28t-115.5 74.5t-63.5 101.5t-21 115 q0 80 31.5 147t82 109.5t113 66t127.5 23.5q76 0 137 -29t62 -77q0 -27 -17.5 -45.5t-46.5 -18.5q-46 0 -76 58q-18 26 -28.5 38.5t-34.5 25t-55 12.5q-84 0 -120 -64.5t-36 -187.5q0 -67 16.5 -123t51 -102t94.5 -71.5t141 -25.5q68 0 129 22.5t110 65t78 112t29 157.5 q0 201 -142 342t-351 141q-158 0 -273.5 -74t-172 -194.5t-56.5 -270.5q0 -112 33 -208.5t89 -164t129.5 -115t153.5 -70.5t162 -23q118 0 207 19.5t193 76.5q3 1 6.5 -2t5 -6.5t-1.5 -5.5q-111 -86 -223 -117t-246 -31z" />
<glyph unicode="&#xaa;" horiz-adv-x="573" d="M555 834q7 3 12 -6.5t0 -12.5l-139 -65q-21 -10 -40 12t-23 69l-82 -43q-74 -40 -121 -40q-42 0 -68 22.5t-26 56.5t24.5 55.5t87.5 43.5l182 65v111q0 50 -7 82t-21.5 46t-28.5 18.5t-35 4.5q-37 0 -61.5 -29.5t-32.5 -74.5q-3 -16 -6.5 -26t-15.5 -19.5t-31 -9.5 q-24 0 -39.5 14.5t-15.5 34.5q0 48 93 97.5t165 49.5q54 0 88.5 -37t34.5 -110v-240q0 -69 22.5 -82t83.5 13zM281 813l81 43v2v111l-135 -51q-31 -13 -43 -25.5t-12 -34.5q0 -25 16 -41t41 -16q24 0 52 12zM532 645q9 0 9 -29.5t-9 -29.5h-458q-6 0 -8 15t-0.5 29.5 t6.5 14.5h460z" />
<glyph unicode="&#xab;" horiz-adv-x="940" d="M485 82l-366 305q-9 9 -9 23.5t9 23.5l366 305q2 3 6.5 2t7.5 -5t1 -7l-240 -317l240 -318q2 -7 -7 -13q-6 -3 -8 1zM803 82l-367 305q-8 9 -8 23.5t8 23.5l367 305q3 4 7.5 2.5t6.5 -5.5t0 -7l-237 -317l237 -318q2 -3 -0.5 -7.5t-6.5 -6t-7 1.5z" />
<glyph unicode="&#xac;" horiz-adv-x="808" d="M745 549v-391q0 -6 -20.5 -8t-41.5 -0.5t-21 6.5v311h-592q-6 0 -8 20.5t-0.5 41t6.5 20.5h677z" />
<glyph unicode="&#xad;" horiz-adv-x="661" d="M66 334q-6 -1 -8.5 21t-1.5 45t5 24l535 96q6 1 8 -21t0 -45t-8 -24z" />
<glyph unicode="&#xae;" horiz-adv-x="1531" d="M809 1485q130 0 240.5 -44.5t185.5 -121t116.5 -178.5t41.5 -217q0 -176 -86.5 -323.5t-233.5 -232.5t-321 -85q-112 0 -219 40t-193.5 112.5t-139.5 186.5t-53 250q0 133 55 249t146.5 195t211.5 124t249 45zM811 340q228 0 360 142.5t132 379.5q0 252 -159 414 t-403 162q-121 0 -217.5 -41.5t-156.5 -112.5t-91.5 -161.5t-31.5 -192.5q0 -110 32.5 -206t88 -165t128 -119.5t154 -75t164.5 -24.5zM1155 575q3 -1 3 -9.5t-3 -8.5h-170q-36 0 -201 332q-44 -8 -106 -8v-209q0 -59 17.5 -74.5t84.5 -15.5q3 0 3 -12.5t-3 -12.5 q-18 0 -67 2t-82 2q-25 0 -78 -2t-68 -2q-3 0 -3 12.5t3 12.5q63 0 80 15t17 75v442q0 56 -17.5 73t-79.5 17q-3 0 -3 12.5t3 12.5q20 0 71 -1t75 -1q26 0 86 3t82 3q190 0 190 -135q0 -124 -112 -178q43 -85 65 -125.5t52 -89.5t51.5 -70t49 -38t60.5 -22zM678 918 q109 -14 159 15t50 118q0 155 -121 155q-29 0 -42 -2t-26 -11t-16.5 -29t-3.5 -56v-190z" />
<glyph unicode="&#xaf;" horiz-adv-x="706" d="M96 985q-14 0 -14 31t14 31h514q14 0 14 -31t-14 -31h-514z" />
<glyph unicode="&#xb0;" horiz-adv-x="679" d="M342 764q-126 0 -204.5 76t-78.5 190q0 108 79 184t204 76t202 -75.5t77 -188.5q0 -112 -77.5 -187t-201.5 -75zM356 788q45 0 74 15.5t43 48.5t18.5 68.5t4.5 91.5q0 256 -166 256q-44 0 -73.5 -17t-44.5 -50.5t-20.5 -72t-5.5 -92.5q0 -76 13.5 -128t52.5 -86t104 -34z " />
<glyph unicode="&#xb1;" horiz-adv-x="815" d="M70 475q-6 0 -8 21t-0.5 42t6.5 21h297v297q0 8 43 8t43 -8v-297h294q9 0 9 -42t-9 -42h-294v-295q0 -6 -21.5 -8t-43 -0.5t-21.5 6.5v297h-295zM745 78q9 0 9 -38t-9 -38h-675q-6 0 -8 19t-0.5 38t6.5 19h677z" />
<glyph unicode="&#xb2;" horiz-adv-x="514" d="M59 836q14 49 45.5 102.5t66 99.5t67.5 92.5t54 97.5t21 99q0 58 -27 89.5t-71 31.5q-49 0 -85 -33t-48 -84q-1 -4 -7.5 -4.5t-12.5 2.5t-5 8q46 156 197 156q81 0 124.5 -41t43.5 -106q0 -44 -25.5 -92t-64.5 -91.5t-79 -84.5t-75 -83.5t-47 -76.5q-3 -9 4 -9 q71 0 110 0.5t75 5t51.5 10t30 19t20 28.5t12.5 42q0 4 7.5 4t7.5 -4l-3 -180q0 -9 -8 -9h-372q-11 0 -7 11z" />
<glyph unicode="&#xb3;" horiz-adv-x="514" d="M291 1174q72 -15 115 -54t43 -106q0 -81 -56.5 -142t-156.5 -61q-146 0 -191 141q-1 5 5 8.5t12.5 3t7.5 -5.5q16 -44 53 -75t94 -31q55 0 89 33.5t34 107.5q0 76 -42 120t-112 44q-6 0 -6 11.5t6 11.5q60 0 93.5 44.5t33.5 102.5q0 52 -28 84.5t-74 32.5 q-45 0 -81.5 -33t-47.5 -80q-1 -4 -7.5 -4.5t-12.5 2.5t-5 8q21 71 69 113.5t128 42.5q79 0 123.5 -42.5t44.5 -107.5q0 -55 -37 -100.5t-94 -68.5z" />
<glyph unicode="&#xb4;" horiz-adv-x="434" d="M141 971q-1 -4 -7 -4t-11 2.5t-4 5.5l100 491q3 13 75 25q66 11 62 -2z" />
<glyph unicode="&#xb6;" horiz-adv-x="1314" d="M688 -395q-60 0 -97.5 26.5t-37.5 67.5q0 33 19.5 53.5t52.5 20.5q30 0 47.5 -12.5t24.5 -30.5t14 -36.5t22 -31t41 -12.5q54 0 76 82t22 284v240q-67 -6 -149 -6q-90 0 -174 16.5t-165 57t-140.5 100.5t-96 154.5t-36.5 212.5q0 243 147.5 369t409.5 126q42 0 141.5 -6 t163.5 -6q39 0 115.5 3t109.5 3q4 0 4 -12.5t-4 -12.5q-89 0 -135.5 -42.5t-46.5 -122.5l2 -977q0 -265 -78 -386.5t-252 -121.5z" />
<glyph unicode="&#xb7;" horiz-adv-x="399" d="M199 315q-43 0 -70 26.5t-27 70.5q0 41 27 65.5t70 24.5q45 0 69.5 -24t24.5 -66q0 -45 -24.5 -71t-69.5 -26z" />
<glyph unicode="&#xb8;" horiz-adv-x="475" d="M236 -4q-21 -71 -21.5 -102.5t16.5 -50t70 -48.5q51 -30 81 -66t30 -91q0 -78 -55 -139.5t-164 -61.5q-61 0 -98.5 21t-37.5 61q0 27 19 45t47 18q23 0 36.5 -10.5t21 -25.5l15 -30t23.5 -25.5t41 -10.5q66 0 66 71q0 54 -38 95.5t-136 95.5q-26 13 -28.5 22.5t11.5 38.5 q21 51 74 195z" />
<glyph unicode="&#xb9;" horiz-adv-x="536" d="M92 825q-4 0 -4 11.5t4 11.5q94 0 115.5 22t21.5 119v242q0 116 -6 136q-8 30 -42 24q-25 -4 -101 -37q-8 -3 -13.5 7.5t1.5 14.5l243 115q7 3 14 -3t7 -11v-488q0 -98 19.5 -119.5t109.5 -21.5q6 0 6 -11.5t-6 -11.5q-22 0 -82 2t-96 2q-37 0 -102.5 -2t-88.5 -2z" />
<glyph unicode="&#xba;" horiz-adv-x="649" d="M315 735q-117 0 -188.5 83t-71.5 202q0 66 26 119.5t68.5 85t91.5 48.5t99 17q116 0 187 -82t71 -194q0 -116 -84 -197.5t-199 -81.5zM346 766q69 0 110.5 56.5t41.5 154.5q0 118 -56 199t-141 81q-69 0 -107 -51.5t-38 -146.5q0 -119 53.5 -206t136.5 -87zM78 586 q-6 0 -8 15t-0.5 29.5t6.5 14.5h497q9 0 9 -29.5t-9 -29.5h-495z" />
<glyph unicode="&#xbb;" horiz-adv-x="940" d="M137 739l367 -305q9 -9 9 -23.5t-9 -23.5l-367 -305q-4 -7 -11 1q-5 6 -3 11l239 316l-239 319q-2 5 6 11q6 2 8 -1zM455 739l368 -305q7 -9 7 -23.5t-7 -23.5l-368 -305q-4 -8 -13 2q-3 6 -2 10l240 316l-240 319q-1 2 2 6t7 5.5t6 -1.5z" />
<glyph unicode="&#xbc;" horiz-adv-x="1230" d="M461 655q6 0 6 -11t-6 -11q-22 0 -82 2t-96 2q-37 0 -102.5 -2t-88.5 -2q-4 0 -4 11t4 11q94 0 115.5 22.5t21.5 119.5v243v27v51.5t-2.5 36.5t-5 27t-11 13.5t-17 5.5t-27 -6t-36.5 -12t-50 -22q-8 -5 -14 8q-4 11 2 13l243 116q7 3 14 -3t7 -11v-487q0 -98 19.5 -120 t109.5 -22zM899 1284q4 4 15.5 1t24 -10t11.5 -11l-573 -1264q-1 -4 -14 0.5t-25.5 12t-11.5 10.5zM1178 23q2 0 2 -12.5t-2 -12.5q-18 0 -59.5 1t-69.5 1q-34 0 -89 -1t-75 -1q-3 0 -3 12.5t3 12.5q72 0 90 10t18 51v104q-175 5 -256 5q-5 0 -8.5 4.5t0.5 9.5l324 455 q5 5 19.5 3t14.5 -8v-426q9 0 91 5q4 0 4 -28t-4 -28q-58 4 -91 4v-100q0 -40 14 -50.5t77 -10.5zM809 223q82 0 184 4v297l-188 -295q-3 -6 4 -6z" />
<glyph unicode="&#xbd;" horiz-adv-x="1249" d="M92 633q-4 0 -4 11t4 11q94 0 115.5 22.5t21.5 119.5v243v27v51.5t-2.5 36.5t-5 27t-11 13.5t-17 5.5t-27 -6t-36.5 -12t-50 -22q-8 -5 -14 8q-4 11 2 13l243 116q7 3 14 -3t7 -11v-487q0 -98 19.5 -120t109.5 -22q6 0 6 -11t-6 -11q-22 0 -82 2t-96 2q-37 0 -102.5 -2 t-88.5 -2zM377 0q-1 -4 -14 0.5t-25.5 12t-11.5 10.5l573 1261q4 4 15.5 1t24 -10t11.5 -11zM795 12q14 48 45.5 101.5t66 99t67.5 92.5t54 98.5t21 100.5q0 57 -27.5 87t-71.5 30q-49 0 -84.5 -32t-48.5 -81q-1 -5 -7.5 -5.5t-12 2.5t-4.5 7q46 156 196 156q82 0 125 -40.5 t43 -105.5q0 -44 -25.5 -92.5t-64.5 -92t-79 -84.5t-75 -84t-47 -77q-3 -6 4 -6q72 0 110 0.5t75 5t52 9.5t29.5 18.5t20 28.5t12.5 42q0 3 7.5 3t7.5 -3l-2 -180q0 -10 -8 -10h-373q-9 0 -6 12z" />
<glyph unicode="&#xbe;" horiz-adv-x="1208" d="M449 821q0 -80 -56.5 -140t-156.5 -60q-148 0 -191 141q-1 4 5 7t12.5 2.5t7.5 -5.5q16 -44 53 -75.5t94 -31.5q55 0 89 34t34 108q0 76 -42 119t-112 43q-6 0 -6 12t6 12q60 0 93.5 45t33.5 103q0 52 -28 84t-74 32q-45 0 -81.5 -32.5t-47.5 -77.5q-1 -5 -7.5 -6 t-12.5 2t-5 8q45 155 197 155q79 0 123.5 -41.5t44.5 -105.5q0 -57 -37.5 -104t-95.5 -68q73 -13 116.5 -52.5t43.5 -107.5zM877 1284q4 4 15.5 1t24 -10t11.5 -11l-574 -1264q-1 -4 -14 0.5t-25.5 12t-11.5 10.5zM1155 23q1 0 1 -12.5t-1 -12.5q-18 0 -59.5 1t-69.5 1 q-34 0 -89 -1t-75 -1q-3 0 -3 12.5t3 12.5q73 0 91 10t18 51v104q-175 5 -256 5q-5 0 -8.5 4.5t0.5 9.5l323 455q4 5 19.5 3t15.5 -8v-426q7 0 90 5q5 0 5 -28t-5 -28q-58 4 -90 4v-100q0 -40 13.5 -50.5t76.5 -10.5zM786 223q83 0 185 4v297l-189 -295q-3 -6 4 -6z" />
<glyph unicode="&#xbf;" horiz-adv-x="669" d="M367 739q43 0 69.5 -26t26.5 -70q0 -41 -26.5 -65.5t-69.5 -24.5q-45 0 -70 24t-25 66q0 45 25 70.5t70 25.5zM342 -535q32 0 51 16.5t24 33.5t9 45t10 47t25.5 36t50.5 17q36 0 56 -23.5t20 -52.5q0 -60 -73.5 -103.5t-176.5 -43.5q-123 0 -204 63.5t-81 182.5 q0 24 4.5 47.5t10 40.5t18 38t20.5 32.5t26.5 31.5t26 27.5t30 28t28.5 26.5q69 68 98 125t29 129q0 45 -12 110q-1 4 5.5 7.5t12.5 3.5t8 -4q24 -54 39 -126.5t15 -119.5q0 -54 -21 -97t-51 -73.5t-60.5 -62.5t-51.5 -80.5t-21 -110.5q0 -85 37.5 -138t97.5 -53z" />
<glyph unicode="&#xc0;" horiz-adv-x="1441" d="M453 1548q-20 4 27 27q67 33 107 36q8 1 11 -1q220 -145 317 -199q5 -2 5 -8t-3.5 -10.5t-9.5 -1.5q-230 101 -454 157zM1438 25q8 0 8 -12.5t-8 -12.5q-39 0 -121 4t-121 4q-45 0 -113 -4t-106 -4q-9 0 -9 12.5t9 12.5q105 0 127.5 31t-19.5 122l-176 369h-489 l-121 -281q-100 -241 172 -241q9 0 9 -12.5t-9 -12.5q-38 0 -112.5 4t-129.5 4q-52 0 -120 -4t-109 -4q-9 0 -9 12.5t9 12.5q84 0 136.5 52.5t119.5 207.5l432 1011q3 6 15.5 6t15.5 -6l487 -1015q69 -150 118.5 -203t113.5 -53zM438 590h451l-238 495z" />
<glyph unicode="&#xc1;" horiz-adv-x="1441" d="M506 1389q-9 -3 -12.5 8t2.5 14q72 37 183 109.5t136 87.5q15 11 96 -23q60 -25 55 -34q-1 -2 -5 -3q-242 -63 -455 -159zM1438 25q8 0 8 -12.5t-8 -12.5q-39 0 -121 4t-121 4q-45 0 -113 -4t-106 -4q-9 0 -9 12.5t9 12.5q105 0 127.5 31t-19.5 122l-176 369h-489 l-121 -281q-100 -241 172 -241q9 0 9 -12.5t-9 -12.5q-38 0 -112.5 4t-129.5 4q-52 0 -120 -4t-109 -4q-9 0 -9 12.5t9 12.5q84 0 136.5 52.5t119.5 207.5l432 1011q3 6 15.5 6t15.5 -6l487 -1015q69 -150 118.5 -203t113.5 -53zM438 590h451l-238 495z" />
<glyph unicode="&#xc2;" horiz-adv-x="1441" d="M481 1327q-2 -1 -6 2t-6 6.5t0 5.5l211 205q9 9 23.5 9t23.5 -9l209 -205q3 -2 2 -6t-5 -7t-7 -1l-221 111zM1438 25q8 0 8 -12.5t-8 -12.5q-39 0 -121 4t-121 4q-45 0 -113 -4t-106 -4q-9 0 -9 12.5t9 12.5q105 0 127.5 31t-19.5 122l-176 369h-489l-121 -281 q-100 -241 172 -241q9 0 9 -12.5t-9 -12.5q-38 0 -112.5 4t-129.5 4q-52 0 -120 -4t-109 -4q-9 0 -9 12.5t9 12.5q84 0 136.5 52.5t119.5 207.5l432 1011q3 6 15.5 6t15.5 -6l487 -1015q69 -150 118.5 -203t113.5 -53zM438 590h451l-238 495z" />
<glyph unicode="&#xc3;" horiz-adv-x="1441" d="M446 1468q-5 -3 -11.5 3t-2.5 12q90 133 174 133q29 0 115.5 -24.5t138.5 -24.5q35 0 57.5 13.5t45.5 41.5q6 4 13 -5q5 -5 1 -9q-54 -80 -88.5 -107.5t-75.5 -27.5t-126.5 25.5t-137.5 25.5q-14 0 -26 -2.5t-19.5 -5t-17 -10t-13 -11l-14 -14zM1438 25q8 0 8 -12.5 t-8 -12.5q-39 0 -121 4t-121 4q-45 0 -113 -4t-106 -4q-9 0 -9 12.5t9 12.5q105 0 127.5 31t-19.5 122l-176 369h-489l-121 -281q-100 -241 172 -241q9 0 9 -12.5t-9 -12.5q-38 0 -112.5 4t-129.5 4q-52 0 -120 -4t-109 -4q-9 0 -9 12.5t9 12.5q84 0 136.5 52.5t119.5 207.5 l432 1011q3 6 15.5 6t15.5 -6l487 -1015q69 -150 118.5 -203t113.5 -53zM438 590h451l-238 495z" />
<glyph unicode="&#xc4;" horiz-adv-x="1441" d="M526 1462q-43 0 -67.5 23.5t-24.5 66.5q0 41 24.5 64.5t67.5 23.5q41 0 64.5 -23.5t23.5 -64.5q0 -43 -23.5 -66.5t-64.5 -23.5zM885 1462q-42 0 -67 24t-25 66q0 41 25 63.5t67 22.5q43 0 65.5 -22.5t22.5 -63.5q0 -43 -22.5 -66.5t-65.5 -23.5zM1438 25q8 0 8 -12.5 t-8 -12.5q-39 0 -121 4t-121 4q-45 0 -113 -4t-106 -4q-9 0 -9 12.5t9 12.5q105 0 127.5 31t-19.5 122l-176 369h-489l-121 -281q-100 -241 172 -241q9 0 9 -12.5t-9 -12.5q-38 0 -112.5 4t-129.5 4q-52 0 -120 -4t-109 -4q-9 0 -9 12.5t9 12.5q84 0 136.5 52.5t119.5 207.5 l432 1011q3 6 15.5 6t15.5 -6l487 -1015q69 -150 118.5 -203t113.5 -53zM438 590h451l-238 495z" />
<glyph unicode="&#xc5;" horiz-adv-x="1441" d="M694 1358q-85 0 -136.5 48.5t-51.5 115.5q0 73 64 115t143 42q77 0 131.5 -47t54.5 -114q0 -71 -63 -115.5t-142 -44.5zM672 1657q-34 0 -49 -22t-15 -72q0 -69 32.5 -125t84.5 -56q37 0 53.5 23.5t16.5 75.5q0 72 -35.5 124t-87.5 52zM1438 25q8 0 8 -12.5t-8 -12.5 q-39 0 -121 4t-121 4q-45 0 -113 -4t-106 -4q-9 0 -9 12.5t9 12.5q105 0 127.5 31t-19.5 122l-176 369h-489l-121 -281q-100 -241 172 -241q9 0 9 -12.5t-9 -12.5q-38 0 -112.5 4t-129.5 4q-52 0 -120 -4t-109 -4q-9 0 -9 12.5t9 12.5q84 0 136.5 52.5t119.5 207.5l432 1011 q3 6 15.5 6t15.5 -6l487 -1015q69 -150 118.5 -203t113.5 -53zM438 590h451l-238 495z" />
<glyph unicode="&#xc6;" horiz-adv-x="1796" d="M1671 307q1 6 13 5t12 -7q-19 -141 -19 -274q0 -17 -6.5 -24t-25.5 -7h-846q-5 0 -5 12.5t5 12.5q108 0 139 25.5t31 115.5v477h-346l-256 -381q-158 -237 98 -237q9 0 9 -12.5t-9 -12.5q-41 0 -119.5 4t-138.5 4q-47 0 -108 -4t-97 -4q-9 0 -9 12.5t9 12.5 q137 0 305 245l615 906q34 48 23 61q-12 17 -119 18h-35q-5 0 -5 12.5t5 12.5h819q18 0 18 -18l4 -256q0 -6 -11 -6t-11 6q-6 92 -73 160.5t-161 68.5h-106q-93 0 -124.5 -25t-31.5 -98v-424h219q102 0 148.5 35.5t46.5 112.5q0 4 12 4t12 -4q0 -46 -1 -97.5t-1 -72.5 q0 -30 2 -93t2 -100q0 -5 -12 -5t-12 5q0 89 -47.5 129.5t-153.5 40.5h-215v-469q0 -77 29 -103t119 -26h139q94 0 171 75t99 187zM653 688h316v467z" />
<glyph unicode="&#xc7;" horiz-adv-x="1402" d="M1276 340q2 6 12 4.5t10 -6.5l-20 -229q-3 -25 -7 -32.5t-18 -15.5q-104 -49 -197.5 -68.5t-211.5 -19.5h-4q-13 -45 -16.5 -69t7 -44t26 -31.5t54.5 -33.5q51 -30 81 -66t30 -91q0 -78 -55 -139.5t-164 -61.5q-61 0 -98 21t-37 61q0 28 18.5 45.5t46.5 17.5 q22 0 36 -10.5t21.5 -25.5l15 -30t23.5 -25.5t41 -10.5q66 0 66 71q0 54 -38 95.5t-136 95.5q-26 13 -28.5 22.5t11.5 38.5q27 65 66 170q-315 11 -513 196.5t-198 475.5q0 193 97 343.5t267 232.5t384 82q122 0 211.5 -18t175.5 -58q14 -8 17.5 -15t4.5 -32l27 -250 q0 -6 -11 -7.5t-13 5.5q-101 342 -424 342q-252 0 -407 -168.5t-155 -450.5q0 -180 77 -328t208 -231.5t287 -83.5q162 0 265.5 81.5t164.5 250.5z" />
<glyph unicode="&#xc8;" horiz-adv-x="1105" d="M348 1548q-20 4 27 27q67 33 108 36q8 1 11 -1q220 -145 317 -199q5 -2 5 -8t-3.5 -10.5t-9.5 -1.5q-229 101 -455 157zM981 307q0 4 6.5 5t12.5 -1t6 -6q-19 -141 -19 -274q0 -17 -7 -24t-26 -7h-866q-4 0 -4 12.5t4 12.5q108 0 139 25.5t31 115.5v948q0 88 -31 114.5 t-139 26.5q-4 0 -4 12.5t4 12.5h832q18 0 18 -18l4 -256q0 -6 -11 -6t-11 6q-12 110 -75.5 169.5t-166.5 59.5h-113q-95 0 -126 -26.5t-31 -102.5v-418h235q102 0 148.5 35.5t46.5 112.5q0 4 12 4t12 -4q0 -46 -1 -97.5t-1 -72.5q0 -30 2 -93t2 -100q0 -5 -12 -5t-12 5 q0 89 -47.5 129.5t-153.5 40.5h-231v-469q0 -77 29 -103t120 -26h145q108 0 180.5 69t98.5 193z" />
<glyph unicode="&#xc9;" horiz-adv-x="1105" d="M401 1391q-9 -4 -13 6.5t3 13.5q73 39 192.5 116.5t127.5 82.5q16 9 95 -24q60 -25 55 -35q-1 -2 -5 -3q-223 -55 -455 -157zM981 307q0 4 6.5 5t12.5 -1t6 -6q-19 -141 -19 -274q0 -17 -7 -24t-26 -7h-866q-4 0 -4 12.5t4 12.5q108 0 139 25.5t31 115.5v948 q0 88 -31 114.5t-139 26.5q-4 0 -4 12.5t4 12.5h832q18 0 18 -18l4 -256q0 -6 -11 -6t-11 6q-12 110 -75.5 169.5t-166.5 59.5h-113q-95 0 -126 -26.5t-31 -102.5v-418h235q102 0 148.5 35.5t46.5 112.5q0 4 12 4t12 -4q0 -46 -1 -97.5t-1 -72.5q0 -30 2 -93t2 -100 q0 -5 -12 -5t-12 5q0 89 -47.5 129.5t-153.5 40.5h-231v-469q0 -77 29 -103t120 -26h145q108 0 180.5 69t98.5 193z" />
<glyph unicode="&#xca;" horiz-adv-x="1105" d="M379 1407q-2 -1 -6 2t-6 6.5t0 5.5l211 207q9 9 23.5 9t23.5 -9l209 -207q7 -4 -2 -11q-5 -4 -9 -3l-221 111zM981 307q0 4 6.5 5t12.5 -1t6 -6q-19 -141 -19 -274q0 -17 -7 -24t-26 -7h-866q-4 0 -4 12.5t4 12.5q108 0 139 25.5t31 115.5v948q0 88 -31 114.5t-139 26.5 q-4 0 -4 12.5t4 12.5h832q18 0 18 -18l4 -256q0 -6 -11 -6t-11 6q-12 110 -75.5 169.5t-166.5 59.5h-113q-95 0 -126 -26.5t-31 -102.5v-418h235q102 0 148.5 35.5t46.5 112.5q0 4 12 4t12 -4q0 -46 -1 -97.5t-1 -72.5q0 -30 2 -93t2 -100q0 -5 -12 -5t-12 5 q0 89 -47.5 129.5t-153.5 40.5h-231v-469q0 -77 29 -103t120 -26h145q108 0 180.5 69t98.5 193z" />
<glyph unicode="&#xcb;" horiz-adv-x="1105" d="M422 1462q-43 0 -67.5 23.5t-24.5 66.5q0 41 24.5 64.5t67.5 23.5q41 0 64.5 -23.5t23.5 -64.5q0 -43 -23.5 -66.5t-64.5 -23.5zM780 1462q-42 0 -67 24t-25 66q0 41 25 63.5t67 22.5q43 0 65.5 -22.5t22.5 -63.5q0 -43 -22.5 -66.5t-65.5 -23.5zM981 307q0 4 6.5 5 t12.5 -1t6 -6q-19 -141 -19 -274q0 -17 -7 -24t-26 -7h-866q-4 0 -4 12.5t4 12.5q108 0 139 25.5t31 115.5v948q0 88 -31 114.5t-139 26.5q-4 0 -4 12.5t4 12.5h832q18 0 18 -18l4 -256q0 -6 -11 -6t-11 6q-12 110 -75.5 169.5t-166.5 59.5h-113q-95 0 -126 -26.5 t-31 -102.5v-418h235q102 0 148.5 35.5t46.5 112.5q0 4 12 4t12 -4q0 -46 -1 -97.5t-1 -72.5q0 -30 2 -93t2 -100q0 -5 -12 -5t-12 5q0 89 -47.5 129.5t-153.5 40.5h-231v-469q0 -77 29 -103t120 -26h145q108 0 180.5 69t98.5 193z" />
<glyph unicode="&#xcc;" horiz-adv-x="684" d="M545 1391q-229 101 -455 157q-20 4 27 27q67 33 108 36q8 1 11 -1q220 -145 317 -199q5 -2 5 -8t-3.5 -10.5t-9.5 -1.5zM418 166q0 -90 30.5 -115.5t139.5 -25.5q4 0 4 -12.5t-4 -12.5q-30 0 -112.5 2t-135.5 2q-49 0 -132 -2t-114 -2q-6 0 -6 12.5t6 12.5 q109 0 140.5 26t31.5 115v948q0 88 -32 114.5t-140 26.5q-6 0 -6 12.5t6 12.5q31 0 114 -3t132 -3q53 0 136 3t112 3q4 0 4 -12.5t-4 -12.5q-107 0 -138.5 -28t-31.5 -117v-944z" />
<glyph unicode="&#xcd;" horiz-adv-x="684" d="M143 1391q-9 -4 -13 6.5t3 13.5q73 39 192.5 116.5t127.5 82.5q16 9 95 -24q60 -25 55 -35q-1 -2 -5 -3q-223 -55 -455 -157zM418 166q0 -90 30.5 -115.5t139.5 -25.5q4 0 4 -12.5t-4 -12.5q-30 0 -112.5 2t-135.5 2q-49 0 -132 -2t-114 -2q-6 0 -6 12.5t6 12.5 q109 0 140.5 26t31.5 115v948q0 88 -32 114.5t-140 26.5q-6 0 -6 12.5t6 12.5q31 0 114 -3t132 -3q53 0 136 3t112 3q4 0 4 -12.5t-4 -12.5q-107 0 -138.5 -28t-31.5 -117v-944z" />
<glyph unicode="&#xce;" horiz-adv-x="684" d="M109 1421l210 207q9 9 24 9t24 -9l208 -207q3 -2 2 -6t-5 -7t-7 -1l-221 111l-223 -111q-2 -1 -6 2t-6 6.5t0 5.5zM418 166q0 -90 30.5 -115.5t139.5 -25.5q4 0 4 -12.5t-4 -12.5q-30 0 -112.5 2t-135.5 2q-49 0 -132 -2t-114 -2q-6 0 -6 12.5t6 12.5q109 0 140.5 26 t31.5 115v948q0 88 -32 114.5t-140 26.5q-6 0 -6 12.5t6 12.5q31 0 114 -3t132 -3q53 0 136 3t112 3q4 0 4 -12.5t-4 -12.5q-107 0 -138.5 -28t-31.5 -117v-944z" />
<glyph unicode="&#xcf;" horiz-adv-x="684" d="M195 1462q-43 0 -68 24t-25 66q0 41 25 64.5t68 23.5t66.5 -23.5t23.5 -64.5q0 -43 -23.5 -66.5t-66.5 -23.5zM492 1462q-43 0 -68 24t-25 66q0 41 25 63.5t68 22.5q41 0 64.5 -22.5t23.5 -63.5q0 -43 -23.5 -66.5t-64.5 -23.5zM418 166q0 -90 30.5 -115.5t139.5 -25.5 q4 0 4 -12.5t-4 -12.5q-30 0 -112.5 2t-135.5 2q-49 0 -132 -2t-114 -2q-6 0 -6 12.5t6 12.5q109 0 140.5 26t31.5 115v948q0 88 -32 114.5t-140 26.5q-6 0 -6 12.5t6 12.5q31 0 114 -3t132 -3q53 0 136 3t112 3q4 0 4 -12.5t-4 -12.5q-107 0 -138.5 -28t-31.5 -117v-944z " />
<glyph unicode="&#xd0;" horiz-adv-x="1421" d="M600 1284q160 0 295.5 -48t228.5 -131t145 -197.5t52 -245.5q0 -150 -55.5 -277t-150 -212.5t-220.5 -133t-266 -47.5q-38 0 -150.5 6t-163.5 6q-49 0 -131.5 -2t-113.5 -2q-4 0 -4 12.5t4 12.5q109 0 140.5 26t31.5 115v448h-133q-9 0 -9 22.5t9 22.5h133v455 q0 88 -31 114.5t-139 26.5q-4 0 -4 12.5t4 12.5q31 0 112.5 -3t130.5 -3q47 0 148 5t137 5zM608 25q241 0 390 155.5t149 435.5q0 177 -64 321t-185.5 229t-279.5 85q-131 0 -179 -26.5t-48 -114.5v-451h279q8 0 8 -22.5t-8 -22.5h-279v-426q0 -89 44.5 -126t172.5 -37z" />
<glyph unicode="&#xd1;" horiz-adv-x="1490" d="M518 1427q-5 -3 -11.5 4t-2.5 11q34 52 79.5 93.5t94.5 41.5q29 0 115 -25.5t139 -25.5q35 0 56 13.5t46 41.5q5 3 12 -2.5t3 -11.5q-53 -79 -88.5 -106t-75.5 -27q-41 0 -127 24.5t-137 24.5q-14 0 -26 -2.5t-19.5 -5t-17 -10t-13 -11l-14 -14zM1448 1280q6 0 6 -12.5 t-6 -12.5q-85 0 -124.5 -50t-39.5 -156v-1074q0 -6 -10 -7.5t-14 1.5l-955 1143q-4 4 -6 8v-891q0 -106 38.5 -155t121.5 -49q6 0 6 -12.5t-6 -12.5q-24 0 -84.5 2t-98.5 2t-103.5 -2t-92.5 -2q-4 0 -4 12.5t4 12.5q89 0 128.5 49t39.5 155v945q-85 81 -170 81q-6 0 -6 12.5 t6 12.5q24 0 74 -2t71 -2q33 0 81 2t58 2q16 0 24.5 -7.5t29.5 -39t43 -59.5l774 -938v813q0 107 -37 156.5t-121 49.5q-5 0 -5 12.5t5 12.5q25 0 86 -3t99 -3q36 0 99.5 3t88.5 3z" />
<glyph unicode="&#xd2;" d="M991 1391q-230 101 -454 157q-20 4 27 27q67 33 107 36q8 1 11 -1q220 -145 317 -199q5 -2 5 -8t-3.5 -10.5t-9.5 -1.5zM750 -25q-191 0 -341 91t-229.5 242t-79.5 331q0 129 43 239t115 187t165.5 131.5t195 80.5t202.5 26q146 0 270 -55t205.5 -146.5t126.5 -208 t45 -240.5q0 -140 -58 -266t-155 -216t-229 -143t-276 -53zM821 20q207 0 341 152.5t134 423.5q0 143 -40 264.5t-112 208t-177 135.5t-230 49q-220 0 -342.5 -144.5t-122.5 -397.5q0 -193 68.5 -350.5t194.5 -249t286 -91.5z" />
<glyph unicode="&#xd3;" d="M590 1391q-4 -2 -7.5 0t-5 6t-1 8.5t3.5 5.5q73 39 190.5 115.5t128.5 83.5q16 9 95 -24q60 -25 55 -35q-1 -2 -5 -3q-220 -55 -454 -157zM750 -25q-191 0 -341 91t-229.5 242t-79.5 331q0 129 43 239t115 187t165.5 131.5t195 80.5t202.5 26q146 0 270 -55t205.5 -146.5 t126.5 -208t45 -240.5q0 -140 -58 -266t-155 -216t-229 -143t-276 -53zM821 20q207 0 341 152.5t134 423.5q0 143 -40 264.5t-112 208t-177 135.5t-230 49q-220 0 -342.5 -144.5t-122.5 -397.5q0 -193 68.5 -350.5t194.5 -249t286 -91.5z" />
<glyph unicode="&#xd4;" d="M555 1421l211 207q9 9 23.5 9t23.5 -9l209 -207q3 -2 2 -6t-5 -7t-7 -1l-221 111l-224 -111q-2 -1 -6 2t-6 6.5t0 5.5zM750 -25q-191 0 -341 91t-229.5 242t-79.5 331q0 129 43 239t115 187t165.5 131.5t195 80.5t202.5 26q146 0 270 -55t205.5 -146.5t126.5 -208 t45 -240.5q0 -140 -58 -266t-155 -216t-229 -143t-276 -53zM821 20q207 0 341 152.5t134 423.5q0 143 -40 264.5t-112 208t-177 135.5t-230 49q-220 0 -342.5 -144.5t-122.5 -397.5q0 -193 68.5 -350.5t194.5 -249t286 -91.5z" />
<glyph unicode="&#xd5;" d="M948 1526q35 0 57 13.5t46 41.5q5 3 11.5 -2.5t2.5 -11.5q-53 -79 -88.5 -106t-75.5 -27q-41 0 -127 24.5t-137 24.5q-16 0 -28.5 -2t-24.5 -10t-16 -11t-17.5 -17t-15.5 -16q-3 -2 -8 0.5t-7 7t0 7.5q34 52 79.5 93.5t94.5 41.5q29 0 115 -25.5t139 -25.5zM750 -25 q-191 0 -341 91t-229.5 242t-79.5 331q0 129 43 239t115 187t165.5 131.5t195 80.5t202.5 26q146 0 270 -55t205.5 -146.5t126.5 -208t45 -240.5q0 -140 -58 -266t-155 -216t-229 -143t-276 -53zM821 20q207 0 341 152.5t134 423.5q0 143 -40 264.5t-112 208t-177 135.5 t-230 49q-220 0 -342.5 -144.5t-122.5 -397.5q0 -193 68.5 -350.5t194.5 -249t286 -91.5z" />
<glyph unicode="&#xd6;" d="M610 1462q-43 0 -67.5 23.5t-24.5 66.5q0 41 24.5 64.5t67.5 23.5q41 0 64.5 -23.5t23.5 -64.5q0 -43 -23.5 -66.5t-64.5 -23.5zM969 1462q-42 0 -67 24t-25 66q0 41 25 63.5t67 22.5q43 0 65.5 -22.5t22.5 -63.5q0 -43 -22.5 -66.5t-65.5 -23.5zM750 -25q-191 0 -341 91 t-229.5 242t-79.5 331q0 129 43 239t115 187t165.5 131.5t195 80.5t202.5 26q146 0 270 -55t205.5 -146.5t126.5 -208t45 -240.5q0 -140 -58 -266t-155 -216t-229 -143t-276 -53zM821 20q207 0 341 152.5t134 423.5q0 143 -40 264.5t-112 208t-177 135.5t-230 49 q-220 0 -342.5 -144.5t-122.5 -397.5q0 -193 68.5 -350.5t194.5 -249t286 -91.5z" />
<glyph unicode="&#xd7;" horiz-adv-x="788" d="M457 389l207 -209q4 -4 -9.5 -20.5t-30.5 -30t-22 -8.5l-207 207l-209 -209q-4 -4 -21 9t-31 29t-11 19l213 213l-209 209q-5 4 8.5 20.5t29.5 30t19 10.5l211 -210l207 206q5 4 22 -9.5t30.5 -29.5t9.5 -20z" />
<glyph unicode="&#xd8;" horiz-adv-x="1585" d="M1280 1118q90 -92 139 -213.5t49 -251.5q0 -140 -58 -266t-155 -216t-229 -143t-276 -53q-254 0 -435 160l-149 -151q-3 -4 -12.5 2t-16 15.5t-2.5 14.5l148 150q-88 91 -135.5 214t-47.5 259q0 129 43 239t115 187t165.5 131.5t195 80.5t202.5 26q251 0 428 -156 l142 143q4 4 14 -1t16.5 -13t1.5 -12zM272 711q0 -254 115 -439l770 781q-154 200 -420 200q-220 0 -342.5 -144.5t-122.5 -397.5zM821 20q207 0 341 152.5t134 423.5q0 251 -114 422l-768 -782q74 -102 178 -159t229 -57z" />
<glyph unicode="&#xd9;" horiz-adv-x="1431" d="M969 1391q-229 101 -455 157q-20 4 27 27q67 33 107 36q8 1 11 -1q215 -142 318 -199q5 -2 5 -8t-3.5 -10.5t-9.5 -1.5zM1171 1049q0 206 -180 206q-6 0 -6 12.5t6 12.5q28 0 96.5 -3t110.5 -3q36 0 100.5 3t90.5 3q5 0 5 -12.5t-5 -12.5q-164 0 -164 -206v-580 q0 -232 -133.5 -364t-356.5 -132q-229 0 -367.5 131.5t-138.5 354.5v655q0 88 -31 114.5t-139 26.5q-5 0 -5 12.5t5 12.5q31 0 113 -3t131 -3q52 0 134.5 3t109.5 3q6 0 6 -12.5t-6 -12.5q-106 0 -137 -28t-31 -117v-580q0 -242 106.5 -367.5t300.5 -125.5q181 0 283 113.5 t102 316.5v582z" />
<glyph unicode="&#xda;" horiz-adv-x="1431" d="M567 1391q-9 -4 -13 6.5t3 13.5q73 39 192.5 116.5t127.5 82.5q16 9 95 -24q60 -25 55 -35q-1 -2 -5 -3q-223 -55 -455 -157zM1171 1049q0 206 -180 206q-6 0 -6 12.5t6 12.5q28 0 96.5 -3t110.5 -3q36 0 100.5 3t90.5 3q5 0 5 -12.5t-5 -12.5q-164 0 -164 -206v-580 q0 -232 -133.5 -364t-356.5 -132q-229 0 -367.5 131.5t-138.5 354.5v655q0 88 -31 114.5t-139 26.5q-5 0 -5 12.5t5 12.5q31 0 113 -3t131 -3q52 0 134.5 3t109.5 3q6 0 6 -12.5t-6 -12.5q-106 0 -137 -28t-31 -117v-580q0 -242 106.5 -367.5t300.5 -125.5q181 0 283 113.5 t102 316.5v582z" />
<glyph unicode="&#xdb;" horiz-adv-x="1431" d="M532 1421l211 207q9 9 24 9t24 -9l208 -207q3 -2 2 -6t-5 -7t-7 -1l-221 111l-223 -111q-2 -1 -6.5 2t-6.5 6.5t0 5.5zM1171 1049q0 206 -180 206q-6 0 -6 12.5t6 12.5q28 0 96.5 -3t110.5 -3q36 0 100.5 3t90.5 3q5 0 5 -12.5t-5 -12.5q-164 0 -164 -206v-580 q0 -232 -133.5 -364t-356.5 -132q-229 0 -367.5 131.5t-138.5 354.5v655q0 88 -31 114.5t-139 26.5q-5 0 -5 12.5t5 12.5q31 0 113 -3t131 -3q52 0 134.5 3t109.5 3q6 0 6 -12.5t-6 -12.5q-106 0 -137 -28t-31 -117v-580q0 -242 106.5 -367.5t300.5 -125.5q181 0 283 113.5 t102 316.5v582z" />
<glyph unicode="&#xdc;" horiz-adv-x="1431" d="M588 1462q-43 0 -67.5 23.5t-24.5 66.5q0 41 24.5 64.5t67.5 23.5q41 0 64.5 -23.5t23.5 -64.5q0 -43 -23.5 -66.5t-64.5 -23.5zM946 1462q-42 0 -67 24t-25 66q0 41 25 63.5t67 22.5q43 0 65.5 -22.5t22.5 -63.5q0 -43 -22.5 -66.5t-65.5 -23.5zM1171 1049 q0 206 -180 206q-6 0 -6 12.5t6 12.5q28 0 96.5 -3t110.5 -3q36 0 100.5 3t90.5 3q5 0 5 -12.5t-5 -12.5q-164 0 -164 -206v-580q0 -232 -133.5 -364t-356.5 -132q-229 0 -367.5 131.5t-138.5 354.5v655q0 88 -31 114.5t-139 26.5q-5 0 -5 12.5t5 12.5q31 0 113 -3t131 -3 q52 0 134.5 3t109.5 3q6 0 6 -12.5t-6 -12.5q-106 0 -137 -28t-31 -117v-580q0 -242 106.5 -367.5t300.5 -125.5q181 0 283 113.5t102 316.5v582z" />
<glyph unicode="&#xdd;" horiz-adv-x="1251" d="M455 1391q-6 -3 -10 1.5t-4 10t3 8.5q73 39 192.5 116.5t127.5 82.5q16 9 95 -24q60 -25 55 -35q-1 -2 -5 -3q-220 -55 -454 -157zM1262 1280q4 0 4 -12.5t-4 -12.5q-72 0 -151 -58.5t-140 -158.5l-264 -409v-463q0 -90 29.5 -115.5t137.5 -25.5q6 0 6 -12.5t-6 -12.5 q-29 0 -110 2t-133 2q-49 0 -132 -2t-114 -2q-5 0 -5 12.5t5 12.5q109 0 140.5 26t31.5 115v430l-332 491q-62 94 -112.5 131t-112.5 37q-6 0 -6 12.5t6 12.5q23 0 72 -3t71 -3q61 0 163 3t132 3q4 0 4 -12.5t-4 -12.5q-74 0 -93.5 -26.5t15.5 -73.5l322 -477l238 373 q60 97 44 150.5t-108 53.5q-4 0 -4 12.5t4 12.5q33 0 109 -3t137 -3q35 0 82.5 3t77.5 3z" />
<glyph unicode="&#xde;" horiz-adv-x="1105" d="M565 301q126 0 212.5 88.5t86.5 257.5q0 163 -89.5 253.5t-235.5 90.5q-65 0 -140 -14v-803q0 -65 17 -94.5t65.5 -42t153.5 -12.5q6 0 6 -12.5t-6 -12.5q-40 0 -142 2t-167 2q-47 0 -127.5 -2t-110.5 -2q-4 0 -4 12.5t4 12.5q103 0 132.5 26t29.5 115v948 q0 88 -30 114.5t-132 26.5q-4 0 -4 12.5t4 12.5q30 0 110.5 -3t127.5 -3q65 0 167 3t142 3q6 0 6 -12.5t-6 -12.5q-105 0 -153.5 -12.5t-65.5 -42.5t-17 -96v-96q92 14 191 14q94 0 170.5 -18t138 -56t96.5 -104t37 -156q2 -84 -24 -154.5t-70.5 -118t-103.5 -80.5t-121 -48 t-125 -15q-44 0 -101 11q-5 1 -5 8t3 13t7 5q50 -8 73 -8z" />
<glyph unicode="&#xdf;" horiz-adv-x="1067" d="M715 -23q-83 0 -134 37.5t-51 98.5q0 30 17.5 49.5t52.5 19.5q27 0 45 -17t29 -41t22.5 -48t33 -41t52.5 -17q56 0 88.5 44.5t26.5 111.5q-2 38 -16 73.5t-42.5 71t-50.5 59t-63 62.5q-37 37 -54 54.5t-46.5 53t-43 61.5t-25 62t-11.5 72q0 50 20 97t48 85.5t56 79t48 94 t20 113.5q0 42 -8.5 81.5t-27.5 78t-56 61.5t-88 23q-119 0 -181.5 -143t-62.5 -400v-747q0 -90 23 -115.5t106 -25.5q6 0 6 -12.5t-6 -12.5q-34 0 -95.5 1t-94.5 1q-41 0 -111.5 -1t-95.5 -1q-6 0 -6 12.5t6 12.5q88 0 113.5 26t25.5 115l-2 473q0 70 -23.5 88t-117.5 18 q-7 0 -7 14.5t7 14.5q20 0 36 0.5t29 4t22.5 4.5t17.5 9t12.5 10.5t8.5 15.5t6 18t4 23t2.5 26.5t2.5 32.5q20 293 123.5 431t310.5 138q130 0 197.5 -60t67.5 -141q0 -54 -25.5 -103.5t-61.5 -87.5t-72 -74.5t-61.5 -80.5t-25.5 -90q0 -34 13 -67.5t44.5 -73t52.5 -62 t68 -69.5q41 -41 60 -60.5t52.5 -59t49 -67t28.5 -65.5t13 -74q0 -106 -84 -190.5t-217 -84.5z" />
<glyph unicode="&#xe0;" horiz-adv-x="860" d="M446 971l-215 518q-6 14 62 3q73 -13 76 -26l98 -491q1 -3 -4 -5.5t-10.5 -2.5t-6.5 4zM848 111q9 3 13 -8t-5 -15l-211 -100q-8 -4 -18 -4q-26 0 -48.5 35.5t-29.5 97.5l-103 -68q-92 -63 -174 -63q-78 0 -120.5 39.5t-42.5 101.5q0 66 52.5 110.5t166.5 86.5l219 79 v136q0 233 -125 233q-36 0 -64.5 -15.5t-44.5 -41t-25.5 -49t-13.5 -48.5q-11 -90 -84 -90q-36 0 -54.5 18.5t-18.5 45.5q0 51 66.5 103.5t155.5 84t159 31.5q85 0 130.5 -54.5t45.5 -156.5v-379q0 -135 80 -135q33 0 94 25zM467 98l80 49v13v215l-172 -70 q-113 -44 -113 -125q0 -48 31.5 -80t81.5 -32q43 0 92 30z" />
<glyph unicode="&#xe1;" horiz-adv-x="860" d="M430 971q-1 -4 -7 -4t-11 2.5t-4 5.5l100 491q3 13 75 25q66 11 62 -2zM848 111q9 3 13 -8t-5 -15l-211 -100q-8 -4 -18 -4q-26 0 -48.5 35.5t-29.5 97.5l-103 -68q-92 -63 -174 -63q-78 0 -120.5 39.5t-42.5 101.5q0 66 52.5 110.5t166.5 86.5l219 79v136 q0 233 -125 233q-36 0 -64.5 -15.5t-44.5 -41t-25.5 -49t-13.5 -48.5q-11 -90 -84 -90q-36 0 -54.5 18.5t-18.5 45.5q0 51 66.5 103.5t155.5 84t159 31.5q85 0 130.5 -54.5t45.5 -156.5v-379q0 -135 80 -135q33 0 94 25zM467 98l80 49v13v215l-172 -70q-113 -44 -113 -125 q0 -48 31.5 -80t81.5 -32q43 0 92 30z" />
<glyph unicode="&#xe2;" horiz-adv-x="860" d="M295 971q-1 -4 -7 -4t-11.5 2.5t-4.5 5.5l140 510q2 11 22 11t25 -11l137 -510q3 -4 -6 -7q-13 -4 -15 3l-139 317zM848 111q9 3 13 -8t-5 -15l-211 -100q-8 -4 -18 -4q-26 0 -48.5 35.5t-29.5 97.5l-103 -68q-92 -63 -174 -63q-78 0 -120.5 39.5t-42.5 101.5 q0 66 52.5 110.5t166.5 86.5l219 79v136q0 233 -125 233q-36 0 -64.5 -15.5t-44.5 -41t-25.5 -49t-13.5 -48.5q-11 -90 -84 -90q-36 0 -54.5 18.5t-18.5 45.5q0 51 66.5 103.5t155.5 84t159 31.5q85 0 130.5 -54.5t45.5 -156.5v-379q0 -135 80 -135q33 0 94 25zM467 98 l80 49v13v215l-172 -70q-113 -44 -113 -125q0 -48 31.5 -80t81.5 -32q43 0 92 30z" />
<glyph unicode="&#xe3;" horiz-adv-x="860" d="M176 979q-5 -3 -11.5 2.5t-2.5 11.5q90 133 174 133q29 0 115.5 -24.5t138.5 -24.5q35 0 56.5 13.5t45.5 42.5q5 3 12 -4t3 -11q-54 -80 -88.5 -107.5t-75.5 -27.5t-126.5 25.5t-137.5 25.5q-14 0 -26 -2.5t-19 -4.5t-17.5 -10t-13.5 -10.5t-14 -14t-13 -13.5zM848 111 q9 3 13 -8t-5 -15l-211 -100q-8 -4 -18 -4q-26 0 -48.5 35.5t-29.5 97.5l-103 -68q-92 -63 -174 -63q-78 0 -120.5 39.5t-42.5 101.5q0 66 52.5 110.5t166.5 86.5l219 79v136q0 233 -125 233q-36 0 -64.5 -15.5t-44.5 -41t-25.5 -49t-13.5 -48.5q-11 -90 -84 -90 q-36 0 -54.5 18.5t-18.5 45.5q0 51 66.5 103.5t155.5 84t159 31.5q85 0 130.5 -54.5t45.5 -156.5v-379q0 -135 80 -135q33 0 94 25zM467 98l80 49v13v215l-172 -70q-113 -44 -113 -125q0 -48 31.5 -80t81.5 -32q43 0 92 30z" />
<glyph unicode="&#xe4;" horiz-adv-x="860" d="M256 973q-43 0 -67.5 23.5t-24.5 66.5q0 41 24.5 64.5t67.5 23.5q41 0 64.5 -23.5t23.5 -64.5q0 -43 -23.5 -66.5t-64.5 -23.5zM614 973q-42 0 -67 24t-25 66q0 41 25 63.5t67 22.5q43 0 65.5 -22.5t22.5 -63.5q0 -43 -22.5 -66.5t-65.5 -23.5zM848 111q9 3 13 -8t-5 -15 l-211 -100q-8 -4 -18 -4q-26 0 -48.5 35.5t-29.5 97.5l-103 -68q-92 -63 -174 -63q-78 0 -120.5 39.5t-42.5 101.5q0 66 52.5 110.5t166.5 86.5l219 79v136q0 233 -125 233q-36 0 -64.5 -15.5t-44.5 -41t-25.5 -49t-13.5 -48.5q-11 -90 -84 -90q-36 0 -54.5 18.5t-18.5 45.5 q0 51 66.5 103.5t155.5 84t159 31.5q85 0 130.5 -54.5t45.5 -156.5v-379q0 -135 80 -135q33 0 94 25zM467 98l80 49v13v215l-172 -70q-113 -44 -113 -125q0 -48 31.5 -80t81.5 -32q43 0 92 30z" />
<glyph unicode="&#xe5;" horiz-adv-x="860" d="M416 958q-84 0 -135.5 48t-51.5 114q0 74 64 117t143 43q75 0 131 -48.5t56 -115.5q0 -71 -63 -114.5t-144 -43.5zM395 1257q-33 0 -48 -23t-15 -73q0 -69 31.5 -124.5t85.5 -55.5q36 0 52.5 23t16.5 75q0 72 -35.5 125t-87.5 53zM848 111q9 3 13 -8t-5 -15l-211 -100 q-8 -4 -18 -4q-26 0 -48.5 35.5t-29.5 97.5l-103 -68q-92 -63 -174 -63q-78 0 -120.5 39.5t-42.5 101.5q0 66 52.5 110.5t166.5 86.5l219 79v136q0 233 -125 233q-36 0 -64.5 -15.5t-44.5 -41t-25.5 -49t-13.5 -48.5q-11 -90 -84 -90q-36 0 -54.5 18.5t-18.5 45.5 q0 51 66.5 103.5t155.5 84t159 31.5q85 0 130.5 -54.5t45.5 -156.5v-379q0 -135 80 -135q33 0 94 25zM467 98l80 49v13v215l-172 -70q-113 -44 -113 -125q0 -48 31.5 -80t81.5 -32q43 0 92 30z" />
<glyph unicode="&#xe6;" horiz-adv-x="1212" d="M1143 119q3 2 7.5 -2t6.5 -9.5t0 -9.5q-70 -66 -139 -94.5t-154 -28.5q-215 0 -295 166l-135 -94q-92 -61 -180 -61q-81 0 -123.5 40t-42.5 103q0 65 50 106.5t163 83.5l221 84q-2 70 -4.5 115t-8 91t-13.5 73t-20.5 49t-30.5 31.5t-42 9.5q-77 0 -111.5 -47.5 t-43.5 -128.5q0 -30 -17 -55t-61 -25q-76 0 -76 70q0 45 55.5 97.5t140 89t159.5 36.5q62 0 109 -36t67 -99q122 135 305 135q104 0 160.5 -65t56.5 -181q0 -24 -5 -33.5t-20 -9.5l-456 -2q-4 -50 -4 -78q5 -391 270 -391q130 0 211 70zM860 768q-75 0 -123.5 -58 t-66.5 -161l321 6q0 103 -35.5 158t-95.5 55zM455 96l106 66q-31 76 -37 186v29l-178 -72q-55 -23 -79.5 -52.5t-24.5 -72.5q0 -52 29 -83t87 -31q48 0 97 30z" />
<glyph unicode="&#xe7;" horiz-adv-x="845" d="M766 117q4 2 9 -1.5t6.5 -8t-1.5 -7.5q-71 -65 -144 -95t-163 -30h-12q-13 -46 -17 -70t6.5 -44.5t26 -31.5t55.5 -34q51 -30 81 -66t30 -91q0 -78 -55 -139.5t-164 -61.5q-61 0 -98 21t-37 61q0 28 18.5 45.5t46.5 17.5q27 0 43 -16t22 -35t24 -35t49 -16q65 0 65 71 q0 54 -38 95.5t-136 95.5q-26 13 -28 22.5t12 38.5q23 56 65 174q-91 6 -162 44t-113 96t-63.5 124.5t-21.5 137.5q0 99 41 182t106.5 136t145.5 82.5t161 29.5q92 0 167 -36.5t75 -92.5q0 -30 -21 -51t-57 -21q-66 0 -98 74q-23 44 -52 65t-85 21q-110 0 -172 -89t-62 -237 q0 -82 19.5 -150.5t58.5 -123.5t106 -86t156 -31q117 0 205 66z" />
<glyph unicode="&#xe8;" horiz-adv-x="837" d="M479 971l-215 518q-6 14 61 3q73 -13 76 -26l99 -491q1 -3 -4 -5.5t-10.5 -2.5t-6.5 4zM743 119q5 3 12 -6t3 -15q-137 -123 -303 -123q-120 0 -209 57t-131.5 145.5t-42.5 193.5q0 183 127 310.5t311 127.5q118 0 181 -60.5t63 -173.5q0 -55 -25 -55l-506 -2 q-4 -46 -4 -69q0 -178 84.5 -287t237.5 -109q61 0 103.5 16t98.5 50zM440 768q-86 0 -141 -58t-72 -163l373 8q0 104 -42 158.5t-118 54.5z" />
<glyph unicode="&#xe9;" horiz-adv-x="837" d="M463 971q-1 -4 -7 -4t-11.5 2.5t-4.5 5.5l101 491q3 13 75 25q66 11 62 -2zM743 119q5 3 12 -6t3 -15q-137 -123 -303 -123q-120 0 -209 57t-131.5 145.5t-42.5 193.5q0 183 127 310.5t311 127.5q118 0 181 -60.5t63 -173.5q0 -55 -25 -55l-506 -2q-4 -46 -4 -69 q0 -178 84.5 -287t237.5 -109q61 0 103.5 16t98.5 50zM440 768q-86 0 -141 -58t-72 -163l373 8q0 104 -42 158.5t-118 54.5z" />
<glyph unicode="&#xea;" horiz-adv-x="837" d="M328 971q-1 -4 -7 -4t-11.5 2.5t-4.5 5.5l139 510q2 11 22.5 11t25.5 -11l137 -510q3 -4 -6 -7q-13 -4 -15 3l-139 317zM743 119q5 3 12 -6t3 -15q-137 -123 -303 -123q-120 0 -209 57t-131.5 145.5t-42.5 193.5q0 183 127 310.5t311 127.5q118 0 181 -60.5t63 -173.5 q0 -55 -25 -55l-506 -2q-4 -46 -4 -69q0 -178 84.5 -287t237.5 -109q61 0 103.5 16t98.5 50zM440 768q-86 0 -141 -58t-72 -163l373 8q0 104 -42 158.5t-118 54.5z" />
<glyph unicode="&#xeb;" horiz-adv-x="837" d="M289 973q-43 0 -67.5 23.5t-24.5 66.5q0 41 24.5 64.5t67.5 23.5q41 0 64.5 -23.5t23.5 -64.5q0 -43 -23.5 -66.5t-64.5 -23.5zM647 973q-42 0 -67 24t-25 66q0 41 25 63.5t67 22.5q43 0 65.5 -22.5t22.5 -63.5q0 -43 -22.5 -66.5t-65.5 -23.5zM743 119q5 3 12 -6t3 -15 q-137 -123 -303 -123q-120 0 -209 57t-131.5 145.5t-42.5 193.5q0 183 127 310.5t311 127.5q118 0 181 -60.5t63 -173.5q0 -55 -25 -55l-506 -2q-4 -46 -4 -69q0 -178 84.5 -287t237.5 -109q61 0 103.5 16t98.5 50zM440 768q-86 0 -141 -58t-72 -163l373 8q0 104 -42 158.5 t-118 54.5z" />
<glyph unicode="&#xec;" horiz-adv-x="555" d="M78 1489q-6 14 61 3q73 -13 76 -26l98 -491q1 -3 -3.5 -5.5t-10 -2.5t-6.5 4zM104 0q-6 0 -6 12.5t6 12.5q76 0 100.5 27.5t24.5 113.5v381q0 72 -14.5 104.5t-50.5 32.5q-33 0 -90 -29q-6 -2 -10.5 4t-4.5 12t4 9l273 127l8 2q6 0 13.5 -6t7.5 -12q0 -7 -1.5 -41 t-2.5 -88.5t-1 -112.5v-383q0 -87 23.5 -114t101.5 -27q6 0 6 -12.5t-6 -12.5q-23 0 -87 2t-103 2q-40 0 -105 -2t-86 -2z" />
<glyph unicode="&#xed;" horiz-adv-x="555" d="M276 971q-1 -4 -7 -4t-11 2.5t-4 5.5l100 491q3 13 77 26q65 10 61 -3zM104 0q-6 0 -6 12.5t6 12.5q76 0 100.5 27.5t24.5 113.5v381q0 72 -14.5 104.5t-50.5 32.5q-33 0 -90 -29q-6 -2 -10.5 4t-4.5 12t4 9l273 127l8 2q6 0 13.5 -6t7.5 -12q0 -7 -1.5 -41t-2.5 -88.5 t-1 -112.5v-383q0 -87 23.5 -114t101.5 -27q6 0 6 -12.5t-6 -12.5q-23 0 -87 2t-103 2q-40 0 -105 -2t-86 -2z" />
<glyph unicode="&#xee;" horiz-adv-x="555" d="M442 975q3 -4 -6 -7q-11 -2 -14 3l-139 317l-142 -317q-1 -4 -7 -4t-11 2.5t-4 5.5l139 510q2 11 22.5 11t24.5 -11zM104 0q-6 0 -6 12.5t6 12.5q76 0 100.5 27.5t24.5 113.5v381q0 72 -14.5 104.5t-50.5 32.5q-33 0 -90 -29q-6 -2 -10.5 4t-4.5 12t4 9l273 127l8 2 q6 0 13.5 -6t7.5 -12q0 -7 -1.5 -41t-2.5 -88.5t-1 -112.5v-383q0 -87 23.5 -114t101.5 -27q6 0 6 -12.5t-6 -12.5q-23 0 -87 2t-103 2q-40 0 -105 -2t-86 -2z" />
<glyph unicode="&#xef;" horiz-adv-x="555" d="M133 973q-43 0 -67.5 23.5t-24.5 66.5q0 41 24.5 64.5t67.5 23.5t66.5 -23.5t23.5 -64.5q0 -43 -23.5 -66.5t-66.5 -23.5zM430 973q-43 0 -67.5 23.5t-24.5 66.5q0 41 24.5 63.5t67.5 22.5q41 0 64.5 -22.5t23.5 -63.5q0 -43 -23.5 -66.5t-64.5 -23.5zM104 0 q-6 0 -6 12.5t6 12.5q76 0 100.5 27.5t24.5 113.5v381q0 72 -14.5 104.5t-50.5 32.5q-33 0 -90 -29q-6 -2 -10.5 4t-4.5 12t4 9l273 127l8 2q6 0 13.5 -6t7.5 -12q0 -7 -1.5 -41t-2.5 -88.5t-1 -112.5v-383q0 -87 23.5 -114t101.5 -27q6 0 6 -12.5t-6 -12.5q-23 0 -87 2 t-103 2q-40 0 -105 -2t-86 -2z" />
<glyph unicode="&#xf0;" horiz-adv-x="962" d="M625 1165q133 -155 205.5 -336.5t72.5 -363.5q0 -126 -35.5 -223t-98 -154.5t-141 -86t-171.5 -28.5q-119 0 -211 57t-139.5 149t-47.5 202q0 86 27 159.5t71.5 123.5t101.5 85.5t116.5 51.5t116.5 16q115 0 206 -61q-56 188 -170 364l-272 -129q-6 -2 -13 9t-8.5 22 t3.5 16l262 125q-142 193 -316 303q-9 4 1 15q6 6 12 4q229 -106 391 -281l211 101q6 3 13.5 -8.5t9 -23t-4.5 -16.5zM514 12q55 0 97 18.5t74.5 61t49.5 118t17 181.5q0 108 -23 230q-43 75 -110.5 116t-149.5 41q-113 0 -186.5 -89.5t-73.5 -248.5q0 -116 37.5 -213 t108 -156t159.5 -59z" />
<glyph unicode="&#xf1;" horiz-adv-x="1062" d="M299 979q-5 -3 -11.5 2.5t-2.5 11.5q90 133 174 133q29 0 115.5 -24.5t138.5 -24.5q35 0 56.5 13.5t45.5 42.5q5 3 11.5 -4t2.5 -11q-54 -80 -88 -107.5t-75 -27.5t-127 25.5t-138 25.5q-14 0 -26 -2.5t-19 -5t-16.5 -9.5t-13.5 -10.5t-14 -14t-13 -13.5zM1020 25 q6 0 6 -12.5t-6 -12.5q-23 0 -87.5 2t-103.5 2t-102.5 -2t-85.5 -2q-6 0 -6 12.5t6 12.5q76 0 99.5 27t23.5 114v326q0 120 -44.5 175.5t-139.5 55.5q-60 0 -122.5 -31t-113.5 -86v-440q0 -87 23.5 -114t101.5 -27q6 0 6 -12.5t-6 -12.5q-23 0 -87 2t-103 2t-103 -2t-86 -2 q-6 0 -6 12.5t6 12.5q76 0 99.5 27t23.5 114v401q0 67 -16 98t-54 31q-30 0 -108 -30q-6 -2 -10.5 3t-4 10.5t4.5 8.5l245 119q6 2 13 2q12 0 25.5 -18t24 -58t11.5 -92q148 176 313 176q113 0 175.5 -65.5t62.5 -186.5v-399q0 -87 23.5 -114t101.5 -27z" />
<glyph unicode="&#xf2;" horiz-adv-x="985" d="M291 1489q-6 14 61 3q73 -13 76 -26l98 -491q1 -3 -3.5 -5.5t-10 -2.5t-6.5 4zM475 -27q-120 0 -213.5 60.5t-141.5 158.5t-48 214q0 82 26.5 151t70.5 116t101.5 80.5t118.5 48.5t123 15q91 0 168 -36t127.5 -95.5t78 -135t27.5 -155.5q0 -189 -127.5 -305.5 t-310.5 -116.5zM535 12q106 0 164.5 80.5t58.5 243.5q0 195 -89.5 317.5t-224.5 122.5q-105 0 -162 -78t-57 -227q0 -194 87.5 -326.5t222.5 -132.5z" />
<glyph unicode="&#xf3;" horiz-adv-x="985" d="M489 971q-1 -4 -7 -4t-11 2.5t-4 5.5l100 491q3 13 77 26q65 10 61 -3zM475 -27q-120 0 -213.5 60.5t-141.5 158.5t-48 214q0 82 26.5 151t70.5 116t101.5 80.5t118.5 48.5t123 15q91 0 168 -36t127.5 -95.5t78 -135t27.5 -155.5q0 -189 -127.5 -305.5t-310.5 -116.5z M535 12q106 0 164.5 80.5t58.5 243.5q0 195 -89.5 317.5t-224.5 122.5q-105 0 -162 -78t-57 -227q0 -194 87.5 -326.5t222.5 -132.5z" />
<glyph unicode="&#xf4;" horiz-adv-x="985" d="M655 975q3 -4 -6 -7q-12 -4 -14 3l-139 317l-142 -317q-1 -4 -7 -4t-11 2.5t-4 5.5l139 510q1 11 22 11t25 -11zM475 -27q-120 0 -213.5 60.5t-141.5 158.5t-48 214q0 82 26.5 151t70.5 116t101.5 80.5t118.5 48.5t123 15q91 0 168 -36t127.5 -95.5t78 -135t27.5 -155.5 q0 -189 -127.5 -305.5t-310.5 -116.5zM535 12q106 0 164.5 80.5t58.5 243.5q0 195 -89.5 317.5t-224.5 122.5q-105 0 -162 -78t-57 -227q0 -194 87.5 -326.5t222.5 -132.5z" />
<glyph unicode="&#xf5;" horiz-adv-x="985" d="M649 1077q35 0 57.5 13.5t45.5 42.5q5 3 11.5 -4t2.5 -11q-54 -80 -88.5 -107.5t-75.5 -27.5t-126.5 25.5t-137.5 25.5q-14 0 -26 -2.5t-19 -5t-16.5 -9.5t-13.5 -10.5t-14 -14t-13 -13.5q-5 -3 -12 2.5t-3 11.5q90 133 174 133q29 0 115.5 -24.5t138.5 -24.5zM475 -27 q-120 0 -213.5 60.5t-141.5 158.5t-48 214q0 82 26.5 151t70.5 116t101.5 80.5t118.5 48.5t123 15q91 0 168 -36t127.5 -95.5t78 -135t27.5 -155.5q0 -189 -127.5 -305.5t-310.5 -116.5zM535 12q106 0 164.5 80.5t58.5 243.5q0 195 -89.5 317.5t-224.5 122.5 q-105 0 -162 -78t-57 -227q0 -194 87.5 -326.5t222.5 -132.5z" />
<glyph unicode="&#xf6;" horiz-adv-x="985" d="M315 973q-43 0 -67.5 23.5t-24.5 66.5q0 41 24.5 64.5t67.5 23.5q41 0 64.5 -23.5t23.5 -64.5q0 -43 -23.5 -66.5t-64.5 -23.5zM674 973q-42 0 -67 24t-25 66q0 41 25 63.5t67 22.5q43 0 65.5 -22.5t22.5 -63.5q0 -43 -22.5 -66.5t-65.5 -23.5zM475 -27 q-120 0 -213.5 60.5t-141.5 158.5t-48 214q0 82 26.5 151t70.5 116t101.5 80.5t118.5 48.5t123 15q91 0 168 -36t127.5 -95.5t78 -135t27.5 -155.5q0 -189 -127.5 -305.5t-310.5 -116.5zM535 12q106 0 164.5 80.5t58.5 243.5q0 195 -89.5 317.5t-224.5 122.5 q-105 0 -162 -78t-57 -227q0 -194 87.5 -326.5t222.5 -132.5z" />
<glyph unicode="&#xf7;" horiz-adv-x="815" d="M406 623q-44 0 -70.5 26t-26.5 70q0 41 26.5 65.5t70.5 24.5t68 -24t24 -66q0 -45 -24 -70.5t-68 -25.5zM70 346q-6 0 -8 21t-0.5 42t6.5 21h677q9 0 9 -42t-9 -42h-675zM406 -23q-44 0 -70.5 26.5t-26.5 70.5q0 41 26.5 65.5t70.5 24.5t68 -24t24 -66q0 -45 -24 -71 t-68 -26z" />
<glyph unicode="&#xf8;" horiz-adv-x="976" d="M803 690q110 -119 110 -295q0 -189 -127.5 -305.5t-310.5 -116.5q-153 0 -266 101l-103 -105q-3 -4 -12.5 2.5t-16.5 16t-3 14.5l102 107q-104 119 -104 297q0 82 26.5 151t70.5 116t101.5 80.5t118.5 48.5t123 15q153 0 260 -96l92 96q4 3 14 -2.5t17 -13.5t2 -13z M225 471q0 -146 51 -260l408 420q-43 69 -105 107t-135 38q-105 0 -162 -78t-57 -227zM535 12q106 0 164.5 80.5t58.5 243.5q0 146 -51 254l-408 -422q40 -73 102 -114.5t134 -41.5z" />
<glyph unicode="&#xf9;" horiz-adv-x="1013" d="M506 971l-215 518q-6 14 61 3q73 -13 76 -26l98 -491q1 -3 -3.5 -5.5t-10 -2.5t-6.5 4zM997 119q9 4 15 -7t-2 -16l-248 -116q-6 -3 -8 -3q-21 0 -39.5 49t-18.5 128q-153 -172 -319 -172q-104 0 -163.5 65.5t-59.5 185.5v314q0 77 -14 112t-46 35q-24 0 -67 -18 q-5 -3 -9.5 2t-5 11t3.5 9l236 109q4 2 8 2q6 0 14.5 -6t8.5 -12v-482q0 -235 172 -235q61 0 124.5 31t116.5 85v357q0 78 -14 112.5t-47 34.5q-25 0 -68 -18q-8 -5 -12 9q-3 10 4 13l236 109q4 2 8 2q6 0 13 -6t7 -12v-568q0 -70 16.5 -100.5t53.5 -30.5q28 0 104 27z" />
<glyph unicode="&#xfa;" horiz-adv-x="1013" d="M489 971q-1 -4 -7 -4t-11 2.5t-4 5.5l100 491q3 13 77 26q65 10 61 -3zM997 119q9 4 15 -7t-2 -16l-248 -116q-6 -3 -8 -3q-21 0 -39.5 49t-18.5 128q-153 -172 -319 -172q-104 0 -163.5 65.5t-59.5 185.5v314q0 77 -14 112t-46 35q-24 0 -67 -18q-5 -3 -9.5 2t-5 11 t3.5 9l236 109q4 2 8 2q6 0 14.5 -6t8.5 -12v-482q0 -235 172 -235q61 0 124.5 31t116.5 85v357q0 78 -14 112.5t-47 34.5q-25 0 -68 -18q-8 -5 -12 9q-3 10 4 13l236 109q4 2 8 2q6 0 13 -6t7 -12v-568q0 -70 16.5 -100.5t53.5 -30.5q28 0 104 27z" />
<glyph unicode="&#xfb;" horiz-adv-x="1013" d="M354 971q-1 -4 -7 -4t-11 2.5t-4 5.5l139 510q1 11 22 11t25 -11l137 -510q3 -4 -6 -7q-12 -4 -14 3l-139 317zM997 119q9 4 15 -7t-2 -16l-248 -116q-6 -3 -8 -3q-21 0 -39.5 49t-18.5 128q-153 -172 -319 -172q-104 0 -163.5 65.5t-59.5 185.5v314q0 77 -14 112t-46 35 q-24 0 -67 -18q-5 -3 -9.5 2t-5 11t3.5 9l236 109q4 2 8 2q6 0 14.5 -6t8.5 -12v-482q0 -235 172 -235q61 0 124.5 31t116.5 85v357q0 78 -14 112.5t-47 34.5q-25 0 -68 -18q-8 -5 -12 9q-3 10 4 13l236 109q4 2 8 2q6 0 13 -6t7 -12v-568q0 -70 16.5 -100.5t53.5 -30.5 q28 0 104 27z" />
<glyph unicode="&#xfc;" horiz-adv-x="1013" d="M315 973q-43 0 -67.5 23.5t-24.5 66.5q0 41 24.5 64.5t67.5 23.5q41 0 64.5 -23.5t23.5 -64.5q0 -43 -23.5 -66.5t-64.5 -23.5zM674 973q-42 0 -67 24t-25 66q0 41 25 63.5t67 22.5q43 0 65.5 -22.5t22.5 -63.5q0 -43 -22.5 -66.5t-65.5 -23.5zM997 119q9 4 15 -7t-2 -16 l-248 -116q-6 -3 -8 -3q-21 0 -39.5 49t-18.5 128q-153 -172 -319 -172q-104 0 -163.5 65.5t-59.5 185.5v314q0 77 -14 112t-46 35q-24 0 -67 -18q-5 -3 -9.5 2t-5 11t3.5 9l236 109q4 2 8 2q6 0 14.5 -6t8.5 -12v-482q0 -235 172 -235q61 0 124.5 31t116.5 85v357 q0 78 -14 112.5t-47 34.5q-25 0 -68 -18q-8 -5 -12 9q-3 10 4 13l236 109q4 2 8 2q6 0 13 -6t7 -12v-568q0 -70 16.5 -100.5t53.5 -30.5q28 0 104 27z" />
<glyph unicode="&#xfd;" horiz-adv-x="888" d="M455 971q-1 -4 -7 -4t-11.5 2.5t-4.5 5.5l100 491q3 13 77 26q65 10 61 -3zM887 791q6 0 6 -12.5t-6 -12.5q-55 0 -93.5 -39t-72.5 -129l-246 -655q-111 -291 -209 -404.5t-231 -113.5q-48 0 -78.5 21t-30.5 62q0 32 21 50t51 18q39 0 79 -24.5t73 -24.5q73 0 136.5 97 t164.5 358l-316 639q-46 90 -71.5 117.5t-63.5 27.5q-4 0 -4 12.5t4 12.5q22 0 71 -2.5t72 -2.5q50 0 120.5 2.5t94.5 2.5q4 0 4 -12.5t-4 -12.5q-73 0 -101 -17.5t-5 -62.5l264 -545l158 453q32 92 0.5 132t-135.5 40q-5 0 -5 12.5t5 12.5q29 0 92 -2.5t114 -2.5 q30 0 73 2.5t69 2.5z" />
<glyph unicode="&#xfe;" horiz-adv-x="1007" d="M618 817q131 0 224.5 -102t93.5 -275q0 -96 -28.5 -176.5t-74.5 -133t-105.5 -89t-118.5 -52.5t-117 -16q-118 0 -209 47v-417q0 -89 37 -115.5t163 -26.5q6 0 6 -12t-6 -12q-35 0 -123.5 2t-140.5 2q-40 0 -104.5 -2t-87.5 -2q-5 0 -5 12t5 12q79 0 103 27t24 115v1618 q0 73 -14.5 106t-49.5 33q-29 0 -92 -29q-5 -2 -10 4t-5 12t5 9l264 127q4 2 10 2t13.5 -6.5t7.5 -12.5v-817q168 168 335 168zM549 18q108 0 175 94.5t67 264.5q0 168 -76 262t-191 94q-69 0 -126 -31.5t-115 -91.5v-467q54 -62 115 -93.5t151 -31.5z" />
<glyph unicode="&#xff;" horiz-adv-x="888" d="M281 973q-43 0 -68 24t-25 66q0 41 25 64.5t68 23.5q41 0 64.5 -23.5t23.5 -64.5q0 -43 -23.5 -66.5t-64.5 -23.5zM639 973q-42 0 -67 24t-25 66q0 41 25 63.5t67 22.5q43 0 65.5 -22.5t22.5 -63.5q0 -43 -22.5 -66.5t-65.5 -23.5zM887 791q6 0 6 -12.5t-6 -12.5 q-55 0 -93.5 -39t-72.5 -129l-246 -655q-111 -291 -209 -404.5t-231 -113.5q-48 0 -78.5 21t-30.5 62q0 32 21 50t51 18q39 0 79 -24.5t73 -24.5q73 0 136.5 97t164.5 358l-316 639q-46 90 -71.5 117.5t-63.5 27.5q-4 0 -4 12.5t4 12.5q22 0 71 -2.5t72 -2.5q50 0 120.5 2.5 t94.5 2.5q4 0 4 -12.5t-4 -12.5q-73 0 -101 -17.5t-5 -62.5l264 -545l158 453q32 92 0.5 132t-135.5 40q-5 0 -5 12.5t5 12.5q29 0 92 -2.5t114 -2.5q30 0 73 2.5t69 2.5z" />
<glyph unicode="&#x152;" horiz-adv-x="1880" d="M1755 307q0 4 5.5 5t11.5 -1t6 -6q-19 -176 -19 -274q0 -18 -6 -24.5t-24 -6.5h-617q-44 0 -144 -4t-147 -4q-157 0 -292.5 48t-229 131.5t-146.5 198.5t-53 246q0 150 57 277t154 211.5t226 132t272 47.5q40 0 145.5 -2t155.5 -2h582q20 0 20 -18l4 -256q0 -6 -11 -6 t-13 6q-6 92 -72 160.5t-160 68.5h-123q-94 0 -124.5 -25t-30.5 -98v-424h235q102 0 148.5 35.5t46.5 112.5q0 4 11 4t11 -4q0 -46 -1 -97.5t-1 -72.5q0 -30 2 -93t2 -100q0 -5 -11 -5t-11 5q0 89 -48 129.5t-155 40.5h-229v-469q0 -76 29 -102.5t118 -26.5h156 q94 0 170.5 74.5t99.5 187.5zM1032 168v928q0 88 -40.5 121.5t-162.5 33.5q-250 0 -403.5 -155t-153.5 -434q0 -133 38.5 -249.5t108 -202.5t172.5 -135.5t226 -49.5q127 0 171 27t44 116z" />
<glyph unicode="&#x153;" horiz-adv-x="1421" d="M1348 119q3 2 7.5 -2t6.5 -9.5t0 -9.5q-140 -123 -303 -123q-113 0 -195.5 42.5t-128.5 117.5q-53 -77 -131.5 -119.5t-171.5 -42.5q-112 0 -200.5 60t-135.5 158.5t-47 214.5q0 82 25.5 151t68 116t97.5 80.5t113 48.5t116 15q104 0 182 -50t119 -136q62 82 152 130 t194 48q118 0 178 -57.5t60 -182.5q0 -49 -23 -49l-508 -2q-6 -44 -6 -94q0 -171 86.5 -271t229.5 -100q133 0 215 66zM487 10q89 0 141 88t52 250q0 194 -76.5 312t-200.5 118q-97 0 -151.5 -80.5t-54.5 -232.5q0 -188 83.5 -321.5t206.5 -133.5zM1047 768 q-83 0 -139.5 -59t-78.5 -162l369 8q5 213 -151 213z" />
<glyph unicode="&#x178;" horiz-adv-x="1251" d="M475 1462q-43 0 -67.5 23.5t-24.5 66.5q0 41 24.5 64.5t67.5 23.5q41 0 64.5 -23.5t23.5 -64.5q0 -43 -23.5 -66.5t-64.5 -23.5zM834 1462q-42 0 -67.5 24t-25.5 66q0 41 25.5 63.5t67.5 22.5q43 0 65.5 -22.5t22.5 -63.5q0 -43 -22.5 -66.5t-65.5 -23.5zM1262 1280 q4 0 4 -12.5t-4 -12.5q-72 0 -151 -58.5t-140 -158.5l-264 -409v-463q0 -90 29.5 -115.5t137.5 -25.5q6 0 6 -12.5t-6 -12.5q-29 0 -110 2t-133 2q-49 0 -132 -2t-114 -2q-5 0 -5 12.5t5 12.5q109 0 140.5 26t31.5 115v430l-332 491q-62 94 -112.5 131t-112.5 37 q-6 0 -6 12.5t6 12.5q23 0 72 -3t71 -3q61 0 163 3t132 3q4 0 4 -12.5t-4 -12.5q-74 0 -93.5 -26.5t15.5 -73.5l322 -477l238 373q60 97 44 150.5t-108 53.5q-4 0 -4 12.5t4 12.5q33 0 109 -3t137 -3q35 0 82.5 3t77.5 3z" />
<glyph unicode="&#x2c6;" horiz-adv-x="536" d="M442 975q3 -4 -6 -7q-11 -2 -14 3l-139 317l-142 -317q-1 -4 -7 -4t-11 2.5t-4 5.5l139 510q2 11 22.5 11t24.5 -11z" />
<glyph unicode="&#x2dc;" horiz-adv-x="786" d="M551 1077q35 0 56.5 13.5t45.5 42.5q5 3 12 -4t3 -11q-54 -80 -88.5 -107.5t-75.5 -27.5t-126.5 25.5t-137.5 25.5q-14 0 -26 -2.5t-19 -4.5t-17.5 -10t-13.5 -10.5t-14 -14t-13 -13.5q-5 -3 -11.5 2.5t-2.5 11.5q90 133 174 133q29 0 115.5 -24.5t138.5 -24.5z" />
<glyph unicode="&#x2000;" horiz-adv-x="839" />
<glyph unicode="&#x2001;" horiz-adv-x="1679" />
<glyph unicode="&#x2002;" horiz-adv-x="839" />
<glyph unicode="&#x2003;" horiz-adv-x="1679" />
<glyph unicode="&#x2004;" horiz-adv-x="559" />
<glyph unicode="&#x2005;" horiz-adv-x="419" />
<glyph unicode="&#x2006;" horiz-adv-x="279" />
<glyph unicode="&#x2007;" horiz-adv-x="279" />
<glyph unicode="&#x2008;" horiz-adv-x="209" />
<glyph unicode="&#x2009;" horiz-adv-x="335" />
<glyph unicode="&#x200a;" horiz-adv-x="93" />
<glyph unicode="&#x2010;" horiz-adv-x="661" d="M66 334q-6 -1 -8.5 21t-1.5 45t5 24l535 96q6 1 8 -21t0 -45t-8 -24z" />
<glyph unicode="&#x2011;" horiz-adv-x="661" d="M66 334q-6 -1 -8.5 21t-1.5 45t5 24l535 96q6 1 8 -21t0 -45t-8 -24z" />
<glyph unicode="&#x2012;" horiz-adv-x="661" d="M66 334q-6 -1 -8.5 21t-1.5 45t5 24l535 96q6 1 8 -21t0 -45t-8 -24z" />
<glyph unicode="&#x2013;" horiz-adv-x="1054" d="M70 346q-6 0 -8 21t-0.5 42t6.5 21h917q9 0 9 -42t-9 -42h-915z" />
<glyph unicode="&#x2014;" horiz-adv-x="1699" d="M70 346q-6 0 -8 21t-0.5 42t6.5 21h1562q9 0 9 -42t-9 -42h-1560z" />
<glyph unicode="&#x2018;" horiz-adv-x="395" d="M227 942q41 0 64.5 -23.5t23.5 -62.5q0 -88 -102 -88q-63 0 -99 46t-36 136q0 178 164 348q7 6 14 0t2 -14q-48 -63 -65 -122t-17 -132q0 -55 17 -94q15 6 34 6z" />
<glyph unicode="&#x2019;" horiz-adv-x="391" d="M180 1292q63 0 99 -46t36 -136q0 -179 -163 -348q-7 -6 -14.5 0t-2.5 14q48 63 65 122t17 132q0 57 -16 94q-15 -6 -35 -6q-41 0 -64.5 23.5t-23.5 62.5q0 88 102 88z" />
<glyph unicode="&#x201a;" horiz-adv-x="391" d="M180 158q63 0 99 -46.5t36 -136.5q0 -179 -163 -348q-7 -6 -14.5 0.5t-2.5 14.5q48 63 65 122t17 132q0 57 -16 94q-15 -6 -35 -6q-41 0 -64.5 23.5t-23.5 62.5q0 88 102 88z" />
<glyph unicode="&#x201c;" horiz-adv-x="702" d="M227 942q41 0 64.5 -23.5t23.5 -62.5q0 -88 -102 -88q-63 0 -99 46t-36 136q0 178 164 348q7 6 14 0t2 -14q-48 -63 -65 -122t-17 -132q0 -55 17 -94q15 6 34 6zM537 942q41 0 64.5 -23.5t23.5 -62.5q0 -43 -26.5 -65.5t-76.5 -22.5q-63 0 -99 46t-36 136q0 178 164 348 q7 6 14 0t2 -14q-48 -63 -65 -122t-17 -132q0 -55 17 -94q15 6 35 6z" />
<glyph unicode="&#x201d;" horiz-adv-x="702" d="M180 1292q63 0 99 -46t36 -136q0 -179 -163 -348q-7 -6 -14.5 0t-2.5 14q48 63 65 122t17 132q0 57 -16 94q-15 -6 -35 -6q-41 0 -64.5 23.5t-23.5 62.5q0 88 102 88zM489 1292q63 0 99.5 -46t36.5 -136q0 -178 -164 -348q-7 -6 -14.5 0t-2.5 14q48 63 65 122t17 132 q0 57 -16 94q-15 -6 -35 -6q-41 0 -64.5 23.5t-23.5 62.5q0 88 102 88z" />
<glyph unicode="&#x201e;" horiz-adv-x="710" d="M180 158q63 0 99 -46.5t36 -136.5q0 -179 -163 -348q-7 -6 -14.5 0.5t-2.5 14.5q48 63 65 122t17 132q0 57 -16 94q-15 -6 -35 -6q-41 0 -64.5 23.5t-23.5 62.5q0 88 102 88zM489 158q63 0 99.5 -46.5t36.5 -136.5q0 -178 -164 -348q-7 -6 -14.5 0.5t-2.5 14.5 q48 63 65 122t17 132q0 57 -16 94q-15 -6 -35 -6q-41 0 -64.5 23.5t-23.5 62.5q0 88 102 88z" />
<glyph unicode="&#x2022;" horiz-adv-x="632" d="M317 301q-87 0 -147.5 60t-60.5 147q0 84 61 144.5t147 60.5q84 0 144.5 -60.5t60.5 -144.5q0 -87 -60 -147t-145 -60z" />
<glyph unicode="&#x2026;" horiz-adv-x="1366" d="M205 -23q-43 0 -69.5 26.5t-26.5 70.5q0 41 26.5 65.5t69.5 24.5q45 0 69.5 -24t24.5 -66q0 -45 -24.5 -71t-69.5 -26zM684 -23q-43 0 -69.5 26.5t-26.5 70.5q0 41 26.5 65.5t69.5 24.5q45 0 69.5 -24t24.5 -66q0 -45 -24.5 -71t-69.5 -26zM1163 -23q-43 0 -69.5 26.5 t-26.5 70.5q0 41 26.5 65.5t69.5 24.5q45 0 69.5 -24t24.5 -66q0 -45 -24.5 -71t-69.5 -26z" />
<glyph unicode="&#x202f;" horiz-adv-x="335" />
<glyph unicode="&#x2039;" horiz-adv-x="622" d="M485 82l-366 305q-9 9 -9 23.5t9 23.5l366 305q2 3 6.5 2t7.5 -5t1 -7l-240 -317l240 -318q2 -7 -7 -13q-6 -3 -8 1z" />
<glyph unicode="&#x203a;" horiz-adv-x="622" d="M137 739l367 -305q9 -9 9 -23.5t-9 -23.5l-367 -305q-4 -7 -11 1q-5 6 -3 11l239 316l-239 319q-2 5 6 11q6 2 8 -1z" />
<glyph unicode="&#x205f;" horiz-adv-x="419" />
<glyph unicode="&#x20ac;" horiz-adv-x="1202" d="M102 516q-14 0 -14 23.5t14 23.5h95q29 184 185.5 302t377.5 118q198 0 301 -68q10 -6 14 -8t10 -7t7.5 -9t1.5 -10.5t-4 -14.5l-78 -180q-2 -2 -7.5 -2t-11 3.5t-4.5 8.5q18 69 -18.5 129t-106.5 93.5t-151 33.5q-146 0 -248.5 -110t-116.5 -279h610q13 0 5 -23 q-11 -23 -25 -24h-836zM1087 264q1 6 13 4t12 -8l-29 -192q-3 -18 -7 -24t-21 -13q-163 -56 -330 -56q-119 0 -214 33.5t-156.5 91t-99 124t-54.5 143.5h-97q-14 0 -14 23.5t14 23.5h799q14 0 4 -24q-9 -22 -22 -23h-523q35 -158 133.5 -260.5t249.5 -102.5q254 0 342 260z " />
<glyph unicode="&#x2122;" horiz-adv-x="1480" d="M582 1311q2 5 13 5t11 -5q-8 -172 -8 -187q0 -4 -11.5 -4t-11.5 4q0 73 -25.5 102t-84.5 29q-45 0 -59.5 -15t-14.5 -58v-379q0 -46 17.5 -60t78.5 -14q3 0 3 -12t-3 -12q-18 0 -68.5 1t-82.5 1q-28 0 -78.5 -1t-69.5 -1q-3 0 -3 12t3 12q59 0 78 14.5t19 59.5v381 q0 44 -14 57.5t-60 13.5q-61 0 -89.5 -28.5t-37.5 -102.5q0 -4 -12.5 -4t-12.5 4q13 72 13 181q0 6 12 6.5t12 -6.5q0 -23 56 -23q23 0 85.5 -1t98.5 -1q43 0 95 1t69 1q41 0 59.5 5t22.5 24zM1415 729q3 0 3 -12t-3 -12q-16 0 -61.5 1t-71.5 1q-31 0 -77.5 -1t-63.5 -1 q-3 0 -3 12t3 12q62 0 80.5 14.5t15.5 59.5l-12 371l-203 -459q-3 -6 -13.5 -6t-13.5 6l-223 432l-10 -316q-6 -102 67 -102q5 0 5 -12t-5 -12q-12 0 -42 1t-50 1q-18 0 -53 -1t-49 -1q-3 0 -3 12t3 12q45 0 67 24.5t23 77.5l12 375q-37 49 -90 49q-5 0 -5 12.5t5 12.5 q9 0 35 -2t33 -2q13 0 37.5 2t27.5 2q16 0 30.5 -13t33.5 -50l192 -383l183 413q4 14 15.5 23.5t22.5 9.5q1 0 24 -2t40 -2q21 0 48.5 2t39.5 2q3 0 3 -12.5t-3 -12.5q-50 0 -70.5 -16.5t-19.5 -67.5l12 -368q2 -45 17.5 -59.5t66.5 -14.5z" />
<glyph unicode="&#x25fc;" horiz-adv-x="788" d="M0 788h788v-788h-788v788z" />
</font>
</defs>
</svg>
